# Export of Cubik Model: Cubik Model
# Designed by Zhouyi with Cubik Studio - https://cubik.studio
# from Cubik OBJ Exporter v1.0
mtllib amphibius.mtl
v -9 14.5 1.5 1 1 1
v -7 14.5 1.5 1 1 1
v -7 14.5 5.5 1 1 1
v -9 14.5 5.5 1 1 1
v -7 17.5 1.5 1 1 1
v -9 17.5 1.5 1 1 1
v -9 17.5 5.5 1 1 1
v -7 17.5 5.5 1 1 1
v -7 17.5 5.5 1 1 1
v -9 17.5 5.5 1 1 1
v -9 14.5 5.5 1 1 1
v -7 14.5 5.5 1 1 1
v -9 17.5 1.5 1 1 1
v -7 17.5 1.5 1 1 1
v -7 14.5 1.5 1 1 1
v -9 14.5 1.5 1 1 1
v -7 17.5 1.5 1 1 1
v -7 17.5 5.5 1 1 1
v -7 14.5 5.5 1 1 1
v -7 14.5 1.5 1 1 1
v -9 17.5 5.5 1 1 1
v -9 17.5 1.5 1 1 1
v -9 14.5 1.5 1 1 1
v -9 14.5 5.5 1 1 1
vn 0 -1 0
vn 0 1 0
vn 0 0 1
vn 0 0 -1
vn 1 0 0
vn -1 0 0
vt 0.05078125 0.1953125
vt 0.04296875 0.1953125
vt 0.04296875 0.1796875
vt 0.05078125 0.1796875
vt 0.04296875 0.1640625
vt 0.05078125 0.1640625
vt 0.296875 0.2226563
vt 0.2890625 0.2226563
vt 0.2890625 0.2109375
vt 0.296875 0.2109375
vt 0.296875 0.1796875
vt 0.2890625 0.1796875
vt 0.2890625 0.1679688
vt 0.296875 0.1679688
vt 0.4804688 0.1484375
vt 0.4960938 0.1484375
vt 0.4960938 0.1367188
vt 0.4804688 0.1367188
v -10.5 14 -3.5 1 1 1
v -5.5 14 -3.5 1 1 1
v -5.5 14 5.5 1 1 1
v -10.5 14 5.5 1 1 1
v -5.5 17 -3.5 1 1 1
v -10.5 17 -3.5 1 1 1
v -10.5 17 5.5 1 1 1
v -5.5 17 5.5 1 1 1
v -5.5 17 5.5 1 1 1
v -10.5 17 5.5 1 1 1
v -10.5 14 5.5 1 1 1
v -5.5 14 5.5 1 1 1
v -10.5 17 -3.5 1 1 1
v -5.5 17 -3.5 1 1 1
v -5.5 14 -3.5 1 1 1
v -10.5 14 -3.5 1 1 1
v -5.5 17 -3.5 1 1 1
v -5.5 17 5.5 1 1 1
v -5.5 14 5.5 1 1 1
v -5.5 14 -3.5 1 1 1
v -10.5 17 5.5 1 1 1
v -10.5 17 -3.5 1 1 1
v -10.5 14 -3.5 1 1 1
v -10.5 14 5.5 1 1 1
vt 0.1132813 0.1289063
vt 0.09375 0.1289063
vt 0.09375 0.09375
vt 0.1132813 0.09375
vt 0.2539063 0.1210938
vt 0.2734375 0.1210938
vt 0.2734375 0.15625
vt 0.2539063 0.15625
vt 0.4492188 0.1484375
vt 0.4296875 0.1484375
vt 0.4296875 0.1367188
vt 0.4492188 0.1367188
vt 0.5 0.09765625
vt 0.4804688 0.09765625
vt 0.4804688 0.0859375
vt 0.5 0.0859375
vt 0.375 0.09765625
vt 0.4101563 0.09765625
vt 0.4101563 0.0859375
vt 0.375 0.0859375
v -11.5 12.5 -1 1 1 1
v -4.5 12.5 -1 1 1 1
v -4.5 12.5 5 1 1 1
v -11.5 12.5 5 1 1 1
v -4.5 16 -1 1 1 1
v -11.5 16 -1 1 1 1
v -11.5 16 5 1 1 1
v -4.5 16 5 1 1 1
v -4.5 16 5 1 1 1
v -11.5 16 5 1 1 1
v -11.5 12.5 5 1 1 1
v -4.5 12.5 5 1 1 1
v -11.5 16 -1 1 1 1
v -4.5 16 -1 1 1 1
v -4.5 12.5 -1 1 1 1
v -11.5 12.5 -1 1 1 1
v -4.5 16 -1 1 1 1
v -4.5 16 5 1 1 1
v -4.5 12.5 5 1 1 1
v -4.5 12.5 -1 1 1 1
v -11.5 16 5 1 1 1
v -11.5 16 -1 1 1 1
v -11.5 12.5 -1 1 1 1
v -11.5 12.5 5 1 1 1
vt 0.4179688 0.0546875
vt 0.390625 0.0546875
vt 0.390625 0.03125
vt 0.4179688 0.03125
vt 0.4453125 0.03125
vt 0.4453125 0.0546875
vt 0.1796875 0.25
vt 0.1523438 0.25
vt 0.1523438 0.2382813
vt 0.1796875 0.2382813
vt 0.4375 0.109375
vt 0.4101563 0.109375
vt 0.4375 0.09765625
vt 0.4609375 0.109375
vt 0.484375 0.109375
vt 0.484375 0.09765625
vt 0.4609375 0.09765625
v -11 16.5 5.5 1 1 1
v -5 16.5 5.5 1 1 1
v -5 16.5 8.5 1 1 1
v -11 16.5 8.5 1 1 1
v -5 17.5 5.5 1 1 1
v -11 17.5 5.5 1 1 1
v -11 17.5 8.5 1 1 1
v -5 17.5 8.5 1 1 1
v -5 17.5 8.5 1 1 1
v -11 17.5 8.5 1 1 1
v -11 16.5 8.5 1 1 1
v -5 16.5 8.5 1 1 1
v -11 17.5 5.5 1 1 1
v -5 17.5 5.5 1 1 1
v -5 16.5 5.5 1 1 1
v -11 16.5 5.5 1 1 1
v -5 17.5 5.5 1 1 1
v -5 17.5 8.5 1 1 1
v -5 16.5 8.5 1 1 1
v -5 16.5 5.5 1 1 1
v -11 17.5 8.5 1 1 1
v -11 17.5 5.5 1 1 1
v -11 16.5 5.5 1 1 1
v -11 16.5 8.5 1 1 1
vt 0.40625 0.1484375
vt 0.3828125 0.1484375
vt 0.3828125 0.1367188
vt 0.40625 0.1367188
vt 0.4882813 0.1679688
vt 0.4648438 0.1679688
vt 0.4648438 0.1640625
vt 0.4882813 0.1640625
vt 0.4335938 0.171875
vt 0.4101563 0.171875
vt 0.4101563 0.1679688
vt 0.4335938 0.1679688
vt 0.3945313 0.1992188
vt 0.40625 0.1992188
vt 0.40625 0.1953125
vt 0.3945313 0.1953125
v -5.734633 16.5 -0.3477592 1 1 1
v -4.348814 16.5 0.2262659 1 1 1
v -5.114181 16.5 2.074025 1 1 1
v -6.5 16.5 1.5 1 1 1
v -4.348814 18.5 0.2262659 1 1 1
v -5.734633 18.5 -0.3477592 1 1 1
v -6.5 18.5 1.5 1 1 1
v -5.114181 18.5 2.074025 1 1 1
v -5.114181 18.5 2.074025 1 1 1
v -6.5 18.5 1.5 1 1 1
v -6.5 16.5 1.5 1 1 1
v -5.114181 16.5 2.074025 1 1 1
v -5.734633 18.5 -0.3477592 1 1 1
v -4.348814 18.5 0.2262659 1 1 1
v -4.348814 16.5 0.2262659 1 1 1
v -5.734633 16.5 -0.3477592 1 1 1
v -4.348814 18.5 0.2262659 1 1 1
v -5.114181 18.5 2.074025 1 1 1
v -5.114181 16.5 2.074025 1 1 1
v -4.348814 16.5 0.2262659 1 1 1
v -6.5 18.5 1.5 1 1 1
v -5.734633 18.5 -0.3477592 1 1 1
v -5.734633 16.5 -0.3477592 1 1 1
v -6.5 16.5 1.5 1 1 1
vn -0.3826835 0 0.9238795
vn 0.3826835 0 -0.9238795
vn 0.9238795 0 0.3826835
vn -0.9238795 0 -0.3826835
vt 0.5 0.07421875
vt 0.4960938 0.07421875
vt 0.4960938 0.06640625
vt 0.5 0.06640625
vt 0.4179688 0.06640625
vt 0.421875 0.06640625
vt 0.421875 0.07421875
vt 0.4179688 0.07421875
vt 0.5 0.05078125
vt 0.4960938 0.05078125
vt 0.4960938 0.04296875
vt 0.5 0.04296875
vt 0.296875 0.25
vt 0.2929688 0.25
vt 0.2929688 0.2421875
vt 0.296875 0.2421875
vt 0.296875 0.2304688
vt 0.2890625 0.2304688
vt 0.375 0.07421875
vt 0.3671875 0.07421875
vt 0.3671875 0.06640625
vt 0.375 0.06640625
v -10.5 10.84977 -1.34169 1 1 1
v -5.5 10.84977 -1.34169 1 1 1
v -5.5 8.936349 3.277707 1 1 1
v -10.5 8.936349 3.277707 1 1 1
v -5.5 15.46916 0.5717273 1 1 1
v -10.5 15.46916 0.5717273 1 1 1
v -10.5 13.55575 5.191125 1 1 1
v -5.5 13.55575 5.191125 1 1 1
v -5.5 13.55575 5.191125 1 1 1
v -10.5 13.55575 5.191125 1 1 1
v -10.5 8.936349 3.277707 1 1 1
v -5.5 8.936349 3.277707 1 1 1
v -10.5 15.46916 0.5717273 1 1 1
v -5.5 15.46916 0.5717273 1 1 1
v -5.5 10.84977 -1.34169 1 1 1
v -10.5 10.84977 -1.34169 1 1 1
v -5.5 15.46916 0.5717273 1 1 1
v -5.5 13.55575 5.191125 1 1 1
v -5.5 8.936349 3.277707 1 1 1
v -5.5 10.84977 -1.34169 1 1 1
v -10.5 13.55575 5.191125 1 1 1
v -10.5 15.46916 0.5717273 1 1 1
v -10.5 10.84977 -1.34169 1 1 1
v -10.5 8.936349 3.277707 1 1 1
vn 0 -0.9238795 -0.3826835
vn 0 0.9238795 0.3826835
vn 0 -0.3826835 0.9238795
vn 0 0.3826835 -0.9238795
vt 0.359375 0.2265625
vt 0.3398438 0.2265625
vt 0.3398438 0.2070313
vt 0.359375 0.2070313
vt 0.3398438 0.1875
vt 0.359375 0.1875
vt 0.3398438 0.1679688
vt 0.359375 0.1679688
vt 0.3398438 0.1484375
vt 0.359375 0.1484375
vt 0.2734375 0.25
vt 0.2929688 0.2304688
vt 0.2734375 0.2304688
v -12.5 8.5 -5 1 1 1
v -3.5 8.5 -5 1 1 1
v -3.5 8.5 -2 1 1 1
v -12.5 8.5 -2 1 1 1
v -3.5 14.5 -5 1 1 1
v -12.5 14.5 -5 1 1 1
v -12.5 14.5 -2 1 1 1
v -3.5 14.5 -2 1 1 1
v -3.5 14.5 -2 1 1 1
v -12.5 14.5 -2 1 1 1
v -12.5 8.5 -2 1 1 1
v -3.5 8.5 -2 1 1 1
v -12.5 14.5 -5 1 1 1
v -3.5 14.5 -5 1 1 1
v -3.5 8.5 -5 1 1 1
v -12.5 8.5 -5 1 1 1
v -3.5 14.5 -5 1 1 1
v -3.5 14.5 -2 1 1 1
v -3.5 8.5 -2 1 1 1
v -3.5 8.5 -5 1 1 1
v -12.5 14.5 -2 1 1 1
v -12.5 14.5 -5 1 1 1
v -12.5 8.5 -5 1 1 1
v -12.5 8.5 -2 1 1 1
vt 0.375 0.109375
vt 0.3398438 0.109375
vt 0.3398438 0.09765625
vt 0.40625 0.0234375
vt 0.3710938 0.0234375
vt 0.3710938 0
vt 0.40625 0
vt 0.3359375 0.0234375
vt 0.3359375 0
vt 0.3828125 0.171875
vt 0.3945313 0.171875
vt 0.3945313 0.1484375
v -11.65119 16.5 0.226266 1 1 1
v -10.26537 16.5 -0.3477591 1 1 1
v -9.5 16.5 1.5 1 1 1
v -10.88582 16.5 2.074025 1 1 1
v -10.26537 18.5 -0.3477591 1 1 1
v -11.65119 18.5 0.226266 1 1 1
v -10.88582 18.5 2.074025 1 1 1
v -9.5 18.5 1.5 1 1 1
v -9.5 18.5 1.5 1 1 1
v -10.88582 18.5 2.074025 1 1 1
v -10.88582 16.5 2.074025 1 1 1
v -9.5 16.5 1.5 1 1 1
v -11.65119 18.5 0.226266 1 1 1
v -10.26537 18.5 -0.3477591 1 1 1
v -10.26537 16.5 -0.3477591 1 1 1
v -11.65119 16.5 0.226266 1 1 1
v -10.26537 18.5 -0.3477591 1 1 1
v -9.5 18.5 1.5 1 1 1
v -9.5 16.5 1.5 1 1 1
v -10.26537 16.5 -0.3477591 1 1 1
v -10.88582 18.5 2.074025 1 1 1
v -11.65119 18.5 0.226266 1 1 1
v -11.65119 16.5 0.226266 1 1 1
v -10.88582 16.5 2.074025 1 1 1
vn 0.3826834 0 0.9238796
vn -0.3826834 0 -0.9238796
vn 0.9238796 0 -0.3826834
vn -0.9238796 0 0.3826834
vt 0.2226563 0.25
vt 0.21875 0.25
vt 0.21875 0.2421875
vt 0.2226563 0.2421875
vt 0.3945313 0.2109375
vt 0.3984375 0.2109375
vt 0.3984375 0.21875
vt 0.3945313 0.21875
vt 0.4101563 0.1875
vt 0.40625 0.1875
vt 0.40625 0.1796875
vt 0.4101563 0.1796875
vt 0.4023438 0.21875
vt 0.4023438 0.2109375
vt 0.4101563 0.07421875
vt 0.4101563 0.06640625
vt 0.296875 0.1992188
vt 0.2890625 0.1992188
vt 0.2890625 0.1914063
vt 0.296875 0.1914063
v -5.999999 18 -3 1 1 1
v -4.939339 16.93934 -3 1 1 1
v -4.939339 16.93934 -2 1 1 1
v -5.999999 18 -2 1 1 1
v -3.525125 18.35355 -3 1 1 1
v -4.585785 19.41422 -3 1 1 1
v -4.585785 19.41422 -2 1 1 1
v -3.525125 18.35355 -2 1 1 1
v -3.525125 18.35355 -2 1 1 1
v -4.585785 19.41422 -2 1 1 1
v -5.999999 18 -2 1 1 1
v -4.939339 16.93934 -2 1 1 1
v -4.585785 19.41422 -3 1 1 1
v -3.525125 18.35355 -3 1 1 1
v -4.939339 16.93934 -3 1 1 1
v -5.999999 18 -3 1 1 1
v -3.525125 18.35355 -3 1 1 1
v -3.525125 18.35355 -2 1 1 1
v -4.939339 16.93934 -2 1 1 1
v -4.939339 16.93934 -3 1 1 1
v -4.585785 19.41422 -2 1 1 1
v -4.585785 19.41422 -3 1 1 1
v -5.999999 18 -3 1 1 1
v -5.999999 18 -2 1 1 1
vn -0.7071068 -0.7071067 0
vn 0.7071068 0.7071067 0
vn 0.7071067 -0.7071068 0
vn -0.7071067 0.7071068 0
vt 0.328125 0.2226563
vt 0.3242188 0.2226563
vt 0.3242188 0.21875
vt 0.328125 0.21875
vt 0.4882813 0.0703125
vt 0.4921875 0.0703125
vt 0.4921875 0.07421875
vt 0.4882813 0.07421875
vt 0.5 0.1445313
vt 0.4960938 0.1445313
vt 0.5 0.1367188
vt 0.359375 0.2421875
vt 0.3554688 0.2421875
vt 0.3554688 0.234375
vt 0.359375 0.234375
vt 0.3554688 0.2265625
vt 0.4921875 0.06640625
v -12 12.5 5 1 1 1
v -4 12.5 5 1 1 1
v -4 12.5 9 1 1 1
v -12 12.5 9 1 1 1
v -4 16.5 5 1 1 1
v -12 16.5 5 1 1 1
v -12 16.5 9 1 1 1
v -4 16.5 9 1 1 1
v -4 16.5 9 1 1 1
v -12 16.5 9 1 1 1
v -12 12.5 9 1 1 1
v -4 12.5 9 1 1 1
v -12 16.5 5 1 1 1
v -4 16.5 5 1 1 1
v -4 12.5 5 1 1 1
v -12 12.5 5 1 1 1
v -4 16.5 5 1 1 1
v -4 16.5 9 1 1 1
v -4 12.5 9 1 1 1
v -4 12.5 5 1 1 1
v -12 16.5 9 1 1 1
v -12 16.5 5 1 1 1
v -12 12.5 5 1 1 1
v -12 12.5 9 1 1 1
vt 0.328125 0.1015625
vt 0.296875 0.1015625
vt 0.296875 0.0859375
vt 0.328125 0.0859375
vt 0.328125 0.1171875
vt 0.296875 0.1171875
vt 0.328125 0.1328125
vt 0.296875 0.1328125
vt 0.328125 0.1796875
vt 0.296875 0.1640625
vt 0.328125 0.1640625
vt 0.3945313 0.1640625
vt 0.4101563 0.1640625
vt 0.4101563 0.1484375
v -11.06066 16.93934 -3 1 1 1
v -10 18 -3 1 1 1
v -10 18 -2 1 1 1
v -11.06066 16.93934 -2 1 1 1
v -11.41421 19.41421 -3 1 1 1
v -12.47487 18.35355 -3 1 1 1
v -12.47487 18.35355 -2 1 1 1
v -11.41421 19.41421 -2 1 1 1
v -11.41421 19.41421 -2 1 1 1
v -12.47487 18.35355 -2 1 1 1
v -11.06066 16.93934 -2 1 1 1
v -10 18 -2 1 1 1
v -12.47487 18.35355 -3 1 1 1
v -11.41421 19.41421 -3 1 1 1
v -10 18 -3 1 1 1
v -11.06066 16.93934 -3 1 1 1
v -11.41421 19.41421 -3 1 1 1
v -11.41421 19.41421 -2 1 1 1
v -10 18 -2 1 1 1
v -10 18 -3 1 1 1
v -12.47487 18.35355 -2 1 1 1
v -12.47487 18.35355 -3 1 1 1
v -11.06066 16.93934 -3 1 1 1
v -11.06066 16.93934 -2 1 1 1
vn 0.7071068 -0.7071067 0
vn -0.7071068 0.7071067 0
vn 0.7071067 0.7071068 0
vn -0.7071067 -0.7071068 0
vt 0.359375 0.2460938
vt 0.3554688 0.2460938
vt 0.3945313 0.2226563
vt 0.3984375 0.2226563
vt 0.3984375 0.2265625
vt 0.3945313 0.2265625
vt 0.1796875 0.1328125
vt 0.1757813 0.1328125
vt 0.1757813 0.125
vt 0.1796875 0.125
vt 0.328125 0.2382813
vt 0.3242188 0.2382813
vt 0.3242188 0.2304688
vt 0.328125 0.2304688
vt 0.40625 0.21875
vt 0.40625 0.2109375
v -11 9 -6.5 1 1 1
v -5 9 -6.5 1 1 1
v -5 9 1.5 1 1 1
v -11 9 1.5 1 1 1
v -5 18 -6.5 1 1 1
v -11 18 -6.5 1 1 1
v -11 18 1.5 1 1 1
v -5 18 1.5 1 1 1
v -5 18 1.5 1 1 1
v -11 18 1.5 1 1 1
v -11 9 1.5 1 1 1
v -5 9 1.5 1 1 1
v -11 18 -6.5 1 1 1
v -5 18 -6.5 1 1 1
v -5 9 -6.5 1 1 1
v -11 9 -6.5 1 1 1
v -5 18 -6.5 1 1 1
v -5 18 1.5 1 1 1
v -5 9 1.5 1 1 1
v -5 9 -6.5 1 1 1
v -11 18 1.5 1 1 1
v -11 18 -6.5 1 1 1
v -11 9 -6.5 1 1 1
v -11 9 1.5 1 1 1
vt 0.484375 0.03125
vt 0.4609375 0.03125
vt 0.4609375 0
vt 0.484375 0
vt 0.4375 0
vt 0.4375 0.03125
vt 0.296875 0.06640625
vt 0.2734375 0.06640625
vt 0.2734375 0.03125
vt 0.296875 0.03125
vt 0.1757813 0.2382813
vt 0.1523438 0.203125
vt 0.1757813 0.203125
vt 0.2226563 0.15625
vt 0.2226563 0.1210938
v -12 9.5 -3 1 1 1
v -4 9.5 -3 1 1 1
v -4 9.5 3 1 1 1
v -12 9.5 3 1 1 1
v -4 15.5 -3 1 1 1
v -12 15.5 -3 1 1 1
v -12 15.5 3 1 1 1
v -4 15.5 3 1 1 1
v -4 15.5 3 1 1 1
v -12 15.5 3 1 1 1
v -12 9.5 3 1 1 1
v -4 9.5 3 1 1 1
v -12 15.5 -3 1 1 1
v -4 15.5 -3 1 1 1
v -4 9.5 -3 1 1 1
v -12 9.5 -3 1 1 1
v -4 15.5 -3 1 1 1
v -4 15.5 3 1 1 1
v -4 9.5 3 1 1 1
v -4 9.5 -3 1 1 1
v -12 15.5 3 1 1 1
v -12 15.5 -3 1 1 1
v -12 9.5 -3 1 1 1
v -12 9.5 3 1 1 1
vt 0.328125 0.0546875
vt 0.296875 0.0546875
vt 0.328125 0.03125
vt 0.4375 0.0234375
vt 0.359375 0.0546875
vt 0.359375 0.03125
vt 0.2734375 0.1132813
vt 0.296875 0.1132813
vt 0.296875 0.08984375
vt 0.2734375 0.08984375
g Element #19
usemtl Element
f 1/1/1 2/2/1 4/4/1
f 2/2/1 3/3/1 4/4/1
f 5/5/2 6/6/2 8/3/2
f 6/6/2 7/4/2 8/3/2
f 9/7/3 10/8/3 12/10/3
f 10/8/3 11/9/3 12/10/3
f 13/11/4 14/12/4 16/14/4
f 14/12/4 15/13/4 16/14/4
f 17/15/5 18/16/5 20/18/5
f 18/16/5 19/17/5 20/18/5
f 21/16/6 22/15/6 24/17/6
f 22/15/6 23/18/6 24/17/6
g Element #20
usemtl Element
f 25/19/1 26/20/1 28/22/1
f 26/20/1 27/21/1 28/22/1
f 29/23/2 30/24/2 32/26/2
f 30/24/2 31/25/2 32/26/2
f 33/27/3 34/28/3 36/30/3
f 34/28/3 35/29/3 36/30/3
f 37/31/4 38/32/4 40/34/4
f 38/32/4 39/33/4 40/34/4
f 41/35/5 42/36/5 44/38/5
f 42/36/5 43/37/5 44/38/5
f 45/36/6 46/35/6 48/37/6
f 46/35/6 47/38/6 48/37/6
g Element #21
usemtl Element
f 49/39/1 50/40/1 52/42/1
f 50/40/1 51/41/1 52/42/1
f 53/42/2 54/43/2 56/39/2
f 54/43/2 55/44/2 56/39/2
f 57/45/3 58/46/3 60/48/3
f 58/46/3 59/47/3 60/48/3
f 61/49/4 62/50/4 64/51/4
f 62/50/4 63/36/4 64/51/4
f 65/52/5 66/53/5 68/55/5
f 66/53/5 67/54/5 68/55/5
f 69/53/6 70/52/6 72/54/6
f 70/52/6 71/55/6 72/54/6
g Element #22
usemtl Element
f 73/56/1 74/57/1 76/59/1
f 74/57/1 75/58/1 76/59/1
f 77/59/2 78/29/2 80/56/2
f 78/29/2 79/28/2 80/56/2
f 81/60/3 82/61/3 84/63/3
f 82/61/3 83/62/3 84/63/3
f 85/64/4 86/65/4 88/67/4
f 86/65/4 87/66/4 88/67/4
f 89/68/5 90/69/5 92/71/5
f 90/69/5 91/70/5 92/71/5
f 93/69/6 94/68/6 96/70/6
f 94/68/6 95/71/6 96/70/6
g Element #23
usemtl Element
f 97/72/1 98/73/1 100/75/1
f 98/73/1 99/74/1 100/75/1
f 101/76/2 102/77/2 104/79/2
f 102/77/2 103/78/2 104/79/2
f 105/80/7 106/81/7 108/83/7
f 106/81/7 107/82/7 108/83/7
f 109/84/8 110/85/8 112/87/8
f 110/85/8 111/86/8 112/87/8
f 113/88/9 114/89/9 116/7/9
f 114/89/9 115/8/9 116/7/9
f 117/90/10 118/91/10 120/93/10
f 118/91/10 119/92/10 120/93/10
g Element #24
usemtl Element
f 121/94/11 122/95/11 124/97/11
f 122/95/11 123/96/11 124/97/11
f 125/98/12 126/99/12 128/96/12
f 126/99/12 127/97/12 128/96/12
f 129/99/13 130/98/13 132/101/13
f 130/98/13 131/100/13 132/101/13
f 133/101/14 134/100/14 136/103/14
f 134/100/14 135/102/14 136/103/14
f 137/104/5 138/85/5 140/106/5
f 138/85/5 139/105/5 140/106/5
f 141/85/6 142/104/6 144/105/6
f 142/104/6 143/106/6 144/105/6
g Element #26
usemtl Element
f 145/107/1 146/108/1 148/35/1
f 146/108/1 147/109/1 148/35/1
f 149/35/2 150/36/2 152/107/2
f 150/36/2 151/50/2 152/107/2
f 153/110/3 154/111/3 156/113/3
f 154/111/3 155/112/3 156/113/3
f 157/111/4 158/114/4 160/112/4
f 158/114/4 159/115/4 160/112/4
f 161/116/5 162/117/5 164/57/5
f 162/117/5 163/118/5 164/57/5
f 165/117/6 166/116/6 168/118/6
f 166/116/6 167/57/6 168/118/6
g Element #27
usemtl Element
f 169/119/1 170/120/1 172/122/1
f 170/120/1 171/121/1 172/122/1
f 173/123/2 174/124/2 176/126/2
f 174/124/2 175/125/2 176/126/2
f 177/127/15 178/128/15 180/130/15
f 178/128/15 179/129/15 180/130/15
f 181/131/16 182/125/16 184/132/16
f 182/125/16 183/124/16 184/132/16
f 185/79/17 186/133/17 188/76/17
f 186/133/17 187/134/17 188/76/17
f 189/135/18 190/136/18 192/138/18
f 190/136/18 191/137/18 192/138/18
g Element #28
usemtl Element
f 193/139/19 194/140/19 196/142/19
f 194/140/19 195/141/19 196/142/19
f 197/143/20 198/144/20 200/146/20
f 198/144/20 199/145/20 200/146/20
f 201/147/3 202/148/3 204/149/3
f 202/148/3 203/17/3 204/149/3
f 205/150/4 206/151/4 208/153/4
f 206/151/4 207/152/4 208/153/4
f 209/153/21 210/152/21 212/94/21
f 210/152/21 211/154/21 212/94/21
f 213/73/22 214/145/22 216/74/22
f 214/145/22 215/155/22 216/74/22
g Element #29
usemtl Element
f 217/156/1 218/157/1 220/159/1
f 218/157/1 219/158/1 220/159/1
f 221/157/2 222/156/2 224/161/2
f 222/156/2 223/160/2 224/161/2
f 225/162/3 226/163/3 228/160/3
f 226/163/3 227/161/3 228/160/3
f 229/164/4 230/11/4 232/166/4
f 230/11/4 231/165/4 232/166/4
f 233/167/5 234/168/5 236/118/5
f 234/168/5 235/169/5 236/118/5
f 237/168/6 238/167/6 240/169/6
f 238/167/6 239/118/6 240/169/6
g Element #31
usemtl Element
f 241/170/23 242/171/23 244/150/23
f 242/171/23 243/151/23 244/150/23
f 245/172/24 246/173/24 248/175/24
f 246/173/24 247/174/24 248/175/24
f 249/176/3 250/177/3 252/179/3
f 250/177/3 251/178/3 252/179/3
f 253/180/4 254/181/4 256/183/4
f 254/181/4 255/182/4 256/183/4
f 257/183/25 258/182/25 260/139/25
f 258/182/25 259/140/25 260/139/25
f 261/184/26 262/131/26 264/185/26
f 262/131/26 263/132/26 264/185/26
g Element #32
usemtl Element
f 265/186/1 266/187/1 268/189/1
f 266/187/1 267/188/1 268/189/1
f 269/190/2 270/188/2 272/191/2
f 270/188/2 271/187/2 272/191/2
f 273/192/3 274/193/3 276/195/3
f 274/193/3 275/194/3 276/195/3
f 277/196/4 278/47/4 280/198/4
f 278/47/4 279/197/4 280/198/4
f 281/199/5 282/26/5 284/200/5
f 282/26/5 283/23/5 284/200/5
f 285/26/6 286/199/6 288/23/6
f 286/199/6 287/200/6 288/23/6
g Element #39
usemtl Element
f 289/201/1 290/202/1 292/203/1
f 290/202/1 291/195/1 292/203/1
f 293/113/2 294/190/2 296/110/2
f 294/190/2 295/204/2 296/110/2
f 297/40/3 298/205/3 300/41/3
f 298/205/3 299/206/3 300/41/3
f 301/205/4 302/201/4 304/206/4
f 302/201/4 303/203/4 304/206/4
f 305/207/5 306/208/5 308/210/5
f 306/208/5 307/209/5 308/210/5
f 309/208/6 310/207/6 312/209/6
f 310/207/6 311/210/6 312/209/6
