# Export of Cubik Model: Cubik Model
# Designed by Zhouyi with Cubik Studio - https://cubik.studio
# from Cubik OBJ Exporter v1.0
mtllib amphibius.mtl
v -6 8.935491 5.89317 1 1 1
v -5 8.935491 5.89317 1 1 1
v -5 8.552807 6.81705 1 1 1
v -6 8.552807 6.81705 1 1 1
v -5 11.70713 7.041221 1 1 1
v -6 11.70713 7.041221 1 1 1
v -6 11.32445 7.9651 1 1 1
v -5 11.32445 7.9651 1 1 1
v -5 11.32445 7.9651 1 1 1
v -6 11.32445 7.9651 1 1 1
v -6 8.552807 6.81705 1 1 1
v -5 8.552807 6.81705 1 1 1
v -6 11.70713 7.041221 1 1 1
v -5 11.70713 7.041221 1 1 1
v -5 8.935491 5.89317 1 1 1
v -6 8.935491 5.89317 1 1 1
v -5 11.70713 7.041221 1 1 1
v -5 11.32445 7.9651 1 1 1
v -5 8.552807 6.81705 1 1 1
v -5 8.935491 5.89317 1 1 1
v -6 11.32445 7.9651 1 1 1
v -6 11.70713 7.041221 1 1 1
v -6 8.935491 5.89317 1 1 1
v -6 8.552807 6.81705 1 1 1
vn 0 -0.9238795 -0.3826835
vn 0 0.9238795 0.3826835
vn 0 -0.3826835 0.9238795
vn 0 0.3826835 -0.9238795
vn 1 0 0
vn -1 0 0
vt 0.4101563 0.1914063
vt 0.40625 0.1914063
vt 0.40625 0.1875
vt 0.4101563 0.1875
vt 0.4960938 0.1445313
vt 0.5 0.1445313
vt 0.5 0.1484375
vt 0.4960938 0.1484375
vt 0.296875 0.1640625
vt 0.2929688 0.1640625
vt 0.2929688 0.1523438
vt 0.296875 0.1523438
vt 0.296875 0.140625
vt 0.2929688 0.140625
vt 0.2929688 0.1289063
vt 0.296875 0.1289063
vt 0.2734375 0.08984375
vt 0.2695313 0.08984375
vt 0.2695313 0.078125
vt 0.2734375 0.078125
vt 0.1796875 0.2382813
vt 0.1757813 0.2382813
vt 0.1757813 0.2265625
vt 0.1796875 0.2265625
v -11.5 9.621547 2.930192 1 1 1
v -4.5 9.621547 2.930192 1 1 1
v -4.5 7.899471 7.087649 1 1 1
v -11.5 7.899471 7.087649 1 1 1
v -4.5 10.54543 3.312875 1 1 1
v -11.5 10.54543 3.312875 1 1 1
v -11.5 8.82335 7.470333 1 1 1
v -4.5 8.82335 7.470333 1 1 1
v -4.5 8.82335 7.470333 1 1 1
v -11.5 8.82335 7.470333 1 1 1
v -11.5 7.899471 7.087649 1 1 1
v -4.5 7.899471 7.087649 1 1 1
v -11.5 10.54543 3.312875 1 1 1
v -4.5 10.54543 3.312875 1 1 1
v -4.5 9.621547 2.930192 1 1 1
v -11.5 9.621547 2.930192 1 1 1
v -4.5 10.54543 3.312875 1 1 1
v -4.5 8.82335 7.470333 1 1 1
v -4.5 7.899471 7.087649 1 1 1
v -4.5 9.621547 2.930192 1 1 1
v -11.5 8.82335 7.470333 1 1 1
v -11.5 10.54543 3.312875 1 1 1
v -11.5 9.621547 2.930192 1 1 1
v -11.5 7.899471 7.087649 1 1 1
vt 0.3242188 0.2226563
vt 0.296875 0.2226563
vt 0.296875 0.2070313
vt 0.3242188 0.2070313
vt 0.3242188 0.2382813
vt 0.296875 0.2382813
vt 0.5 0.1601563
vt 0.4726563 0.1601563
vt 0.4726563 0.15625
vt 0.5 0.15625
vt 0.5 0.1640625
vt 0.4726563 0.1640625
vt 0.3945313 0.1953125
vt 0.4101563 0.1953125
vt 0.3945313 0.1914063
v -11 8.935407 5.893123 1 1 1
v -10 8.935407 5.893123 1 1 1
v -10 8.552723 6.817002 1 1 1
v -11 8.552723 6.817002 1 1 1
v -10 11.70704 7.041173 1 1 1
v -11 11.70704 7.041173 1 1 1
v -11 11.32436 7.965053 1 1 1
v -10 11.32436 7.965053 1 1 1
v -10 11.32436 7.965053 1 1 1
v -11 11.32436 7.965053 1 1 1
v -11 8.552723 6.817002 1 1 1
v -10 8.552723 6.817002 1 1 1
v -11 11.70704 7.041173 1 1 1
v -10 11.70704 7.041173 1 1 1
v -10 8.935407 5.893123 1 1 1
v -11 8.935407 5.893123 1 1 1
v -10 11.70704 7.041173 1 1 1
v -10 11.32436 7.965053 1 1 1
v -10 8.552723 6.817002 1 1 1
v -10 8.935407 5.893123 1 1 1
v -11 11.32436 7.965053 1 1 1
v -11 11.70704 7.041173 1 1 1
v -11 8.935407 5.893123 1 1 1
v -11 8.552723 6.817002 1 1 1
vt 0.4101563 0.203125
vt 0.40625 0.203125
vt 0.40625 0.1992188
vt 0.4101563 0.1992188
vt 0.4101563 0.2070313
vt 0.40625 0.2070313
vt 0.5 0.04296875
vt 0.4960938 0.04296875
vt 0.4960938 0.03125
vt 0.5 0.03125
vt 0.4960938 0.06640625
vt 0.4921875 0.06640625
vt 0.4921875 0.0546875
vt 0.4960938 0.0546875
vt 0.5 0.06640625
vt 0.5 0.0546875
g Element #11
usemtl Element
f 1/1/1 2/2/1 4/4/1
f 2/2/1 3/3/1 4/4/1
f 5/5/2 6/6/2 8/8/2
f 6/6/2 7/7/2 8/8/2
f 9/9/3 10/10/3 12/12/3
f 10/10/3 11/11/3 12/12/3
f 13/13/4 14/14/4 16/16/4
f 14/14/4 15/15/4 16/16/4
f 17/17/5 18/18/5 20/20/5
f 18/18/5 19/19/5 20/20/5
f 21/21/6 22/22/6 24/24/6
f 22/22/6 23/23/6 24/24/6
g Element #15
usemtl Element
f 25/25/1 26/26/1 28/28/1
f 26/26/1 27/27/1 28/28/1
f 29/26/2 30/25/2 32/30/2
f 30/25/2 31/29/2 32/30/2
f 33/31/3 34/32/3 36/34/3
f 34/32/3 35/33/3 36/34/3
f 37/35/4 38/36/4 40/31/4
f 38/36/4 39/32/4 40/31/4
f 41/37/5 42/38/5 44/39/5
f 42/38/5 43/1/5 44/39/5
f 45/38/6 46/37/6 48/1/6
f 46/37/6 47/39/6 48/1/6
g Element #16
usemtl Element
f 49/40/1 50/41/1 52/43/1
f 50/41/1 51/42/1 52/43/1
f 53/41/2 54/40/2 56/45/2
f 54/40/2 55/44/2 56/45/2
f 57/46/3 58/47/3 60/49/3
f 58/47/3 59/48/3 60/49/3
f 61/50/4 62/51/4 64/53/4
f 62/51/4 63/52/4 64/53/4
f 65/12/5 66/11/5 68/13/5
f 66/11/5 67/14/5 68/13/5
f 69/54/6 70/50/6 72/55/6
f 70/50/6 71/53/6 72/55/6
