# Export of Cubik Model: Cubik Model
# Designed by Zhouyi with Cubik Studio - https://cubik.studio
# from Cubik OBJ Exporter v1.0
mtllib amphibius.mtl
v -5.5 0 -28.5 1 1 1
v -2.5 0 -28.5 1 1 1
v -2.5 0 -25.5 1 1 1
v -5.5 0 -25.5 1 1 1
v -2.5 7 -28.5 1 1 1
v -5.5 7 -28.5 1 1 1
v -5.5 7 -25.5 1 1 1
v -2.5 7 -25.5 1 1 1
v -2.5 7 -25.5 1 1 1
v -5.5 7 -25.5 1 1 1
v -5.5 0 -25.5 1 1 1
v -2.5 0 -25.5 1 1 1
v -5.5 7 -28.5 1 1 1
v -2.5 7 -28.5 1 1 1
v -2.5 0 -28.5 1 1 1
v -5.5 0 -28.5 1 1 1
v -2.5 7 -28.5 1 1 1
v -2.5 7 -25.5 1 1 1
v -2.5 0 -25.5 1 1 1
v -2.5 0 -28.5 1 1 1
v -5.5 7 -25.5 1 1 1
v -5.5 7 -28.5 1 1 1
v -5.5 0 -28.5 1 1 1
v -5.5 0 -25.5 1 1 1
vn 0 -1 0
vn 0 1 0
vn 0 0 1
vn 0 0 -1
vn 1 0 0
vn -1 0 0
vt 0.3828125 0.1953125
vt 0.3945313 0.1953125
vt 0.3945313 0.1835938
vt 0.3828125 0.1835938
vt 0.0390625 0.234375
vt 0.05078125 0.234375
vt 0.05078125 0.2460938
vt 0.0390625 0.2460938
vt 0.359375 0.21875
vt 0.3710938 0.21875
vt 0.3710938 0.1914063
vt 0.359375 0.1914063
vt 0.3710938 0.1640625
vt 0.359375 0.1640625
vt 0.359375 0.1367188
vt 0.3710938 0.1367188
vt 0.3710938 0.109375
vt 0.359375 0.109375
v -5.5 0 -25.5 1 1 1
v -2.5 0 -25.5 1 1 1
v -2.5 0 -24.5 1 1 1
v -5.5 0 -24.5 1 1 1
v -2.5 1 -25.5 1 1 1
v -5.5 1 -25.5 1 1 1
v -5.5 1 -24.5 1 1 1
v -2.5 1 -24.5 1 1 1
v -2.5 1 -24.5 1 1 1
v -5.5 1 -24.5 1 1 1
v -5.5 0 -24.5 1 1 1
v -2.5 0 -24.5 1 1 1
v -5.5 1 -25.5 1 1 1
v -2.5 1 -25.5 1 1 1
v -2.5 0 -25.5 1 1 1
v -5.5 0 -25.5 1 1 1
v -2.5 1 -25.5 1 1 1
v -2.5 1 -24.5 1 1 1
v -2.5 0 -24.5 1 1 1
v -2.5 0 -25.5 1 1 1
v -5.5 1 -24.5 1 1 1
v -5.5 1 -25.5 1 1 1
v -5.5 0 -25.5 1 1 1
v -5.5 0 -24.5 1 1 1
vt 0.0390625 0.25
vt 0.05078125 0.25
vt 0.3710938 0.2460938
vt 0.359375 0.2460938
vt 0.359375 0.25
vt 0.3710938 0.25
vt 0.3945313 0.2070313
vt 0.40625 0.2070313
vt 0.40625 0.203125
vt 0.3945313 0.203125
vt 0.40625 0.2109375
vt 0.3945313 0.2109375
vt 0.4101563 0.2265625
vt 0.40625 0.2265625
vt 0.40625 0.2226563
vt 0.4101563 0.2226563
vt 0.3984375 0.2304688
vt 0.3945313 0.2304688
vt 0.3945313 0.2265625
vt 0.3984375 0.2265625
g Element #2
usemtl Element
f 1/1/1 2/2/1 4/4/1
f 2/2/1 3/3/1 4/4/1
f 5/5/2 6/6/2 8/8/2
f 6/6/2 7/7/2 8/8/2
f 9/9/3 10/10/3 12/12/3
f 10/10/3 11/11/3 12/12/3
f 13/12/4 14/11/4 16/14/4
f 14/11/4 15/13/4 16/14/4
f 17/15/5 18/16/5 20/18/5
f 18/16/5 19/17/5 20/18/5
f 21/14/6 22/13/6 24/15/6
f 22/13/6 23/16/6 24/15/6
g Element #3
usemtl Element
f 25/19/1 26/20/1 28/8/1
f 26/20/1 27/7/1 28/8/1
f 29/21/2 30/22/2 32/24/2
f 30/22/2 31/23/2 32/24/2
f 33/25/3 34/26/3 36/28/3
f 34/26/3 35/27/3 36/28/3
f 37/29/4 38/30/4 40/26/4
f 38/30/4 39/25/4 40/26/4
f 41/31/5 42/32/5 44/34/5
f 42/32/5 43/33/5 44/34/5
f 45/35/6 46/36/6 48/38/6
f 46/36/6 47/37/6 48/38/6
