# Export of Cubik Model: Cubik Model
# Designed by Zhouyi with Cubik Studio - https://cubik.studio
# from Cubik OBJ Exporter v1.0
mtllib cheetah.mtl
v -0.5 21.62132 19.62868 1 1 1
v 0.5 21.62132 19.62868 1 1 1
v 0.5 19.5 21.75 1 1 1
v -0.5 19.5 21.75 1 1 1
v 0.5 23.03553 21.04289 1 1 1
v -0.5 23.03553 21.04289 1 1 1
v -0.5 20.91421 23.16421 1 1 1
v 0.5 20.91421 23.16421 1 1 1
v 0.5 20.91421 23.16421 1 1 1
v -0.5 20.91421 23.16421 1 1 1
v -0.5 19.5 21.75 1 1 1
v 0.5 19.5 21.75 1 1 1
v -0.5 23.03553 21.04289 1 1 1
v 0.5 23.03553 21.04289 1 1 1
v 0.5 21.62132 19.62868 1 1 1
v -0.5 21.62132 19.62868 1 1 1
v 0.5 23.03553 21.04289 1 1 1
v 0.5 20.91421 23.16421 1 1 1
v 0.5 19.5 21.75 1 1 1
v 0.5 21.62132 19.62868 1 1 1
v -0.5 20.91421 23.16421 1 1 1
v -0.5 23.03553 21.04289 1 1 1
v -0.5 21.62132 19.62868 1 1 1
v -0.5 19.5 21.75 1 1 1
vn 0 -0.7071067 -0.7071068
vn 0 0.7071067 0.7071068
vn 0 -0.7071068 0.7071067
vn 0 0.7071068 -0.7071067
vn 1 0 0
vn -1 0 0
vt 0.09375 0.0859375
vt 0.08984375 0.0859375
vt 0.08984375 0.07421875
vt 0.09375 0.07421875
vt 0.0703125 0.07421875
vt 0.07421875 0.07421875
vt 0.07421875 0.0859375
vt 0.0703125 0.0859375
vt 0.25 0.05078125
vt 0.2460938 0.05078125
vt 0.2460938 0.04296875
vt 0.25 0.04296875
vt 0.2460938 0.03515625
vt 0.25 0.03515625
vt 0.1875 0.171875
vt 0.1757813 0.171875
vt 0.1757813 0.1640625
vt 0.1875 0.1640625
vt 0.1875 0.1796875
vt 0.1757813 0.1796875
v 1.775126 22.5 17.06066 1 1 1
v 3.542893 22.5 15.29289 1 1 1
v 4.25 22.5 16 1 1 1
v 2.482233 22.5 17.76777 1 1 1
v 3.542893 24.5 15.29289 1 1 1
v 1.775126 24.5 17.06066 1 1 1
v 2.482233 24.5 17.76777 1 1 1
v 4.25 24.5 16 1 1 1
v 4.25 24.5 16 1 1 1
v 2.482233 24.5 17.76777 1 1 1
v 2.482233 22.5 17.76777 1 1 1
v 4.25 22.5 16 1 1 1
v 1.775126 24.5 17.06066 1 1 1
v 3.542893 24.5 15.29289 1 1 1
v 3.542893 22.5 15.29289 1 1 1
v 1.775126 22.5 17.06066 1 1 1
v 3.542893 24.5 15.29289 1 1 1
v 4.25 24.5 16 1 1 1
v 4.25 22.5 16 1 1 1
v 3.542893 22.5 15.29289 1 1 1
v 2.482233 24.5 17.76777 1 1 1
v 1.775126 24.5 17.06066 1 1 1
v 1.775126 22.5 17.06066 1 1 1
v 2.482233 22.5 17.76777 1 1 1
vn 0 -1 0
vn 0 1 0
vn 0.7071068 0 0.7071067
vn -0.7071068 0 -0.7071067
vn 0.7071067 0 -0.7071068
vn -0.7071067 0 0.7071068
vt 0.171875 0.08984375
vt 0.1796875 0.08984375
vt 0.1796875 0.0859375
vt 0.171875 0.0859375
vt 0.1640625 0.0859375
vt 0.1640625 0.08984375
vt 0.1796875 0.1640625
vt 0.1875 0.15625
vt 0.1796875 0.15625
vt 0.1328125 0.2460938
vt 0.140625 0.2460938
vt 0.140625 0.2382813
vt 0.1328125 0.2382813
vt 0.2460938 0.05859375
vt 0.25 0.05859375
vt 0.2265625 0.08984375
vt 0.2304688 0.08984375
vt 0.2304688 0.08203125
vt 0.2265625 0.08203125
v -3.56066 22.5 15.27513 1 1 1
v -1.792893 22.5 17.04289 1 1 1
v -2.5 22.5 17.75 1 1 1
v -4.267767 22.5 15.98223 1 1 1
v -1.792893 24.5 17.04289 1 1 1
v -3.56066 24.5 15.27513 1 1 1
v -4.267767 24.5 15.98223 1 1 1
v -2.5 24.5 17.75 1 1 1
v -2.5 24.5 17.75 1 1 1
v -4.267767 24.5 15.98223 1 1 1
v -4.267767 22.5 15.98223 1 1 1
v -2.5 22.5 17.75 1 1 1
v -3.56066 24.5 15.27513 1 1 1
v -1.792893 24.5 17.04289 1 1 1
v -1.792893 22.5 17.04289 1 1 1
v -3.56066 22.5 15.27513 1 1 1
v -1.792893 24.5 17.04289 1 1 1
v -2.5 24.5 17.75 1 1 1
v -2.5 22.5 17.75 1 1 1
v -1.792893 22.5 17.04289 1 1 1
v -4.267767 24.5 15.98223 1 1 1
v -3.56066 24.5 15.27513 1 1 1
v -3.56066 22.5 15.27513 1 1 1
v -4.267767 22.5 15.98223 1 1 1
vn -0.7071068 0 0.7071067
vn 0.7071068 0 -0.7071067
vn 0.7071067 0 0.7071068
vn -0.7071067 0 -0.7071068
v -1 19.50998 20.44608 1 1 1
v 1 19.50998 20.44608 1 1 1
v 1 20.27535 22.29384 1 1 1
v -1 20.27535 22.29384 1 1 1
v 1 21.81968 19.48937 1 1 1
v -1 21.81968 19.48937 1 1 1
v -1 22.58504 21.33713 1 1 1
v 1 22.58504 21.33713 1 1 1
v 1 22.58504 21.33713 1 1 1
v -1 22.58504 21.33713 1 1 1
v -1 20.27535 22.29384 1 1 1
v 1 20.27535 22.29384 1 1 1
v -1 21.81968 19.48937 1 1 1
v 1 21.81968 19.48937 1 1 1
v 1 19.50998 20.44608 1 1 1
v -1 19.50998 20.44608 1 1 1
v 1 21.81968 19.48937 1 1 1
v 1 22.58504 21.33713 1 1 1
v 1 20.27535 22.29384 1 1 1
v 1 19.50998 20.44608 1 1 1
v -1 22.58504 21.33713 1 1 1
v -1 21.81968 19.48937 1 1 1
v -1 19.50998 20.44608 1 1 1
v -1 20.27535 22.29384 1 1 1
vn 0 -0.9238796 0.3826834
vn 0 0.9238796 -0.3826834
vn 0 0.3826834 0.9238796
vn 0 -0.3826834 -0.9238796
vt 0.1328125 0.2617188
vt 0.125 0.2617188
vt 0.125 0.2539063
vt 0.1328125 0.2539063
vt 0.125 0.2304688
vt 0.1328125 0.2304688
vt 0.125 0.2382813
vt 0.125 0.2226563
vt 0.1328125 0.2226563
vt 0.1171875 0.2617188
vt 0.1171875 0.2539063
vt 0.125 0.2460938
vt 0.1171875 0.2460938
vt 0.1171875 0.2304688
vt 0.1171875 0.2226563
v -2 19.38461 19.26923 1 1 1
v 2 19.38461 19.26923 1 1 1
v 2 19.38461 21.26923 1 1 1
v -2 19.38461 21.26923 1 1 1
v 2 22.38461 19.26923 1 1 1
v -2 22.38461 19.26923 1 1 1
v -2 22.38461 21.26923 1 1 1
v 2 22.38461 21.26923 1 1 1
v 2 22.38461 21.26923 1 1 1
v -2 22.38461 21.26923 1 1 1
v -2 19.38461 21.26923 1 1 1
v 2 19.38461 21.26923 1 1 1
v -2 22.38461 19.26923 1 1 1
v 2 22.38461 19.26923 1 1 1
v 2 19.38461 19.26923 1 1 1
v -2 19.38461 19.26923 1 1 1
v 2 22.38461 19.26923 1 1 1
v 2 22.38461 21.26923 1 1 1
v 2 19.38461 21.26923 1 1 1
v 2 19.38461 19.26923 1 1 1
v -2 22.38461 21.26923 1 1 1
v -2 22.38461 19.26923 1 1 1
v -2 19.38461 19.26923 1 1 1
v -2 19.38461 21.26923 1 1 1
vn 0 0 1
vn 0 0 -1
vt 0.078125 0.171875
vt 0.0625 0.171875
vt 0.0625 0.1640625
vt 0.078125 0.1640625
vt 0.21875 0.140625
vt 0.234375 0.140625
vt 0.234375 0.1484375
vt 0.21875 0.1484375
vt 0.2226563 0.140625
vt 0.2070313 0.140625
vt 0.2070313 0.1289063
vt 0.2226563 0.1289063
vt 0.1914063 0.140625
vt 0.1914063 0.1289063
vt 0.140625 0.203125
vt 0.140625 0.2148438
vt 0.1484375 0.2148438
vt 0.1484375 0.203125
v -1.95 18.5 16 1 1 1
v 1.95 18.5 16 1 1 1
v 1.95 18.5 20 1 1 1
v -1.95 18.5 20 1 1 1
v 1.95 20.5 16 1 1 1
v -1.95 20.5 16 1 1 1
v -1.95 20.5 20 1 1 1
v 1.95 20.5 20 1 1 1
v 1.95 20.5 20 1 1 1
v -1.95 20.5 20 1 1 1
v -1.95 18.5 20 1 1 1
v 1.95 18.5 20 1 1 1
v -1.95 20.5 16 1 1 1
v 1.95 20.5 16 1 1 1
v 1.95 18.5 16 1 1 1
v -1.95 18.5 16 1 1 1
v 1.95 20.5 16 1 1 1
v 1.95 20.5 20 1 1 1
v 1.95 18.5 20 1 1 1
v 1.95 18.5 16 1 1 1
v -1.95 20.5 20 1 1 1
v -1.95 20.5 16 1 1 1
v -1.95 18.5 16 1 1 1
v -1.95 18.5 20 1 1 1
vt 0.0546875 0.15625
vt 0.0390625 0.15625
vt 0.0390625 0.140625
vt 0.0546875 0.140625
vt 0.0546875 0.07421875
vt 0.0703125 0.08984375
vt 0.0546875 0.08984375
vt 0.234375 0.1640625
vt 0.21875 0.1640625
vt 0.21875 0.15625
vt 0.234375 0.15625
vt 0.25 0.1484375
vt 0.25 0.140625
vt 0.0546875 0.1640625
vt 0.0703125 0.1640625
vt 0.0703125 0.15625
v -3 20 15.57692 1 1 1
v 3 20 15.57692 1 1 1
v 3 20 19.57692 1 1 1
v -3 20 19.57692 1 1 1
v 3 24 15.57692 1 1 1
v -3 24 15.57692 1 1 1
v -3 24 19.57692 1 1 1
v 3 24 19.57692 1 1 1
v 3 24 19.57692 1 1 1
v -3 24 19.57692 1 1 1
v -3 20 19.57692 1 1 1
v 3 20 19.57692 1 1 1
v -3 24 15.57692 1 1 1
v 3 24 15.57692 1 1 1
v 3 20 15.57692 1 1 1
v -3 20 15.57692 1 1 1
v 3 24 15.57692 1 1 1
v 3 24 19.57692 1 1 1
v 3 20 19.57692 1 1 1
v 3 20 15.57692 1 1 1
v -3 24 19.57692 1 1 1
v -3 24 15.57692 1 1 1
v -3 20 15.57692 1 1 1
v -3 20 19.57692 1 1 1
vt 0.15625 0.08984375
vt 0.1328125 0.08984375
vt 0.1328125 0.07421875
vt 0.15625 0.07421875
vt 0.1953125 0.1132813
vt 0.21875 0.1132813
vt 0.21875 0.1289063
vt 0.1953125 0.1289063
vt 0.171875 0.1289063
vt 0.171875 0.1132813
vt 0.203125 0.08984375
vt 0.203125 0.07421875
vt 0.2265625 0.07421875
vt 0.0703125 0.140625
v -2.5 22.14805 18.22836 1 1 1
v 2.5 22.14805 18.22836 1 1 1
v 2.5 21 21 1 1 1
v -2.5 21 21 1 1 1
v 2.5 23.99581 18.99373 1 1 1
v -2.5 23.99581 18.99373 1 1 1
v -2.5 22.84776 21.76537 1 1 1
v 2.5 22.84776 21.76537 1 1 1
v 2.5 22.84776 21.76537 1 1 1
v -2.5 22.84776 21.76537 1 1 1
v -2.5 21 21 1 1 1
v 2.5 21 21 1 1 1
v -2.5 23.99581 18.99373 1 1 1
v 2.5 23.99581 18.99373 1 1 1
v 2.5 22.14805 18.22836 1 1 1
v -2.5 22.14805 18.22836 1 1 1
v 2.5 23.99581 18.99373 1 1 1
v 2.5 22.84776 21.76537 1 1 1
v 2.5 21 21 1 1 1
v 2.5 22.14805 18.22836 1 1 1
v -2.5 22.84776 21.76537 1 1 1
v -2.5 23.99581 18.99373 1 1 1
v -2.5 22.14805 18.22836 1 1 1
v -2.5 21 21 1 1 1
vn 0 -0.9238795 -0.3826835
vn 0 0.9238795 0.3826835
vn 0 -0.3826835 0.9238795
vn 0 0.3826835 -0.9238795
vt 0.1132813 0.140625
vt 0.09375 0.140625
vt 0.09375 0.1289063
vt 0.1132813 0.1289063
vt 0.1328125 0.1289063
vt 0.1328125 0.140625
vt 0.0859375 0.1289063
vt 0.06640625 0.1289063
vt 0.06640625 0.1210938
vt 0.0859375 0.1210938
vt 0.046875 0.1289063
vt 0.046875 0.1210938
vt 0.1445313 0.171875
vt 0.15625 0.171875
vt 0.15625 0.1640625
vt 0.1445313 0.1640625
v -2 15.77544 11.95301 1 1 1
v 2 15.77544 11.95301 1 1 1
v 2 18.45423 18.42017 1 1 1
v -2 18.45423 18.42017 1 1 1
v 2 21.31872 9.656909 1 1 1
v -2 21.31872 9.656909 1 1 1
v -2 23.99751 16.12407 1 1 1
v 2 23.99751 16.12407 1 1 1
v 2 23.99751 16.12407 1 1 1
v -2 23.99751 16.12407 1 1 1
v -2 18.45423 18.42017 1 1 1
v 2 18.45423 18.42017 1 1 1
v -2 21.31872 9.656909 1 1 1
v 2 21.31872 9.656909 1 1 1
v 2 15.77544 11.95301 1 1 1
v -2 15.77544 11.95301 1 1 1
v 2 21.31872 9.656909 1 1 1
v 2 23.99751 16.12407 1 1 1
v 2 18.45423 18.42017 1 1 1
v 2 15.77544 11.95301 1 1 1
v -2 23.99751 16.12407 1 1 1
v -2 21.31872 9.656909 1 1 1
v -2 15.77544 11.95301 1 1 1
v -2 18.45423 18.42017 1 1 1
vt 0.03125 0.1914063
vt 0.015625 0.1914063
vt 0.015625 0.1640625
vt 0.03125 0.1640625
vt 0 0.1640625
vt 0 0.1914063
vt 0.0390625 0.1640625
vt 0.0234375 0.1640625
vt 0.0234375 0.140625
vt 0.2304688 0.05078125
vt 0.2304688 0.02734375
vt 0.2460938 0.02734375
vt 0.203125 0.05078125
vt 0.203125 0.02734375
v -1 19.50867 18.86622 1 1 1
v 1 19.50867 18.86622 1 1 1
v 1 18.36062 21.63786 1 1 1
v -1 18.36062 21.63786 1 1 1
v 1 20.43255 19.2489 1 1 1
v -1 20.43255 19.2489 1 1 1
v -1 19.2845 22.02054 1 1 1
v 1 19.2845 22.02054 1 1 1
v 1 19.2845 22.02054 1 1 1
v -1 19.2845 22.02054 1 1 1
v -1 18.36062 21.63786 1 1 1
v 1 18.36062 21.63786 1 1 1
v -1 20.43255 19.2489 1 1 1
v 1 20.43255 19.2489 1 1 1
v 1 19.50867 18.86622 1 1 1
v -1 19.50867 18.86622 1 1 1
v 1 20.43255 19.2489 1 1 1
v 1 19.2845 22.02054 1 1 1
v 1 18.36062 21.63786 1 1 1
v 1 19.50867 18.86622 1 1 1
v -1 19.2845 22.02054 1 1 1
v -1 20.43255 19.2489 1 1 1
v -1 19.50867 18.86622 1 1 1
v -1 18.36062 21.63786 1 1 1
vt 0.2304688 0.1757813
vt 0.2226563 0.1757813
vt 0.2226563 0.1640625
vt 0.2304688 0.1640625
vt 0.2304688 0.1875
vt 0.2226563 0.1875
vt 0.1992188 0.08984375
vt 0.1914063 0.08984375
vt 0.1914063 0.0859375
vt 0.1992188 0.0859375
vt 0.1835938 0.08984375
vt 0.1835938 0.0859375
vt 0.2109375 0.02734375
vt 0.2226563 0.02734375
vt 0.2226563 0.0234375
vt 0.2109375 0.0234375
v -1.5 20.39805 19.47836 1 1 1
v 1.5 20.39805 19.47836 1 1 1
v 1.5 19.25 22.25 1 1 1
v -1.5 19.25 22.25 1 1 1
v 1.5 21.78387 20.05239 1 1 1
v -1.5 21.78387 20.05239 1 1 1
v -1.5 20.63582 22.82403 1 1 1
v 1.5 20.63582 22.82403 1 1 1
v 1.5 20.63582 22.82403 1 1 1
v -1.5 20.63582 22.82403 1 1 1
v -1.5 19.25 22.25 1 1 1
v 1.5 19.25 22.25 1 1 1
v -1.5 21.78387 20.05239 1 1 1
v 1.5 21.78387 20.05239 1 1 1
v 1.5 20.39805 19.47836 1 1 1
v -1.5 20.39805 19.47836 1 1 1
v 1.5 21.78387 20.05239 1 1 1
v 1.5 20.63582 22.82403 1 1 1
v 1.5 19.25 22.25 1 1 1
v 1.5 20.39805 19.47836 1 1 1
v -1.5 20.63582 22.82403 1 1 1
v -1.5 21.78387 20.05239 1 1 1
v -1.5 20.39805 19.47836 1 1 1
v -1.5 19.25 22.25 1 1 1
vt 0.234375 0.1289063
vt 0.2460938 0.1289063
vt 0.2460938 0.140625
vt 0.1601563 0.1992188
vt 0.1484375 0.1992188
vt 0.1484375 0.1914063
vt 0.1601563 0.1914063
vt 0.1914063 0.02734375
vt 0.1914063 0.0234375
vt 0.203125 0.0234375
vt 0.1484375 0.2070313
vt 0.1601563 0.2070313
v 1.399394 18.5 16.05304 1 1 1
v 3.247153 18.5 16.81841 1 1 1
v 2.481786 18.5 18.66616 1 1 1
v 0.6340268 18.5 17.9008 1 1 1
v 3.247153 21.5 16.81841 1 1 1
v 1.399394 21.5 16.05304 1 1 1
v 0.6340268 21.5 17.9008 1 1 1
v 2.481786 21.5 18.66616 1 1 1
v 2.481786 21.5 18.66616 1 1 1
v 0.6340268 21.5 17.9008 1 1 1
v 0.6340268 18.5 17.9008 1 1 1
v 2.481786 18.5 18.66616 1 1 1
v 1.399394 21.5 16.05304 1 1 1
v 3.247153 21.5 16.81841 1 1 1
v 3.247153 18.5 16.81841 1 1 1
v 1.399394 18.5 16.05304 1 1 1
v 3.247153 21.5 16.81841 1 1 1
v 2.481786 21.5 18.66616 1 1 1
v 2.481786 18.5 18.66616 1 1 1
v 3.247153 18.5 16.81841 1 1 1
v 0.6340268 21.5 17.9008 1 1 1
v 1.399394 21.5 16.05304 1 1 1
v 1.399394 18.5 16.05304 1 1 1
v 0.6340268 18.5 17.9008 1 1 1
vn -0.3826835 0 0.9238795
vn 0.3826835 0 -0.9238795
vn 0.9238795 0 0.3826835
vn -0.9238795 0 -0.3826835
vt 0.0859375 0.2539063
vt 0.09375 0.2539063
vt 0.09375 0.2460938
vt 0.0859375 0.2460938
vt 0.0859375 0.2617188
vt 0.09375 0.2617188
vt 0.1953125 0.1875
vt 0.203125 0.1875
vt 0.203125 0.1757813
vt 0.1953125 0.1757813
vt 0.203125 0.1914063
vt 0.2109375 0.1914063
vt 0.2109375 0.1796875
vt 0.203125 0.1796875
vt 0.2148438 0.1875
vt 0.2148438 0.1757813
vt 0.2148438 0.1640625
v -3.282296 18.5 16.73853 1 1 1
v -1.434537 18.5 15.97317 1 1 1
v -0.6691704 18.5 17.82093 1 1 1
v -2.51693 18.5 18.58629 1 1 1
v -1.434537 21.5 15.97317 1 1 1
v -3.282296 21.5 16.73853 1 1 1
v -2.51693 21.5 18.58629 1 1 1
v -0.6691704 21.5 17.82093 1 1 1
v -0.6691704 21.5 17.82093 1 1 1
v -2.51693 21.5 18.58629 1 1 1
v -2.51693 18.5 18.58629 1 1 1
v -0.6691704 18.5 17.82093 1 1 1
v -3.282296 21.5 16.73853 1 1 1
v -1.434537 21.5 15.97317 1 1 1
v -1.434537 18.5 15.97317 1 1 1
v -3.282296 18.5 16.73853 1 1 1
v -1.434537 21.5 15.97317 1 1 1
v -0.6691704 21.5 17.82093 1 1 1
v -0.6691704 18.5 17.82093 1 1 1
v -1.434537 18.5 15.97317 1 1 1
v -2.51693 21.5 18.58629 1 1 1
v -3.282296 21.5 16.73853 1 1 1
v -3.282296 18.5 16.73853 1 1 1
v -2.51693 18.5 18.58629 1 1 1
vn 0.3826834 0 0.9238796
vn -0.3826834 0 -0.9238796
vn 0.9238796 0 -0.3826834
vn -0.9238796 0 0.3826834
g Element #1
usemtl Element
f 1/1/1 2/2/1 4/4/1
f 2/2/1 3/3/1 4/4/1
f 5/5/2 6/6/2 8/8/2
f 6/6/2 7/7/2 8/8/2
f 9/9/3 10/10/3 12/12/3
f 10/10/3 11/11/3 12/12/3
f 13/12/4 14/11/4 16/14/4
f 14/11/4 15/13/4 16/14/4
f 17/15/5 18/16/5 20/18/5
f 18/16/5 19/17/5 20/18/5
f 21/19/6 22/20/6 24/15/6
f 22/20/6 23/16/6 24/15/6
g Element #3
usemtl Element
f 25/21/7 26/22/7 28/24/7
f 26/22/7 27/23/7 28/24/7
f 29/24/8 30/25/8 32/21/8
f 30/25/8 31/26/8 32/21/8
f 33/27/9 34/18/9 36/29/9
f 34/18/9 35/28/9 36/29/9
f 37/30/10 38/31/10 40/33/10
f 38/31/10 39/32/10 40/33/10
f 41/34/11 42/35/11 44/10/11
f 42/35/11 43/9/11 44/10/11
f 45/36/12 46/37/12 48/39/12
f 46/37/12 47/38/12 48/39/12
g Element #4
usemtl Element
f 49/22/7 50/21/7 52/23/7
f 50/21/7 51/24/7 52/23/7
f 53/25/8 54/24/8 56/26/8
f 54/24/8 55/21/8 56/26/8
f 57/18/13 58/27/13 60/28/13
f 58/27/13 59/29/13 60/28/13
f 61/31/14 62/30/14 64/32/14
f 62/30/14 63/33/14 64/32/14
f 65/37/15 66/36/15 68/38/15
f 66/36/15 67/39/15 68/38/15
f 69/35/16 70/34/16 72/9/16
f 70/34/16 71/10/16 72/9/16
g Element #5
usemtl Element
f 73/40/17 74/41/17 76/43/17
f 74/41/17 75/42/17 76/43/17
f 77/44/18 78/45/18 80/46/18
f 78/45/18 79/33/18 80/46/18
f 81/45/19 82/44/19 84/48/19
f 82/44/19 83/47/19 84/48/19
f 85/41/20 86/49/20 88/42/20
f 86/49/20 87/50/20 88/42/20
f 89/51/5 90/42/5 92/52/5
f 90/42/5 91/50/5 92/52/5
f 93/53/6 94/54/6 96/44/6
f 94/54/6 95/47/6 96/44/6
g Element #6
usemtl Element
f 97/55/7 98/56/7 100/58/7
f 98/56/7 99/57/7 100/58/7
f 101/59/8 102/60/8 104/62/8
f 102/60/8 103/61/8 104/62/8
f 105/63/21 106/64/21 108/66/21
f 106/64/21 107/65/21 108/66/21
f 109/64/22 110/67/22 112/65/22
f 110/67/22 111/68/22 112/65/22
f 113/69/5 114/70/5 116/72/5
f 114/70/5 115/71/5 116/72/5
f 117/70/6 118/69/6 120/71/6
f 118/69/6 119/72/6 120/71/6
g Element #7
usemtl Element
f 121/73/7 122/74/7 124/76/7
f 122/74/7 123/75/7 124/76/7
f 125/77/8 126/5/8 128/79/8
f 126/5/8 127/78/8 128/79/8
f 129/80/21 130/81/21 132/83/21
f 130/81/21 131/82/21 132/83/21
f 133/84/22 134/61/22 136/85/22
f 134/61/22 135/60/22 136/85/22
f 137/86/5 138/87/5 140/73/5
f 138/87/5 139/88/5 140/73/5
f 141/87/6 142/86/6 144/88/6
f 142/86/6 143/73/6 144/88/6
g Element #20
usemtl Element
f 145/89/7 146/90/7 148/92/7
f 146/90/7 147/91/7 148/92/7
f 149/93/8 150/94/8 152/96/8
f 150/94/8 151/95/8 152/96/8
f 153/96/21 154/97/21 156/93/21
f 154/97/21 155/98/21 156/93/21
f 157/36/22 158/99/22 160/101/22
f 158/99/22 159/100/22 160/101/22
f 161/73/5 162/88/5 164/76/5
f 162/88/5 163/102/5 164/76/5
f 165/88/6 166/73/6 168/102/6
f 166/73/6 167/76/6 168/102/6
g Element #22
usemtl Element
f 169/103/23 170/104/23 172/106/23
f 170/104/23 171/105/23 172/106/23
f 173/106/24 174/107/24 176/103/24
f 174/107/24 175/108/24 176/103/24
f 177/109/25 178/110/25 180/112/25
f 178/110/25 179/111/25 180/112/25
f 181/110/26 182/113/26 184/111/26
f 182/113/26 183/114/26 184/111/26
f 185/115/5 186/116/5 188/118/5
f 186/116/5 187/117/5 188/118/5
f 189/116/6 190/115/6 192/117/6
f 190/115/6 191/118/6 192/117/6
g Element #25
usemtl Element
f 193/119/17 194/120/17 196/122/17
f 194/120/17 195/121/17 196/122/17
f 197/123/18 198/121/18 200/124/18
f 198/121/18 199/120/18 200/124/18
f 201/125/19 202/126/19 204/75/19
f 202/126/19 203/127/19 204/75/19
f 205/10/20 206/128/20 208/130/20
f 206/128/20 207/129/20 208/130/20
f 209/131/5 210/128/5 212/132/5
f 210/128/5 211/129/5 212/132/5
f 213/128/6 214/131/6 216/129/6
f 214/131/6 215/132/6 216/129/6
g Element #29
usemtl Element
f 217/133/23 218/134/23 220/136/23
f 218/134/23 219/135/23 220/136/23
f 221/134/24 222/133/24 224/138/24
f 222/133/24 223/137/24 224/138/24
f 225/139/25 226/140/25 228/142/25
f 226/140/25 227/141/25 228/142/25
f 229/140/26 230/143/26 232/141/26
f 230/143/26 231/144/26 232/141/26
f 233/145/5 234/146/5 236/148/5
f 234/146/5 235/147/5 236/148/5
f 237/146/6 238/145/6 240/147/6
f 238/145/6 239/148/6 240/147/6
g Element #30
usemtl Element
f 241/60/23 242/63/23 244/149/23
f 242/63/23 243/66/23 244/149/23
f 245/149/24 246/150/24 248/60/24
f 246/150/24 247/151/24 248/60/24
f 249/152/25 250/153/25 252/155/25
f 250/153/25 251/154/25 252/155/25
f 253/132/26 254/156/26 256/158/26
f 254/156/26 255/157/26 256/158/26
f 257/159/5 258/160/5 260/153/5
f 258/160/5 259/152/5 260/153/5
f 261/160/6 262/159/6 264/152/6
f 262/159/6 263/153/6 264/152/6
g Element #31
usemtl Element
f 265/161/7 266/162/7 268/164/7
f 266/162/7 267/163/7 268/164/7
f 269/162/8 270/161/8 272/166/8
f 270/161/8 271/165/8 272/166/8
f 273/167/27 274/168/27 276/170/27
f 274/168/27 275/169/27 276/170/27
f 277/171/28 278/172/28 280/174/28
f 278/172/28 279/173/28 280/174/28
f 281/175/29 282/138/29 284/176/29
f 282/138/29 283/134/29 284/176/29
f 285/176/30 286/134/30 288/177/30
f 286/134/30 287/135/30 288/177/30
g Element #32
usemtl Element
f 289/162/7 290/161/7 292/163/7
f 290/161/7 291/164/7 292/163/7
f 293/161/8 294/162/8 296/165/8
f 294/162/8 295/166/8 296/165/8
f 297/168/31 298/167/31 300/169/31
f 298/167/31 299/170/31 300/169/31
f 301/172/32 302/171/32 304/173/32
f 302/171/32 303/174/32 304/173/32
f 305/134/33 306/176/33 308/135/33
f 306/176/33 307/177/33 308/135/33
f 309/138/34 310/175/34 312/134/34
f 310/175/34 311/176/34 312/134/34
