# Export of Cubik Model: Cubik Model
# Designed by Zhouyi with Cubik Studio - https://cubik.studio
# from Cubik OBJ Exporter v1.0
mtllib cheetah.mtl
v -5.75 11.44421 3.872154 1 1 1
v -3.25 11.44421 3.872154 1 1 1
v -3.25 10.07613 7.630924 1 1 1
v -5.75 10.07613 7.630924 1 1 1
v -3.25 20.84114 7.292356 1 1 1
v -5.75 20.84114 7.292356 1 1 1
v -5.75 19.47306 11.05113 1 1 1
v -3.25 19.47306 11.05113 1 1 1
v -3.25 19.47306 11.05113 1 1 1
v -5.75 19.47306 11.05113 1 1 1
v -5.75 10.07613 7.630924 1 1 1
v -3.25 10.07613 7.630924 1 1 1
v -5.75 20.84114 7.292356 1 1 1
v -3.25 20.84114 7.292356 1 1 1
v -3.25 11.44421 3.872154 1 1 1
v -5.75 11.44421 3.872154 1 1 1
v -3.25 20.84114 7.292356 1 1 1
v -3.25 19.47306 11.05113 1 1 1
v -3.25 10.07613 7.630924 1 1 1
v -3.25 11.44421 3.872154 1 1 1
v -5.75 19.47306 11.05113 1 1 1
v -5.75 20.84114 7.292356 1 1 1
v -5.75 11.44421 3.872154 1 1 1
v -5.75 10.07613 7.630924 1 1 1
vn 0 -0.9396926 -0.3420202
vn 0 0.9396926 0.3420202
vn 0 -0.3420202 0.9396926
vn 0 0.3420202 -0.9396926
vn 1 0 0
vn -1 0 0
vt 0.1875 0.15625
vt 0.1796875 0.15625
vt 0.1796875 0.140625
vt 0.1875 0.140625
vt 0.15625 0.07421875
vt 0.1640625 0.07421875
vt 0.1640625 0.08984375
vt 0.15625 0.08984375
vt 0.0078125 0.3007813
vt 0 0.3007813
vt 0 0.2617188
vt 0.0078125 0.2617188
vt 0 0.2226563
vt 0.0078125 0.2226563
vt 0.015625 0.1289063
vt 0 0.1289063
vt 0 0.08984375
vt 0.015625 0.08984375
vt 0.2460938 0.08984375
vt 0.2304688 0.08984375
vt 0.2304688 0.05078125
vt 0.2460938 0.05078125
v -5.5 3.5 5 1 1 1
v -3.5 3.5 5 1 1 1
v -3.5 3.5 7.5 1 1 1
v -5.5 3.5 7.5 1 1 1
v -3.5 13.5 5 1 1 1
v -5.5 13.5 5 1 1 1
v -5.5 13.5 7.5 1 1 1
v -3.5 13.5 7.5 1 1 1
v -3.5 13.5 7.5 1 1 1
v -5.5 13.5 7.5 1 1 1
v -5.5 3.5 7.5 1 1 1
v -3.5 3.5 7.5 1 1 1
v -5.5 13.5 5 1 1 1
v -3.5 13.5 5 1 1 1
v -3.5 3.5 5 1 1 1
v -5.5 3.5 5 1 1 1
v -3.5 13.5 5 1 1 1
v -3.5 13.5 7.5 1 1 1
v -3.5 3.5 7.5 1 1 1
v -3.5 3.5 5 1 1 1
v -5.5 13.5 7.5 1 1 1
v -5.5 13.5 5 1 1 1
v -5.5 3.5 5 1 1 1
v -5.5 3.5 7.5 1 1 1
vn 0 -1 0
vn 0 1 0
vn 0 0 1
vn 0 0 -1
vt 0.125 0.2382813
vt 0.1171875 0.2382813
vt 0.1171875 0.2304688
vt 0.125 0.2304688
vt 0.125 0.2460938
vt 0.1171875 0.2460938
vt 0.015625 0.2617188
vt 0.015625 0.2226563
vt 0.0078125 0.4570313
vt 0 0.4570313
vt 0 0.4179688
vt 0.0078125 0.4179688
vt 0.0078125 0.3789063
vt 0 0.3789063
vt 0 0.3398438
vt 0.0078125 0.3398438
v -5.5 0.5857863 8.085787 1 1 1
v -3.5 0.5857863 8.085787 1 1 1
v -3.5 2 9.5 1 1 1
v -5.5 2 9.5 1 1 1
v -3.5 3.414213 5.25736 1 1 1
v -5.5 3.414213 5.25736 1 1 1
v -5.5 4.828427 6.671573 1 1 1
v -3.5 4.828427 6.671573 1 1 1
v -3.5 4.828427 6.671573 1 1 1
v -5.5 4.828427 6.671573 1 1 1
v -5.5 2 9.5 1 1 1
v -3.5 2 9.5 1 1 1
v -5.5 3.414213 5.25736 1 1 1
v -3.5 3.414213 5.25736 1 1 1
v -3.5 0.5857863 8.085787 1 1 1
v -5.5 0.5857863 8.085787 1 1 1
v -3.5 3.414213 5.25736 1 1 1
v -3.5 4.828427 6.671573 1 1 1
v -3.5 2 9.5 1 1 1
v -3.5 0.5857863 8.085787 1 1 1
v -5.5 4.828427 6.671573 1 1 1
v -5.5 3.414213 5.25736 1 1 1
v -5.5 0.5857863 8.085787 1 1 1
v -5.5 2 9.5 1 1 1
vn 0 -0.7071067 0.7071068
vn 0 0.7071067 -0.7071068
vn 0 0.7071068 0.7071067
vn 0 -0.7071068 -0.7071067
vt 0.109375 0.2382813
vt 0.1015625 0.2382813
vt 0.1015625 0.2304688
vt 0.109375 0.2304688
vt 0.125 0.1640625
vt 0.1171875 0.1640625
vt 0.1171875 0.140625
vt 0.125 0.140625
vt 0.25 0.1132813
vt 0.2421875 0.1132813
vt 0.2421875 0.08984375
vt 0.25 0.08984375
vt 0.09375 0.1640625
vt 0.1015625 0.1640625
vt 0.1015625 0.140625
vt 0.09375 0.140625
vt 0.0859375 0.1640625
vt 0.078125 0.1640625
vt 0.078125 0.140625
vt 0.0859375 0.140625
v -5.5 0 8.25 1 1 1
v -3.5 0 8.25 1 1 1
v -3.5 0 11.25 1 1 1
v -5.5 0 11.25 1 1 1
v -3.5 2 8.25 1 1 1
v -5.5 2 8.25 1 1 1
v -5.5 2 11.25 1 1 1
v -3.5 2 11.25 1 1 1
v -3.5 2 11.25 1 1 1
v -5.5 2 11.25 1 1 1
v -5.5 0 11.25 1 1 1
v -3.5 0 11.25 1 1 1
v -5.5 2 8.25 1 1 1
v -3.5 2 8.25 1 1 1
v -3.5 0 8.25 1 1 1
v -5.5 0 8.25 1 1 1
v -3.5 2 8.25 1 1 1
v -3.5 2 11.25 1 1 1
v -3.5 0 11.25 1 1 1
v -3.5 0 8.25 1 1 1
v -5.5 2 11.25 1 1 1
v -5.5 2 8.25 1 1 1
v -5.5 0 8.25 1 1 1
v -5.5 0 11.25 1 1 1
vt 0.1640625 0.1875
vt 0.15625 0.1875
vt 0.15625 0.1757813
vt 0.1640625 0.1757813
vt 0.1015625 0.1757813
vt 0.09375 0.1757813
vt 0.2109375 0.1640625
vt 0.203125 0.1640625
vt 0.203125 0.15625
vt 0.2109375 0.15625
vt 0.21875 0.1640625
vt 0.21875 0.15625
vt 0.1757813 0.1796875
vt 0.1640625 0.1796875
vt 0.1640625 0.171875
vt 0.1757813 0.171875
vt 0.1757813 0.1875
g Element #5
usemtl Element
f 1/1/1 2/2/1 4/4/1
f 2/2/1 3/3/1 4/4/1
f 5/5/2 6/6/2 8/8/2
f 6/6/2 7/7/2 8/8/2
f 9/9/3 10/10/3 12/12/3
f 10/10/3 11/11/3 12/12/3
f 13/12/4 14/11/4 16/14/4
f 14/11/4 15/13/4 16/14/4
f 17/15/5 18/16/5 20/18/5
f 18/16/5 19/17/5 20/18/5
f 21/19/6 22/20/6 24/22/6
f 22/20/6 23/21/6 24/22/6
g Element #6
usemtl Element
f 25/23/7 26/24/7 28/26/7
f 26/24/7 27/25/7 28/26/7
f 29/24/8 30/23/8 32/28/8
f 30/23/8 31/27/8 32/28/8
f 33/29/9 34/12/9 36/30/9
f 34/12/9 35/14/9 36/30/9
f 37/31/10 38/32/10 40/34/10
f 38/32/10 39/33/10 40/34/10
f 41/35/5 42/36/5 44/38/5
f 42/36/5 43/37/5 44/38/5
f 45/38/6 46/37/6 48/9/6
f 46/37/6 47/10/6 48/9/6
g Element #7
usemtl Element
f 49/39/11 50/40/11 52/42/11
f 50/40/11 51/41/11 52/42/11
f 53/42/12 54/25/12 56/39/12
f 54/25/12 55/24/12 56/39/12
f 57/43/13 58/44/13 60/46/13
f 58/44/13 59/45/13 60/46/13
f 61/47/14 62/48/14 64/50/14
f 62/48/14 63/49/14 64/50/14
f 65/51/5 66/52/5 68/54/5
f 66/52/5 67/53/5 68/54/5
f 69/55/6 70/56/6 72/58/6
f 70/56/6 71/57/6 72/58/6
g Element #8
usemtl Element
f 73/59/7 74/60/7 76/62/7
f 74/60/7 75/61/7 76/62/7
f 77/51/8 78/52/8 80/64/8
f 78/52/8 79/63/8 80/64/8
f 81/65/9 82/66/9 84/68/9
f 82/66/9 83/67/9 84/68/9
f 85/69/10 86/65/10 88/70/10
f 86/65/10 87/68/10 88/70/10
f 89/71/5 90/72/5 92/74/5
f 90/72/5 91/73/5 92/74/5
f 93/75/6 94/59/6 96/71/6
f 94/59/6 95/72/6 96/71/6
