# Export of Cubik Model: Cubik Model
# Designed by Zhouyi with Cubik Studio - https://cubik.studio
# from Cubik OBJ Exporter v1.0
mtllib cheetah.mtl
v 2.5 0 -10 1 1 1
v 4.5 0 -10 1 1 1
v 4.5 0 -6 1 1 1
v 2.5 0 -6 1 1 1
v 4.5 2 -10 1 1 1
v 2.5 2 -10 1 1 1
v 2.5 2 -6 1 1 1
v 4.5 2 -6 1 1 1
v 4.5 2 -6 1 1 1
v 2.5 2 -6 1 1 1
v 2.5 0 -6 1 1 1
v 4.5 0 -6 1 1 1
v 2.5 2 -10 1 1 1
v 4.5 2 -10 1 1 1
v 4.5 0 -10 1 1 1
v 2.5 0 -10 1 1 1
v 4.5 2 -10 1 1 1
v 4.5 2 -6 1 1 1
v 4.5 0 -6 1 1 1
v 4.5 0 -10 1 1 1
v 2.5 2 -6 1 1 1
v 2.5 2 -10 1 1 1
v 2.5 0 -10 1 1 1
v 2.5 0 -6 1 1 1
vn 0 -1 0
vn 0 1 0
vn 0 0 1
vn 0 0 -1
vn 1 0 0
vn -1 0 0
vt 0.203125 0.15625
vt 0.2109375 0.15625
vt 0.2109375 0.140625
vt 0.203125 0.140625
vt 0.1953125 0.140625
vt 0.1953125 0.15625
vt 0.1015625 0.2460938
vt 0.109375 0.2460938
vt 0.109375 0.2382813
vt 0.1015625 0.2382813
vt 0.1015625 0.2539063
vt 0.109375 0.2539063
vt 0.234375 0.1640625
vt 0.25 0.1640625
vt 0.25 0.15625
vt 0.234375 0.15625
vt 0.046875 0.171875
vt 0.0625 0.171875
vt 0.0625 0.1640625
vt 0.046875 0.1640625
v 2.5 0.5857863 -9.414213 1 1 1
v 4.5 0.5857863 -9.414213 1 1 1
v 4.5 2 -8 1 1 1
v 2.5 2 -8 1 1 1
v 4.5 6.24264 -15.07107 1 1 1
v 2.5 6.24264 -15.07107 1 1 1
v 2.5 7.656854 -13.65685 1 1 1
v 4.5 7.656854 -13.65685 1 1 1
v 4.5 7.656854 -13.65685 1 1 1
v 2.5 7.656854 -13.65685 1 1 1
v 2.5 2 -8 1 1 1
v 4.5 2 -8 1 1 1
v 2.5 6.24264 -15.07107 1 1 1
v 4.5 6.24264 -15.07107 1 1 1
v 4.5 0.5857863 -9.414213 1 1 1
v 2.5 0.5857863 -9.414213 1 1 1
v 4.5 6.24264 -15.07107 1 1 1
v 4.5 7.656854 -13.65685 1 1 1
v 4.5 2 -8 1 1 1
v 4.5 0.5857863 -9.414213 1 1 1
v 2.5 7.656854 -13.65685 1 1 1
v 2.5 6.24264 -15.07107 1 1 1
v 2.5 0.5857863 -9.414213 1 1 1
v 2.5 2 -8 1 1 1
vn 0 -0.7071067 0.7071068
vn 0 0.7071067 -0.7071068
vn 0 0.7071068 0.7071067
vn 0 -0.7071068 -0.7071067
vt 0.125 0.2460938
vt 0.1328125 0.2460938
vt 0.1328125 0.2382813
vt 0.125 0.2382813
vt 0.125 0.2539063
vt 0.1328125 0.2539063
vt 0.046875 0.2226563
vt 0.0546875 0.2226563
vt 0.0546875 0.1914063
vt 0.046875 0.1914063
vt 0.0625 0.2226563
vt 0.0625 0.1914063
vt 0.0703125 0.2226563
vt 0.078125 0.2226563
vt 0.078125 0.1914063
vt 0.0703125 0.1914063
vt 0.109375 0.2226563
vt 0.1171875 0.2226563
vt 0.1171875 0.1914063
vt 0.109375 0.1914063
v 2.5 6.697071 -14.78892 1 1 1
v 4.5 6.697071 -14.78892 1 1 1
v 4.5 5.5 -11.5 1 1 1
v 2.5 5.5 -11.5 1 1 1
v 4.5 14.21461 -12.05276 1 1 1
v 2.5 14.21461 -12.05276 1 1 1
v 2.5 13.01754 -8.763839 1 1 1
v 4.5 13.01754 -8.763839 1 1 1
v 4.5 13.01754 -8.763839 1 1 1
v 2.5 13.01754 -8.763839 1 1 1
v 2.5 5.5 -11.5 1 1 1
v 4.5 5.5 -11.5 1 1 1
v 2.5 14.21461 -12.05276 1 1 1
v 4.5 14.21461 -12.05276 1 1 1
v 4.5 6.697071 -14.78892 1 1 1
v 2.5 6.697071 -14.78892 1 1 1
v 4.5 14.21461 -12.05276 1 1 1
v 4.5 13.01754 -8.763839 1 1 1
v 4.5 5.5 -11.5 1 1 1
v 4.5 6.697071 -14.78892 1 1 1
v 2.5 13.01754 -8.763839 1 1 1
v 2.5 14.21461 -12.05276 1 1 1
v 2.5 6.697071 -14.78892 1 1 1
v 2.5 5.5 -11.5 1 1 1
vn 0 -0.9396926 -0.3420202
vn 0 0.9396926 0.3420202
vn 0 -0.3420202 0.9396926
vn 0 0.3420202 -0.9396926
vt 0.203125 0.203125
vt 0.2109375 0.203125
vt 0.2109375 0.1914063
vt 0.203125 0.1914063
vt 0.203125 0.2148438
vt 0.2109375 0.2148438
vt 0.0859375 0.2226563
vt 0.0859375 0.1914063
vt 0.09375 0.2226563
vt 0.09375 0.1914063
vt 0.0234375 0.2226563
vt 0.03515625 0.2226563
vt 0.03515625 0.1914063
vt 0.0234375 0.1914063
vt 0.01171875 0.2226563
vt 0.01171875 0.1914063
v 2.25 10.7899 -12.44846 1 1 1
v 4.75 10.7899 -12.44846 1 1 1
v 4.75 12.5 -7.75 1 1 1
v 2.25 12.5 -7.75 1 1 1
v 4.75 20.18682 -15.86867 1 1 1
v 2.25 20.18682 -15.86867 1 1 1
v 2.25 21.89692 -11.1702 1 1 1
v 4.75 21.89692 -11.1702 1 1 1
v 4.75 21.89692 -11.1702 1 1 1
v 2.25 21.89692 -11.1702 1 1 1
v 2.25 12.5 -7.75 1 1 1
v 4.75 12.5 -7.75 1 1 1
v 2.25 20.18682 -15.86867 1 1 1
v 4.75 20.18682 -15.86867 1 1 1
v 4.75 10.7899 -12.44846 1 1 1
v 2.25 10.7899 -12.44846 1 1 1
v 4.75 20.18682 -15.86867 1 1 1
v 4.75 21.89692 -11.1702 1 1 1
v 4.75 12.5 -7.75 1 1 1
v 4.75 10.7899 -12.44846 1 1 1
v 2.25 21.89692 -11.1702 1 1 1
v 2.25 20.18682 -15.86867 1 1 1
v 2.25 10.7899 -12.44846 1 1 1
v 2.25 12.5 -7.75 1 1 1
vn 0 -0.9396926 0.3420204
vn 0 0.9396926 -0.3420204
vn 0 0.3420204 0.9396926
vn 0 -0.3420204 -0.9396926
vt 0.140625 0.1601563
vt 0.1484375 0.1601563
vt 0.1484375 0.140625
vt 0.140625 0.140625
vt 0.15625 0.140625
vt 0.15625 0.1601563
vt 0.0546875 0.2617188
vt 0.0625 0.2617188
vt 0.046875 0.2617188
vt 0.1132813 0.06640625
vt 0.1328125 0.06640625
vt 0.1328125 0.02734375
vt 0.1132813 0.02734375
vt 0.09375 0.06640625
vt 0.09375 0.02734375
g Element #1
usemtl Element
f 1/1/1 2/2/1 4/4/1
f 2/2/1 3/3/1 4/4/1
f 5/4/2 6/5/2 8/1/2
f 6/5/2 7/6/2 8/1/2
f 9/7/3 10/8/3 12/10/3
f 10/8/3 11/9/3 12/10/3
f 13/11/4 14/12/4 16/7/4
f 14/12/4 15/8/4 16/7/4
f 17/13/5 18/14/5 20/16/5
f 18/14/5 19/15/5 20/16/5
f 21/17/6 22/18/6 24/20/6
f 22/18/6 23/19/6 24/20/6
g Element #6
usemtl Element
f 25/21/7 26/22/7 28/24/7
f 26/22/7 27/23/7 28/24/7
f 29/22/8 30/21/8 32/26/8
f 30/21/8 31/25/8 32/26/8
f 33/27/9 34/28/9 36/30/9
f 34/28/9 35/29/9 36/30/9
f 37/28/10 38/31/10 40/29/10
f 38/31/10 39/32/10 40/29/10
f 41/33/5 42/34/5 44/36/5
f 42/34/5 43/35/5 44/36/5
f 45/37/6 46/38/6 48/40/6
f 46/38/6 47/39/6 48/40/6
g Element #7
usemtl Element
f 49/41/11 50/42/11 52/44/11
f 50/42/11 51/43/11 52/44/11
f 53/42/12 54/41/12 56/46/12
f 54/41/12 55/45/12 56/46/12
f 57/34/13 58/47/13 60/35/13
f 58/47/13 59/48/13 60/35/13
f 61/47/14 62/49/14 64/48/14
f 62/49/14 63/50/14 64/48/14
f 65/51/5 66/52/5 68/54/5
f 66/52/5 67/53/5 68/54/5
f 69/55/6 70/51/6 72/56/6
f 70/51/6 71/54/6 72/56/6
g Element #8
usemtl Element
f 73/57/15 74/58/15 76/60/15
f 74/58/15 75/59/15 76/60/15
f 77/61/16 78/59/16 80/62/16
f 78/59/16 79/58/16 80/62/16
f 81/63/17 82/64/17 84/28/17
f 82/64/17 83/31/17 84/28/17
f 85/65/18 86/63/18 88/27/18
f 86/63/18 87/28/18 88/27/18
f 89/66/5 90/67/5 92/69/5
f 90/67/5 91/68/5 92/69/5
f 93/70/6 94/66/6 96/71/6
f 94/66/6 95/69/6 96/71/6
