# Export of Cubik Model: Cubik Model
# Designed by Zhouyi with Cubik Studio - https://cubik.studio
# from Cubik OBJ Exporter v1.0
mtllib elephant.mtl
v -11.5 14.91342 -4.119398 1 1 1
v -4.5 14.91342 -4.119398 1 1 1
v -4.5 13 0.5 1 1 1
v -11.5 13 0.5 1 1 1
v -4.5 18.60894 -2.588664 1 1 1
v -11.5 18.60894 -2.588664 1 1 1
v -11.5 16.69552 2.030734 1 1 1
v -4.5 16.69552 2.030734 1 1 1
v -4.5 16.69552 2.030734 1 1 1
v -11.5 16.69552 2.030734 1 1 1
v -11.5 13 0.5 1 1 1
v -4.5 13 0.5 1 1 1
v -11.5 18.60894 -2.588664 1 1 1
v -4.5 18.60894 -2.588664 1 1 1
v -4.5 14.91342 -4.119398 1 1 1
v -11.5 14.91342 -4.119398 1 1 1
v -4.5 18.60894 -2.588664 1 1 1
v -4.5 16.69552 2.030734 1 1 1
v -4.5 13 0.5 1 1 1
v -4.5 14.91342 -4.119398 1 1 1
v -11.5 16.69552 2.030734 1 1 1
v -11.5 18.60894 -2.588664 1 1 1
v -11.5 14.91342 -4.119398 1 1 1
v -11.5 13 0.5 1 1 1
vn 0 -0.9238795 -0.3826835
vn 0 0.9238795 0.3826835
vn 0 -0.3826835 0.9238795
vn 0 0.3826835 -0.9238795
vn 1 0 0
vn -1 0 0
vt 0.375 0.05859375
vt 0.3476563 0.05859375
vt 0.3476563 0.0390625
vt 0.375 0.0390625
vt 0.4375 0.01953125
vt 0.4648438 0.01953125
vt 0.4648438 0.0390625
vt 0.4375 0.0390625
vt 0.40625 0.078125
vt 0.3789063 0.078125
vt 0.3789063 0.0625
vt 0.40625 0.0625
vt 0.3515625 0.078125
vt 0.3515625 0.0625
vt 0.3203125 0.15625
vt 0.3398438 0.15625
vt 0.3398438 0.140625
vt 0.3203125 0.140625
v -9 1.5 -3 1 1 1
v -7 1.5 -3 1 1 1
v -7 1.5 -1.5 1 1 1
v -9 1.5 -1.5 1 1 1
v -7 4 -3 1 1 1
v -9 4 -3 1 1 1
v -9 4 -1.5 1 1 1
v -7 4 -1.5 1 1 1
v -7 4 -1.5 1 1 1
v -9 4 -1.5 1 1 1
v -9 1.5 -1.5 1 1 1
v -7 1.5 -1.5 1 1 1
v -9 4 -3 1 1 1
v -7 4 -3 1 1 1
v -7 1.5 -3 1 1 1
v -9 1.5 -3 1 1 1
v -7 4 -3 1 1 1
v -7 4 -1.5 1 1 1
v -7 1.5 -1.5 1 1 1
v -7 1.5 -3 1 1 1
v -9 4 -1.5 1 1 1
v -9 4 -3 1 1 1
v -9 1.5 -3 1 1 1
v -9 1.5 -1.5 1 1 1
vn 0 -1 0
vn 0 1 0
vn 0 0 1
vn 0 0 -1
vt 0.1835938 0.21875
vt 0.1757813 0.21875
vt 0.1757813 0.2148438
vt 0.1835938 0.2148438
vt 0.1757813 0.1757813
vt 0.1835938 0.1757813
vt 0.1835938 0.1796875
vt 0.1757813 0.1796875
vt 0.375 0.1640625
vt 0.3671875 0.1640625
vt 0.3671875 0.15625
vt 0.375 0.15625
vt 0.375 0.171875
vt 0.3671875 0.171875
vt 0.046875 0.2226563
vt 0.046875 0.2304688
vt 0.04296875 0.2304688
vt 0.04296875 0.2226563
vt 0.3164063 0.234375
vt 0.3164063 0.2265625
vt 0.3203125 0.2265625
vt 0.3203125 0.234375
v -11.5 16.08658 -2.619398 1 1 1
v -4.5 16.08658 -2.619398 1 1 1
v -4.5 18 2 1 1 1
v -11.5 18 2 1 1 1
v -4.5 20.70598 -4.532815 1 1 1
v -11.5 20.70598 -4.532815 1 1 1
v -11.5 22.6194 0.0865829 1 1 1
v -4.5 22.6194 0.0865829 1 1 1
v -4.5 22.6194 0.0865829 1 1 1
v -11.5 22.6194 0.0865829 1 1 1
v -11.5 18 2 1 1 1
v -4.5 18 2 1 1 1
v -11.5 20.70598 -4.532815 1 1 1
v -4.5 20.70598 -4.532815 1 1 1
v -4.5 16.08658 -2.619398 1 1 1
v -11.5 16.08658 -2.619398 1 1 1
v -4.5 20.70598 -4.532815 1 1 1
v -4.5 22.6194 0.0865829 1 1 1
v -4.5 18 2 1 1 1
v -4.5 16.08658 -2.619398 1 1 1
v -11.5 22.6194 0.0865829 1 1 1
v -11.5 20.70598 -4.532815 1 1 1
v -11.5 16.08658 -2.619398 1 1 1
v -11.5 18 2 1 1 1
vn 0 -0.9238796 0.3826834
vn 0 0.9238796 -0.3826834
vn 0 0.3826834 0.9238796
vn 0 -0.3826834 -0.9238796
vt 0.4023438 0.05859375
vt 0.4023438 0.0390625
vt 0.4296875 0.0390625
vt 0.4570313 0.0390625
vt 0.4570313 0.05859375
vt 0.4296875 0.05859375
vt 0.4921875 0.0390625
vt 0.4921875 0.01953125
vt 0.3398438 0.1210938
vt 0.3203125 0.1210938
v -1.464466 13 -5.535534 1 1 1
v -0.7573593 13 -4.828427 1 1 1
v -4.292893 13 -1.292893 1 1 1
v -5 13 -2 1 1 1
v -0.7573593 20 -4.828427 1 1 1
v -1.464466 20 -5.535534 1 1 1
v -5 20 -2 1 1 1
v -4.292893 20 -1.292893 1 1 1
v -4.292893 20 -1.292893 1 1 1
v -5 20 -2 1 1 1
v -5 13 -2 1 1 1
v -4.292893 13 -1.292893 1 1 1
v -1.464466 20 -5.535534 1 1 1
v -0.7573593 20 -4.828427 1 1 1
v -0.7573593 13 -4.828427 1 1 1
v -1.464466 13 -5.535534 1 1 1
v -0.7573593 20 -4.828427 1 1 1
v -4.292893 20 -1.292893 1 1 1
v -4.292893 13 -1.292893 1 1 1
v -0.7573593 13 -4.828427 1 1 1
v -5 20 -2 1 1 1
v -1.464466 20 -5.535534 1 1 1
v -1.464466 13 -5.535534 1 1 1
v -5 13 -2 1 1 1
vn -0.7071068 0 0.7071067
vn 0.7071068 0 -0.7071067
vn 0.7071067 0 0.7071068
vn -0.7071067 0 -0.7071068
vt 0.4648438 0.1289063
vt 0.4648438 0.1328125
vt 0.4453125 0.1328125
vt 0.4453125 0.1289063
vt 0.4257813 0.1328125
vt 0.4257813 0.1289063
vt 0.40625 0.1289063
vt 0.40625 0.1328125
vt 0.1367188 0.1171875
vt 0.1328125 0.1171875
vt 0.1328125 0.08984375
vt 0.1367188 0.08984375
vt 0.09765625 0.1835938
vt 0.1015625 0.1835938
vt 0.1015625 0.15625
vt 0.09765625 0.15625
vt 0.3007813 0.171875
vt 0.3203125 0.171875
vt 0.3203125 0.1445313
vt 0.3007813 0.1445313
v -10 9.5 0.5 1 1 1
v -6 9.5 0.5 1 1 1
v -6 9.5 4.5 1 1 1
v -10 9.5 4.5 1 1 1
v -6 14.5 0.5 1 1 1
v -10 14.5 0.5 1 1 1
v -10 14.5 4.5 1 1 1
v -6 14.5 4.5 1 1 1
v -6 14.5 4.5 1 1 1
v -10 14.5 4.5 1 1 1
v -10 9.5 4.5 1 1 1
v -6 9.5 4.5 1 1 1
v -10 14.5 0.5 1 1 1
v -6 14.5 0.5 1 1 1
v -6 9.5 0.5 1 1 1
v -10 9.5 0.5 1 1 1
v -6 14.5 0.5 1 1 1
v -6 14.5 4.5 1 1 1
v -6 9.5 4.5 1 1 1
v -6 9.5 0.5 1 1 1
v -10 14.5 4.5 1 1 1
v -10 14.5 0.5 1 1 1
v -10 9.5 0.5 1 1 1
v -10 9.5 4.5 1 1 1
vt 0.3710938 0.1210938
vt 0.3554688 0.1210938
vt 0.3554688 0.1054688
vt 0.3710938 0.1054688
vt 0.3398438 0.1835938
vt 0.3554688 0.1835938
vt 0.3554688 0.1992188
vt 0.3398438 0.1992188
vt 0.3359375 0.1953125
vt 0.3203125 0.1953125
vt 0.3203125 0.1757813
vt 0.3359375 0.1757813
vt 0.4648438 0.09765625
vt 0.4492188 0.09765625
vt 0.4492188 0.078125
vt 0.4648438 0.078125
vt 0.4335938 0.09765625
vt 0.4335938 0.078125
v -12 15.02513 0.5251265 1 1 1
v -4 15.02513 0.5251265 1 1 1
v -4 17.5 3 1 1 1
v -12 17.5 3 1 1 1
v -4 17.85355 -2.303301 1 1 1
v -12 17.85355 -2.303301 1 1 1
v -12 20.32843 0.1715727 1 1 1
v -4 20.32843 0.1715727 1 1 1
v -4 20.32843 0.1715727 1 1 1
v -12 20.32843 0.1715727 1 1 1
v -12 17.5 3 1 1 1
v -4 17.5 3 1 1 1
v -12 17.85355 -2.303301 1 1 1
v -4 17.85355 -2.303301 1 1 1
v -4 15.02513 0.5251265 1 1 1
v -12 15.02513 0.5251265 1 1 1
v -4 17.85355 -2.303301 1 1 1
v -4 20.32843 0.1715727 1 1 1
v -4 17.5 3 1 1 1
v -4 15.02513 0.5251265 1 1 1
v -12 20.32843 0.1715727 1 1 1
v -12 17.85355 -2.303301 1 1 1
v -12 15.02513 0.5251265 1 1 1
v -12 17.5 3 1 1 1
vn 0 -0.7071067 0.7071068
vn 0 0.7071067 -0.7071068
vn 0 0.7071068 0.7071067
vn 0 -0.7071068 -0.7071067
vt 0.4179688 0.08984375
vt 0.3867188 0.08984375
vt 0.3867188 0.078125
vt 0.4179688 0.078125
vt 0.4570313 0.0625
vt 0.4882813 0.0625
vt 0.4882813 0.07421875
vt 0.4570313 0.07421875
vt 0.3203125 0.078125
vt 0.3203125 0.0625
vt 0.4882813 0.0546875
vt 0.4570313 0.0546875
vt 0.4882813 0.0390625
vt 0.125 0.203125
vt 0.1367188 0.203125
vt 0.1367188 0.1875
vt 0.125 0.1875
v -9.75 5.64805 0.7283614 1 1 1
v -6.25 5.64805 0.7283614 1 1 1
v -6.25 4.5 3.5 1 1 1
v -9.75 4.5 3.5 1 1 1
v -6.25 8.419689 1.876412 1 1 1
v -9.75 8.419689 1.876412 1 1 1
v -9.75 7.271639 4.64805 1 1 1
v -6.25 7.271639 4.64805 1 1 1
v -6.25 7.271639 4.64805 1 1 1
v -9.75 7.271639 4.64805 1 1 1
v -9.75 4.5 3.5 1 1 1
v -6.25 4.5 3.5 1 1 1
v -9.75 8.419689 1.876412 1 1 1
v -6.25 8.419689 1.876412 1 1 1
v -6.25 5.64805 0.7283614 1 1 1
v -9.75 5.64805 0.7283614 1 1 1
v -6.25 8.419689 1.876412 1 1 1
v -6.25 7.271639 4.64805 1 1 1
v -6.25 4.5 3.5 1 1 1
v -6.25 5.64805 0.7283614 1 1 1
v -9.75 7.271639 4.64805 1 1 1
v -9.75 8.419689 1.876412 1 1 1
v -9.75 5.64805 0.7283614 1 1 1
v -9.75 4.5 3.5 1 1 1
vt 0.5 0.07421875
vt 0.5 0.0625
vt 0.484375 0.1054688
vt 0.4960938 0.1054688
vt 0.4960938 0.1171875
vt 0.484375 0.1171875
vt 0.3671875 0.140625
vt 0.3554688 0.140625
vt 0.3554688 0.1289063
vt 0.3671875 0.1289063
vt 0.3671875 0.1523438
vt 0.3554688 0.1523438
vt 0.3554688 0.1757813
vt 0.3671875 0.1757813
vt 0.3554688 0.1640625
v -9.5 4.14805 0.2283614 1 1 1
v -6.5 4.14805 0.2283614 1 1 1
v -6.5 3 3 1 1 1
v -9.5 3 3 1 1 1
v -6.5 5.99581 0.9937284 1 1 1
v -9.5 5.99581 0.9937284 1 1 1
v -9.5 4.847759 3.765367 1 1 1
v -6.5 4.847759 3.765367 1 1 1
v -6.5 4.847759 3.765367 1 1 1
v -9.5 4.847759 3.765367 1 1 1
v -9.5 3 3 1 1 1
v -6.5 3 3 1 1 1
v -9.5 5.99581 0.9937284 1 1 1
v -6.5 5.99581 0.9937284 1 1 1
v -6.5 4.14805 0.2283614 1 1 1
v -9.5 4.14805 0.2283614 1 1 1
v -6.5 5.99581 0.9937284 1 1 1
v -6.5 4.847759 3.765367 1 1 1
v -6.5 3 3 1 1 1
v -6.5 4.14805 0.2283614 1 1 1
v -9.5 4.847759 3.765367 1 1 1
v -9.5 5.99581 0.9937284 1 1 1
v -9.5 4.14805 0.2283614 1 1 1
v -9.5 3 3 1 1 1
vt 0.1015625 0.1992188
vt 0.08984375 0.1992188
vt 0.08984375 0.1875
vt 0.1015625 0.1875
vt 0.125 0.1601563
vt 0.1367188 0.1601563
vt 0.1367188 0.171875
vt 0.125 0.171875
vt 0.1835938 0.25
vt 0.171875 0.25
vt 0.171875 0.2421875
vt 0.1835938 0.2421875
vt 0.484375 0.0625
vt 0.4726563 0.0625
vt 0.4726563 0.0546875
vt 0.484375 0.0546875
vt 0.3554688 0.1914063
vt 0.3671875 0.1914063
vt 0.3671875 0.1835938
v -9.75 7 1.25 1 1 1
v -6.25 7 1.25 1 1 1
v -6.25 7 4.75 1 1 1
v -9.75 7 4.75 1 1 1
v -6.25 10 1.25 1 1 1
v -9.75 10 1.25 1 1 1
v -9.75 10 4.75 1 1 1
v -6.25 10 4.75 1 1 1
v -6.25 10 4.75 1 1 1
v -9.75 10 4.75 1 1 1
v -9.75 7 4.75 1 1 1
v -6.25 7 4.75 1 1 1
v -9.75 10 1.25 1 1 1
v -6.25 10 1.25 1 1 1
v -6.25 7 1.25 1 1 1
v -9.75 7 1.25 1 1 1
v -6.25 10 1.25 1 1 1
v -6.25 10 4.75 1 1 1
v -6.25 7 4.75 1 1 1
v -6.25 7 1.25 1 1 1
v -9.75 10 4.75 1 1 1
v -9.75 10 1.25 1 1 1
v -9.75 7 1.25 1 1 1
v -9.75 7 4.75 1 1 1
vt 0.4882813 0.05078125
vt 0.5 0.05078125
vt 0.1367188 0.2148438
vt 0.125 0.2148438
vt 0.234375 0.2304688
vt 0.2226563 0.2304688
vt 0.2226563 0.21875
vt 0.234375 0.21875
vt 0.2226563 0.2070313
vt 0.234375 0.2070313
vt 0.5 0.0390625
v -9.25 2.64805 -0.2716386 1 1 1
v -6.75 2.64805 -0.2716386 1 1 1
v -6.75 1.5 2.5 1 1 1
v -9.25 1.5 2.5 1 1 1
v -6.75 4.49581 0.4937284 1 1 1
v -9.25 4.49581 0.4937284 1 1 1
v -9.25 3.347759 3.265367 1 1 1
v -6.75 3.347759 3.265367 1 1 1
v -6.75 3.347759 3.265367 1 1 1
v -9.25 3.347759 3.265367 1 1 1
v -9.25 1.5 2.5 1 1 1
v -6.75 1.5 2.5 1 1 1
v -9.25 4.49581 0.4937284 1 1 1
v -6.75 4.49581 0.4937284 1 1 1
v -6.75 2.64805 -0.2716386 1 1 1
v -9.25 2.64805 -0.2716386 1 1 1
v -6.75 4.49581 0.4937284 1 1 1
v -6.75 3.347759 3.265367 1 1 1
v -6.75 1.5 2.5 1 1 1
v -6.75 2.64805 -0.2716386 1 1 1
v -9.25 3.347759 3.265367 1 1 1
v -9.25 4.49581 0.4937284 1 1 1
v -9.25 2.64805 -0.2716386 1 1 1
v -9.25 1.5 2.5 1 1 1
vt 0.1757813 0.1640625
vt 0.1835938 0.1640625
vt 0.1835938 0.1914063
vt 0.1757813 0.1914063
vt 0.375 0.1796875
vt 0.3671875 0.1796875
vt 0.375 0.1875
vt 0.3671875 0.1875
vt 0.2226563 0.1015625
vt 0.234375 0.1015625
vt 0.234375 0.09375
vt 0.2226563 0.09375
v -9.25 2.267767 -0.7677668 1 1 1
v -6.75 2.267767 -0.7677668 1 1 1
v -6.75 0.5 1 1 1 1
v -9.25 0.5 1 1 1 1
v -6.75 3.681981 0.6464468 1 1 1
v -9.25 3.681981 0.6464468 1 1 1
v -9.25 1.914213 2.414214 1 1 1
v -6.75 1.914213 2.414214 1 1 1
v -6.75 1.914213 2.414214 1 1 1
v -9.25 1.914213 2.414214 1 1 1
v -9.25 0.5 1 1 1 1
v -6.75 0.5 1 1 1 1
v -9.25 3.681981 0.6464468 1 1 1
v -6.75 3.681981 0.6464468 1 1 1
v -6.75 2.267767 -0.7677668 1 1 1
v -9.25 2.267767 -0.7677668 1 1 1
v -6.75 3.681981 0.6464468 1 1 1
v -6.75 1.914213 2.414214 1 1 1
v -6.75 0.5 1 1 1 1
v -6.75 2.267767 -0.7677668 1 1 1
v -9.25 1.914213 2.414214 1 1 1
v -9.25 3.681981 0.6464468 1 1 1
v -9.25 2.267767 -0.7677668 1 1 1
v -9.25 0.5 1 1 1 1
vn 0 -0.7071067 -0.7071068
vn 0 0.7071067 0.7071068
vn 0 -0.7071068 0.7071067
vn 0 0.7071068 -0.7071067
vt 0.375 0.1953125
vt 0.3671875 0.1953125
vt 0.375 0.203125
vt 0.3671875 0.203125
vt 0.375 0.2109375
vt 0.3671875 0.2109375
vt 0.375 0.21875
vt 0.3671875 0.21875
vt 0.375 0.1484375
vt 0.3671875 0.1484375
v -11 11.5 -3 1 1 1
v -5 11.5 -3 1 1 1
v -5 11.5 2.5 1 1 1
v -11 11.5 2.5 1 1 1
v -5 17.5 -3 1 1 1
v -11 17.5 -3 1 1 1
v -11 17.5 2.5 1 1 1
v -5 17.5 2.5 1 1 1
v -5 17.5 2.5 1 1 1
v -11 17.5 2.5 1 1 1
v -11 11.5 2.5 1 1 1
v -5 11.5 2.5 1 1 1
v -11 17.5 -3 1 1 1
v -5 17.5 -3 1 1 1
v -5 11.5 -3 1 1 1
v -11 11.5 -3 1 1 1
v -5 17.5 -3 1 1 1
v -5 17.5 2.5 1 1 1
v -5 11.5 2.5 1 1 1
v -5 11.5 -3 1 1 1
v -11 17.5 2.5 1 1 1
v -11 17.5 -3 1 1 1
v -11 11.5 -3 1 1 1
v -11 11.5 2.5 1 1 1
vt 0.3867188 0.09765625
vt 0.3632813 0.09765625
vt 0.3632813 0.078125
vt 0.3398438 0.078125
vt 0.3398438 0.09765625
vt 0.3476563 0.0625
vt 0.3242188 0.0625
vt 0.3242188 0.0390625
vt 0.3007813 0.0625
vt 0.3007813 0.0390625
vt 0.234375 0.25
vt 0.2539063 0.25
vt 0.2539063 0.2265625
vt 0.234375 0.2265625
v -10.1786 15.52513 0.5251265 1 1 1
v -5.6786 15.52513 0.5251265 1 1 1
v -5.6786 18 3 1 1 1
v -10.1786 18 3 1 1 1
v -5.6786 18.35355 -2.303301 1 1 1
v -10.1786 18.35355 -2.303301 1 1 1
v -10.1786 20.82843 0.1715727 1 1 1
v -5.6786 20.82843 0.1715727 1 1 1
v -5.6786 20.82843 0.1715727 1 1 1
v -10.1786 20.82843 0.1715727 1 1 1
v -10.1786 18 3 1 1 1
v -5.6786 18 3 1 1 1
v -10.1786 18.35355 -2.303301 1 1 1
v -5.6786 18.35355 -2.303301 1 1 1
v -5.6786 15.52513 0.5251265 1 1 1
v -10.1786 15.52513 0.5251265 1 1 1
v -5.6786 18.35355 -2.303301 1 1 1
v -5.6786 20.82843 0.1715727 1 1 1
v -5.6786 18 3 1 1 1
v -5.6786 15.52513 0.5251265 1 1 1
v -10.1786 20.82843 0.1715727 1 1 1
v -10.1786 18.35355 -2.303301 1 1 1
v -10.1786 15.52513 0.5251265 1 1 1
v -10.1786 18 3 1 1 1
vt 0.4179688 0.1171875
vt 0.4023438 0.1171875
vt 0.4023438 0.1054688
vt 0.4179688 0.1054688
vt 0.1835938 0.2382813
vt 0.1992188 0.2382813
vt 0.1992188 0.25
vt 0.3398438 0.1679688
vt 0.3554688 0.1679688
vt 0.3398438 0.1523438
vt 0.234375 0.1328125
vt 0.2226563 0.1328125
vt 0.2226563 0.1171875
vt 0.234375 0.1171875
v -10.1786 13.16061 1.266422 1 1 1
v -5.6786 13.16061 1.266422 1 1 1
v -5.6786 14.5 4.5 1 1 1
v -10.1786 14.5 4.5 1 1 1
v -5.6786 16.85613 -0.2643123 1 1 1
v -10.1786 16.85613 -0.2643123 1 1 1
v -10.1786 18.19552 2.969266 1 1 1
v -5.6786 18.19552 2.969266 1 1 1
v -5.6786 18.19552 2.969266 1 1 1
v -10.1786 18.19552 2.969266 1 1 1
v -10.1786 14.5 4.5 1 1 1
v -5.6786 14.5 4.5 1 1 1
v -10.1786 16.85613 -0.2643123 1 1 1
v -5.6786 16.85613 -0.2643123 1 1 1
v -5.6786 13.16061 1.266422 1 1 1
v -10.1786 13.16061 1.266422 1 1 1
v -5.6786 16.85613 -0.2643123 1 1 1
v -5.6786 18.19552 2.969266 1 1 1
v -5.6786 14.5 4.5 1 1 1
v -5.6786 13.16061 1.266422 1 1 1
v -10.1786 18.19552 2.969266 1 1 1
v -10.1786 16.85613 -0.2643123 1 1 1
v -10.1786 13.16061 1.266422 1 1 1
v -10.1786 14.5 4.5 1 1 1
vt 0.4492188 0.1171875
vt 0.4335938 0.1171875
vt 0.4335938 0.1054688
vt 0.4492188 0.1054688
vt 0.4023438 0.1210938
vt 0.3867188 0.1210938
vt 0.3867188 0.1054688
vt 0.2226563 0.078125
vt 0.234375 0.078125
vt 0.234375 0.0625
vt 0.2226563 0.0625
v -9.25 0.5 -1.5 1 1 1
v -6.75 0.5 -1.5 1 1 1
v -6.75 0.5 1 1 1 1
v -9.25 0.5 1 1 1 1
v -6.75 2.5 -1.5 1 1 1
v -9.25 2.5 -1.5 1 1 1
v -9.25 2.5 1 1 1 1
v -6.75 2.5 1 1 1 1
v -6.75 2.5 1 1 1 1
v -9.25 2.5 1 1 1 1
v -9.25 0.5 1 1 1 1
v -6.75 0.5 1 1 1 1
v -9.25 2.5 -1.5 1 1 1
v -6.75 2.5 -1.5 1 1 1
v -6.75 0.5 -1.5 1 1 1
v -9.25 0.5 -1.5 1 1 1
v -6.75 2.5 -1.5 1 1 1
v -6.75 2.5 1 1 1 1
v -6.75 0.5 1 1 1 1
v -6.75 0.5 -1.5 1 1 1
v -9.25 2.5 1 1 1 1
v -9.25 2.5 -1.5 1 1 1
v -9.25 0.5 -1.5 1 1 1
v -9.25 0.5 1 1 1 1
vt 0.375 0.2265625
vt 0.3671875 0.2265625
vt 0.5 0.01953125
vt 0.5 0.02734375
vt 0.4921875 0.02734375
vt 0.5 0.03515625
vt 0.4921875 0.03515625
vt 0.3632813 0.1992188
vt 0.3632813 0.1914063
vt 0.3554688 0.2148438
vt 0.3632813 0.2148438
vt 0.3632813 0.2070313
vt 0.3554688 0.2070313
v -9 1.265367 -2.847759 1 1 1
v -7 1.265367 -2.847759 1 1 1
v -7 0.5 -1 1 1 1
v -9 0.5 -1 1 1 1
v -7 3.113126 -2.082392 1 1 1
v -9 3.113126 -2.082392 1 1 1
v -9 2.347759 -0.234633 1 1 1
v -7 2.347759 -0.234633 1 1 1
v -7 2.347759 -0.234633 1 1 1
v -9 2.347759 -0.234633 1 1 1
v -9 0.5 -1 1 1 1
v -7 0.5 -1 1 1 1
v -9 3.113126 -2.082392 1 1 1
v -7 3.113126 -2.082392 1 1 1
v -7 1.265367 -2.847759 1 1 1
v -9 1.265367 -2.847759 1 1 1
v -7 3.113126 -2.082392 1 1 1
v -7 2.347759 -0.234633 1 1 1
v -7 0.5 -1 1 1 1
v -7 1.265367 -2.847759 1 1 1
v -9 2.347759 -0.234633 1 1 1
v -9 3.113126 -2.082392 1 1 1
v -9 1.265367 -2.847759 1 1 1
v -9 0.5 -1 1 1 1
vt 0.3632813 0.2226563
vt 0.3554688 0.2226563
vt 0.3632813 0.2304688
vt 0.3554688 0.2304688
vt 0.375 0.234375
vt 0.3671875 0.234375
vt 0.3632813 0.2460938
vt 0.3554688 0.2460938
vt 0.3554688 0.2382813
vt 0.3632813 0.2382813
vt 0.375 0.140625
v -14.32843 13 -5.742641 1 1 1
v -10.79289 13 -2.207107 1 1 1
v -11.5 13 -1.5 1 1 1
v -15.03553 13 -5.035534 1 1 1
v -10.79289 20 -2.207107 1 1 1
v -14.32843 20 -5.742641 1 1 1
v -15.03553 20 -5.035534 1 1 1
v -11.5 20 -1.5 1 1 1
v -11.5 20 -1.5 1 1 1
v -15.03553 20 -5.035534 1 1 1
v -15.03553 13 -5.035534 1 1 1
v -11.5 13 -1.5 1 1 1
v -14.32843 20 -5.742641 1 1 1
v -10.79289 20 -2.207107 1 1 1
v -10.79289 13 -2.207107 1 1 1
v -14.32843 13 -5.742641 1 1 1
v -10.79289 20 -2.207107 1 1 1
v -11.5 20 -1.5 1 1 1
v -11.5 13 -1.5 1 1 1
v -10.79289 13 -2.207107 1 1 1
v -15.03553 20 -5.035534 1 1 1
v -14.32843 20 -5.742641 1 1 1
v -14.32843 13 -5.742641 1 1 1
v -15.03553 13 -5.035534 1 1 1
g Element #1
usemtl Element
f 1/1/1 2/2/1 4/4/1
f 2/2/1 3/3/1 4/4/1
f 5/5/2 6/6/2 8/8/2
f 6/6/2 7/7/2 8/8/2
f 9/9/3 10/10/3 12/12/3
f 10/10/3 11/11/3 12/12/3
f 13/10/4 14/13/4 16/11/4
f 14/13/4 15/14/4 16/11/4
f 17/15/5 18/16/5 20/18/5
f 18/16/5 19/17/5 20/18/5
f 21/16/6 22/15/6 24/17/6
f 22/15/6 23/18/6 24/17/6
g Element #22
usemtl Element
f 25/19/7 26/20/7 28/22/7
f 26/20/7 27/21/7 28/22/7
f 29/23/8 30/24/8 32/26/8
f 30/24/8 31/25/8 32/26/8
f 33/27/9 34/28/9 36/30/9
f 34/28/9 35/29/9 36/30/9
f 37/31/10 38/32/10 40/27/10
f 38/32/10 39/28/10 40/27/10
f 41/33/5 42/34/5 44/36/5
f 42/34/5 43/35/5 44/36/5
f 45/37/6 46/38/6 48/40/6
f 46/38/6 47/39/6 48/40/6
g Element #23
usemtl Element
f 49/41/11 50/1/11 52/42/11
f 50/1/11 51/4/11 52/42/11
f 53/43/12 54/44/12 56/46/12
f 54/44/12 55/45/12 56/46/12
f 57/47/13 58/7/13 60/48/13
f 58/7/13 59/6/13 60/48/13
f 61/46/14 62/41/14 64/43/14
f 62/41/14 63/42/14 64/43/14
f 65/18/5 66/17/5 68/50/5
f 66/17/5 67/49/5 68/50/5
f 69/17/6 70/18/6 72/49/6
f 70/18/6 71/50/6 72/49/6
g Element #24
usemtl Element
f 73/51/7 74/52/7 76/54/7
f 74/52/7 75/53/7 76/54/7
f 77/55/8 78/56/8 80/58/8
f 78/56/8 79/57/8 80/58/8
f 81/59/15 82/60/15 84/62/15
f 82/60/15 83/61/15 84/62/15
f 85/63/16 86/64/16 88/66/16
f 86/64/16 87/65/16 88/66/16
f 89/67/17 90/68/17 92/70/17
f 90/68/17 91/69/17 92/70/17
f 93/68/18 94/67/18 96/69/18
f 94/67/18 95/70/18 96/69/18
g Element #25
usemtl Element
f 97/71/7 98/72/7 100/74/7
f 98/72/7 99/73/7 100/74/7
f 101/75/8 102/76/8 104/78/8
f 102/76/8 103/77/8 104/78/8
f 105/79/9 106/80/9 108/82/9
f 106/80/9 107/81/9 108/82/9
f 109/83/10 110/84/10 112/86/10
f 110/84/10 111/85/10 112/86/10
f 113/87/5 114/84/5 116/88/5
f 114/84/5 115/85/5 116/88/5
f 117/84/6 118/87/6 120/85/6
f 118/87/6 119/88/6 120/85/6
g Element #26
usemtl Element
f 121/89/19 122/90/19 124/92/19
f 122/90/19 123/91/19 124/92/19
f 125/93/20 126/94/20 128/96/20
f 126/94/20 127/95/20 128/96/20
f 129/13/21 130/97/21 132/14/21
f 130/97/21 131/98/21 132/14/21
f 133/99/22 134/100/22 136/101/22
f 134/100/22 135/44/22 136/101/22
f 137/102/5 138/103/5 140/105/5
f 138/103/5 139/104/5 140/105/5
f 141/103/6 142/102/6 144/104/6
f 142/102/6 143/105/6 144/104/6
g Element #27
usemtl Element
f 145/106/1 146/95/1 148/107/1
f 146/95/1 147/94/1 148/107/1
f 149/108/2 150/109/2 152/111/2
f 150/109/2 151/110/2 152/111/2
f 153/112/3 154/113/3 156/115/3
f 154/113/3 155/114/3 156/115/3
f 157/116/4 158/117/4 160/112/4
f 158/117/4 159/113/4 160/112/4
f 161/118/5 162/119/5 164/120/5
f 162/119/5 163/28/5 164/120/5
f 165/119/6 166/118/6 168/28/6
f 166/118/6 167/120/6 168/28/6
g Element #28
usemtl Element
f 169/121/1 170/122/1 172/124/1
f 170/122/1 171/123/1 172/124/1
f 173/125/2 174/126/2 176/128/2
f 174/126/2 175/127/2 176/128/2
f 177/129/3 178/130/3 180/132/3
f 178/130/3 179/131/3 180/132/3
f 181/133/4 182/134/4 184/136/4
f 182/134/4 183/135/4 184/136/4
f 185/137/5 186/138/5 188/76/5
f 186/138/5 187/139/5 188/76/5
f 189/138/6 190/137/6 192/139/6
f 190/137/6 191/76/6 192/139/6
g Element #29
usemtl Element
f 193/107/7 194/94/7 196/141/7
f 194/94/7 195/140/7 196/141/7
f 197/102/8 198/103/8 200/143/8
f 198/103/8 199/142/8 200/143/8
f 201/144/9 202/145/9 204/147/9
f 202/145/9 203/146/9 204/147/9
f 205/147/10 206/146/10 208/149/10
f 206/146/10 207/148/10 208/149/10
f 209/140/5 210/141/5 212/101/5
f 210/141/5 211/150/5 212/101/5
f 213/141/6 214/140/6 216/150/6
f 214/140/6 215/101/6 216/150/6
g Element #30
usemtl Element
f 217/24/1 218/23/1 220/152/1
f 218/23/1 219/151/1 220/152/1
f 221/26/2 222/25/2 224/154/2
f 222/25/2 223/153/2 224/154/2
f 225/155/3 226/156/3 228/31/3
f 226/156/3 227/32/3 228/31/3
f 229/157/4 230/158/4 232/155/4
f 230/158/4 231/156/4 232/155/4
f 233/159/5 234/160/5 236/162/5
f 234/160/5 235/161/5 236/162/5
f 237/160/6 238/159/6 240/161/6
f 238/159/6 239/162/6 240/161/6
g Element #31
usemtl Element
f 241/163/23 242/164/23 244/157/23
f 242/164/23 243/158/23 244/157/23
f 245/164/24 246/163/24 248/166/24
f 246/163/24 247/165/24 248/166/24
f 249/167/25 250/168/25 252/165/25
f 250/168/25 251/166/25 252/165/25
f 253/169/26 254/170/26 256/167/26
f 254/170/26 255/168/26 256/167/26
f 257/29/5 258/30/5 260/172/5
f 258/30/5 259/171/5 260/172/5
f 261/30/6 262/29/6 264/171/6
f 262/29/6 263/172/6 264/171/6
g Element #32
usemtl Element
f 265/173/7 266/174/7 268/91/7
f 266/174/7 267/175/7 268/91/7
f 269/176/8 270/175/8 272/177/8
f 270/175/8 271/174/8 272/177/8
f 273/178/9 274/179/9 276/3/9
f 274/179/9 275/180/9 276/3/9
f 277/179/10 278/181/10 280/180/10
f 278/181/10 279/182/10 280/180/10
f 281/183/5 282/184/5 284/186/5
f 282/184/5 283/185/5 284/186/5
f 285/184/6 286/183/6 288/185/6
f 286/183/6 287/186/6 288/185/6
g Element #33
usemtl Element
f 289/187/19 290/188/19 292/190/19
f 290/188/19 291/189/19 292/190/19
f 293/191/20 294/192/20 296/129/20
f 294/192/20 295/193/20 296/129/20
f 297/76/21 298/75/21 300/195/21
f 298/75/21 299/194/21 300/195/21
f 301/195/22 302/194/22 304/117/22
f 302/194/22 303/196/22 304/117/22
f 305/104/5 306/105/5 308/127/5
f 306/105/5 307/128/5 308/127/5
f 309/197/6 310/198/6 312/200/6
f 310/198/6 311/199/6 312/200/6
g Element #34
usemtl Element
f 313/201/11 314/202/11 316/204/11
f 314/202/11 315/203/11 316/204/11
f 317/190/12 318/203/12 320/187/12
f 318/203/12 319/202/12 320/187/12
f 321/205/13 322/206/13 324/189/13
f 322/206/13 323/207/13 324/189/13
f 325/206/14 326/71/14 328/207/14
f 326/71/14 327/74/14 328/207/14
f 329/208/5 330/209/5 332/211/5
f 330/209/5 331/210/5 332/211/5
f 333/209/6 334/208/6 336/210/6
f 334/208/6 335/211/6 336/210/6
g Element #35
usemtl Element
f 337/212/7 338/213/7 340/169/7
f 338/213/7 339/170/7 340/169/7
f 341/48/8 342/214/8 344/216/8
f 342/214/8 343/215/8 344/216/8
f 345/217/9 346/218/9 348/215/9
f 346/218/9 347/216/9 348/215/9
f 349/219/10 350/77/10 352/220/10
f 350/77/10 351/137/10 352/220/10
f 353/221/5 354/222/5 356/224/5
f 354/222/5 355/223/5 356/224/5
f 357/222/6 358/221/6 360/223/6
f 358/221/6 359/224/6 360/223/6
g Element #36
usemtl Element
f 361/225/1 362/226/1 364/222/1
f 362/226/1 363/221/1 364/222/1
f 365/226/2 366/225/2 368/228/2
f 366/225/2 367/227/2 368/228/2
f 369/229/3 370/230/3 372/212/3
f 370/230/3 371/213/3 372/212/3
f 373/231/4 374/232/4 376/234/4
f 374/232/4 375/233/4 376/234/4
f 377/172/5 378/171/5 380/112/5
f 378/171/5 379/235/5 380/112/5
f 381/171/6 382/172/6 384/235/6
f 382/172/6 383/112/6 384/235/6
g Element #44
usemtl Element
f 385/52/7 386/53/7 388/51/7
f 386/53/7 387/54/7 388/51/7
f 389/57/8 390/56/8 392/58/8
f 390/56/8 391/55/8 392/58/8
f 393/68/15 394/67/15 396/69/15
f 394/67/15 395/70/15 396/69/15
f 397/67/16 398/68/16 400/70/16
f 398/68/16 399/69/16 400/70/16
f 401/59/17 402/60/17 404/62/17
f 402/60/17 403/61/17 404/62/17
f 405/64/18 406/63/18 408/65/18
f 406/63/18 407/66/18 408/65/18
