# Export of Cubik Model: Cubik Model
# Designed by Zhouyi with Cubik Studio - https://cubik.studio
# from Cubik OBJ Exporter v1.0
mtllib elephant.mtl
v -6 9 -11 1 1 1
v -1.5 9 -11 1 1 1
v -1.5 9 -6 1 1 1
v -6 9 -6 1 1 1
v -1.5 18 -11 1 1 1
v -6 18 -11 1 1 1
v -6 18 -6 1 1 1
v -1.5 18 -6 1 1 1
v -1.5 18 -6 1 1 1
v -6 18 -6 1 1 1
v -6 9 -6 1 1 1
v -1.5 9 -6 1 1 1
v -6 18 -11 1 1 1
v -1.5 18 -11 1 1 1
v -1.5 9 -11 1 1 1
v -6 9 -11 1 1 1
v -1.5 18 -11 1 1 1
v -1.5 18 -6 1 1 1
v -1.5 9 -6 1 1 1
v -1.5 9 -11 1 1 1
v -6 18 -6 1 1 1
v -6 18 -11 1 1 1
v -6 9 -11 1 1 1
v -6 9 -6 1 1 1
vn 0 -1 0
vn 0 1 0
vn 0 0 1
vn 0 0 -1
vn 1 0 0
vn -1 0 0
vt 0.3203125 0.2148438
vt 0.3359375 0.2148438
vt 0.3359375 0.1953125
vt 0.3203125 0.1953125
vt 0.3203125 0.234375
vt 0.3359375 0.234375
vt 0.2539063 0.25
vt 0.2695313 0.25
vt 0.2695313 0.2148438
vt 0.2539063 0.2148438
vt 0.2695313 0.07421875
vt 0.2851563 0.07421875
vt 0.2851563 0.0390625
vt 0.2695313 0.0390625
vt 0.234375 0.08984375
vt 0.2539063 0.08984375
vt 0.2539063 0.0546875
vt 0.234375 0.0546875
vt 0.2539063 0.01953125
vt 0.234375 0.01953125
v -13.5 8.5 -12 1 1 1
v -2.5 8.5 -12 1 1 1
v -2.5 8.5 -7 1 1 1
v -13.5 8.5 -7 1 1 1
v -2.5 20 -12 1 1 1
v -13.5 20 -12 1 1 1
v -13.5 20 -7 1 1 1
v -2.5 20 -7 1 1 1
v -2.5 20 -7 1 1 1
v -13.5 20 -7 1 1 1
v -13.5 8.5 -7 1 1 1
v -2.5 8.5 -7 1 1 1
v -13.5 20 -12 1 1 1
v -2.5 20 -12 1 1 1
v -2.5 8.5 -12 1 1 1
v -13.5 8.5 -12 1 1 1
v -2.5 20 -12 1 1 1
v -2.5 20 -7 1 1 1
v -2.5 8.5 -7 1 1 1
v -2.5 8.5 -12 1 1 1
v -13.5 20 -7 1 1 1
v -13.5 20 -12 1 1 1
v -13.5 8.5 -12 1 1 1
v -13.5 8.5 -7 1 1 1
vt 0.2773438 0.01953125
vt 0.234375 0
vt 0.2773438 0
vt 0 0.2304688
vt 0.04296875 0.2304688
vt 0.04296875 0.25
vt 0 0.25
vt 0.08984375 0.1992188
vt 0.046875 0.1992188
vt 0.046875 0.15625
vt 0.08984375 0.15625
vt 0 0.1875
vt 0.04296875 0.1875
vt 0.1835938 0.2382813
vt 0.203125 0.2382813
vt 0.203125 0.1953125
vt 0.1835938 0.1953125
v -10 21 -23.5 1 1 1
v -6 21 -23.5 1 1 1
v -6 21 -21.5 1 1 1
v -10 21 -21.5 1 1 1
v -6 22 -23.5 1 1 1
v -10 22 -23.5 1 1 1
v -10 22 -21.5 1 1 1
v -6 22 -21.5 1 1 1
v -6 22 -21.5 1 1 1
v -10 22 -21.5 1 1 1
v -10 21 -21.5 1 1 1
v -6 21 -21.5 1 1 1
v -10 22 -23.5 1 1 1
v -6 22 -23.5 1 1 1
v -6 21 -23.5 1 1 1
v -10 21 -23.5 1 1 1
v -6 22 -23.5 1 1 1
v -6 22 -21.5 1 1 1
v -6 21 -21.5 1 1 1
v -6 21 -23.5 1 1 1
v -10 22 -21.5 1 1 1
v -10 22 -23.5 1 1 1
v -10 21 -23.5 1 1 1
v -10 21 -21.5 1 1 1
vt 0.09765625 0.25
vt 0.08203125 0.25
vt 0.08203125 0.2421875
vt 0.09765625 0.2421875
vt 0.4570313 0.0546875
vt 0.4726563 0.0546875
vt 0.4726563 0.0625
vt 0.4570313 0.0625
vt 0.3554688 0.25
vt 0.3398438 0.25
vt 0.3398438 0.2460938
vt 0.3554688 0.2460938
vt 0.4179688 0.1210938
vt 0.4023438 0.1210938
vt 0.4023438 0.1171875
vt 0.4179688 0.1171875
vt 0.5 0.1210938
vt 0.4921875 0.1210938
vt 0.4921875 0.1171875
vt 0.5 0.1171875
vt 0.484375 0.1210938
vt 0.484375 0.1171875
v -14 9 -27 1 1 1
v -2 9 -27 1 1 1
v -2 9 -26 1 1 1
v -14 9 -26 1 1 1
v -2 18 -27 1 1 1
v -14 18 -27 1 1 1
v -14 18 -26 1 1 1
v -2 18 -26 1 1 1
v -2 18 -26 1 1 1
v -14 18 -26 1 1 1
v -14 9 -26 1 1 1
v -2 9 -26 1 1 1
v -14 18 -27 1 1 1
v -2 18 -27 1 1 1
v -2 9 -27 1 1 1
v -14 9 -27 1 1 1
v -2 18 -27 1 1 1
v -2 18 -26 1 1 1
v -2 9 -26 1 1 1
v -2 9 -27 1 1 1
v -14 18 -26 1 1 1
v -14 18 -27 1 1 1
v -14 9 -27 1 1 1
v -14 9 -26 1 1 1
vt 0.421875 0.1015625
vt 0.375 0.1015625
vt 0.375 0.09765625
vt 0.421875 0.09765625
vt 0.421875 0.1054688
vt 0.375 0.1054688
vt 0.1835938 0.1054688
vt 0.1367188 0.1054688
vt 0.1367188 0.0703125
vt 0.1835938 0.0703125
vt 0.1835938 0.140625
vt 0.1367188 0.140625
vt 0.1328125 0.0859375
vt 0.1367188 0.0859375
vt 0.1367188 0.05078125
vt 0.1328125 0.05078125
v -14 9 -26 1 1 1
v -2 9 -26 1 1 1
v -2 9 -20 1 1 1
v -14 9 -20 1 1 1
v -2 20 -26 1 1 1
v -14 20 -26 1 1 1
v -14 20 -20 1 1 1
v -2 20 -20 1 1 1
v -2 20 -20 1 1 1
v -14 20 -20 1 1 1
v -14 9 -20 1 1 1
v -2 9 -20 1 1 1
v -14 20 -26 1 1 1
v -2 20 -26 1 1 1
v -2 9 -26 1 1 1
v -14 9 -26 1 1 1
v -2 20 -26 1 1 1
v -2 20 -20 1 1 1
v -2 9 -20 1 1 1
v -2 9 -26 1 1 1
v -14 20 -20 1 1 1
v -14 20 -26 1 1 1
v -14 9 -26 1 1 1
v -14 9 -20 1 1 1
vt 0.2304688 0.1640625
vt 0.1835938 0.1640625
vt 0.2304688 0.140625
vt 0.1367188 0.21875
vt 0.1835938 0.21875
vt 0.1835938 0.2421875
vt 0.1367188 0.2421875
vt 0.046875 0.1875
vt 0 0.1445313
vt 0.046875 0.1445313
vt 0 0.1015625
vt 0.046875 0.1015625
vt 0.1015625 0.2148438
vt 0.125 0.2148438
vt 0.125 0.171875
vt 0.1015625 0.171875
v -13 6.5 -23.5 1 1 1
v -3 6.5 -23.5 1 1 1
v -3 6.5 -13.5 1 1 1
v -13 6.5 -13.5 1 1 1
v -3 11.5 -23.5 1 1 1
v -13 11.5 -23.5 1 1 1
v -13 11.5 -13.5 1 1 1
v -3 11.5 -13.5 1 1 1
v -3 11.5 -13.5 1 1 1
v -13 11.5 -13.5 1 1 1
v -13 6.5 -13.5 1 1 1
v -3 6.5 -13.5 1 1 1
v -13 11.5 -23.5 1 1 1
v -3 11.5 -23.5 1 1 1
v -3 6.5 -23.5 1 1 1
v -13 6.5 -23.5 1 1 1
v -3 11.5 -23.5 1 1 1
v -3 11.5 -13.5 1 1 1
v -3 6.5 -13.5 1 1 1
v -3 6.5 -23.5 1 1 1
v -13 11.5 -13.5 1 1 1
v -13 11.5 -23.5 1 1 1
v -13 6.5 -23.5 1 1 1
v -13 6.5 -13.5 1 1 1
vt 0.2226563 0.140625
vt 0.1835938 0.1015625
vt 0.2226563 0.1015625
vt 0.1757813 0.140625
vt 0.1757813 0.1796875
vt 0.1367188 0.1796875
vt 0.3164063 0.01953125
vt 0.3164063 0
vt 0.3554688 0.01953125
vt 0.3554688 0
vt 0.3945313 0.01953125
vt 0.3945313 0
v -11 16.5 -28 1 1 1
v -5 16.5 -28 1 1 1
v -5 16.5 -27 1 1 1
v -11 16.5 -27 1 1 1
v -5 17.5 -28 1 1 1
v -11 17.5 -28 1 1 1
v -11 17.5 -27 1 1 1
v -5 17.5 -27 1 1 1
v -5 17.5 -27 1 1 1
v -11 17.5 -27 1 1 1
v -11 16.5 -27 1 1 1
v -5 16.5 -27 1 1 1
v -11 17.5 -28 1 1 1
v -5 17.5 -28 1 1 1
v -5 16.5 -28 1 1 1
v -11 16.5 -28 1 1 1
v -5 17.5 -28 1 1 1
v -5 17.5 -27 1 1 1
v -5 16.5 -27 1 1 1
v -5 16.5 -28 1 1 1
v -11 17.5 -27 1 1 1
v -11 17.5 -28 1 1 1
v -11 16.5 -28 1 1 1
v -11 16.5 -27 1 1 1
vt 0.3984375 0.0625
vt 0.375 0.0625
vt 0.375 0.05859375
vt 0.3984375 0.05859375
vt 0.3476563 0.05859375
vt 0.3710938 0.05859375
vt 0.3710938 0.0625
vt 0.3476563 0.0625
vt 0.453125 0.0625
vt 0.4296875 0.0625
vt 0.4296875 0.05859375
vt 0.453125 0.05859375
vt 0.4257813 0.0625
vt 0.4023438 0.0625
vt 0.4023438 0.05859375
vt 0.4257813 0.05859375
vt 0.1367188 0.08984375
vt 0.1328125 0.08984375
vt 0.1015625 0.1875
vt 0.09765625 0.1875
vt 0.09765625 0.1835938
vt 0.1015625 0.1835938
v -12.5 9.5 -28 1 1 1
v -3.5 9.5 -28 1 1 1
v -3.5 9.5 -27 1 1 1
v -12.5 9.5 -27 1 1 1
v -3.5 11.5 -28 1 1 1
v -12.5 11.5 -28 1 1 1
v -12.5 11.5 -27 1 1 1
v -3.5 11.5 -27 1 1 1
v -3.5 11.5 -27 1 1 1
v -12.5 11.5 -27 1 1 1
v -12.5 9.5 -27 1 1 1
v -3.5 9.5 -27 1 1 1
v -12.5 11.5 -28 1 1 1
v -3.5 11.5 -28 1 1 1
v -3.5 9.5 -28 1 1 1
v -12.5 9.5 -28 1 1 1
v -3.5 11.5 -28 1 1 1
v -3.5 11.5 -27 1 1 1
v -3.5 9.5 -27 1 1 1
v -3.5 9.5 -28 1 1 1
v -12.5 11.5 -27 1 1 1
v -12.5 11.5 -28 1 1 1
v -12.5 9.5 -28 1 1 1
v -12.5 9.5 -27 1 1 1
vt 0.1367188 0.25
vt 0.1015625 0.25
vt 0.1015625 0.2460938
vt 0.1367188 0.2460938
vt 0.4609375 0.09765625
vt 0.4960938 0.09765625
vt 0.4960938 0.1015625
vt 0.4609375 0.1015625
vt 0.171875 0.25
vt 0.171875 0.2421875
vt 0.3398438 0.1054688
vt 0.3398438 0.09765625
vt 0.1015625 0.2421875
v -12.5 18 -27 1 1 1
v -3.5 18 -27 1 1 1
v -3.5 18 -26 1 1 1
v -12.5 18 -26 1 1 1
v -3.5 19 -27 1 1 1
v -12.5 19 -27 1 1 1
v -12.5 19 -26 1 1 1
v -3.5 19 -26 1 1 1
v -3.5 19 -26 1 1 1
v -12.5 19 -26 1 1 1
v -12.5 18 -26 1 1 1
v -3.5 18 -26 1 1 1
v -12.5 19 -27 1 1 1
v -3.5 19 -27 1 1 1
v -3.5 18 -27 1 1 1
v -12.5 18 -27 1 1 1
v -3.5 19 -27 1 1 1
v -3.5 19 -26 1 1 1
v -3.5 18 -26 1 1 1
v -3.5 18 -27 1 1 1
v -12.5 19 -26 1 1 1
v -12.5 19 -27 1 1 1
v -12.5 18 -27 1 1 1
v -12.5 18 -26 1 1 1
vt 0.390625 0.1289063
vt 0.3554688 0.1289063
vt 0.3554688 0.125
vt 0.390625 0.125
vt 0.4609375 0.1210938
vt 0.4960938 0.1210938
vt 0.4960938 0.125
vt 0.4609375 0.125
vt 0.4257813 0.125
vt 0.4257813 0.1210938
vt 0.484375 0.109375
vt 0.4492188 0.109375
vt 0.4492188 0.1054688
vt 0.484375 0.1054688
vt 0.1367188 0.1601563
vt 0.1328125 0.1601563
vt 0.1328125 0.15625
vt 0.1367188 0.15625
vt 0.1328125 0.2460938
vt 0.1328125 0.2421875
v -12.5 20 -25 1 1 1
v -3.5 20 -25 1 1 1
v -3.5 20 -20 1 1 1
v -12.5 20 -20 1 1 1
v -3.5 21 -25 1 1 1
v -12.5 21 -25 1 1 1
v -12.5 21 -20 1 1 1
v -3.5 21 -20 1 1 1
v -3.5 21 -20 1 1 1
v -12.5 21 -20 1 1 1
v -12.5 20 -20 1 1 1
v -3.5 20 -20 1 1 1
v -12.5 21 -25 1 1 1
v -3.5 21 -25 1 1 1
v -3.5 20 -25 1 1 1
v -12.5 20 -25 1 1 1
v -3.5 21 -25 1 1 1
v -3.5 21 -20 1 1 1
v -3.5 20 -20 1 1 1
v -3.5 20 -25 1 1 1
v -12.5 21 -20 1 1 1
v -12.5 21 -25 1 1 1
v -12.5 20 -25 1 1 1
v -12.5 20 -20 1 1 1
vt 0.46875 0.01953125
vt 0.4335938 0.01953125
vt 0.4335938 0
vt 0.46875 0
vt 0.2890625 0.01953125
vt 0.2890625 0.0390625
vt 0.2539063 0.0390625
vt 0.3554688 0.1210938
vt 0.390625 0.1210938
vt 0.4453125 0.1328125
vt 0.4257813 0.1328125
vt 0.4257813 0.1289063
vt 0.4453125 0.1289063
vt 0.3867188 0.1328125
vt 0.3671875 0.1328125
vt 0.3671875 0.1289063
vt 0.3867188 0.1289063
v -14 7.5 -20 1 1 1
v -2 7.5 -20 1 1 1
v -2 7.5 -11 1 1 1
v -14 7.5 -11 1 1 1
v -2 21 -20 1 1 1
v -14 21 -20 1 1 1
v -14 21 -11 1 1 1
v -2 21 -11 1 1 1
v -2 21 -11 1 1 1
v -14 21 -11 1 1 1
v -14 7.5 -11 1 1 1
v -2 7.5 -11 1 1 1
v -14 21 -20 1 1 1
v -2 21 -20 1 1 1
v -2 7.5 -20 1 1 1
v -14 7.5 -20 1 1 1
v -2 21 -20 1 1 1
v -2 21 -11 1 1 1
v -2 7.5 -11 1 1 1
v -2 7.5 -20 1 1 1
v -14 21 -11 1 1 1
v -14 21 -20 1 1 1
v -14 7.5 -20 1 1 1
v -14 7.5 -11 1 1 1
vt 0.1367188 0.03515625
vt 0.1835938 0.03515625
vt 0.1367188 0
vt 0.1835938 0
vt 0.046875 0.05078125
vt 0 0.05078125
vt 0 0
vt 0.046875 0
vt 0.1015625 0.05078125
vt 0.1015625 0
v -15 9.5 -22.5 1 1 1
v -1 9.5 -22.5 1 1 1
v -1 9.5 -12.5 1 1 1
v -15 9.5 -12.5 1 1 1
v -1 19.5 -22.5 1 1 1
v -15 19.5 -22.5 1 1 1
v -15 19.5 -12.5 1 1 1
v -1 19.5 -12.5 1 1 1
v -1 19.5 -12.5 1 1 1
v -15 19.5 -12.5 1 1 1
v -15 9.5 -12.5 1 1 1
v -1 9.5 -12.5 1 1 1
v -15 19.5 -22.5 1 1 1
v -1 19.5 -22.5 1 1 1
v -1 9.5 -22.5 1 1 1
v -15 9.5 -22.5 1 1 1
v -1 19.5 -22.5 1 1 1
v -1 19.5 -12.5 1 1 1
v -1 9.5 -12.5 1 1 1
v -1 9.5 -22.5 1 1 1
v -15 19.5 -12.5 1 1 1
v -15 19.5 -22.5 1 1 1
v -15 9.5 -22.5 1 1 1
v -15 9.5 -12.5 1 1 1
vt 0.1015625 0.15625
vt 0.046875 0.1171875
vt 0.1015625 0.1171875
vt 0.046875 0.078125
vt 0.1015625 0.078125
vt 0.1015625 0.0390625
vt 0.046875 0.0390625
vt 0.2226563 0.0625
vt 0.1835938 0.0625
v -14.5 10 -24.5 1 1 1
v -1.5 10 -24.5 1 1 1
v -1.5 10 -22.5 1 1 1
v -14.5 10 -22.5 1 1 1
v -1.5 18 -24.5 1 1 1
v -14.5 18 -24.5 1 1 1
v -14.5 18 -22.5 1 1 1
v -1.5 18 -22.5 1 1 1
v -1.5 18 -22.5 1 1 1
v -14.5 18 -22.5 1 1 1
v -14.5 10 -22.5 1 1 1
v -1.5 10 -22.5 1 1 1
v -14.5 18 -24.5 1 1 1
v -1.5 18 -24.5 1 1 1
v -1.5 10 -24.5 1 1 1
v -14.5 10 -24.5 1 1 1
v -1.5 18 -24.5 1 1 1
v -1.5 18 -22.5 1 1 1
v -1.5 10 -22.5 1 1 1
v -1.5 10 -24.5 1 1 1
v -14.5 18 -22.5 1 1 1
v -14.5 18 -24.5 1 1 1
v -14.5 10 -24.5 1 1 1
v -14.5 10 -22.5 1 1 1
vt 0.4570313 0.078125
vt 0.40625 0.078125
vt 0.40625 0.0703125
vt 0.4570313 0.0703125
vt 0.40625 0.0625
vt 0.234375 0.03125
vt 0.1835938 0.03125
vt 0.234375 0.0625
vt 0.08984375 0.1875
vt 0.09765625 0.15625
v -12 21 -21.5 1 1 1
v -4 21 -21.5 1 1 1
v -4 21 -11.5 1 1 1
v -12 21 -11.5 1 1 1
v -4 22 -21.5 1 1 1
v -12 22 -21.5 1 1 1
v -12 22 -11.5 1 1 1
v -4 22 -11.5 1 1 1
v -4 22 -11.5 1 1 1
v -12 22 -11.5 1 1 1
v -12 21 -11.5 1 1 1
v -4 21 -11.5 1 1 1
v -12 22 -21.5 1 1 1
v -4 22 -21.5 1 1 1
v -4 21 -21.5 1 1 1
v -12 21 -21.5 1 1 1
v -4 22 -21.5 1 1 1
v -4 22 -11.5 1 1 1
v -4 21 -11.5 1 1 1
v -4 21 -21.5 1 1 1
v -12 22 -11.5 1 1 1
v -12 22 -21.5 1 1 1
v -12 21 -21.5 1 1 1
v -12 21 -11.5 1 1 1
vt 0.1015625 0.08984375
vt 0.1328125 0.1289063
vt 0.1015625 0.1289063
vt 0.4179688 0.09765625
vt 0.3867188 0.09765625
vt 0.3867188 0.09375
vt 0.4179688 0.09375
vt 0.3867188 0.08984375
vt 0.4179688 0.08984375
vt 0.4609375 0.1054688
v -12 20 -11 1 1 1
v -4 20 -11 1 1 1
v -4 20 -6 1 1 1
v -12 20 -6 1 1 1
v -4 21 -11 1 1 1
v -12 21 -11 1 1 1
v -12 21 -6 1 1 1
v -4 21 -6 1 1 1
v -4 21 -6 1 1 1
v -12 21 -6 1 1 1
v -12 20 -6 1 1 1
v -4 20 -6 1 1 1
v -12 21 -11 1 1 1
v -4 21 -11 1 1 1
v -4 20 -11 1 1 1
v -12 20 -11 1 1 1
v -4 21 -11 1 1 1
v -4 21 -6 1 1 1
v -4 20 -6 1 1 1
v -4 20 -11 1 1 1
v -12 21 -6 1 1 1
v -12 21 -11 1 1 1
v -12 20 -11 1 1 1
v -12 20 -6 1 1 1
vt 0.234375 0.25
vt 0.203125 0.25
vt 0.203125 0.2304688
vt 0.234375 0.2304688
vt 0.5 0
vt 0.5 0.01953125
vt 0.421875 0.1289063
vt 0.421875 0.125
vt 0.453125 0.1289063
vt 0.453125 0.125
vt 0.4804688 0.09765625
vt 0.5 0.09765625
vt 0.5 0.09375
vt 0.4804688 0.09375
v -10 20.5 -11.5 1 1 1
v -6 20.5 -11.5 1 1 1
v -6 20.5 -3.5 1 1 1
v -10 20.5 -3.5 1 1 1
v -6 21.5 -11.5 1 1 1
v -10 21.5 -11.5 1 1 1
v -10 21.5 -3.5 1 1 1
v -6 21.5 -3.5 1 1 1
v -6 21.5 -3.5 1 1 1
v -10 21.5 -3.5 1 1 1
v -10 20.5 -3.5 1 1 1
v -6 20.5 -3.5 1 1 1
v -10 21.5 -11.5 1 1 1
v -6 21.5 -11.5 1 1 1
v -6 20.5 -11.5 1 1 1
v -10 20.5 -11.5 1 1 1
v -6 21.5 -11.5 1 1 1
v -6 21.5 -3.5 1 1 1
v -6 20.5 -3.5 1 1 1
v -6 20.5 -11.5 1 1 1
v -10 21.5 -3.5 1 1 1
v -10 21.5 -11.5 1 1 1
v -10 20.5 -11.5 1 1 1
v -10 20.5 -3.5 1 1 1
vt 0.3164063 0.234375
vt 0.3007813 0.234375
vt 0.3007813 0.203125
vt 0.3164063 0.203125
vt 0.3007813 0.171875
vt 0.3164063 0.171875
vt 0.4335938 0.1210938
vt 0.4335938 0.1171875
vt 0.4492188 0.1210938
vt 0.4492188 0.1171875
vt 0.484375 0.1289063
vt 0.484375 0.125
vt 0.4882813 0.078125
vt 0.4570313 0.07421875
vt 0.4882813 0.07421875
v -12 12 -7 1 1 1
v -4 12 -7 1 1 1
v -4 12 -2 1 1 1
v -12 12 -2 1 1 1
v -4 20.5 -7 1 1 1
v -12 20.5 -7 1 1 1
v -12 20.5 -2 1 1 1
v -4 20.5 -2 1 1 1
v -4 20.5 -2 1 1 1
v -12 20.5 -2 1 1 1
v -12 12 -2 1 1 1
v -4 12 -2 1 1 1
v -12 20.5 -7 1 1 1
v -4 20.5 -7 1 1 1
v -4 12 -7 1 1 1
v -12 12 -7 1 1 1
v -4 20.5 -7 1 1 1
v -4 20.5 -2 1 1 1
v -4 12 -2 1 1 1
v -4 12 -7 1 1 1
v -12 20.5 -2 1 1 1
v -12 20.5 -7 1 1 1
v -12 12 -7 1 1 1
v -12 12 -2 1 1 1
vt 0.4375 0.0390625
vt 0.40625 0.0390625
vt 0.40625 0.01953125
vt 0.4375 0.01953125
vt 0.375 0.01953125
vt 0.375 0.0390625
vt 0.1328125 0.2148438
vt 0.2148438 0.1953125
vt 0.2148438 0.1640625
vt 0.234375 0.1953125
vt 0.234375 0.1640625
v -13.5 11.5 -28 1 1 1
v -2.5 11.5 -28 1 1 1
v -2.5 11.5 -27 1 1 1
v -13.5 11.5 -27 1 1 1
v -2.5 15.5 -28 1 1 1
v -13.5 15.5 -28 1 1 1
v -13.5 15.5 -27 1 1 1
v -2.5 15.5 -27 1 1 1
v -2.5 15.5 -27 1 1 1
v -13.5 15.5 -27 1 1 1
v -13.5 11.5 -27 1 1 1
v -2.5 11.5 -27 1 1 1
v -13.5 15.5 -28 1 1 1
v -2.5 15.5 -28 1 1 1
v -2.5 11.5 -28 1 1 1
v -13.5 11.5 -28 1 1 1
v -2.5 15.5 -28 1 1 1
v -2.5 15.5 -27 1 1 1
v -2.5 11.5 -27 1 1 1
v -2.5 11.5 -28 1 1 1
v -13.5 15.5 -27 1 1 1
v -13.5 15.5 -28 1 1 1
v -13.5 11.5 -28 1 1 1
v -13.5 11.5 -27 1 1 1
vt 0.3320313 0.0390625
vt 0.2890625 0.03515625
vt 0.3320313 0.03515625
vt 0.375 0.03515625
vt 0.3320313 0.01953125
vt 0.3164063 0.1875
vt 0.3203125 0.1875
vt 0.3203125 0.171875
v -12.5 15.5 -28 1 1 1
v -3.5 15.5 -28 1 1 1
v -3.5 15.5 -27 1 1 1
v -12.5 15.5 -27 1 1 1
v -3.5 16.5 -28 1 1 1
v -12.5 16.5 -28 1 1 1
v -12.5 16.5 -27 1 1 1
v -3.5 16.5 -27 1 1 1
v -3.5 16.5 -27 1 1 1
v -12.5 16.5 -27 1 1 1
v -12.5 15.5 -27 1 1 1
v -3.5 15.5 -27 1 1 1
v -12.5 16.5 -28 1 1 1
v -3.5 16.5 -28 1 1 1
v -3.5 15.5 -28 1 1 1
v -12.5 15.5 -28 1 1 1
v -3.5 16.5 -28 1 1 1
v -3.5 16.5 -27 1 1 1
v -3.5 15.5 -27 1 1 1
v -3.5 15.5 -28 1 1 1
v -12.5 16.5 -27 1 1 1
v -12.5 16.5 -28 1 1 1
v -12.5 15.5 -28 1 1 1
v -12.5 15.5 -27 1 1 1
vt 0.4960938 0.1054688
vt 0.484375 0.1132813
vt 0.4492188 0.1132813
v -14.5 9 -11 1 1 1
v -10 9 -11 1 1 1
v -10 9 -6 1 1 1
v -14.5 9 -6 1 1 1
v -10 18 -11 1 1 1
v -14.5 18 -11 1 1 1
v -14.5 18 -6 1 1 1
v -10 18 -6 1 1 1
v -10 18 -6 1 1 1
v -14.5 18 -6 1 1 1
v -14.5 9 -6 1 1 1
v -10 9 -6 1 1 1
v -14.5 18 -11 1 1 1
v -10 18 -11 1 1 1
v -10 9 -11 1 1 1
v -14.5 9 -11 1 1 1
v -10 18 -11 1 1 1
v -10 18 -6 1 1 1
v -10 9 -6 1 1 1
v -10 9 -11 1 1 1
v -14.5 18 -6 1 1 1
v -14.5 18 -11 1 1 1
v -14.5 9 -11 1 1 1
v -14.5 9 -6 1 1 1
g Element #2
usemtl Element
f 1/1/1 2/2/1 4/4/1
f 2/2/1 3/3/1 4/4/1
f 5/2/2 6/1/2 8/6/2
f 6/1/2 7/5/2 8/6/2
f 9/7/3 10/8/3 12/10/3
f 10/8/3 11/9/3 12/10/3
f 13/11/4 14/12/4 16/14/4
f 14/12/4 15/13/4 16/14/4
f 17/15/5 18/16/5 20/18/5
f 18/16/5 19/17/5 20/18/5
f 21/18/6 22/17/6 24/20/6
f 22/17/6 23/19/6 24/20/6
g Element #4
usemtl Element
f 25/21/1 26/20/1 28/23/1
f 26/20/1 27/22/1 28/23/1
f 29/24/2 30/25/2 32/27/2
f 30/25/2 31/26/2 32/27/2
f 33/28/3 34/29/3 36/31/3
f 34/29/3 35/30/3 36/31/3
f 37/25/4 38/24/4 40/33/4
f 38/24/4 39/32/4 40/33/4
f 41/34/5 42/35/5 44/37/5
f 42/35/5 43/36/5 44/37/5
f 45/35/6 46/34/6 48/36/6
f 46/34/6 47/37/6 48/36/6
g Element #5
usemtl Element
f 49/38/1 50/39/1 52/41/1
f 50/39/1 51/40/1 52/41/1
f 53/42/2 54/43/2 56/45/2
f 54/43/2 55/44/2 56/45/2
f 57/46/3 58/47/3 60/49/3
f 58/47/3 59/48/3 60/49/3
f 61/50/4 62/51/4 64/53/4
f 62/51/4 63/52/4 64/53/4
f 65/54/5 66/55/5 68/57/5
f 66/55/5 67/56/5 68/57/5
f 69/55/6 70/58/6 72/56/6
f 70/58/6 71/59/6 72/56/6
g Element #6
usemtl Element
f 73/60/1 74/61/1 76/63/1
f 74/61/1 75/62/1 76/63/1
f 77/61/2 78/60/2 80/65/2
f 78/60/2 79/64/2 80/65/2
f 81/66/3 82/67/3 84/69/3
f 82/67/3 83/68/3 84/69/3
f 85/70/4 86/71/4 88/66/4
f 86/71/4 87/67/4 88/66/4
f 89/72/5 90/73/5 92/75/5
f 90/73/5 91/74/5 92/75/5
f 93/73/6 94/72/6 96/74/6
f 94/72/6 95/75/6 96/74/6
g Element #7
usemtl Element
f 97/76/1 98/77/1 100/78/1
f 98/77/1 99/70/1 100/78/1
f 101/79/2 102/80/2 104/82/2
f 102/80/2 103/81/2 104/82/2
f 105/83/3 106/32/3 108/85/3
f 106/32/3 107/84/3 108/85/3
f 109/85/4 110/84/4 112/87/4
f 110/84/4 111/86/4 112/87/4
f 113/88/5 114/89/5 116/91/5
f 114/89/5 115/90/5 116/91/5
f 117/89/6 118/88/6 120/90/6
f 118/88/6 119/91/6 120/90/6
g Element #8
usemtl Element
f 121/92/1 122/70/1 124/94/1
f 122/70/1 123/93/1 124/94/1
f 125/71/2 126/95/2 128/97/2
f 126/95/2 127/96/2 128/97/2
f 129/98/3 130/21/3 132/99/3
f 130/21/3 131/23/3 132/99/3
f 133/100/4 134/98/4 136/101/4
f 134/98/4 135/99/4 136/101/4
f 137/100/5 138/102/5 140/101/5
f 138/102/5 139/103/5 140/101/5
f 141/102/6 142/100/6 144/103/6
f 142/100/6 143/101/6 144/103/6
g Element #10
usemtl Element
f 145/104/1 146/105/1 148/107/1
f 146/105/1 147/106/1 148/107/1
f 149/108/2 150/109/2 152/111/2
f 150/109/2 151/110/2 152/111/2
f 153/112/3 154/113/3 156/115/3
f 154/113/3 155/114/3 156/115/3
f 157/116/4 158/117/4 160/119/4
f 158/117/4 159/118/4 160/119/4
f 161/120/5 162/121/5 164/73/5
f 162/121/5 163/72/5 164/73/5
f 165/122/6 166/123/6 168/125/6
f 166/123/6 167/124/6 168/125/6
g Element #11
usemtl Element
f 169/126/1 170/127/1 172/129/1
f 170/127/1 171/128/1 172/129/1
f 173/130/2 174/131/2 176/133/2
f 174/131/2 175/132/2 176/133/2
f 177/134/3 178/126/3 180/135/3
f 178/126/3 179/82/3 180/135/3
f 181/65/4 182/136/4 184/62/4
f 182/136/4 183/137/4 184/62/4
f 185/38/5 186/127/5 188/41/5
f 186/127/5 187/138/5 188/41/5
f 189/127/6 190/38/6 192/138/6
f 190/38/6 191/41/6 192/138/6
g Element #12
usemtl Element
f 193/139/1 194/140/1 196/142/1
f 194/140/1 195/141/1 196/142/1
f 197/143/2 198/144/2 200/146/2
f 198/144/2 199/145/2 200/146/2
f 201/146/3 202/147/3 204/143/3
f 202/147/3 203/148/3 204/143/3
f 205/149/4 206/150/4 208/152/4
f 206/150/4 207/151/4 208/152/4
f 209/153/5 210/154/5 212/156/5
f 210/154/5 211/155/5 212/156/5
f 213/129/6 214/157/6 216/82/6
f 214/157/6 215/158/6 216/82/6
g Element #13
usemtl Element
f 217/159/1 218/160/1 220/162/1
f 218/160/1 219/161/1 220/162/1
f 221/19/2 222/163/2 224/165/2
f 222/163/2 223/164/2 224/165/2
f 225/142/3 226/141/3 228/167/3
f 226/141/3 227/166/3 228/167/3
f 229/147/4 230/142/4 232/148/4
f 230/142/4 231/167/4 232/148/4
f 233/168/5 234/169/5 236/171/5
f 234/169/5 235/170/5 236/171/5
f 237/172/6 238/173/6 240/175/6
f 238/173/6 239/174/6 240/175/6
g Element #14
usemtl Element
f 241/69/1 242/68/1 244/177/1
f 242/68/1 243/176/1 244/177/1
f 245/178/2 246/179/2 248/176/2
f 246/179/2 247/177/2 248/176/2
f 249/180/3 250/181/3 252/183/3
f 250/181/3 251/182/3 252/183/3
f 253/87/4 254/86/4 256/180/4
f 254/86/4 255/181/4 256/180/4
f 257/184/5 258/74/5 260/185/5
f 258/74/5 259/178/5 260/185/5
f 261/74/6 262/184/6 264/178/6
f 262/184/6 263/185/6 264/178/6
g Element #15
usemtl Element
f 265/186/1 266/30/1 268/188/1
f 266/30/1 267/187/1 268/188/1
f 269/189/2 270/190/2 272/187/2
f 270/190/2 271/188/2 272/187/2
f 273/191/3 274/192/3 276/185/3
f 274/192/3 275/183/3 276/185/3
f 277/190/4 278/189/4 280/191/4
f 278/189/4 279/192/4 280/191/4
f 281/93/5 282/94/5 284/194/5
f 282/94/5 283/193/5 284/194/5
f 285/94/6 286/93/6 288/193/6
f 286/93/6 287/194/6 288/193/6
g Element #16
usemtl Element
f 289/195/1 290/196/1 292/198/1
f 290/196/1 291/197/1 292/198/1
f 293/199/2 294/45/2 296/197/2
f 294/45/2 295/198/2 296/197/2
f 297/200/3 298/201/3 300/22/3
f 298/201/3 299/179/3 300/22/3
f 301/202/4 302/194/4 304/200/4
f 302/194/4 303/201/4 304/200/4
f 305/203/5 306/123/5 308/31/5
f 306/123/5 307/204/5 308/31/5
f 309/123/6 310/203/6 312/204/6
f 310/203/6 311/31/6 312/204/6
g Element #17
usemtl Element
f 313/121/1 314/205/1 316/75/1
f 314/205/1 315/184/1 316/75/1
f 317/205/2 318/121/2 320/207/2
f 318/121/2 319/206/2 320/207/2
f 321/208/3 322/209/3 324/211/3
f 322/209/3 323/210/3 324/211/3
f 325/211/4 326/210/4 328/213/4
f 326/210/4 327/212/4 328/213/4
f 329/214/5 330/64/5 332/133/5
f 330/64/5 331/60/5 332/133/5
f 333/133/6 334/60/6 336/130/6
f 334/60/6 335/63/6 336/130/6
g Element #18
usemtl Element
f 337/215/1 338/216/1 340/218/1
f 338/216/1 339/217/1 340/218/1
f 341/162/2 342/219/2 344/159/2
f 342/219/2 343/220/2 344/159/2
f 345/221/3 346/139/3 348/222/3
f 346/139/3 347/142/3 348/222/3
f 349/223/4 350/221/4 352/224/4
f 350/221/4 351/222/4 352/224/4
f 353/225/5 354/226/5 356/228/5
f 354/226/5 355/227/5 356/228/5
f 357/226/6 358/225/6 360/227/6
f 358/225/6 359/228/6 360/227/6
g Element #19
usemtl Element
f 361/229/1 362/230/1 364/232/1
f 362/230/1 363/231/1 364/232/1
f 365/233/2 366/234/2 368/231/2
f 366/234/2 367/232/2 368/231/2
f 369/235/3 370/50/3 372/236/3
f 370/50/3 371/53/3 372/236/3
f 373/237/4 374/235/4 376/238/4
f 374/235/4 375/236/4 376/238/4
f 377/239/5 378/223/5 380/240/5
f 378/223/5 379/224/5 380/240/5
f 381/241/6 382/195/6 384/243/6
f 382/195/6 383/242/6 384/243/6
g Element #20
usemtl Element
f 385/244/1 386/245/1 388/247/1
f 386/245/1 387/246/1 388/247/1
f 389/248/2 390/246/2 392/249/2
f 390/246/2 391/245/2 392/249/2
f 393/157/3 394/128/3 396/250/3
f 394/128/3 395/88/3 396/250/3
f 397/251/4 398/37/4 400/252/4
f 398/37/4 399/77/4 400/252/4
f 401/251/5 402/253/5 404/252/5
f 402/253/5 403/254/5 404/252/5
f 405/253/6 406/251/6 408/254/6
f 406/251/6 407/252/6 408/254/6
g Element #36
usemtl Element
f 409/255/1 410/164/1 412/257/1
f 410/164/1 411/256/1 412/257/1
f 413/257/2 414/258/2 416/255/2
f 414/258/2 415/249/2 416/255/2
f 417/258/3 418/257/3 420/248/3
f 418/257/3 419/259/3 420/248/3
f 421/257/4 422/256/4 424/259/4
f 422/256/4 423/163/4 424/259/4
f 425/260/5 426/261/5 428/234/5
f 426/261/5 427/262/5 428/234/5
f 429/261/6 430/260/6 432/262/6
f 430/260/6 431/234/6 432/262/6
g Element #37
usemtl Element
f 433/263/1 434/214/1 436/132/1
f 434/214/1 435/133/1 436/132/1
f 437/150/2 438/149/2 440/265/2
f 438/149/2 439/264/2 440/265/2
f 441/59/3 442/238/3 444/264/3
f 442/238/3 443/265/3 444/264/3
f 445/58/4 446/237/4 448/59/4
f 446/237/4 447/238/4 448/59/4
f 449/105/5 450/110/5 452/106/5
f 450/110/5 451/109/5 452/106/5
f 453/117/6 454/104/6 456/118/6
f 454/104/6 455/107/6 456/118/6
g Element #40
usemtl Element
f 457/2/1 458/1/1 460/3/1
f 458/1/1 459/4/1 460/3/1
f 461/1/2 462/2/2 464/5/2
f 462/2/2 463/6/2 464/5/2
f 465/8/3 466/7/3 468/9/3
f 466/7/3 467/10/3 468/9/3
f 469/12/4 470/11/4 472/13/4
f 470/11/4 471/14/4 472/13/4
f 473/17/5 474/18/5 476/19/5
f 474/18/5 475/20/5 476/19/5
f 477/16/6 478/15/6 480/17/6
f 478/15/6 479/18/6 480/17/6
