# Export of Cubik Model: Cubik Model
# Designed by Zhouyi with Cubik Studio - https://cubik.studio
# from Cubik OBJ Exporter v1.0
mtllib giraffe.mtl
v -12.5 11 -10 1 1 1
v -10 11 -10 1 1 1
v -10 11 -7.5 1 1 1
v -12.5 11 -7.5 1 1 1
v -10 21 -10 1 1 1
v -12.5 21 -10 1 1 1
v -12.5 21 -7.5 1 1 1
v -10 21 -7.5 1 1 1
v -10 21 -7.5 1 1 1
v -12.5 21 -7.5 1 1 1
v -12.5 11 -7.5 1 1 1
v -10 11 -7.5 1 1 1
v -12.5 21 -10 1 1 1
v -10 21 -10 1 1 1
v -10 11 -10 1 1 1
v -12.5 11 -10 1 1 1
v -10 21 -10 1 1 1
v -10 21 -7.5 1 1 1
v -10 11 -7.5 1 1 1
v -10 11 -10 1 1 1
v -12.5 21 -7.5 1 1 1
v -12.5 21 -10 1 1 1
v -12.5 11 -10 1 1 1
v -12.5 11 -7.5 1 1 1
vn 0 -1 0
vn 0 1 0
vn 0 0 1
vn 0 0 -1
vn 1 0 0
vn -1 0 0
vt 0.1054688 0.25
vt 0.09765625 0.25
vt 0.09765625 0.2421875
vt 0.1054688 0.2421875
vt 0.4453125 0.02734375
vt 0.453125 0.02734375
vt 0.453125 0.03515625
vt 0.4453125 0.03515625
vt 0.2929688 0.171875
vt 0.2851563 0.171875
vt 0.2851563 0.1328125
vt 0.2929688 0.1328125
vt 0.2851563 0.09375
vt 0.2929688 0.09375
vt 0.2851563 0.0546875
vt 0.2929688 0.0546875
vt 0.2851563 0.015625
vt 0.2929688 0.015625
v -12.75 10.5 -10.25 1 1 1
v -9.75 10.5 -10.25 1 1 1
v -9.75 10.5 -7.25 1 1 1
v -12.75 10.5 -7.25 1 1 1
v -9.75 13.5 -10.25 1 1 1
v -12.75 13.5 -10.25 1 1 1
v -12.75 13.5 -7.25 1 1 1
v -9.75 13.5 -7.25 1 1 1
v -9.75 13.5 -7.25 1 1 1
v -12.75 13.5 -7.25 1 1 1
v -12.75 10.5 -7.25 1 1 1
v -9.75 10.5 -7.25 1 1 1
v -12.75 13.5 -10.25 1 1 1
v -9.75 13.5 -10.25 1 1 1
v -9.75 10.5 -10.25 1 1 1
v -12.75 10.5 -10.25 1 1 1
v -9.75 13.5 -10.25 1 1 1
v -9.75 13.5 -7.25 1 1 1
v -9.75 10.5 -7.25 1 1 1
v -9.75 10.5 -10.25 1 1 1
v -12.75 13.5 -7.25 1 1 1
v -12.75 13.5 -10.25 1 1 1
v -12.75 10.5 -10.25 1 1 1
v -12.75 10.5 -7.25 1 1 1
vt 0.4492188 0.01171875
vt 0.4375 0.01171875
vt 0.4375 0
vt 0.4492188 0
vt 0.4609375 0
vt 0.4609375 0.01171875
vt 0.4726563 0.01171875
vt 0.4726563 0
vt 0.484375 0.01171875
vt 0.484375 0
vt 0.4960938 0.01171875
vt 0.4960938 0
vt 0.3046875 0.02734375
vt 0.2929688 0.02734375
vt 0.3046875 0.015625
v -12.25 1.5 -10 1 1 1
v -10.25 1.5 -10 1 1 1
v -10.25 1.5 -8 1 1 1
v -12.25 1.5 -8 1 1 1
v -10.25 11.5 -10 1 1 1
v -12.25 11.5 -10 1 1 1
v -12.25 11.5 -8 1 1 1
v -10.25 11.5 -8 1 1 1
v -10.25 11.5 -8 1 1 1
v -12.25 11.5 -8 1 1 1
v -12.25 1.5 -8 1 1 1
v -10.25 1.5 -8 1 1 1
v -12.25 11.5 -10 1 1 1
v -10.25 11.5 -10 1 1 1
v -10.25 1.5 -10 1 1 1
v -12.25 1.5 -10 1 1 1
v -10.25 11.5 -10 1 1 1
v -10.25 11.5 -8 1 1 1
v -10.25 1.5 -8 1 1 1
v -10.25 1.5 -10 1 1 1
v -12.25 11.5 -8 1 1 1
v -12.25 11.5 -10 1 1 1
v -12.25 1.5 -10 1 1 1
v -12.25 1.5 -8 1 1 1
vt 0.1054688 0.1484375
vt 0.09765625 0.1484375
vt 0.09765625 0.140625
vt 0.1054688 0.140625
vt 0.4609375 0.02734375
vt 0.4609375 0.03515625
vt 0.2695313 0.25
vt 0.2617188 0.25
vt 0.2617188 0.2109375
vt 0.2695313 0.2109375
vt 0.2851563 0.2109375
vt 0.2773438 0.2109375
vt 0.2773438 0.171875
vt 0.2773438 0.1328125
vt 0.2773438 0.09375
v -13 0 -9 1 1 1
v -10 0 -9 1 1 1
v -10 0 -6 1 1 1
v -13 0 -6 1 1 1
v -10 2 -9 1 1 1
v -13 2 -9 1 1 1
v -13 2 -6 1 1 1
v -10 2 -6 1 1 1
v -10 2 -6 1 1 1
v -13 2 -6 1 1 1
v -13 0 -6 1 1 1
v -10 0 -6 1 1 1
v -13 2 -9 1 1 1
v -10 2 -9 1 1 1
v -10 0 -9 1 1 1
v -13 0 -9 1 1 1
v -10 2 -9 1 1 1
v -10 2 -6 1 1 1
v -10 0 -6 1 1 1
v -10 0 -9 1 1 1
v -13 2 -6 1 1 1
v -13 2 -9 1 1 1
v -13 0 -9 1 1 1
v -13 0 -6 1 1 1
vt 0.3164063 0.02734375
vt 0.3164063 0.015625
vt 0.328125 0.015625
vt 0.328125 0.02734375
vt 0.4335938 0.03515625
vt 0.4335938 0.02734375
vt 0.1679688 0.140625
vt 0.15625 0.140625
vt 0.15625 0.1328125
vt 0.1679688 0.1328125
vt 0.1679688 0.171875
vt 0.15625 0.171875
vt 0.15625 0.1640625
vt 0.1679688 0.1640625
vt 0.2148438 0.2265625
vt 0.203125 0.2265625
vt 0.203125 0.21875
vt 0.2148438 0.21875
g Element #2
usemtl Element
f 1/1/1 2/2/1 4/4/1
f 2/2/1 3/3/1 4/4/1
f 5/5/2 6/6/2 8/8/2
f 6/6/2 7/7/2 8/8/2
f 9/9/3 10/10/3 12/12/3
f 10/10/3 11/11/3 12/12/3
f 13/12/4 14/11/4 16/14/4
f 14/11/4 15/13/4 16/14/4
f 17/14/5 18/13/5 20/16/5
f 18/13/5 19/15/5 20/16/5
f 21/16/6 22/15/6 24/18/6
f 22/15/6 23/17/6 24/18/6
g Element #8
usemtl Element
f 25/19/1 26/20/1 28/22/1
f 26/20/1 27/21/1 28/22/1
f 29/22/2 30/23/2 32/19/2
f 30/23/2 31/24/2 32/19/2
f 33/25/3 34/24/3 36/26/3
f 34/24/3 35/23/3 36/26/3
f 37/27/4 38/25/4 40/28/4
f 38/25/4 39/26/4 40/28/4
f 41/29/5 42/27/5 44/30/5
f 42/27/5 43/28/5 44/30/5
f 45/31/6 46/32/6 48/33/6
f 46/32/6 47/18/6 48/33/6
g Element #9
usemtl Element
f 49/34/1 50/35/1 52/37/1
f 50/35/1 51/36/1 52/37/1
f 53/6/2 54/38/2 56/7/2
f 54/38/2 55/39/2 56/7/2
f 57/40/3 58/41/3 60/43/3
f 58/41/3 59/42/3 60/43/3
f 61/44/4 62/45/4 64/10/4
f 62/45/4 63/46/4 64/10/4
f 65/10/5 66/46/5 68/11/5
f 66/46/5 67/47/5 68/11/5
f 69/11/6 70/47/6 72/13/6
f 70/47/6 71/48/6 72/13/6
g Element #11
usemtl Element
f 73/49/1 74/31/1 76/50/1
f 74/31/1 75/33/1 76/50/1
f 77/50/2 78/51/2 80/49/2
f 78/51/2 79/52/2 80/49/2
f 81/8/3 82/53/3 84/5/3
f 82/53/3 83/54/3 84/5/3
f 85/55/4 86/56/4 88/58/4
f 86/56/4 87/57/4 88/58/4
f 89/59/5 90/60/5 92/62/5
f 90/60/5 91/61/5 92/62/5
f 93/63/6 94/64/6 96/66/6
f 94/64/6 95/65/6 96/66/6
