# Export of Cubik Model: Cubik Model
# Designed by Zhouyi with Cubik Studio - https://cubik.studio
# from Cubik OBJ Exporter v1.0
mtllib giraffe.mtl
v -7 20.2961 -14.04328 1 1 1
v -3 20.2961 -14.04328 1 1 1
v -3 18 -8.5 1 1 1
v -7 18 -8.5 1 1 1
v -3 27.68714 -10.98181 1 1 1
v -7 27.68714 -10.98181 1 1 1
v -7 25.39104 -5.438532 1 1 1
v -3 25.39104 -5.438532 1 1 1
v -3 25.39104 -5.438532 1 1 1
v -7 25.39104 -5.438532 1 1 1
v -7 18 -8.5 1 1 1
v -3 18 -8.5 1 1 1
v -7 27.68714 -10.98181 1 1 1
v -3 27.68714 -10.98181 1 1 1
v -3 20.2961 -14.04328 1 1 1
v -7 20.2961 -14.04328 1 1 1
v -3 27.68714 -10.98181 1 1 1
v -3 25.39104 -5.438532 1 1 1
v -3 18 -8.5 1 1 1
v -3 20.2961 -14.04328 1 1 1
v -7 25.39104 -5.438532 1 1 1
v -7 27.68714 -10.98181 1 1 1
v -7 20.2961 -14.04328 1 1 1
v -7 18 -8.5 1 1 1
vn 0 -0.9238795 -0.3826835
vn 0 0.9238795 0.3826835
vn 0 -0.3826835 0.9238795
vn 0 0.3826835 -0.9238795
vn 1 0 0
vn -1 0 0
vt 0.2460938 0.0703125
vt 0.2617188 0.0703125
vt 0.2617188 0.046875
vt 0.2460938 0.046875
vt 0.2617188 0.0234375
vt 0.2460938 0.0234375
vt 0.2304688 0.109375
vt 0.2460938 0.109375
vt 0.2460938 0.078125
vt 0.2304688 0.078125
vt 0.2148438 0.109375
vt 0.2148438 0.078125
vt 0.1328125 0.140625
vt 0.15625 0.140625
vt 0.15625 0.109375
vt 0.1328125 0.109375
vt 0.1328125 0.203125
vt 0.15625 0.203125
vt 0.15625 0.171875
vt 0.1328125 0.171875
v -13 16.5 -29 1 1 1
v -9 16.5 -29 1 1 1
v -9 16.5 -22 1 1 1
v -13 16.5 -22 1 1 1
v -9 25.5 -29 1 1 1
v -13 25.5 -29 1 1 1
v -13 25.5 -22 1 1 1
v -9 25.5 -22 1 1 1
v -9 25.5 -22 1 1 1
v -13 25.5 -22 1 1 1
v -13 16.5 -22 1 1 1
v -9 16.5 -22 1 1 1
v -13 25.5 -29 1 1 1
v -9 25.5 -29 1 1 1
v -9 16.5 -29 1 1 1
v -13 16.5 -29 1 1 1
v -9 25.5 -29 1 1 1
v -9 25.5 -22 1 1 1
v -9 16.5 -22 1 1 1
v -9 16.5 -29 1 1 1
v -13 25.5 -22 1 1 1
v -13 25.5 -29 1 1 1
v -13 16.5 -29 1 1 1
v -13 16.5 -22 1 1 1
vn 0 -1 0
vn 0 1 0
vn 0 0 1
vn 0 0 -1
vt 0.2304688 0.2304688
vt 0.2148438 0.2304688
vt 0.2148438 0.203125
vt 0.2304688 0.203125
vt 0.2460938 0.203125
vt 0.2460938 0.2304688
vt 0.203125 0.05859375
vt 0.1875 0.05859375
vt 0.1875 0.0234375
vt 0.203125 0.0234375
vt 0.203125 0.09375
vt 0.1875 0.09375
vt 0.1328125 0.0703125
vt 0.1054688 0.0703125
vt 0.1054688 0.03515625
vt 0.1328125 0.03515625
vt 0.1054688 0
vt 0.1328125 0
v -13 20.2961 -14.04328 1 1 1
v -9 20.2961 -14.04328 1 1 1
v -9 18 -8.5 1 1 1
v -13 18 -8.5 1 1 1
v -9 27.68714 -10.98181 1 1 1
v -13 27.68714 -10.98181 1 1 1
v -13 25.39104 -5.438532 1 1 1
v -9 25.39104 -5.438532 1 1 1
v -9 25.39104 -5.438532 1 1 1
v -13 25.39104 -5.438532 1 1 1
v -13 18 -8.5 1 1 1
v -9 18 -8.5 1 1 1
v -13 27.68714 -10.98181 1 1 1
v -9 27.68714 -10.98181 1 1 1
v -9 20.2961 -14.04328 1 1 1
v -13 20.2961 -14.04328 1 1 1
v -9 27.68714 -10.98181 1 1 1
v -9 25.39104 -5.438532 1 1 1
v -9 18 -8.5 1 1 1
v -9 20.2961 -14.04328 1 1 1
v -13 25.39104 -5.438532 1 1 1
v -13 27.68714 -10.98181 1 1 1
v -13 20.2961 -14.04328 1 1 1
v -13 18 -8.5 1 1 1
v -7 16.5 -29 1 1 1
v -3 16.5 -29 1 1 1
v -3 16.5 -22 1 1 1
v -7 16.5 -22 1 1 1
v -3 25.5 -29 1 1 1
v -7 25.5 -29 1 1 1
v -7 25.5 -22 1 1 1
v -3 25.5 -22 1 1 1
v -3 25.5 -22 1 1 1
v -7 25.5 -22 1 1 1
v -7 16.5 -22 1 1 1
v -3 16.5 -22 1 1 1
v -7 25.5 -29 1 1 1
v -3 25.5 -29 1 1 1
v -3 16.5 -29 1 1 1
v -7 16.5 -29 1 1 1
v -3 25.5 -29 1 1 1
v -3 25.5 -22 1 1 1
v -3 16.5 -22 1 1 1
v -3 16.5 -29 1 1 1
v -7 25.5 -22 1 1 1
v -7 25.5 -29 1 1 1
v -7 16.5 -29 1 1 1
v -7 16.5 -22 1 1 1
v -11.5 21.67317 -21.2388 1 1 1
v -4.5 21.67317 -21.2388 1 1 1
v -4.5 25.5 -12 1 1 1
v -11.5 25.5 -12 1 1 1
v -4.5 28.14032 -23.91758 1 1 1
v -11.5 28.14032 -23.91758 1 1 1
v -11.5 31.96716 -14.67878 1 1 1
v -4.5 31.96716 -14.67878 1 1 1
v -4.5 31.96716 -14.67878 1 1 1
v -11.5 31.96716 -14.67878 1 1 1
v -11.5 25.5 -12 1 1 1
v -4.5 25.5 -12 1 1 1
v -11.5 28.14032 -23.91758 1 1 1
v -4.5 28.14032 -23.91758 1 1 1
v -4.5 21.67317 -21.2388 1 1 1
v -11.5 21.67317 -21.2388 1 1 1
v -4.5 28.14032 -23.91758 1 1 1
v -4.5 31.96716 -14.67878 1 1 1
v -4.5 25.5 -12 1 1 1
v -4.5 21.67317 -21.2388 1 1 1
v -11.5 31.96716 -14.67878 1 1 1
v -11.5 28.14032 -23.91758 1 1 1
v -11.5 21.67317 -21.2388 1 1 1
v -11.5 25.5 -12 1 1 1
vn 0 -0.9238796 0.3826834
vn 0 0.9238796 -0.3826834
vn 0 0.3826834 0.9238796
vn 0 -0.3826834 -0.9238796
vt 0.05859375 0.1640625
vt 0.03125 0.1640625
vt 0.03125 0.125
vt 0.05859375 0.125
vt 0.05859375 0.203125
vt 0.03125 0.203125
vt 0.1328125 0.1679688
vt 0.1054688 0.1679688
vt 0.1054688 0.140625
vt 0.1328125 0.1953125
vt 0.1054688 0.1953125
vt 0.06640625 0.0546875
vt 0.1054688 0.0546875
vt 0.1054688 0.02734375
vt 0.06640625 0.02734375
v -12 18.5 -21.5 1 1 1
v -4 18.5 -21.5 1 1 1
v -4 18.5 -15.5 1 1 1
v -12 18.5 -15.5 1 1 1
v -4 26.5 -21.5 1 1 1
v -12 26.5 -21.5 1 1 1
v -12 26.5 -15.5 1 1 1
v -4 26.5 -15.5 1 1 1
v -4 26.5 -15.5 1 1 1
v -12 26.5 -15.5 1 1 1
v -12 18.5 -15.5 1 1 1
v -4 18.5 -15.5 1 1 1
v -12 26.5 -21.5 1 1 1
v -4 26.5 -21.5 1 1 1
v -4 18.5 -21.5 1 1 1
v -12 18.5 -21.5 1 1 1
v -4 26.5 -21.5 1 1 1
v -4 26.5 -15.5 1 1 1
v -4 18.5 -15.5 1 1 1
v -4 18.5 -21.5 1 1 1
v -12 26.5 -15.5 1 1 1
v -12 26.5 -21.5 1 1 1
v -12 18.5 -21.5 1 1 1
v -12 18.5 -15.5 1 1 1
vt 0.1640625 0.2265625
vt 0.1328125 0.2265625
vt 0.1640625 0.203125
vt 0.1640625 0.25
vt 0.1328125 0.25
vt 0.09765625 0.1484375
vt 0.06640625 0.1484375
vt 0.06640625 0.1171875
vt 0.09765625 0.1171875
vt 0.09765625 0.1796875
vt 0.06640625 0.1796875
vt 0.1328125 0.078125
vt 0.15625 0.078125
vt 0.15625 0.046875
vt 0.1328125 0.046875
v -12 22.43853 -27.89104 1 1 1
v -4 22.43853 -27.89104 1 1 1
v -4 25.5 -20.5 1 1 1
v -12 25.5 -20.5 1 1 1
v -4 26.13405 -29.42177 1 1 1
v -12 26.13405 -29.42177 1 1 1
v -12 29.19552 -22.03073 1 1 1
v -4 29.19552 -22.03073 1 1 1
v -4 29.19552 -22.03073 1 1 1
v -12 29.19552 -22.03073 1 1 1
v -12 25.5 -20.5 1 1 1
v -4 25.5 -20.5 1 1 1
v -12 26.13405 -29.42177 1 1 1
v -4 26.13405 -29.42177 1 1 1
v -4 22.43853 -27.89104 1 1 1
v -12 22.43853 -27.89104 1 1 1
v -4 26.13405 -29.42177 1 1 1
v -4 29.19552 -22.03073 1 1 1
v -4 25.5 -20.5 1 1 1
v -4 22.43853 -27.89104 1 1 1
v -12 29.19552 -22.03073 1 1 1
v -12 26.13405 -29.42177 1 1 1
v -12 22.43853 -27.89104 1 1 1
v -12 25.5 -20.5 1 1 1
vt 0.03125 0.25
vt 0 0.25
vt 0 0.21875
vt 0.03125 0.21875
vt 0.0625 0.203125
vt 0.0625 0.234375
vt 0.03125 0.234375
vt 0.0625 0.25
vt 0.2460938 0.015625
vt 0.2148438 0.015625
vt 0.2148438 0
vt 0.2460938 0
vt 0.2148438 0.046875
vt 0.2460938 0.03125
vt 0.2148438 0.03125
v -12.5 18.5 -28.5 1 1 1
v -3.5 18.5 -28.5 1 1 1
v -3.5 18.5 -20.5 1 1 1
v -12.5 18.5 -20.5 1 1 1
v -3.5 26.5 -28.5 1 1 1
v -12.5 26.5 -28.5 1 1 1
v -12.5 26.5 -20.5 1 1 1
v -3.5 26.5 -20.5 1 1 1
v -3.5 26.5 -20.5 1 1 1
v -12.5 26.5 -20.5 1 1 1
v -12.5 18.5 -20.5 1 1 1
v -3.5 18.5 -20.5 1 1 1
v -12.5 26.5 -28.5 1 1 1
v -3.5 26.5 -28.5 1 1 1
v -3.5 18.5 -28.5 1 1 1
v -12.5 18.5 -28.5 1 1 1
v -3.5 26.5 -28.5 1 1 1
v -3.5 26.5 -20.5 1 1 1
v -3.5 18.5 -20.5 1 1 1
v -3.5 18.5 -28.5 1 1 1
v -12.5 26.5 -20.5 1 1 1
v -12.5 26.5 -28.5 1 1 1
v -12.5 18.5 -28.5 1 1 1
v -12.5 18.5 -20.5 1 1 1
vt 0.06640625 0.03125
vt 0.03125 0.03125
vt 0.03125 0
vt 0.06640625 0
vt 0.06640625 0.0625
vt 0.03125 0.0625
vt 0.06640625 0.09375
vt 0.03125 0.09375
vt 0.06640625 0.125
vt 0.09765625 0.0859375
vt 0.06640625 0.0859375
v -12 19 -15.5 1 1 1
v -4 19 -15.5 1 1 1
v -4 19 -7.5 1 1 1
v -12 19 -7.5 1 1 1
v -4 33 -15.5 1 1 1
v -12 33 -15.5 1 1 1
v -12 33 -7.5 1 1 1
v -4 33 -7.5 1 1 1
v -4 33 -7.5 1 1 1
v -12 33 -7.5 1 1 1
v -12 19 -7.5 1 1 1
v -4 19 -7.5 1 1 1
v -12 33 -15.5 1 1 1
v -4 33 -15.5 1 1 1
v -4 19 -15.5 1 1 1
v -12 19 -15.5 1 1 1
v -4 33 -15.5 1 1 1
v -4 33 -7.5 1 1 1
v -4 19 -7.5 1 1 1
v -4 19 -15.5 1 1 1
v -12 33 -7.5 1 1 1
v -12 33 -15.5 1 1 1
v -12 19 -15.5 1 1 1
v -12 19 -7.5 1 1 1
vt 0.09765625 0.2109375
vt 0.06640625 0.2109375
vt 0.09765625 0.2421875
vt 0.06640625 0.2421875
vt 0 0.1640625
vt 0 0.109375
vt 0.03125 0.109375
vt 0.03125 0.0546875
vt 0 0.0546875
g Element #20
usemtl Element
f 1/1/1 2/2/1 4/4/1
f 2/2/1 3/3/1 4/4/1
f 5/5/2 6/6/2 8/3/2
f 6/6/2 7/4/2 8/3/2
f 9/7/3 10/8/3 12/10/3
f 10/8/3 11/9/3 12/10/3
f 13/11/4 14/7/4 16/12/4
f 14/7/4 15/10/4 16/12/4
f 17/13/5 18/14/5 20/16/5
f 18/14/5 19/15/5 20/16/5
f 21/17/6 22/18/6 24/20/6
f 22/18/6 23/19/6 24/20/6
g Element #24
usemtl Element
f 25/21/7 26/22/7 28/24/7
f 26/22/7 27/23/7 28/24/7
f 29/24/8 30/25/8 32/21/8
f 30/25/8 31/26/8 32/21/8
f 33/27/9 34/28/9 36/30/9
f 34/28/9 35/29/9 36/30/9
f 37/31/10 38/32/10 40/27/10
f 38/32/10 39/28/10 40/27/10
f 41/33/5 42/34/5 44/36/5
f 42/34/5 43/35/5 44/36/5
f 45/36/6 46/35/6 48/38/6
f 46/35/6 47/37/6 48/38/6
g Element #26
usemtl Element
f 49/2/1 50/1/1 52/3/1
f 50/1/1 51/4/1 52/3/1
f 53/6/2 54/5/2 56/4/2
f 54/5/2 55/3/2 56/4/2
f 57/8/3 58/7/3 60/9/3
f 58/7/3 59/10/3 60/9/3
f 61/7/4 62/11/4 64/10/4
f 62/11/4 63/12/4 64/10/4
f 65/18/5 66/17/5 68/19/5
f 66/17/5 67/20/5 68/19/5
f 69/14/6 70/13/6 72/15/6
f 70/13/6 71/16/6 72/15/6
g Element #28
usemtl Element
f 73/22/7 74/21/7 76/23/7
f 74/21/7 75/24/7 76/23/7
f 77/25/8 78/24/8 80/26/8
f 78/24/8 79/21/8 80/26/8
f 81/28/9 82/27/9 84/29/9
f 82/27/9 83/30/9 84/29/9
f 85/32/10 86/31/10 88/28/10
f 86/31/10 87/27/10 88/28/10
f 89/35/5 90/36/5 92/37/5
f 90/36/5 91/38/5 92/37/5
f 93/34/6 94/33/6 96/35/6
f 94/33/6 95/36/6 96/35/6
g Element #30
usemtl Element
f 97/39/11 98/40/11 100/42/11
f 98/40/11 99/41/11 100/42/11
f 101/40/12 102/39/12 104/44/12
f 102/39/12 103/43/12 104/44/12
f 105/45/13 106/46/13 108/13/13
f 106/46/13 107/47/13 108/13/13
f 109/48/14 110/49/14 112/45/14
f 110/49/14 111/46/14 112/45/14
f 113/50/5 114/51/5 116/53/5
f 114/51/5 115/52/5 116/53/5
f 117/51/6 118/50/6 120/52/6
f 118/50/6 119/53/6 120/52/6
g Element #33
usemtl Element
f 121/54/7 122/55/7 124/56/7
f 122/55/7 123/17/7 124/56/7
f 125/55/8 126/54/8 128/58/8
f 126/54/8 127/57/8 128/58/8
f 129/59/9 130/60/9 132/62/9
f 130/60/9 131/61/9 132/62/9
f 133/63/10 134/64/10 136/59/10
f 134/64/10 135/60/10 136/59/10
f 137/65/5 138/66/5 140/68/5
f 138/66/5 139/67/5 140/68/5
f 141/66/6 142/65/6 144/67/6
f 142/65/6 143/68/6 144/67/6
g Element #34
usemtl Element
f 145/69/11 146/70/11 148/72/11
f 146/70/11 147/71/11 148/72/11
f 149/44/12 150/73/12 152/75/12
f 150/73/12 151/74/12 152/75/12
f 153/76/13 154/69/13 156/74/13
f 154/69/13 155/75/13 156/74/13
f 157/77/14 158/78/14 160/80/14
f 158/78/14 159/79/14 160/80/14
f 161/81/5 162/4/5 164/83/5
f 162/4/5 163/82/5 164/83/5
f 165/4/6 166/81/6 168/82/6
f 166/81/6 167/83/6 168/82/6
g Element #37
usemtl Element
f 169/84/7 170/85/7 172/87/7
f 170/85/7 171/86/7 172/87/7
f 173/85/8 174/84/8 176/89/8
f 174/84/8 175/88/8 176/89/8
f 177/90/9 178/91/9 180/88/9
f 178/91/9 179/89/9 180/88/9
f 181/92/10 182/41/10 184/90/10
f 182/41/10 183/91/10 184/90/10
f 185/61/5 186/62/5 188/94/5
f 186/62/5 187/93/5 188/94/5
f 189/62/6 190/61/6 192/93/6
f 190/61/6 191/94/6 192/93/6
g Element #38
usemtl Element
f 193/95/7 194/96/7 196/63/7
f 194/96/7 195/64/7 196/63/7
f 197/96/8 198/95/8 200/98/8
f 198/95/8 199/97/8 200/98/8
f 201/40/9 202/99/9 204/101/9
f 202/99/9 203/100/9 204/101/9
f 205/72/10 206/71/10 208/40/10
f 206/71/10 207/99/10 208/40/10
f 209/100/5 210/101/5 212/103/5
f 210/101/5 211/102/5 212/103/5
f 213/101/6 214/100/6 216/102/6
f 214/100/6 215/103/6 216/102/6
