# Export of Cubik Model: Cubik Model
# Designed by Zhouyi with Cubik Studio - https://cubik.studio
# from Cubik OBJ Exporter v1.0
mtllib giraffe.mtl
v -12.5 12.53073 -30.19552 1 1 1
v -10 12.53073 -30.19552 1 1 1
v -10 11 -26.5 1 1 1
v -12.5 11 -26.5 1 1 1
v -10 21.76953 -26.36868 1 1 1
v -12.5 21.76953 -26.36868 1 1 1
v -12.5 20.2388 -22.67316 1 1 1
v -10 20.2388 -22.67316 1 1 1
v -10 20.2388 -22.67316 1 1 1
v -12.5 20.2388 -22.67316 1 1 1
v -12.5 11 -26.5 1 1 1
v -10 11 -26.5 1 1 1
v -12.5 21.76953 -26.36868 1 1 1
v -10 21.76953 -26.36868 1 1 1
v -10 12.53073 -30.19552 1 1 1
v -12.5 12.53073 -30.19552 1 1 1
v -10 21.76953 -26.36868 1 1 1
v -10 20.2388 -22.67316 1 1 1
v -10 11 -26.5 1 1 1
v -10 12.53073 -30.19552 1 1 1
v -12.5 20.2388 -22.67316 1 1 1
v -12.5 21.76953 -26.36868 1 1 1
v -12.5 12.53073 -30.19552 1 1 1
v -12.5 11 -26.5 1 1 1
vn 0 -0.9238795 -0.3826835
vn 0 0.9238795 0.3826835
vn 0 -0.3826835 0.9238795
vn 0 0.3826835 -0.9238795
vn 1 0 0
vn -1 0 0
vt 0.2773438 0.25
vt 0.2695313 0.25
vt 0.2695313 0.234375
vt 0.2773438 0.234375
vt 0.2382813 0.1289063
vt 0.2460938 0.1289063
vt 0.2460938 0.1445313
vt 0.2382813 0.1445313
vt 0.2773438 0.1953125
vt 0.2695313 0.1953125
vt 0.2695313 0.15625
vt 0.2773438 0.15625
vt 0.2695313 0.1171875
vt 0.2773438 0.1171875
vt 0.1835938 0.109375
vt 0.1679688 0.109375
vt 0.1679688 0.0703125
vt 0.1835938 0.0703125
vt 0.1835938 0.1484375
vt 0.1679688 0.1484375
v -12.25 1.5 -29.5 1 1 1
v -10.25 1.5 -29.5 1 1 1
v -10.25 1.5 -27.5 1 1 1
v -12.25 1.5 -27.5 1 1 1
v -10.25 12.5 -29.5 1 1 1
v -12.25 12.5 -29.5 1 1 1
v -12.25 12.5 -27.5 1 1 1
v -10.25 12.5 -27.5 1 1 1
v -10.25 12.5 -27.5 1 1 1
v -12.25 12.5 -27.5 1 1 1
v -12.25 1.5 -27.5 1 1 1
v -10.25 1.5 -27.5 1 1 1
v -12.25 12.5 -29.5 1 1 1
v -10.25 12.5 -29.5 1 1 1
v -10.25 1.5 -29.5 1 1 1
v -12.25 1.5 -29.5 1 1 1
v -10.25 12.5 -29.5 1 1 1
v -10.25 12.5 -27.5 1 1 1
v -10.25 1.5 -27.5 1 1 1
v -10.25 1.5 -29.5 1 1 1
v -12.25 12.5 -27.5 1 1 1
v -12.25 12.5 -29.5 1 1 1
v -12.25 1.5 -29.5 1 1 1
v -12.25 1.5 -27.5 1 1 1
vn 0 -1 0
vn 0 1 0
vn 0 0 1
vn 0 0 -1
vt 0.1054688 0.1796875
vt 0.09765625 0.1796875
vt 0.09765625 0.171875
vt 0.1054688 0.171875
vt 0.3789063 0.03515625
vt 0.3867188 0.03515625
vt 0.3867188 0.04296875
vt 0.3789063 0.04296875
vt 0.2617188 0.1835938
vt 0.2539063 0.1835938
vt 0.2539063 0.140625
vt 0.2617188 0.140625
vt 0.2460938 0.1835938
vt 0.2460938 0.140625
vt 0.2695313 0.171875
vt 0.2617188 0.171875
vt 0.2617188 0.1289063
vt 0.2695313 0.1289063
vt 0.2617188 0.2265625
vt 0.2539063 0.2265625
v -13 0 -28.5 1 1 1
v -10 0 -28.5 1 1 1
v -10 0 -25.5 1 1 1
v -13 0 -25.5 1 1 1
v -10 2 -28.5 1 1 1
v -13 2 -28.5 1 1 1
v -13 2 -25.5 1 1 1
v -10 2 -25.5 1 1 1
v -10 2 -25.5 1 1 1
v -13 2 -25.5 1 1 1
v -13 0 -25.5 1 1 1
v -10 0 -25.5 1 1 1
v -13 2 -28.5 1 1 1
v -10 2 -28.5 1 1 1
v -10 0 -28.5 1 1 1
v -13 0 -28.5 1 1 1
v -10 2 -28.5 1 1 1
v -10 2 -25.5 1 1 1
v -10 0 -25.5 1 1 1
v -10 0 -28.5 1 1 1
v -13 2 -25.5 1 1 1
v -13 2 -28.5 1 1 1
v -13 0 -28.5 1 1 1
v -13 0 -25.5 1 1 1
vt 0.3164063 0.02734375
vt 0.3046875 0.02734375
vt 0.3046875 0.015625
vt 0.3164063 0.015625
vt 0.328125 0.015625
vt 0.328125 0.02734375
vt 0.4453125 0.03515625
vt 0.4335938 0.03515625
vt 0.4335938 0.02734375
vt 0.4453125 0.02734375
vt 0.1679688 0.140625
vt 0.15625 0.140625
vt 0.15625 0.1328125
vt 0.1679688 0.1328125
vt 0.1679688 0.171875
vt 0.15625 0.171875
vt 0.15625 0.1640625
vt 0.1679688 0.1640625
vt 0.2148438 0.2265625
vt 0.203125 0.2265625
vt 0.203125 0.21875
vt 0.2148438 0.21875
g Element #8
usemtl Element
f 1/1/1 2/2/1 4/4/1
f 2/2/1 3/3/1 4/4/1
f 5/5/2 6/6/2 8/8/2
f 6/6/2 7/7/2 8/8/2
f 9/9/3 10/10/3 12/12/3
f 10/10/3 11/11/3 12/12/3
f 13/12/4 14/11/4 16/14/4
f 14/11/4 15/13/4 16/14/4
f 17/15/5 18/16/5 20/18/5
f 18/16/5 19/17/5 20/18/5
f 21/19/6 22/20/6 24/15/6
f 22/20/6 23/16/6 24/15/6
g Element #9
usemtl Element
f 25/21/7 26/22/7 28/24/7
f 26/22/7 27/23/7 28/24/7
f 29/25/8 30/26/8 32/28/8
f 30/26/8 31/27/8 32/28/8
f 33/29/9 34/30/9 36/32/9
f 34/30/9 35/31/9 36/32/9
f 37/30/10 38/33/10 40/31/10
f 38/33/10 39/34/10 40/31/10
f 41/35/5 42/36/5 44/38/5
f 42/36/5 43/37/5 44/38/5
f 45/39/6 46/40/6 48/29/6
f 46/40/6 47/30/6 48/29/6
g Element #10
usemtl Element
f 49/41/7 50/42/7 52/44/7
f 50/42/7 51/43/7 52/44/7
f 53/44/8 54/45/8 56/41/8
f 54/45/8 55/46/8 56/41/8
f 57/47/9 58/48/9 60/50/9
f 58/48/9 59/49/9 60/50/9
f 61/51/10 62/52/10 64/54/10
f 62/52/10 63/53/10 64/54/10
f 65/55/5 66/56/5 68/58/5
f 66/56/5 67/57/5 68/58/5
f 69/59/6 70/60/6 72/62/6
f 70/60/6 71/61/6 72/62/6
