# Export of Cubik Model: Cubik Model
# Designed by Zhouyi with Cubik Studio - https://cubik.studio
# from Cubik OBJ Exporter v1.0
mtllib lion.mtl
v -6.5 4.631838 -18.97487 1 1 1
v -3.5 4.631838 -18.97487 1 1 1
v -3.5 8.167372 -15.43933 1 1 1
v -6.5 8.167372 -15.43933 1 1 1
v -3.5 7.460264 -21.8033 1 1 1
v -6.5 7.460264 -21.8033 1 1 1
v -6.5 10.9958 -18.26776 1 1 1
v -3.5 10.9958 -18.26776 1 1 1
v -3.5 10.9958 -18.26776 1 1 1
v -6.5 10.9958 -18.26776 1 1 1
v -6.5 8.167372 -15.43933 1 1 1
v -3.5 8.167372 -15.43933 1 1 1
v -6.5 7.460264 -21.8033 1 1 1
v -3.5 7.460264 -21.8033 1 1 1
v -3.5 4.631838 -18.97487 1 1 1
v -6.5 4.631838 -18.97487 1 1 1
v -3.5 7.460264 -21.8033 1 1 1
v -3.5 10.9958 -18.26776 1 1 1
v -3.5 8.167372 -15.43933 1 1 1
v -3.5 4.631838 -18.97487 1 1 1
v -6.5 10.9958 -18.26776 1 1 1
v -6.5 7.460264 -21.8033 1 1 1
v -6.5 4.631838 -18.97487 1 1 1
v -6.5 8.167372 -15.43933 1 1 1
vn 0 -0.7071067 0.7071068
vn 0 0.7071067 -0.7071068
vn 0 0.7071068 0.7071067
vn 0 -0.7071068 -0.7071067
vn 1 0 0
vn -1 0 0
vt 0.3242188 0.1132813
vt 0.3359375 0.1132813
vt 0.3359375 0.09765625
vt 0.3242188 0.09765625
vt 0.3359375 0.08203125
vt 0.3242188 0.08203125
vt 0.296875 0.1171875
vt 0.2851563 0.1171875
vt 0.2851563 0.140625
vt 0.296875 0.140625
vt 0.3085938 0.140625
vt 0.3085938 0.1171875
vt 0.3632813 0.01953125
vt 0.3398438 0.01953125
vt 0.3398438 0.03515625
vt 0.3632813 0.03515625
vt 0.4101563 0.03515625
vt 0.4335938 0.03515625
vt 0.4335938 0.01953125
vt 0.4101563 0.01953125
v -6.4 7.65 -20.2143 1 1 1
v -3.4 7.65 -20.2143 1 1 1
v -3.4 7.65 -15.2143 1 1 1
v -6.4 7.65 -15.2143 1 1 1
v -3.4 16.65 -20.2143 1 1 1
v -6.4 16.65 -20.2143 1 1 1
v -6.4 16.65 -15.2143 1 1 1
v -3.4 16.65 -15.2143 1 1 1
v -3.4 16.65 -15.2143 1 1 1
v -6.4 16.65 -15.2143 1 1 1
v -6.4 7.65 -15.2143 1 1 1
v -3.4 7.65 -15.2143 1 1 1
v -6.4 16.65 -20.2143 1 1 1
v -3.4 16.65 -20.2143 1 1 1
v -3.4 7.65 -20.2143 1 1 1
v -6.4 7.65 -20.2143 1 1 1
v -3.4 16.65 -20.2143 1 1 1
v -3.4 16.65 -15.2143 1 1 1
v -3.4 7.65 -15.2143 1 1 1
v -3.4 7.65 -20.2143 1 1 1
v -6.4 16.65 -15.2143 1 1 1
v -6.4 16.65 -20.2143 1 1 1
v -6.4 7.65 -20.2143 1 1 1
v -6.4 7.65 -15.2143 1 1 1
vn 0 -1 0
vn 0 1 0
vn 0 0 1
vn 0 0 -1
vt 0.3476563 0.08203125
vt 0.3476563 0.0625
vt 0.3359375 0.0625
vt 0.3085938 0.2265625
vt 0.296875 0.2265625
vt 0.296875 0.2460938
vt 0.3085938 0.2460938
vt 0.2382813 0.140625
vt 0.25 0.140625
vt 0.25 0.1054688
vt 0.2382813 0.1054688
vt 0.2382813 0.03515625
vt 0.25 0.03515625
vt 0.25 0
vt 0.2382813 0
vt 0.0703125 0.2070313
vt 0.08984375 0.2070313
vt 0.08984375 0.171875
vt 0.0703125 0.171875
vt 0.0703125 0.2421875
vt 0.08984375 0.2421875
v -6.6 2.026061 -23.31908 1 1 1
v -3.6 2.026061 -23.31908 1 1 1
v -3.6 1 -20.5 1 1 1
v -6.6 1 -20.5 1 1 1
v -3.6 7.664216 -21.26696 1 1 1
v -6.6 7.664216 -21.26696 1 1 1
v -6.6 6.638155 -18.44788 1 1 1
v -3.6 6.638155 -18.44788 1 1 1
v -3.6 6.638155 -18.44788 1 1 1
v -6.6 6.638155 -18.44788 1 1 1
v -6.6 1 -20.5 1 1 1
v -3.6 1 -20.5 1 1 1
v -6.6 7.664216 -21.26696 1 1 1
v -3.6 7.664216 -21.26696 1 1 1
v -3.6 2.026061 -23.31908 1 1 1
v -6.6 2.026061 -23.31908 1 1 1
v -3.6 7.664216 -21.26696 1 1 1
v -3.6 6.638155 -18.44788 1 1 1
v -3.6 1 -20.5 1 1 1
v -3.6 2.026061 -23.31908 1 1 1
v -6.6 6.638155 -18.44788 1 1 1
v -6.6 7.664216 -21.26696 1 1 1
v -6.6 2.026061 -23.31908 1 1 1
v -6.6 1 -20.5 1 1 1
vn 0 -0.9396926 -0.3420202
vn 0 0.9396926 0.3420202
vn 0 -0.3420202 0.9396926
vn 0 0.3420202 -0.9396926
vt 0.3828125 0.08203125
vt 0.3945313 0.08203125
vt 0.3945313 0.0703125
vt 0.3828125 0.0703125
vt 0.3710938 0.0703125
vt 0.3710938 0.08203125
vt 0.2695313 0.1640625
vt 0.28125 0.1640625
vt 0.28125 0.140625
vt 0.2695313 0.140625
vt 0.28125 0.1171875
vt 0.2695313 0.1171875
vt 0.2382813 0.234375
vt 0.25 0.234375
vt 0.25 0.2109375
vt 0.2382813 0.2109375
vt 0.28125 0.09375
vt 0.2695313 0.09375
v -6.75 0 -22.5 0.854902 0.9529412 0.9254902
v -3.25 0 -22.5 0.854902 0.9529412 0.9254902
v -3.25 0 -18.5 0.854902 0.9529412 0.9254902
v -6.75 0 -18.5 0.854902 0.9529412 0.9254902
v -3.25 2 -22.5 0.854902 0.9529412 0.9254902
v -6.75 2 -22.5 0.854902 0.9529412 0.9254902
v -6.75 2 -18.5 0.854902 0.9529412 0.9254902
v -3.25 2 -18.5 0.854902 0.9529412 0.9254902
v -3.25 2 -18.5 0.854902 0.9529412 0.9254902
v -6.75 2 -18.5 0.854902 0.9529412 0.9254902
v -6.75 0 -18.5 0.854902 0.9529412 0.9254902
v -3.25 0 -18.5 0.854902 0.9529412 0.9254902
v -6.75 2 -22.5 0.854902 0.9529412 0.9254902
v -3.25 2 -22.5 0.854902 0.9529412 0.9254902
v -3.25 0 -22.5 0.854902 0.9529412 0.9254902
v -6.75 0 -22.5 0.854902 0.9529412 0.9254902
v -3.25 2 -22.5 0.854902 0.9529412 0.9254902
v -3.25 2 -18.5 0.854902 0.9529412 0.9254902
v -3.25 0 -18.5 0.854902 0.9529412 0.9254902
v -3.25 0 -22.5 0.854902 0.9529412 0.9254902
v -6.75 2 -18.5 0.854902 0.9529412 0.9254902
v -6.75 2 -22.5 0.854902 0.9529412 0.9254902
v -6.75 0 -22.5 0.854902 0.9529412 0.9254902
v -6.75 0 -18.5 0.854902 0.9529412 0.9254902
vt 0.3242188 0.1445313
vt 0.3359375 0.1445313
vt 0.3359375 0.1289063
vt 0.3242188 0.1289063
vt 0.2382813 0.25
vt 0.25 0.25
vt 0.3359375 0.2304688
vt 0.3476563 0.2304688
vt 0.3476563 0.2226563
vt 0.3359375 0.2226563
vt 0.3359375 0.1914063
vt 0.3476563 0.1914063
vt 0.3476563 0.1835938
vt 0.3359375 0.1835938
vt 0.3359375 0.1054688
vt 0.3515625 0.1054688
vt 0.3515625 0.09765625
vt 0.3515625 0.1289063
vt 0.3515625 0.1210938
vt 0.3359375 0.1210938
g Element #2
usemtl Element
f 1/1/1 2/2/1 4/4/1
f 2/2/1 3/3/1 4/4/1
f 5/4/2 6/3/2 8/6/2
f 6/3/2 7/5/2 8/6/2
f 9/7/3 10/8/3 12/10/3
f 10/8/3 11/9/3 12/10/3
f 13/10/4 14/11/4 16/7/4
f 14/11/4 15/12/4 16/7/4
f 17/13/5 18/14/5 20/16/5
f 18/14/5 19/15/5 20/16/5
f 21/17/6 22/18/6 24/20/6
f 22/18/6 23/19/6 24/20/6
g Element #3
usemtl Element
f 25/5/7 26/21/7 28/23/7
f 26/21/7 27/22/7 28/23/7
f 29/24/8 30/25/8 32/27/8
f 30/25/8 31/26/8 32/27/8
f 33/28/9 34/29/9 36/31/9
f 34/29/9 35/30/9 36/31/9
f 37/32/10 38/33/10 40/35/10
f 38/33/10 39/34/10 40/35/10
f 41/36/5 42/37/5 44/39/5
f 42/37/5 43/38/5 44/39/5
f 45/40/6 46/41/6 48/36/6
f 46/41/6 47/37/6 48/36/6
g Element #4
usemtl Element
f 49/42/11 50/43/11 52/45/11
f 50/43/11 51/44/11 52/45/11
f 53/45/12 54/46/12 56/42/12
f 54/46/12 55/47/12 56/42/12
f 57/48/13 58/49/13 60/51/13
f 58/49/13 59/50/13 60/51/13
f 61/51/14 62/50/14 64/53/14
f 62/50/14 63/52/14 64/53/14
f 65/54/5 66/55/5 68/57/5
f 66/55/5 67/56/5 68/57/5
f 69/53/6 70/52/6 72/59/6
f 70/52/6 71/58/6 72/59/6
g Element #6
usemtl Element
f 73/60/7 74/61/7 76/63/7
f 74/61/7 75/62/7 76/63/7
f 77/55/8 78/54/8 80/65/8
f 78/54/8 79/64/8 80/65/8
f 81/66/9 82/67/9 84/69/9
f 82/67/9 83/68/9 84/69/9
f 85/70/10 86/71/10 88/73/10
f 86/71/10 87/72/10 88/73/10
f 89/74/5 90/75/5 92/3/5
f 90/75/5 91/76/5 92/3/5
f 93/62/6 94/77/6 96/79/6
f 94/77/6 95/78/6 96/79/6
