# Export of Cubik Model: Cubik Model
# Designed by Zhouyi with Cubik Studio - https://cubik.studio
# from Cubik OBJ Exporter v1.0
mtllib lion.mtl
v -8.75 9.121321 -37.62132 1 1 1
v -7.25 9.121321 -37.62132 1 1 1
v -7.25 7 -35.5 1 1 1
v -8.75 7 -35.5 1 1 1
v -7.25 10.18198 -36.56066 1 1 1
v -8.75 10.18198 -36.56066 1 1 1
v -8.75 8.06066 -34.43934 1 1 1
v -7.25 8.06066 -34.43934 1 1 1
v -7.25 8.06066 -34.43934 1 1 1
v -8.75 8.06066 -34.43934 1 1 1
v -8.75 7 -35.5 1 1 1
v -7.25 7 -35.5 1 1 1
v -8.75 10.18198 -36.56066 1 1 1
v -7.25 10.18198 -36.56066 1 1 1
v -7.25 9.121321 -37.62132 1 1 1
v -8.75 9.121321 -37.62132 1 1 1
v -7.25 10.18198 -36.56066 1 1 1
v -7.25 8.06066 -34.43934 1 1 1
v -7.25 7 -35.5 1 1 1
v -7.25 9.121321 -37.62132 1 1 1
v -8.75 8.06066 -34.43934 1 1 1
v -8.75 10.18198 -36.56066 1 1 1
v -8.75 9.121321 -37.62132 1 1 1
v -8.75 7 -35.5 1 1 1
vn 0 -0.7071067 -0.7071068
vn 0 0.7071067 0.7071068
vn 0 -0.7071068 0.7071067
vn 0 0.7071068 -0.7071067
vn 1 0 0
vn -1 0 0
vt 0.2382813 0.2070313
vt 0.234375 0.2070313
vt 0.234375 0.1953125
vt 0.2382813 0.1953125
vt 0.2304688 0.1953125
vt 0.2304688 0.2070313
vt 0.234375 0.1640625
vt 0.2304688 0.1640625
vt 0.2304688 0.1601563
vt 0.234375 0.1601563
vt 0.2382813 0.1328125
vt 0.234375 0.1328125
vt 0.234375 0.1289063
vt 0.2382813 0.1289063
vt 0.4335938 0.08203125
vt 0.421875 0.08203125
vt 0.421875 0.078125
vt 0.4335938 0.078125
vt 0.4101563 0.08203125
vt 0.4101563 0.078125
v -8.75 17.03528 -21.8637 1 1 1
v -7.25 17.03528 -21.8637 1 1 1
v -7.25 16 -18 1 1 1
v -8.75 16 -18 1 1 1
v -7.25 18.48417 -21.47548 1 1 1
v -8.75 18.48417 -21.47548 1 1 1
v -8.75 17.44889 -17.61177 1 1 1
v -7.25 17.44889 -17.61177 1 1 1
v -7.25 17.44889 -17.61177 1 1 1
v -8.75 17.44889 -17.61177 1 1 1
v -8.75 16 -18 1 1 1
v -7.25 16 -18 1 1 1
v -8.75 18.48417 -21.47548 1 1 1
v -7.25 18.48417 -21.47548 1 1 1
v -7.25 17.03528 -21.8637 1 1 1
v -8.75 17.03528 -21.8637 1 1 1
v -7.25 18.48417 -21.47548 1 1 1
v -7.25 17.44889 -17.61177 1 1 1
v -7.25 16 -18 1 1 1
v -7.25 17.03528 -21.8637 1 1 1
v -8.75 17.44889 -17.61177 1 1 1
v -8.75 18.48417 -21.47548 1 1 1
v -8.75 17.03528 -21.8637 1 1 1
v -8.75 16 -18 1 1 1
vn 0 -0.9659258 -0.2588191
vn 0 0.9659258 0.2588191
vn 0 -0.2588191 0.9659258
vn 0 0.2588191 -0.9659258
vt 0.1796875 0.1523438
vt 0.1757813 0.1523438
vt 0.1757813 0.1367188
vt 0.1796875 0.1367188
vt 0.1445313 0.2226563
vt 0.1484375 0.2226563
vt 0.1484375 0.2382813
vt 0.1445313 0.2382813
vt 0.2382813 0.1640625
vt 0.2382813 0.1601563
vt 0.2382813 0.1796875
vt 0.234375 0.1796875
vt 0.234375 0.1757813
vt 0.2382813 0.1757813
vt 0.2382813 0.25
vt 0.2226563 0.25
vt 0.2226563 0.2460938
vt 0.2382813 0.2460938
vt 0.21875 0.25
vt 0.203125 0.25
vt 0.203125 0.2460938
vt 0.21875 0.2460938
v -8.65 15.9073 -23.44009 1 1 1
v -7.35 15.9073 -23.44009 1 1 1
v -7.35 17.62803 -20.98264 1 1 1
v -8.65 17.62803 -20.98264 1 1 1
v -7.35 16.97219 -24.18574 1 1 1
v -8.65 16.97219 -24.18574 1 1 1
v -8.65 18.69292 -21.72828 1 1 1
v -7.35 18.69292 -21.72828 1 1 1
v -7.35 18.69292 -21.72828 1 1 1
v -8.65 18.69292 -21.72828 1 1 1
v -8.65 17.62803 -20.98264 1 1 1
v -7.35 17.62803 -20.98264 1 1 1
v -8.65 16.97219 -24.18574 1 1 1
v -7.35 16.97219 -24.18574 1 1 1
v -7.35 15.9073 -23.44009 1 1 1
v -8.65 15.9073 -23.44009 1 1 1
v -7.35 16.97219 -24.18574 1 1 1
v -7.35 18.69292 -21.72828 1 1 1
v -7.35 17.62803 -20.98264 1 1 1
v -7.35 15.9073 -23.44009 1 1 1
v -8.65 18.69292 -21.72828 1 1 1
v -8.65 16.97219 -24.18574 1 1 1
v -8.65 15.9073 -23.44009 1 1 1
v -8.65 17.62803 -20.98264 1 1 1
vn 0 -0.8191519 0.5735766
vn 0 0.8191519 -0.5735766
vn 0 0.5735766 0.8191519
vn 0 -0.5735766 -0.8191519
vt 0.234375 0.08203125
vt 0.2304688 0.08203125
vt 0.2304688 0.0703125
vt 0.234375 0.0703125
vt 0.2304688 0.1328125
vt 0.234375 0.1445313
vt 0.2304688 0.1445313
vt 0.2304688 0.1914063
vt 0.234375 0.1914063
vt 0.234375 0.1484375
vt 0.2304688 0.1484375
vt 0.4570313 0.08203125
vt 0.4453125 0.08203125
vt 0.4453125 0.078125
vt 0.4570313 0.078125
vt 0.46875 0.08203125
vt 0.46875 0.078125
v -8.6 13.2149 -25.31646 1 1 1
v -7.4 13.2149 -25.31646 1 1 1
v -7.4 12.80448 -24.18883 1 1 1
v -8.6 12.80448 -24.18883 1 1 1
v -7.4 16.97367 -23.94838 1 1 1
v -8.6 16.97367 -23.94838 1 1 1
v -8.6 16.56325 -22.82075 1 1 1
v -7.4 16.56325 -22.82075 1 1 1
v -7.4 16.56325 -22.82075 1 1 1
v -8.6 16.56325 -22.82075 1 1 1
v -8.6 12.80448 -24.18883 1 1 1
v -7.4 12.80448 -24.18883 1 1 1
v -8.6 16.97367 -23.94838 1 1 1
v -7.4 16.97367 -23.94838 1 1 1
v -7.4 13.2149 -25.31646 1 1 1
v -8.6 13.2149 -25.31646 1 1 1
v -7.4 16.97367 -23.94838 1 1 1
v -7.4 16.56325 -22.82075 1 1 1
v -7.4 12.80448 -24.18883 1 1 1
v -7.4 13.2149 -25.31646 1 1 1
v -8.6 16.56325 -22.82075 1 1 1
v -8.6 16.97367 -23.94838 1 1 1
v -8.6 13.2149 -25.31646 1 1 1
v -8.6 12.80448 -24.18883 1 1 1
vn 0 -0.9396926 -0.3420202
vn 0 0.9396926 0.3420202
vn 0 -0.3420202 0.9396926
vn 0 0.3420202 -0.9396926
vt 0.2304688 0.1796875
vt 0.2304688 0.1757813
vt 0.2382813 0.1914063
vt 0.1992188 0.1445313
vt 0.1953125 0.1445313
vt 0.1953125 0.1328125
vt 0.1992188 0.1328125
vt 0.203125 0.1445313
vt 0.203125 0.1328125
vt 0.2382813 0.0703125
vt 0.2382813 0.08203125
vt 0.234375 0.0859375
vt 0.234375 0.09765625
vt 0.2304688 0.09765625
vt 0.2304688 0.0859375
v -8.5 10.10844 -26.51372 1 1 1
v -7.5 10.10844 -26.51372 1 1 1
v -7.5 9.766419 -25.57403 1 1 1
v -8.5 9.766419 -25.57403 1 1 1
v -7.5 13.39736 -25.31665 1 1 1
v -8.5 13.39736 -25.31665 1 1 1
v -8.5 13.05534 -24.37696 1 1 1
v -7.5 13.05534 -24.37696 1 1 1
v -7.5 13.05534 -24.37696 1 1 1
v -8.5 13.05534 -24.37696 1 1 1
v -8.5 9.766419 -25.57403 1 1 1
v -7.5 9.766419 -25.57403 1 1 1
v -8.5 13.39736 -25.31665 1 1 1
v -7.5 13.39736 -25.31665 1 1 1
v -7.5 10.10844 -26.51372 1 1 1
v -8.5 10.10844 -26.51372 1 1 1
v -7.5 13.39736 -25.31665 1 1 1
v -7.5 13.05534 -24.37696 1 1 1
v -7.5 9.766419 -25.57403 1 1 1
v -7.5 10.10844 -26.51372 1 1 1
v -8.5 13.05534 -24.37696 1 1 1
v -8.5 13.39736 -25.31665 1 1 1
v -8.5 10.10844 -26.51372 1 1 1
v -8.5 9.766419 -25.57403 1 1 1
vt 0.234375 0.2109375
vt 0.2304688 0.2109375
vt 0.2382813 0.1445313
vt 0.2382813 0.1484375
vt 0.2304688 0.1132813
vt 0.2304688 0.1015625
vt 0.234375 0.1015625
vt 0.234375 0.1132813
vt 0.2382813 0.0859375
vt 0.2382813 0.09765625
v -8.5 7.570379 -27.51372 1 1 1
v -7.5 7.570379 -27.51372 1 1 1
v -7.5 7.228359 -26.57403 1 1 1
v -8.5 7.228359 -26.57403 1 1 1
v -7.5 10.38946 -26.48766 1 1 1
v -8.5 10.38946 -26.48766 1 1 1
v -8.5 10.04744 -25.54797 1 1 1
v -7.5 10.04744 -25.54797 1 1 1
v -7.5 10.04744 -25.54797 1 1 1
v -8.5 10.04744 -25.54797 1 1 1
v -8.5 7.228359 -26.57403 1 1 1
v -7.5 7.228359 -26.57403 1 1 1
v -8.5 10.38946 -26.48766 1 1 1
v -7.5 10.38946 -26.48766 1 1 1
v -7.5 7.570379 -27.51372 1 1 1
v -8.5 7.570379 -27.51372 1 1 1
v -7.5 10.38946 -26.48766 1 1 1
v -7.5 10.04744 -25.54797 1 1 1
v -7.5 7.228359 -26.57403 1 1 1
v -7.5 7.570379 -27.51372 1 1 1
v -8.5 10.04744 -25.54797 1 1 1
v -8.5 10.38946 -26.48766 1 1 1
v -8.5 7.570379 -27.51372 1 1 1
v -8.5 7.228359 -26.57403 1 1 1
vt 0.1796875 0.1640625
vt 0.1757813 0.1640625
v -8.5 6.085785 -29.26777 1 1 1
v -7.5 6.085785 -29.26777 1 1 1
v -7.5 5.378678 -28.56066 1 1 1
v -8.5 5.378678 -28.56066 1 1 1
v -7.5 8.207105 -27.14645 1 1 1
v -8.5 8.207105 -27.14645 1 1 1
v -8.5 7.499998 -26.43934 1 1 1
v -7.5 7.499998 -26.43934 1 1 1
v -7.5 7.499998 -26.43934 1 1 1
v -8.5 7.499998 -26.43934 1 1 1
v -8.5 5.378678 -28.56066 1 1 1
v -7.5 5.378678 -28.56066 1 1 1
v -8.5 8.207105 -27.14645 1 1 1
v -7.5 8.207105 -27.14645 1 1 1
v -7.5 6.085785 -29.26777 1 1 1
v -8.5 6.085785 -29.26777 1 1 1
v -7.5 8.207105 -27.14645 1 1 1
v -7.5 7.499998 -26.43934 1 1 1
v -7.5 5.378678 -28.56066 1 1 1
v -7.5 6.085785 -29.26777 1 1 1
v -8.5 7.499998 -26.43934 1 1 1
v -8.5 8.207105 -27.14645 1 1 1
v -8.5 6.085785 -29.26777 1 1 1
v -8.5 5.378678 -28.56066 1 1 1
vt 0.2304688 0.1289063
vt 0.2382813 0.1132813
vt 0.2382813 0.1171875
vt 0.234375 0.1171875
vt 0.2304688 0.1171875
v -8.5 4.293469 -31.50724 1 1 1
v -7.5 4.293469 -31.50724 1 1 1
v -7.5 5.31953 -28.68817 1 1 1
v -8.5 5.31953 -28.68817 1 1 1
v -7.5 5.233162 -31.84926 1 1 1
v -8.5 5.233162 -31.84926 1 1 1
v -8.5 6.259223 -29.03019 1 1 1
v -7.5 6.259223 -29.03019 1 1 1
v -7.5 6.259223 -29.03019 1 1 1
v -8.5 6.259223 -29.03019 1 1 1
v -8.5 5.31953 -28.68817 1 1 1
v -7.5 5.31953 -28.68817 1 1 1
v -8.5 5.233162 -31.84926 1 1 1
v -7.5 5.233162 -31.84926 1 1 1
v -7.5 4.293469 -31.50724 1 1 1
v -8.5 4.293469 -31.50724 1 1 1
v -7.5 5.233162 -31.84926 1 1 1
v -7.5 6.259223 -29.03019 1 1 1
v -7.5 5.31953 -28.68817 1 1 1
v -7.5 4.293469 -31.50724 1 1 1
v -8.5 6.259223 -29.03019 1 1 1
v -8.5 5.233162 -31.84926 1 1 1
v -8.5 4.293469 -31.50724 1 1 1
v -8.5 5.31953 -28.68817 1 1 1
vn 0 -0.9396926 0.3420204
vn 0 0.9396926 -0.3420204
vn 0 0.3420204 0.9396926
vn 0 -0.3420204 -0.9396926
vt 0.2382813 0.1015625
vt 0.1992188 0.15625
vt 0.1953125 0.15625
vt 0.4570313 0.04296875
vt 0.46875 0.04296875
vt 0.46875 0.046875
vt 0.4570313 0.046875
vt 0.4453125 0.04296875
vt 0.4453125 0.046875
v -8.5 5.526061 -34.31908 1 1 1
v -7.5 5.526061 -34.31908 1 1 1
v -7.5 4.5 -31.5 1 1 1
v -8.5 4.5 -31.5 1 1 1
v -7.5 6.465753 -33.97706 1 1 1
v -8.5 6.465753 -33.97706 1 1 1
v -8.5 5.439692 -31.15798 1 1 1
v -7.5 5.439692 -31.15798 1 1 1
v -7.5 5.439692 -31.15798 1 1 1
v -8.5 5.439692 -31.15798 1 1 1
v -8.5 4.5 -31.5 1 1 1
v -7.5 4.5 -31.5 1 1 1
v -8.5 6.465753 -33.97706 1 1 1
v -7.5 6.465753 -33.97706 1 1 1
v -7.5 5.526061 -34.31908 1 1 1
v -8.5 5.526061 -34.31908 1 1 1
v -7.5 6.465753 -33.97706 1 1 1
v -7.5 5.439692 -31.15798 1 1 1
v -7.5 4.5 -31.5 1 1 1
v -7.5 5.526061 -34.31908 1 1 1
v -8.5 5.439692 -31.15798 1 1 1
v -8.5 6.465753 -33.97706 1 1 1
v -8.5 5.526061 -34.31908 1 1 1
v -8.5 4.5 -31.5 1 1 1
vt 0.1796875 0.1875
vt 0.1757813 0.1875
vt 0.1757813 0.1757813
vt 0.1796875 0.1757813
vt 0.1484375 0.1132813
vt 0.1445313 0.1132813
vt 0.1445313 0.109375
vt 0.1484375 0.109375
vt 0.3984375 0.08203125
vt 0.3984375 0.078125
v -9 7.121321 -36.12132 1 1 1
v -7 7.121321 -36.12132 1 1 1
v -7 5 -34 1 1 1
v -9 5 -34 1 1 1
v -7 8.535534 -34.70711 1 1 1
v -9 8.535534 -34.70711 1 1 1
v -9 6.414213 -32.58578 1 1 1
v -7 6.414213 -32.58578 1 1 1
v -7 6.414213 -32.58578 1 1 1
v -9 6.414213 -32.58578 1 1 1
v -9 5 -34 1 1 1
v -7 5 -34 1 1 1
v -9 8.535534 -34.70711 1 1 1
v -7 8.535534 -34.70711 1 1 1
v -7 7.121321 -36.12132 1 1 1
v -9 7.121321 -36.12132 1 1 1
v -7 8.535534 -34.70711 1 1 1
v -7 6.414213 -32.58578 1 1 1
v -7 5 -34 1 1 1
v -7 7.121321 -36.12132 1 1 1
v -9 6.414213 -32.58578 1 1 1
v -9 8.535534 -34.70711 1 1 1
v -9 7.121321 -36.12132 1 1 1
v -9 5 -34 1 1 1
vt 0.0390625 0.1953125
vt 0.03125 0.1953125
vt 0.03125 0.1835938
vt 0.0390625 0.1835938
vt 0.0390625 0.2070313
vt 0.03125 0.2070313
vt 0.1796875 0.2109375
vt 0.171875 0.2109375
vt 0.171875 0.203125
vt 0.1796875 0.203125
vt 0.1796875 0.21875
vt 0.171875 0.21875
vt 0.3476563 0.1992188
vt 0.3359375 0.1992188
vt 0.3359375 0.1914063
vt 0.3476563 0.1914063
vt 0.3476563 0.1835938
vt 0.3359375 0.1835938
vt 0.3359375 0.1757813
vt 0.3476563 0.1757813
g Element #2
usemtl Element
f 1/1/1 2/2/1 4/4/1
f 2/2/1 3/3/1 4/4/1
f 5/5/2 6/3/2 8/6/2
f 6/3/2 7/2/2 8/6/2
f 9/7/3 10/8/3 12/10/3
f 10/8/3 11/9/3 12/10/3
f 13/11/4 14/12/4 16/14/4
f 14/12/4 15/13/4 16/14/4
f 17/15/5 18/16/5 20/18/5
f 18/16/5 19/17/5 20/18/5
f 21/16/6 22/19/6 24/17/6
f 22/19/6 23/20/6 24/17/6
g Element #13
usemtl Element
f 25/21/7 26/22/7 28/24/7
f 26/22/7 27/23/7 28/24/7
f 29/25/8 30/26/8 32/28/8
f 30/26/8 31/27/8 32/28/8
f 33/29/9 34/7/9 36/30/9
f 34/7/9 35/10/9 36/30/9
f 37/31/10 38/32/10 40/34/10
f 38/32/10 39/33/10 40/34/10
f 41/35/5 42/36/5 44/38/5
f 42/36/5 43/37/5 44/38/5
f 45/39/6 46/40/6 48/42/6
f 46/40/6 47/41/6 48/42/6
g Element #14
usemtl Element
f 49/43/11 50/44/11 52/46/11
f 50/44/11 51/45/11 52/46/11
f 53/47/12 54/12/12 56/49/12
f 54/12/12 55/48/12 56/49/12
f 57/3/13 58/5/13 60/51/13
f 58/5/13 59/50/13 60/51/13
f 61/52/14 62/53/14 64/48/14
f 62/53/14 63/49/14 64/48/14
f 65/54/5 66/55/5 68/57/5
f 66/55/5 67/56/5 68/57/5
f 69/58/6 70/54/6 72/59/6
f 70/54/6 71/57/6 72/59/6
g Element #15
usemtl Element
f 73/32/15 74/60/15 76/33/15
f 74/60/15 75/61/15 76/33/15
f 77/51/16 78/62/16 80/3/16
f 78/62/16 79/4/16 80/3/16
f 81/63/17 82/64/17 84/66/17
f 82/64/17 83/65/17 84/66/17
f 85/67/18 86/63/18 88/68/18
f 86/63/18 87/66/18 88/68/18
f 89/43/5 90/46/5 92/70/5
f 90/46/5 91/69/5 92/70/5
f 93/71/6 94/72/6 96/74/6
f 94/72/6 95/73/6 96/74/6
g Element #16
usemtl Element
f 97/75/15 98/76/15 100/2/15
f 98/76/15 99/6/15 100/2/15
f 101/48/16 102/77/16 104/52/16
f 102/77/16 103/78/16 104/52/16
f 105/33/17 106/61/17 108/7/17
f 106/61/17 107/8/17 108/7/17
f 109/30/18 110/10/18 112/78/18
f 110/10/18 111/52/18 112/78/18
f 113/79/5 114/80/5 116/82/5
f 114/80/5 115/81/5 116/82/5
f 117/83/6 118/84/6 120/71/6
f 118/84/6 119/72/6 120/71/6
g Element #17
usemtl Element
f 121/71/15 122/74/15 124/43/15
f 122/74/15 123/44/15 124/43/15
f 125/43/16 126/70/16 128/71/16
f 126/70/16 127/83/16 128/71/16
f 129/85/17 130/86/17 132/21/17
f 130/86/17 131/22/17 132/21/17
f 133/62/18 134/51/18 136/31/18
f 134/51/18 135/32/18 136/31/18
f 137/33/5 138/7/5 140/34/5
f 138/7/5 139/29/5 140/34/5
f 141/32/6 142/51/6 144/60/6
f 142/51/6 143/50/6 144/60/6
g Element #18
usemtl Element
f 145/12/1 146/47/1 148/13/1
f 146/47/1 147/87/1 148/13/1
f 149/82/2 150/88/2 152/90/2
f 150/88/2 151/89/2 152/90/2
f 153/10/3 154/9/3 156/52/3
f 154/9/3 155/53/3 156/52/3
f 157/77/4 158/48/4 160/11/4
f 158/48/4 159/12/4 160/11/4
f 161/13/5 162/90/5 164/14/5
f 162/90/5 163/89/5 164/14/5
f 165/90/6 166/13/6 168/91/6
f 166/13/6 167/87/6 168/91/6
g Element #19
usemtl Element
f 169/88/19 170/82/19 172/92/19
f 170/82/19 171/81/19 172/92/19
f 173/64/20 174/63/20 176/94/20
f 174/63/20 175/93/20 176/94/20
f 177/92/21 178/81/21 180/84/21
f 178/81/21 179/72/21 180/84/21
f 181/81/22 182/80/22 184/72/22
f 182/80/22 183/73/22 184/72/22
f 185/95/5 186/96/5 188/98/5
f 186/96/5 187/97/5 188/98/5
f 189/99/6 190/95/6 192/100/6
f 190/95/6 191/98/6 192/100/6
g Element #20
usemtl Element
f 193/101/15 194/102/15 196/104/15
f 194/102/15 195/103/15 196/104/15
f 197/86/16 198/85/16 200/103/16
f 198/85/16 199/104/16 200/103/16
f 201/105/17 202/106/17 204/108/17
f 202/106/17 203/107/17 204/108/17
f 205/90/18 206/91/18 208/82/18
f 206/91/18 207/79/18 208/82/18
f 209/55/5 210/15/5 212/56/5
f 210/15/5 211/18/5 212/56/5
f 213/19/6 214/109/6 216/20/6
f 214/109/6 215/110/6 216/20/6
g Element #21
usemtl Element
f 217/111/1 218/112/1 220/114/1
f 218/112/1 219/113/1 220/114/1
f 221/112/2 222/111/2 224/116/2
f 222/111/2 223/115/2 224/116/2
f 225/117/3 226/118/3 228/120/3
f 226/118/3 227/119/3 228/120/3
f 229/121/4 230/122/4 232/117/4
f 230/122/4 231/118/4 232/117/4
f 233/123/5 234/124/5 236/126/5
f 234/124/5 235/125/5 236/126/5
f 237/127/6 238/128/6 240/130/6
f 238/128/6 239/129/6 240/130/6
