# Export of Cubik Model: Cubik Model
# Designed by Zhouyi with Cubik Studio - https://cubik.studio
# from Cubik OBJ Exporter v1.0
mtllib lion.mtl
v -10 9 -18.5 1 1 1
v -6 9 -18.5 1 1 1
v -6 9 -10.5 1 1 1
v -10 9 -10.5 1 1 1
v -6 11 -18.5 1 1 1
v -10 11 -18.5 1 1 1
v -10 11 -10.5 1 1 1
v -6 11 -10.5 1 1 1
v -6 11 -10.5 1 1 1
v -10 11 -10.5 1 1 1
v -10 9 -10.5 1 1 1
v -6 9 -10.5 1 1 1
v -10 11 -18.5 1 1 1
v -6 11 -18.5 1 1 1
v -6 9 -18.5 1 1 1
v -10 9 -18.5 1 1 1
v -6 11 -18.5 1 1 1
v -6 11 -10.5 1 1 1
v -6 9 -10.5 1 1 1
v -6 9 -18.5 1 1 1
v -10 11 -10.5 1 1 1
v -10 11 -18.5 1 1 1
v -10 9 -18.5 1 1 1
v -10 9 -10.5 1 1 1
vn 0 -1 0
vn 0 1 0
vn 0 0 1
vn 0 0 -1
vn 1 0 0
vn -1 0 0
vt 0.1953125 0.125
vt 0.1796875 0.125
vt 0.1796875 0.09375
vt 0.1953125 0.09375
vt 0.1953125 0.15625
vt 0.1796875 0.15625
vt 0.3515625 0.1679688
vt 0.3359375 0.1679688
vt 0.3359375 0.1601563
vt 0.3515625 0.1601563
vt 0.1445313 0.08203125
vt 0.1289063 0.08203125
vt 0.1289063 0.07421875
vt 0.1445313 0.07421875
vt 0.0703125 0.25
vt 0.0390625 0.25
vt 0.0390625 0.2421875
vt 0.0703125 0.2421875
vt 0.3398438 0.04296875
vt 0.3085938 0.04296875
vt 0.3085938 0.03515625
vt 0.3398438 0.03515625
v -11 18.5 -7 1 1 1
v -5 18.5 -7 1 1 1
v -5 18.5 1 1 1 1
v -11 18.5 1 1 1 1
v -5 19.5 -7 1 1 1
v -11 19.5 -7 1 1 1
v -11 19.5 1 1 1 1
v -5 19.5 1 1 1 1
v -5 19.5 1 1 1 1
v -11 19.5 1 1 1 1
v -11 18.5 1 1 1 1
v -5 18.5 1 1 1 1
v -11 19.5 -7 1 1 1
v -5 19.5 -7 1 1 1
v -5 18.5 -7 1 1 1
v -11 18.5 -7 1 1 1
v -5 19.5 -7 1 1 1
v -5 19.5 1 1 1 1
v -5 18.5 1 1 1 1
v -5 18.5 -7 1 1 1
v -11 19.5 1 1 1 1
v -11 19.5 -7 1 1 1
v -11 18.5 -7 1 1 1
v -11 18.5 1 1 1 1
vt 0.203125 0.09375
vt 0.1796875 0.0625
vt 0.203125 0.0625
vt 0.1796875 0.03125
vt 0.203125 0.03125
vt 0.1445313 0.1445313
vt 0.1210938 0.1445313
vt 0.1210938 0.140625
vt 0.1445313 0.140625
vt 0.1445313 0.1132813
vt 0.1210938 0.1132813
vt 0.1210938 0.109375
vt 0.1445313 0.109375
vt 0.3515625 0.1015625
vt 0.3828125 0.1015625
vt 0.3828125 0.09765625
vt 0.3515625 0.09765625
v -7.5 10.01458 -0.568584 1 1 1
v -3.5 10.01458 -0.568584 1 1 1
v -3.5 8.304483 4.129879 1 1 1
v -7.5 8.304483 4.129879 1 1 1
v -3.5 13.77335 0.7994967 1 1 1
v -7.5 13.77335 0.7994967 1 1 1
v -7.5 12.06325 5.49796 1 1 1
v -3.5 12.06325 5.49796 1 1 1
v -3.5 12.06325 5.49796 1 1 1
v -7.5 12.06325 5.49796 1 1 1
v -7.5 8.304483 4.129879 1 1 1
v -3.5 8.304483 4.129879 1 1 1
v -7.5 13.77335 0.7994967 1 1 1
v -3.5 13.77335 0.7994967 1 1 1
v -3.5 10.01458 -0.568584 1 1 1
v -7.5 10.01458 -0.568584 1 1 1
v -3.5 13.77335 0.7994967 1 1 1
v -3.5 12.06325 5.49796 1 1 1
v -3.5 8.304483 4.129879 1 1 1
v -3.5 10.01458 -0.568584 1 1 1
v -7.5 12.06325 5.49796 1 1 1
v -7.5 13.77335 0.7994967 1 1 1
v -7.5 10.01458 -0.568584 1 1 1
v -7.5 8.304483 4.129879 1 1 1
vn 0 -0.9396926 -0.3420202
vn 0 0.9396926 0.3420202
vn 0 -0.3420202 0.9396926
vn 0 0.3420202 -0.9396926
vt 0.5 0.01953125
vt 0.484375 0.01953125
vt 0.484375 0
vt 0.5 0
vt 0.25 0.08984375
vt 0.265625 0.08984375
vt 0.265625 0.109375
vt 0.25 0.109375
vt 0.4179688 0.0625
vt 0.4023438 0.0625
vt 0.4023438 0.046875
vt 0.4179688 0.046875
vt 0.4335938 0.0625
vt 0.4335938 0.046875
vt 0.25 0.25
vt 0.25 0.234375
vt 0.2695313 0.234375
vt 0.2695313 0.25
vt 0.2695313 0.125
vt 0.2695313 0.140625
vt 0.25 0.140625
vt 0.25 0.125
v -12 9.5 -8.5 1 1 1
v -4 9.5 -8.5 1 1 1
v -4 9.5 4.5 1 1 1
v -12 9.5 4.5 1 1 1
v -4 18.5 -8.5 1 1 1
v -12 18.5 -8.5 1 1 1
v -12 18.5 4.5 1 1 1
v -4 18.5 4.5 1 1 1
v -4 18.5 4.5 1 1 1
v -12 18.5 4.5 1 1 1
v -12 9.5 4.5 1 1 1
v -4 9.5 4.5 1 1 1
v -12 18.5 -8.5 1 1 1
v -4 18.5 -8.5 1 1 1
v -4 9.5 -8.5 1 1 1
v -12 9.5 -8.5 1 1 1
v -4 18.5 -8.5 1 1 1
v -4 18.5 4.5 1 1 1
v -4 9.5 4.5 1 1 1
v -4 9.5 -8.5 1 1 1
v -12 18.5 4.5 1 1 1
v -12 18.5 -8.5 1 1 1
v -12 9.5 -8.5 1 1 1
v -12 9.5 4.5 1 1 1
vt 0.03125 0.1679688
vt 0 0.1679688
vt 0 0.1171875
vt 0.03125 0.1171875
vt 0.0390625 0.0703125
vt 0.0703125 0.0703125
vt 0.0703125 0.1210938
vt 0.0390625 0.1210938
vt 0.0390625 0.2070313
vt 0.0703125 0.2070313
vt 0.0390625 0.171875
vt 0.0703125 0.171875
vt 0.08984375 0.0703125
vt 0.08984375 0.03515625
vt 0.0390625 0.03515625
v -11.5 9.5 -14 1 1 1
v -4.5 9.5 -14 1 1 1
v -4.5 9.5 -6 1 1 1
v -11.5 9.5 -6 1 1 1
v -4.5 17 -14 1 1 1
v -11.5 17 -14 1 1 1
v -11.5 17 -6 1 1 1
v -4.5 17 -6 1 1 1
v -4.5 17 -6 1 1 1
v -11.5 17 -6 1 1 1
v -11.5 9.5 -6 1 1 1
v -4.5 9.5 -6 1 1 1
v -11.5 17 -14 1 1 1
v -4.5 17 -14 1 1 1
v -4.5 9.5 -14 1 1 1
v -11.5 9.5 -14 1 1 1
v -4.5 17 -14 1 1 1
v -4.5 17 -6 1 1 1
v -4.5 9.5 -6 1 1 1
v -4.5 9.5 -14 1 1 1
v -11.5 17 -6 1 1 1
v -11.5 17 -14 1 1 1
v -11.5 9.5 -14 1 1 1
v -11.5 9.5 -6 1 1 1
vt 0.1796875 0
vt 0.203125 0
vt 0.1484375 0.1914063
vt 0.171875 0.1914063
vt 0.171875 0.2226563
vt 0.1484375 0.2226563
vt 0.1132813 0.25
vt 0.08984375 0.25
vt 0.08984375 0.2226563
vt 0.1132813 0.2226563
vt 0.171875 0.25
vt 0.1484375 0.25
vt 0.1484375 0.109375
vt 0.1796875 0.109375
vt 0.1796875 0.08203125
vt 0.1484375 0.08203125
v -12.5 10.01458 -0.568584 1 1 1
v -8.5 10.01458 -0.568584 1 1 1
v -8.5 8.304483 4.129879 1 1 1
v -12.5 8.304483 4.129879 1 1 1
v -8.5 13.77335 0.7994967 1 1 1
v -12.5 13.77335 0.7994967 1 1 1
v -12.5 12.06325 5.49796 1 1 1
v -8.5 12.06325 5.49796 1 1 1
v -8.5 12.06325 5.49796 1 1 1
v -12.5 12.06325 5.49796 1 1 1
v -12.5 8.304483 4.129879 1 1 1
v -8.5 8.304483 4.129879 1 1 1
v -12.5 13.77335 0.7994967 1 1 1
v -8.5 13.77335 0.7994967 1 1 1
v -8.5 10.01458 -0.568584 1 1 1
v -12.5 10.01458 -0.568584 1 1 1
v -8.5 13.77335 0.7994967 1 1 1
v -8.5 12.06325 5.49796 1 1 1
v -8.5 8.304483 4.129879 1 1 1
v -8.5 10.01458 -0.568584 1 1 1
v -12.5 12.06325 5.49796 1 1 1
v -12.5 13.77335 0.7994967 1 1 1
v -12.5 10.01458 -0.568584 1 1 1
v -12.5 8.304483 4.129879 1 1 1
v -11.5 16.62635 -2.110691 1 1 1
v -4.5 16.62635 -2.110691 1 1 1
v -4.5 19.02049 4.467157 1 1 1
v -11.5 19.02049 4.467157 1 1 1
v -4.5 20.38512 -3.478772 1 1 1
v -11.5 20.38512 -3.478772 1 1 1
v -11.5 22.77926 3.099076 1 1 1
v -4.5 22.77926 3.099076 1 1 1
v -4.5 22.77926 3.099076 1 1 1
v -11.5 22.77926 3.099076 1 1 1
v -11.5 19.02049 4.467157 1 1 1
v -4.5 19.02049 4.467157 1 1 1
v -11.5 20.38512 -3.478772 1 1 1
v -4.5 20.38512 -3.478772 1 1 1
v -4.5 16.62635 -2.110691 1 1 1
v -11.5 16.62635 -2.110691 1 1 1
v -4.5 20.38512 -3.478772 1 1 1
v -4.5 22.77926 3.099076 1 1 1
v -4.5 19.02049 4.467157 1 1 1
v -4.5 16.62635 -2.110691 1 1 1
v -11.5 22.77926 3.099076 1 1 1
v -11.5 20.38512 -3.478772 1 1 1
v -11.5 16.62635 -2.110691 1 1 1
v -11.5 19.02049 4.467157 1 1 1
vn 0 -0.9396926 0.3420204
vn 0 0.9396926 -0.3420204
vn 0 0.3420204 0.9396926
vn 0 -0.3420204 -0.9396926
vt 0.1757813 0.1640625
vt 0.1484375 0.1640625
vt 0.1484375 0.1367188
vt 0.1757813 0.1367188
vt 0.1484375 0.1132813
vt 0.1484375 0.140625
vt 0.2304688 0.1484375
vt 0.203125 0.1484375
vt 0.203125 0.1328125
vt 0.2304688 0.1328125
vt 0.2304688 0.1640625
vt 0.203125 0.1640625
vt 0.203125 0.2109375
vt 0.203125 0.2265625
vt 0.2304688 0.2265625
vt 0.2304688 0.2109375
v -9.75 10.86955 0.161392 1 1 1
v -6.25 10.86955 0.161392 1 1 1
v -6.25 6.773793 3.029274 1 1 1
v -9.75 6.773793 3.029274 1 1 1
v -6.25 13.73744 4.257153 1 1 1
v -9.75 13.73744 4.257153 1 1 1
v -9.75 9.641675 7.125034 1 1 1
v -6.25 9.641675 7.125034 1 1 1
v -6.25 9.641675 7.125034 1 1 1
v -9.75 9.641675 7.125034 1 1 1
v -9.75 6.773793 3.029274 1 1 1
v -6.25 6.773793 3.029274 1 1 1
v -9.75 13.73744 4.257153 1 1 1
v -6.25 13.73744 4.257153 1 1 1
v -6.25 10.86955 0.161392 1 1 1
v -9.75 10.86955 0.161392 1 1 1
v -6.25 13.73744 4.257153 1 1 1
v -6.25 9.641675 7.125034 1 1 1
v -6.25 6.773793 3.029274 1 1 1
v -6.25 10.86955 0.161392 1 1 1
v -9.75 9.641675 7.125034 1 1 1
v -9.75 13.73744 4.257153 1 1 1
v -9.75 10.86955 0.161392 1 1 1
v -9.75 6.773793 3.029274 1 1 1
vn 0 -0.5735765 -0.8191521
vn 0 0.5735765 0.8191521
vn 0 -0.8191521 0.5735765
vn 0 0.8191521 -0.5735765
v -12 10.5 -20 1 1 1
v -4 10.5 -20 1 1 1
v -4 10.5 -12 1 1 1
v -12 10.5 -12 1 1 1
v -4 17.5 -20 1 1 1
v -12 17.5 -20 1 1 1
v -12 17.5 -12 1 1 1
v -4 17.5 -12 1 1 1
v -4 17.5 -12 1 1 1
v -12 17.5 -12 1 1 1
v -12 10.5 -12 1 1 1
v -4 10.5 -12 1 1 1
v -12 17.5 -20 1 1 1
v -4 17.5 -20 1 1 1
v -4 10.5 -20 1 1 1
v -12 10.5 -20 1 1 1
v -4 17.5 -20 1 1 1
v -4 17.5 -12 1 1 1
v -4 10.5 -12 1 1 1
v -4 10.5 -20 1 1 1
v -12 17.5 -12 1 1 1
v -12 17.5 -20 1 1 1
v -12 10.5 -20 1 1 1
v -12 10.5 -12 1 1 1
vt 0.08984375 0.1445313
vt 0.08984375 0.1132813
vt 0.08984375 0.08203125
vt 0.1210938 0.08203125
vt 0.1796875 0.02734375
vt 0.1484375 0.02734375
vt 0.1484375 0
vt 0.1796875 0.1367188
vt 0.1484375 0.0546875
vt 0.1796875 0.0546875
v -13 10.5 -10 1 1 1
v -3 10.5 -10 1 1 1
v -3 10.5 5 1 1 1
v -13 10.5 5 1 1 1
v -3 17.5 -10 1 1 1
v -13 17.5 -10 1 1 1
v -13 17.5 5 1 1 1
v -3 17.5 5 1 1 1
v -3 17.5 5 1 1 1
v -13 17.5 5 1 1 1
v -13 10.5 5 1 1 1
v -3 10.5 5 1 1 1
v -13 17.5 -10 1 1 1
v -3 17.5 -10 1 1 1
v -3 10.5 -10 1 1 1
v -13 10.5 -10 1 1 1
v -3 17.5 -10 1 1 1
v -3 17.5 5 1 1 1
v -3 10.5 5 1 1 1
v -3 10.5 -10 1 1 1
v -13 17.5 5 1 1 1
v -13 17.5 -10 1 1 1
v -13 10.5 -10 1 1 1
v -13 10.5 5 1 1 1
vt 0.0390625 0.05859375
vt 0 0.05859375
vt 0 0
vt 0.0390625 0
vt 0.0390625 0.1171875
vt 0.0390625 0.2460938
vt 0 0.2460938
vt 0 0.21875
vt 0.0390625 0.21875
vt 0.08984375 0.0546875
vt 0.1289063 0.0546875
vt 0.08984375 0.02734375
g Element #1
usemtl Element
f 1/1/1 2/2/1 4/4/1
f 2/2/1 3/3/1 4/4/1
f 5/2/2 6/1/2 8/6/2
f 6/1/2 7/5/2 8/6/2
f 9/7/3 10/8/3 12/10/3
f 10/8/3 11/9/3 12/10/3
f 13/11/4 14/12/4 16/14/4
f 14/12/4 15/13/4 16/14/4
f 17/15/5 18/16/5 20/18/5
f 18/16/5 19/17/5 20/18/5
f 21/19/6 22/20/6 24/22/6
f 22/20/6 23/21/6 24/22/6
g Element #2
usemtl Element
f 25/23/1 26/3/1 28/25/1
f 26/3/1 27/24/1 28/25/1
f 29/26/2 30/27/2 32/24/2
f 30/27/2 31/25/2 32/24/2
f 33/28/3 34/29/3 36/31/3
f 34/29/3 35/30/3 36/31/3
f 37/32/4 38/33/4 40/35/4
f 38/33/4 39/34/4 40/35/4
f 41/36/5 42/37/5 44/39/5
f 42/37/5 43/38/5 44/39/5
f 45/37/6 46/36/6 48/38/6
f 46/36/6 47/39/6 48/38/6
g Element #3
usemtl Element
f 49/40/7 50/41/7 52/43/7
f 50/41/7 51/42/7 52/43/7
f 53/44/8 54/45/8 56/47/8
f 54/45/8 55/46/8 56/47/8
f 57/48/9 58/49/9 60/51/9
f 58/49/9 59/50/9 60/51/9
f 61/52/10 62/48/10 64/53/10
f 62/48/10 63/51/10 64/53/10
f 65/54/5 66/55/5 68/57/5
f 66/55/5 67/56/5 68/57/5
f 69/58/6 70/59/6 72/61/6
f 70/59/6 71/60/6 72/61/6
g Element #6
usemtl Element
f 73/62/1 74/63/1 76/65/1
f 74/63/1 75/64/1 76/65/1
f 77/66/2 78/67/2 80/69/2
f 78/67/2 79/68/2 80/69/2
f 81/18/3 82/17/3 84/71/3
f 82/17/3 83/70/3 84/71/3
f 85/71/4 86/70/4 88/73/4
f 86/70/4 87/72/4 88/73/4
f 89/66/5 90/74/5 92/76/5
f 90/74/5 91/75/5 92/76/5
f 93/74/6 94/66/6 96/75/6
f 94/66/6 95/76/6 96/75/6
g Element #10
usemtl Element
f 97/27/1 98/26/1 100/78/1
f 98/26/1 99/77/1 100/78/1
f 101/79/2 102/80/2 104/82/2
f 102/80/2 103/81/2 104/82/2
f 105/83/3 106/84/3 108/86/3
f 106/84/3 107/85/3 108/86/3
f 109/87/4 110/88/4 112/81/4
f 110/88/4 111/82/4 112/81/4
f 113/89/5 114/90/5 116/92/5
f 114/90/5 115/91/5 116/92/5
f 117/90/6 118/89/6 120/91/6
f 118/89/6 119/92/6 120/91/6
g Element #25
usemtl Element
f 121/40/7 122/41/7 124/43/7
f 122/41/7 123/42/7 124/43/7
f 125/44/8 126/45/8 128/47/8
f 126/45/8 127/46/8 128/47/8
f 129/48/9 130/49/9 132/51/9
f 130/49/9 131/50/9 132/51/9
f 133/52/10 134/48/10 136/53/10
f 134/48/10 135/51/10 136/53/10
f 137/54/5 138/55/5 140/57/5
f 138/55/5 139/56/5 140/57/5
f 141/58/6 142/59/6 144/61/6
f 142/59/6 143/60/6 144/61/6
g Element #26
usemtl Element
f 145/93/11 146/94/11 148/96/11
f 146/94/11 147/95/11 148/96/11
f 149/33/12 150/97/12 152/30/12
f 150/97/12 151/98/12 152/30/12
f 153/99/13 154/100/13 156/102/13
f 154/100/13 155/101/13 156/102/13
f 157/103/14 158/104/14 160/99/14
f 158/104/14 159/100/14 160/99/14
f 161/105/5 162/106/5 164/108/5
f 162/106/5 163/107/5 164/108/5
f 165/106/6 166/105/6 168/107/6
f 166/105/6 167/108/6 168/107/6
g Element #31
usemtl Element
f 169/40/15 170/41/15 172/43/15
f 170/41/15 171/42/15 172/43/15
f 173/44/16 174/45/16 176/47/16
f 174/45/16 175/46/16 176/47/16
f 177/48/17 178/49/17 180/51/17
f 178/49/17 179/50/17 180/51/17
f 181/52/18 182/48/18 184/53/18
f 182/48/18 183/51/18 184/53/18
f 185/59/5 186/58/5 188/60/5
f 186/58/5 187/61/5 188/60/5
f 189/58/6 190/59/6 192/61/6
f 190/59/6 191/60/6 192/61/6
g Element #33
usemtl Element
f 193/29/1 194/109/1 196/33/1
f 194/109/1 195/110/1 196/33/1
f 197/111/2 198/112/2 200/110/2
f 198/112/2 199/33/2 200/110/2
f 201/113/3 202/114/3 204/77/3
f 202/114/3 203/115/3 204/77/3
f 205/116/4 206/95/4 208/90/4
f 206/95/4 207/89/4 208/90/4
f 209/117/5 210/118/5 212/114/5
f 210/118/5 211/113/5 212/114/5
f 213/118/6 214/117/6 216/113/6
f 214/117/6 215/114/6 216/113/6
g Element #34
usemtl Element
f 217/119/1 218/120/1 220/122/1
f 218/120/1 219/121/1 220/122/1
f 221/120/2 222/119/2 224/64/2
f 222/119/2 223/123/2 224/64/2
f 225/124/3 226/125/3 228/127/3
f 226/125/3 227/126/3 228/127/3
f 229/12/4 230/111/4 232/129/4
f 230/111/4 231/128/4 232/129/4
f 233/128/5 234/117/5 236/130/5
f 234/117/5 235/114/5 236/130/5
f 237/117/6 238/128/6 240/114/6
f 238/128/6 239/130/6 240/114/6
