# Export of Cubik Model: Cubik Model
# Designed by Zhouyi with Cubik Studio - https://cubik.studio
# from Cubik OBJ Exporter v1.0
mtllib lion.mtl
v -5.4 9.552121 -5.638155 1 1 1
v -2.4 9.552121 -5.638155 1 1 1
v -2.4 7.5 0 1 1 1
v -5.4 7.5 0 1 1 1
v -2.4 18.94905 -2.217954 1 1 1
v -5.4 18.94905 -2.217954 1 1 1
v -5.4 16.89693 3.420202 1 1 1
v -2.4 16.89693 3.420202 1 1 1
v -2.4 16.89693 3.420202 1 1 1
v -5.4 16.89693 3.420202 1 1 1
v -5.4 7.5 0 1 1 1
v -2.4 7.5 0 1 1 1
v -5.4 18.94905 -2.217954 1 1 1
v -2.4 18.94905 -2.217954 1 1 1
v -2.4 9.552121 -5.638155 1 1 1
v -5.4 9.552121 -5.638155 1 1 1
v -2.4 18.94905 -2.217954 1 1 1
v -2.4 16.89693 3.420202 1 1 1
v -2.4 7.5 0 1 1 1
v -2.4 9.552121 -5.638155 1 1 1
v -5.4 16.89693 3.420202 1 1 1
v -5.4 18.94905 -2.217954 1 1 1
v -5.4 9.552121 -5.638155 1 1 1
v -5.4 7.5 0 1 1 1
vn 0 -0.9396926 -0.3420202
vn 0 0.9396926 0.3420202
vn 0 -0.3420202 0.9396926
vn 0 0.3420202 -0.9396926
vn 1 0 0
vn -1 0 0
vt 0.2382813 0.1875
vt 0.25 0.1875
vt 0.25 0.1640625
vt 0.2382813 0.1640625
vt 0.3085938 0.09375
vt 0.296875 0.09375
vt 0.296875 0.1171875
vt 0.3085938 0.1171875
vt 0.1367188 0.2226563
vt 0.1484375 0.2226563
vt 0.1484375 0.1835938
vt 0.1367188 0.1835938
vt 0.1914063 0.1953125
vt 0.203125 0.1953125
vt 0.203125 0.15625
vt 0.1914063 0.15625
vt 0.1132813 0.1835938
vt 0.1367188 0.1445313
vt 0.1132813 0.1445313
vt 0.08984375 0.1835938
vt 0.08984375 0.1445313
v -5.5 5.5 -5 1 1 1
v -2.5 5.5 -5 1 1 1
v -2.5 5.5 0 1 1 1
v -5.5 5.5 0 1 1 1
v -2.5 10.5 -5 1 1 1
v -5.5 10.5 -5 1 1 1
v -5.5 10.5 0 1 1 1
v -2.5 10.5 0 1 1 1
v -2.5 10.5 0 1 1 1
v -5.5 10.5 0 1 1 1
v -5.5 5.5 0 1 1 1
v -2.5 5.5 0 1 1 1
v -5.5 10.5 -5 1 1 1
v -2.5 10.5 -5 1 1 1
v -2.5 5.5 -5 1 1 1
v -5.5 5.5 -5 1 1 1
v -2.5 10.5 -5 1 1 1
v -2.5 10.5 0 1 1 1
v -2.5 5.5 0 1 1 1
v -2.5 5.5 -5 1 1 1
v -5.5 10.5 0 1 1 1
v -5.5 10.5 -5 1 1 1
v -5.5 5.5 -5 1 1 1
v -5.5 5.5 0 1 1 1
vn 0 -1 0
vn 0 1 0
vn 0 0 1
vn 0 0 -1
vt 0.3085938 0.1679688
vt 0.3203125 0.1679688
vt 0.3203125 0.1484375
vt 0.3085938 0.1484375
vt 0.3203125 0.1289063
vt 0.3085938 0.1289063
vt 0.296875 0.2070313
vt 0.3085938 0.2070313
vt 0.3085938 0.1875
vt 0.296875 0.1875
vt 0.296875 0.2265625
vt 0.3085938 0.2265625
vt 0.2695313 0.01953125
vt 0.2890625 0.01953125
vt 0.2890625 0
vt 0.2695313 0
vt 0.25 0.01953125
vt 0.25 0
v -5.5 1 -3.5 1 1 1
v -2.5 1 -3.5 1 1 1
v -2.5 1 0 1 1 1
v -5.5 1 0 1 1 1
v -2.5 7.5 -3.5 1 1 1
v -5.5 7.5 -3.5 1 1 1
v -5.5 7.5 0 1 1 1
v -2.5 7.5 0 1 1 1
v -2.5 7.5 0 1 1 1
v -5.5 7.5 0 1 1 1
v -5.5 1 0 1 1 1
v -2.5 1 0 1 1 1
v -5.5 7.5 -3.5 1 1 1
v -2.5 7.5 -3.5 1 1 1
v -2.5 1 -3.5 1 1 1
v -5.5 1 -3.5 1 1 1
v -2.5 7.5 -3.5 1 1 1
v -2.5 7.5 0 1 1 1
v -2.5 1 0 1 1 1
v -2.5 1 -3.5 1 1 1
v -5.5 7.5 0 1 1 1
v -5.5 7.5 -3.5 1 1 1
v -5.5 1 -3.5 1 1 1
v -5.5 1 0 1 1 1
vt 0.359375 0.08203125
vt 0.3710938 0.08203125
vt 0.3710938 0.0703125
vt 0.359375 0.0703125
vt 0.3945313 0.08203125
vt 0.3828125 0.08203125
vt 0.3828125 0.09375
vt 0.3945313 0.09375
vt 0.25 0.140625
vt 0.2382813 0.140625
vt 0.2382813 0.2109375
vt 0.25 0.2109375
vt 0.2695313 0.2109375
vt 0.28125 0.2109375
vt 0.28125 0.1875
vt 0.2695313 0.1875
vt 0.28125 0.1640625
vt 0.2695313 0.1640625
v -5.75 0 -2.5 0.854902 0.9529412 0.9254902
v -2.25 0 -2.5 0.854902 0.9529412 0.9254902
v -2.25 0 1.5 0.854902 0.9529412 0.9254902
v -5.75 0 1.5 0.854902 0.9529412 0.9254902
v -2.25 2 -2.5 0.854902 0.9529412 0.9254902
v -5.75 2 -2.5 0.854902 0.9529412 0.9254902
v -5.75 2 1.5 0.854902 0.9529412 0.9254902
v -2.25 2 1.5 0.854902 0.9529412 0.9254902
v -2.25 2 1.5 0.854902 0.9529412 0.9254902
v -5.75 2 1.5 0.854902 0.9529412 0.9254902
v -5.75 0 1.5 0.854902 0.9529412 0.9254902
v -2.25 0 1.5 0.854902 0.9529412 0.9254902
v -5.75 2 -2.5 0.854902 0.9529412 0.9254902
v -2.25 2 -2.5 0.854902 0.9529412 0.9254902
v -2.25 0 -2.5 0.854902 0.9529412 0.9254902
v -5.75 0 -2.5 0.854902 0.9529412 0.9254902
v -2.25 2 -2.5 0.854902 0.9529412 0.9254902
v -2.25 2 1.5 0.854902 0.9529412 0.9254902
v -2.25 0 1.5 0.854902 0.9529412 0.9254902
v -2.25 0 -2.5 0.854902 0.9529412 0.9254902
v -5.75 2 1.5 0.854902 0.9529412 0.9254902
v -5.75 2 -2.5 0.854902 0.9529412 0.9254902
v -5.75 0 -2.5 0.854902 0.9529412 0.9254902
v -5.75 0 1.5 0.854902 0.9529412 0.9254902
vt 0.3242188 0.1445313
vt 0.3359375 0.1445313
vt 0.3359375 0.1289063
vt 0.3242188 0.1289063
vt 0.25 0.234375
vt 0.2382813 0.234375
vt 0.2382813 0.25
vt 0.25 0.25
vt 0.3359375 0.2304688
vt 0.3476563 0.2304688
vt 0.3476563 0.2226563
vt 0.3359375 0.2226563
vt 0.3359375 0.1914063
vt 0.3476563 0.1914063
vt 0.3476563 0.1835938
vt 0.3359375 0.1835938
vt 0.3359375 0.1054688
vt 0.3515625 0.1054688
vt 0.3515625 0.09765625
vt 0.3359375 0.09765625
vt 0.3515625 0.1289063
vt 0.3515625 0.1210938
vt 0.3359375 0.1210938
g Element #11
usemtl Element
f 1/1/1 2/2/1 4/4/1
f 2/2/1 3/3/1 4/4/1
f 5/5/2 6/6/2 8/8/2
f 6/6/2 7/7/2 8/8/2
f 9/9/3 10/10/3 12/12/3
f 10/10/3 11/11/3 12/12/3
f 13/13/4 14/14/4 16/16/4
f 14/14/4 15/15/4 16/16/4
f 17/17/5 18/12/5 20/19/5
f 18/12/5 19/18/5 20/19/5
f 21/20/6 22/17/6 24/21/6
f 22/17/6 23/19/6 24/21/6
g Element #12
usemtl Element
f 25/22/7 26/23/7 28/25/7
f 26/23/7 27/24/7 28/25/7
f 29/26/8 30/27/8 32/24/8
f 30/27/8 31/25/8 32/24/8
f 33/28/9 34/29/9 36/31/9
f 34/29/9 35/30/9 36/31/9
f 37/32/10 38/33/10 40/28/10
f 38/33/10 39/29/10 40/28/10
f 41/34/5 42/35/5 44/37/5
f 42/35/5 43/36/5 44/37/5
f 45/38/6 46/34/6 48/39/6
f 46/34/6 47/37/6 48/39/6
g Element #13
usemtl Element
f 49/40/7 50/41/7 52/43/7
f 50/41/7 51/42/7 52/43/7
f 53/44/8 54/45/8 56/47/8
f 54/45/8 55/46/8 56/47/8
f 57/4/9 58/3/9 60/49/9
f 58/3/9 59/48/9 60/49/9
f 61/50/10 62/51/10 64/1/10
f 62/51/10 63/2/10 64/1/10
f 65/52/5 66/53/5 68/55/5
f 66/53/5 67/54/5 68/55/5
f 69/55/6 70/54/6 72/57/6
f 70/54/6 71/56/6 72/57/6
g Element #24
usemtl Element
f 73/58/7 74/59/7 76/61/7
f 74/59/7 75/60/7 76/61/7
f 77/62/8 78/63/8 80/65/8
f 78/63/8 79/64/8 80/65/8
f 81/66/9 82/67/9 84/69/9
f 82/67/9 83/68/9 84/69/9
f 85/70/10 86/71/10 88/73/10
f 86/71/10 87/72/10 88/73/10
f 89/74/5 90/75/5 92/77/5
f 90/75/5 91/76/5 92/77/5
f 93/60/6 94/78/6 96/80/6
f 94/78/6 95/79/6 96/80/6
