# Export of Cubik Model: Cubik Model
# Designed by Zhouyi with Cubik Studio - https://cubik.studio
# from Cubik OBJ Exporter v1.0
mtllib meng.mtl
v -7 2.473939 -7.819077 1 1 1
v -5.5 2.473939 -7.819077 1 1 1
v -5.5 3.5 -5 1 1 1
v -7 3.5 -5 1 1 1
v -5.5 7.172401 -9.52918 1 1 1
v -7 7.172401 -9.52918 1 1 1
v -7 8.198462 -6.710102 1 1 1
v -5.5 8.198462 -6.710102 1 1 1
v -5.5 8.198462 -6.710102 1 1 1
v -7 8.198462 -6.710102 1 1 1
v -7 3.5 -5 1 1 1
v -5.5 3.5 -5 1 1 1
v -7 7.172401 -9.52918 1 1 1
v -5.5 7.172401 -9.52918 1 1 1
v -5.5 2.473939 -7.819077 1 1 1
v -7 2.473939 -7.819077 1 1 1
v -5.5 7.172401 -9.52918 1 1 1
v -5.5 8.198462 -6.710102 1 1 1
v -5.5 3.5 -5 1 1 1
v -5.5 2.473939 -7.819077 1 1 1
v -7 8.198462 -6.710102 1 1 1
v -7 7.172401 -9.52918 1 1 1
v -7 2.473939 -7.819077 1 1 1
v -7 3.5 -5 1 1 1
vn 0 -0.9396926 0.3420204
vn 0 0.9396926 -0.3420204
vn 0 0.3420204 0.9396926
vn 0 -0.3420204 -0.9396926
vn 1 0 0
vn -1 0 0
vt 0.328125 0.46875
vt 0.3125 0.46875
vt 0.3125 0.421875
vt 0.328125 0.421875
vt 0.375 0.28125
vt 0.390625 0.28125
vt 0.390625 0.328125
vt 0.375 0.328125
vt 0.078125 0.46875
vt 0.0625 0.46875
vt 0.0625 0.390625
vt 0.078125 0.390625
vt 0.125 0.390625
vt 0.109375 0.390625
vt 0.109375 0.3125
vt 0.125 0.3125
vt 0.390625 0.078125
vt 0.34375 0.078125
vt 0.34375 0
vt 0.390625 0
vt 0.296875 0.078125
vt 0.296875 0
v -7 2.398781 -9.391169 1 1 1
v -6 2.398781 -9.391169 1 1 1
v -6 0.9845676 -7.976955 1 1 1
v -7 0.9845676 -7.976955 1 1 1
v -6 4.520102 -7.269848 1 1 1
v -7 4.520102 -7.269848 1 1 1
v -7 3.105888 -5.855635 1 1 1
v -6 3.105888 -5.855635 1 1 1
v -6 3.105888 -5.855635 1 1 1
v -7 3.105888 -5.855635 1 1 1
v -7 0.9845676 -7.976955 1 1 1
v -6 0.9845676 -7.976955 1 1 1
v -7 4.520102 -7.269848 1 1 1
v -6 4.520102 -7.269848 1 1 1
v -6 2.398781 -9.391169 1 1 1
v -7 2.398781 -9.391169 1 1 1
v -6 4.520102 -7.269848 1 1 1
v -6 3.105888 -5.855635 1 1 1
v -6 0.9845676 -7.976955 1 1 1
v -6 2.398781 -9.391169 1 1 1
v -7 3.105888 -5.855635 1 1 1
v -7 4.520102 -7.269848 1 1 1
v -7 2.398781 -9.391169 1 1 1
v -7 0.9845676 -7.976955 1 1 1
vn 0 -0.7071067 -0.7071068
vn 0 0.7071067 0.7071068
vn 0 -0.7071068 0.7071067
vn 0 0.7071068 -0.7071067
vt 0.359375 0.28125
vt 0.359375 0.25
vt 0.375 0.25
vt 0.390625 0.25
vt 0.359375 0.328125
vt 0.34375 0.328125
vt 0.34375 0.28125
vt 0.28125 0.203125
vt 0.3125 0.203125
vt 0.3125 0.25
vt 0.28125 0.25
vt 0.25 0.203125
vt 0.25 0.25
v -7.5 -0.9571228 -7.772789 1 1 1
v -5.5 -0.9571228 -7.772789 1 1 1
v -5.5 -0.9571228 -4.772789 1 1 1
v -7.5 -0.9571228 -4.772789 1 1 1
v -5.5 0.0428772 -7.772789 1 1 1
v -7.5 0.0428772 -7.772789 1 1 1
v -7.5 0.0428772 -4.772789 1 1 1
v -5.5 0.0428772 -4.772789 1 1 1
v -5.5 0.0428772 -4.772789 1 1 1
v -7.5 0.0428772 -4.772789 1 1 1
v -7.5 -0.9571228 -4.772789 1 1 1
v -5.5 -0.9571228 -4.772789 1 1 1
v -7.5 0.0428772 -7.772789 1 1 1
v -5.5 0.0428772 -7.772789 1 1 1
v -5.5 -0.9571228 -7.772789 1 1 1
v -7.5 -0.9571228 -7.772789 1 1 1
v -5.5 0.0428772 -7.772789 1 1 1
v -5.5 0.0428772 -4.772789 1 1 1
v -5.5 -0.9571228 -4.772789 1 1 1
v -5.5 -0.9571228 -7.772789 1 1 1
v -7.5 0.0428772 -4.772789 1 1 1
v -7.5 0.0428772 -7.772789 1 1 1
v -7.5 -0.9571228 -7.772789 1 1 1
v -7.5 -0.9571228 -4.772789 1 1 1
vn 0 -1 0
vn 0 1 0
vn 0 0 1
vn 0 0 -1
vt 0.1875 0.390625
vt 0.15625 0.390625
vt 0.15625 0.34375
vt 0.1875 0.34375
vt 0.1875 0.296875
vt 0.21875 0.296875
vt 0.21875 0.34375
vt 0.46875 0.265625
vt 0.4375 0.265625
vt 0.4375 0.25
vt 0.46875 0.25
vt 0.46875 0.28125
vt 0.4375 0.28125
vt 0.390625 0.234375
vt 0.34375 0.25
vt 0.34375 0.234375
vt 0.15625 0.109375
vt 0.15625 0.09375
vt 0.203125 0.09375
vt 0.203125 0.109375
v -7 -0.3071664 -7.665079 1 1 1
v -6 -0.3071664 -7.665079 1 1 1
v -6 0.03485394 -6.725387 1 1 1
v -7 0.03485394 -6.725387 1 1 1
v -6 2.511911 -8.69114 1 1 1
v -7 2.511911 -8.69114 1 1 1
v -7 2.853932 -7.751448 1 1 1
v -6 2.853932 -7.751448 1 1 1
v -6 2.853932 -7.751448 1 1 1
v -7 2.853932 -7.751448 1 1 1
v -7 0.03485394 -6.725387 1 1 1
v -6 0.03485394 -6.725387 1 1 1
v -7 2.511911 -8.69114 1 1 1
v -6 2.511911 -8.69114 1 1 1
v -6 -0.3071664 -7.665079 1 1 1
v -7 -0.3071664 -7.665079 1 1 1
v -6 2.511911 -8.69114 1 1 1
v -6 2.853932 -7.751448 1 1 1
v -6 0.03485394 -6.725387 1 1 1
v -6 -0.3071664 -7.665079 1 1 1
v -7 2.853932 -7.751448 1 1 1
v -7 2.511911 -8.69114 1 1 1
v -7 -0.3071664 -7.665079 1 1 1
v -7 0.03485394 -6.725387 1 1 1
vt 0.46875 0.359375
vt 0.453125 0.359375
vt 0.453125 0.34375
vt 0.46875 0.34375
vt 0.484375 0.34375
vt 0.484375 0.359375
vt 0.125 0.4375
vt 0.109375 0.4375
vt 0.125 0.484375
vt 0.109375 0.484375
vt 0.265625 0.28125
vt 0.28125 0.28125
vt 0.28125 0.328125
vt 0.265625 0.328125
vt 0.28125 0.375
vt 0.265625 0.375
g Element #1
usemtl Element
f 1/1/1 2/2/1 4/4/1
f 2/2/1 3/3/1 4/4/1
f 5/5/2 6/6/2 8/8/2
f 6/6/2 7/7/2 8/8/2
f 9/9/3 10/10/3 12/12/3
f 10/10/3 11/11/3 12/12/3
f 13/13/4 14/14/4 16/16/4
f 14/14/4 15/15/4 16/16/4
f 17/17/5 18/18/5 20/20/5
f 18/18/5 19/19/5 20/20/5
f 21/18/6 22/21/6 24/19/6
f 22/21/6 23/22/6 24/19/6
g Element #3
usemtl Element
f 25/5/7 26/23/7 28/25/7
f 26/23/7 27/24/7 28/25/7
f 29/25/8 30/26/8 32/5/8
f 30/26/8 31/6/8 32/5/8
f 33/27/9 34/28/9 36/23/9
f 34/28/9 35/29/9 36/23/9
f 37/8/10 38/27/10 40/5/10
f 38/27/10 39/23/10 40/5/10
f 41/30/5 42/31/5 44/33/5
f 42/31/5 43/32/5 44/33/5
f 45/34/6 46/30/6 48/35/6
f 46/30/6 47/33/6 48/35/6
g Element #6
usemtl Element
f 49/36/11 50/37/11 52/39/11
f 50/37/11 51/38/11 52/39/11
f 53/40/12 54/41/12 56/39/12
f 54/41/12 55/42/12 56/39/12
f 57/43/13 58/44/13 60/46/13
f 58/44/13 59/45/13 60/46/13
f 61/47/14 62/48/14 64/43/14
f 62/48/14 63/44/14 64/43/14
f 65/49/5 66/26/5 68/51/5
f 66/26/5 67/50/5 68/51/5
f 69/52/6 70/53/6 72/55/6
f 70/53/6 71/54/6 72/55/6
g Element #7
usemtl Element
f 73/56/1 74/57/1 76/59/1
f 74/57/1 75/58/1 76/59/1
f 77/59/2 78/60/2 80/56/2
f 78/60/2 79/61/2 80/56/2
f 81/62/3 82/63/3 84/13/3
f 82/63/3 83/14/3 84/13/3
f 85/64/4 86/65/4 88/62/4
f 86/65/4 87/63/4 88/62/4
f 89/66/5 90/67/5 92/69/5
f 90/67/5 91/68/5 92/69/5
f 93/69/6 94/68/6 96/71/6
f 94/68/6 95/70/6 96/71/6
