# Export of Cubik Model: Cubik Model
# Designed by Zhouyi with Cubik Studio - https://cubik.studio
# from Cubik OBJ Exporter v1.0
mtllib meng.mtl
v -8.4 21.46537 -4.847759 1 1 1
v -7.6 21.46537 -4.847759 1 1 1
v -7.6 20.7 -3 1 1 1
v -8.4 20.7 -3 1 1 1
v -7.6 22.38925 -4.465075 1 1 1
v -8.4 22.38925 -4.465075 1 1 1
v -8.4 21.62388 -2.617316 1 1 1
v -7.6 21.62388 -2.617316 1 1 1
v -7.6 21.62388 -2.617316 1 1 1
v -8.4 21.62388 -2.617316 1 1 1
v -8.4 20.7 -3 1 1 1
v -7.6 20.7 -3 1 1 1
v -8.4 22.38925 -4.465075 1 1 1
v -7.6 22.38925 -4.465075 1 1 1
v -7.6 21.46537 -4.847759 1 1 1
v -8.4 21.46537 -4.847759 1 1 1
v -7.6 22.38925 -4.465075 1 1 1
v -7.6 21.62388 -2.617316 1 1 1
v -7.6 20.7 -3 1 1 1
v -7.6 21.46537 -4.847759 1 1 1
v -8.4 21.62388 -2.617316 1 1 1
v -8.4 22.38925 -4.465075 1 1 1
v -8.4 21.46537 -4.847759 1 1 1
v -8.4 20.7 -3 1 1 1
vn 0 -0.9238795 -0.3826835
vn 0 0.9238795 0.3826835
vn 0 -0.3826835 0.9238795
vn 0 0.3826835 -0.9238795
vn 1 0 0
vn -1 0 0
vt 0.359375 0.28125
vt 0.34375 0.28125
vt 0.34375 0.25
vt 0.359375 0.25
vt 0.46875 0.25
vt 0.484375 0.25
vt 0.484375 0.28125
vt 0.46875 0.28125
vt 0.5 0.203125
vt 0.484375 0.203125
vt 0.484375 0.1875
vt 0.5 0.1875
vt 0.125 0.5
vt 0.109375 0.5
vt 0.109375 0.484375
vt 0.125 0.484375
vt 0.390625 0.34375
vt 0.359375 0.34375
vt 0.359375 0.328125
vt 0.390625 0.328125
vt 0.421875 0.34375
vt 0.421875 0.328125
v -9.75 18.5 -9 1 1 1
v -6.25 18.5 -9 1 1 1
v -6.25 18.5 -6 1 1 1
v -9.75 18.5 -6 1 1 1
v -6.25 21.5 -9 1 1 1
v -9.75 21.5 -9 1 1 1
v -9.75 21.5 -6 1 1 1
v -6.25 21.5 -6 1 1 1
v -6.25 21.5 -6 1 1 1
v -9.75 21.5 -6 1 1 1
v -9.75 18.5 -6 1 1 1
v -6.25 18.5 -6 1 1 1
v -9.75 21.5 -9 1 1 1
v -6.25 21.5 -9 1 1 1
v -6.25 18.5 -9 1 1 1
v -9.75 18.5 -9 1 1 1
v -6.25 21.5 -9 1 1 1
v -6.25 21.5 -6 1 1 1
v -6.25 18.5 -6 1 1 1
v -6.25 18.5 -9 1 1 1
v -9.75 21.5 -6 1 1 1
v -9.75 21.5 -9 1 1 1
v -9.75 18.5 -9 1 1 1
v -9.75 18.5 -6 1 1 1
vn 0 -1 0
vn 0 1 0
vn 0 0 1
vn 0 0 -1
vt 0.34375 0.203125
vt 0.296875 0.203125
vt 0.296875 0.15625
vt 0.34375 0.15625
vt 0.25 0.15625
vt 0.25 0.203125
vt 0.203125 0.203125
vt 0.203125 0.15625
vt 0.15625 0.203125
vt 0.15625 0.15625
vt 0.5 0.09375
vt 0.453125 0.09375
vt 0.453125 0.046875
vt 0.5 0.046875
vt 0.453125 0
vt 0.5 0
v -10 19.44405 -6.803729 1 1 1
v -6 19.44405 -6.803729 1 1 1
v -6 20.85826 -5.389515 1 1 1
v -10 20.85826 -5.389515 1 1 1
v -6 21.56537 -8.925049 1 1 1
v -10 21.56537 -8.925049 1 1 1
v -10 22.97959 -7.510836 1 1 1
v -6 22.97959 -7.510836 1 1 1
v -6 22.97959 -7.510836 1 1 1
v -10 22.97959 -7.510836 1 1 1
v -10 20.85826 -5.389515 1 1 1
v -6 20.85826 -5.389515 1 1 1
v -10 21.56537 -8.925049 1 1 1
v -6 21.56537 -8.925049 1 1 1
v -6 19.44405 -6.803729 1 1 1
v -10 19.44405 -6.803729 1 1 1
v -6 21.56537 -8.925049 1 1 1
v -6 22.97959 -7.510836 1 1 1
v -6 20.85826 -5.389515 1 1 1
v -6 19.44405 -6.803729 1 1 1
v -10 22.97959 -7.510836 1 1 1
v -10 21.56537 -8.925049 1 1 1
v -10 19.44405 -6.803729 1 1 1
v -10 20.85826 -5.389515 1 1 1
vn 0 -0.7071067 0.7071068
vn 0 0.7071067 -0.7071068
vn 0 0.7071068 0.7071067
vn 0 -0.7071068 -0.7071067
vt 0.21875 0.234375
vt 0.15625 0.234375
vt 0.21875 0.203125
vt 0.4375 0.15625
vt 0.5 0.15625
vt 0.4375 0.1875
vt 0.3125 0.15625
vt 0.25 0.109375
vt 0.3125 0.109375
vt 0.1875 0.15625
vt 0.125 0.15625
vt 0.125 0.109375
vt 0.1875 0.109375
vt 0.21875 0.4375
vt 0.1875 0.4375
vt 0.1875 0.390625
vt 0.21875 0.390625
vt 0.1875 0.484375
vt 0.15625 0.484375
vt 0.15625 0.4375
v -8.5 20.5 -3 1 1 1
v -7.5 20.5 -3 1 1 1
v -7.5 20.5 -2 1 1 1
v -8.5 20.5 -2 1 1 1
v -7.5 21.5 -3 1 1 1
v -8.5 21.5 -3 1 1 1
v -8.5 21.5 -2 1 1 1
v -7.5 21.5 -2 1 1 1
v -7.5 21.5 -2 1 1 1
v -8.5 21.5 -2 1 1 1
v -8.5 20.5 -2 1 1 1
v -7.5 20.5 -2 1 1 1
v -8.5 21.5 -3 1 1 1
v -7.5 21.5 -3 1 1 1
v -7.5 20.5 -3 1 1 1
v -8.5 20.5 -3 1 1 1
v -7.5 21.5 -3 1 1 1
v -7.5 21.5 -2 1 1 1
v -7.5 20.5 -2 1 1 1
v -7.5 20.5 -3 1 1 1
v -8.5 21.5 -2 1 1 1
v -8.5 21.5 -3 1 1 1
v -8.5 20.5 -3 1 1 1
v -8.5 20.5 -2 1 1 1
vt 0.453125 0.109375
vt 0.4375 0.109375
vt 0.4375 0.09375
vt 0.046875 0.484375
vt 0.0625 0.484375
vt 0.0625 0.5
vt 0.046875 0.5
vt 0.5 0.390625
vt 0.484375 0.390625
vt 0.484375 0.375
vt 0.5 0.375
vt 0.46875 0.390625
vt 0.46875 0.375
vt 0.4375 0.390625
vt 0.421875 0.390625
vt 0.421875 0.375
vt 0.4375 0.375
vt 0.40625 0.390625
vt 0.40625 0.375
v -9 20.33333 -3 1 1 1
v -7 20.33333 -3 1 1 1
v -7 20.33333 -2.5 1 1 1
v -9 20.33333 -2.5 1 1 1
v -7 21.33333 -3 1 1 1
v -9 21.33333 -3 1 1 1
v -9 21.33333 -2.5 1 1 1
v -7 21.33333 -2.5 1 1 1
v -7 21.33333 -2.5 1 1 1
v -9 21.33333 -2.5 1 1 1
v -9 20.33333 -2.5 1 1 1
v -7 20.33333 -2.5 1 1 1
v -9 21.33333 -3 1 1 1
v -7 21.33333 -3 1 1 1
v -7 20.33333 -3 1 1 1
v -9 20.33333 -3 1 1 1
v -7 21.33333 -3 1 1 1
v -7 21.33333 -2.5 1 1 1
v -7 20.33333 -2.5 1 1 1
v -7 20.33333 -3 1 1 1
v -9 21.33333 -2.5 1 1 1
v -9 21.33333 -3 1 1 1
v -9 20.33333 -3 1 1 1
v -9 20.33333 -2.5 1 1 1
vt 0.421875 0.359375
vt 0.390625 0.359375
vt 0.453125 0.328125
vt 0.453125 0.34375
vt 0.484375 0.34375
vt 0.484375 0.328125
vt 0.359375 0.359375
vt 0.390625 0.390625
vt 0.390625 0.375
vt 0.375 0.390625
vt 0.375 0.375
v -9.25 20 -5 1 1 1
v -6.75 20 -5 1 1 1
v -6.75 20 -3 1 1 1
v -9.25 20 -3 1 1 1
v -6.75 21.5 -5 1 1 1
v -9.25 21.5 -5 1 1 1
v -9.25 21.5 -3 1 1 1
v -6.75 21.5 -3 1 1 1
v -6.75 21.5 -3 1 1 1
v -9.25 21.5 -3 1 1 1
v -9.25 20 -3 1 1 1
v -6.75 20 -3 1 1 1
v -9.25 21.5 -5 1 1 1
v -6.75 21.5 -5 1 1 1
v -6.75 20 -5 1 1 1
v -9.25 20 -5 1 1 1
v -6.75 21.5 -5 1 1 1
v -6.75 21.5 -3 1 1 1
v -6.75 20 -3 1 1 1
v -6.75 20 -5 1 1 1
v -9.25 21.5 -3 1 1 1
v -9.25 21.5 -5 1 1 1
v -9.25 20 -5 1 1 1
v -9.25 20 -3 1 1 1
vt 0.328125 0.28125
vt 0.296875 0.28125
vt 0.296875 0.25
vt 0.328125 0.25
vt 0.25 0.4375
vt 0.25 0.46875
vt 0.21875 0.46875
vt 0.265625 0.28125
vt 0.265625 0.25
vt 0.25 0.5
vt 0.21875 0.5
vt 0.25 0.375
vt 0.21875 0.375
vt 0.21875 0.34375
vt 0.25 0.34375
vt 0.21875 0.3125
vt 0.25 0.3125
v -8.75 20.1 -3.6 1 1 1
v -7.25 20.1 -3.6 1 1 1
v -7.25 20.1 -2.6 1 1 1
v -8.75 20.1 -2.6 1 1 1
v -7.25 21.6 -3.6 1 1 1
v -8.75 21.6 -3.6 1 1 1
v -8.75 21.6 -2.6 1 1 1
v -7.25 21.6 -2.6 1 1 1
v -7.25 21.6 -2.6 1 1 1
v -8.75 21.6 -2.6 1 1 1
v -8.75 20.1 -2.6 1 1 1
v -7.25 20.1 -2.6 1 1 1
v -8.75 21.6 -3.6 1 1 1
v -7.25 21.6 -3.6 1 1 1
v -7.25 20.1 -3.6 1 1 1
v -8.75 20.1 -3.6 1 1 1
v -7.25 21.6 -3.6 1 1 1
v -7.25 21.6 -2.6 1 1 1
v -7.25 20.1 -2.6 1 1 1
v -7.25 20.1 -3.6 1 1 1
v -8.75 21.6 -2.6 1 1 1
v -8.75 21.6 -3.6 1 1 1
v -8.75 20.1 -3.6 1 1 1
v -8.75 20.1 -2.6 1 1 1
vt 0.40625 0.359375
vt 0.375 0.359375
vt 0.375 0.4375
vt 0.359375 0.4375
vt 0.359375 0.421875
vt 0.375 0.421875
vt 0.359375 0.40625
vt 0.375 0.40625
vt 0.453125 0.359375
vt 0.4375 0.359375
vt 0.4375 0.34375
v -9.5 19.38268 -5.92388 1 1 1
v -6.5 19.38268 -5.92388 1 1 1
v -6.5 19 -5 1 1 1
v -9.5 19 -5 1 1 1
v -6.5 22.61626 -4.584487 1 1 1
v -9.5 22.61626 -4.584487 1 1 1
v -9.5 22.23358 -3.660608 1 1 1
v -6.5 22.23358 -3.660608 1 1 1
v -6.5 22.23358 -3.660608 1 1 1
v -9.5 22.23358 -3.660608 1 1 1
v -9.5 19 -5 1 1 1
v -6.5 19 -5 1 1 1
v -9.5 22.61626 -4.584487 1 1 1
v -6.5 22.61626 -4.584487 1 1 1
v -6.5 19.38268 -5.92388 1 1 1
v -9.5 19.38268 -5.92388 1 1 1
v -6.5 22.61626 -4.584487 1 1 1
v -6.5 22.23358 -3.660608 1 1 1
v -6.5 19 -5 1 1 1
v -6.5 19.38268 -5.92388 1 1 1
v -9.5 22.23358 -3.660608 1 1 1
v -9.5 22.61626 -4.584487 1 1 1
v -9.5 19.38268 -5.92388 1 1 1
v -9.5 19 -5 1 1 1
vt 0.5 0.109375
vt 0.390625 0.09375
vt 0.390625 0.109375
vt 0.4375 0.203125
vt 0.390625 0.203125
vt 0.390625 0.15625
vt 0.3125 0.375
vt 0.296875 0.375
vt 0.296875 0.328125
vt 0.3125 0.328125
vt 0.34375 0.375
vt 0.328125 0.375
vt 0.328125 0.328125
vt 0.34375 0.328125
v -8.735534 19.7 -5.990306 1 1 1
v -7.321321 19.7 -7.40452 1 1 1
v -5.2 19.7 -5.2832 1 1 1
v -6.614213 19.7 -3.868986 1 1 1
v -7.321321 21.7 -7.40452 1 1 1
v -8.735534 21.7 -5.990306 1 1 1
v -6.614213 21.7 -3.868986 1 1 1
v -5.2 21.7 -5.2832 1 1 1
v -5.2 21.7 -5.2832 1 1 1
v -6.614213 21.7 -3.868986 1 1 1
v -6.614213 19.7 -3.868986 1 1 1
v -5.2 19.7 -5.2832 1 1 1
v -8.735534 21.7 -5.990306 1 1 1
v -7.321321 21.7 -7.40452 1 1 1
v -7.321321 19.7 -7.40452 1 1 1
v -8.735534 19.7 -5.990306 1 1 1
v -7.321321 21.7 -7.40452 1 1 1
v -5.2 21.7 -5.2832 1 1 1
v -5.2 19.7 -5.2832 1 1 1
v -7.321321 19.7 -7.40452 1 1 1
v -6.614213 21.7 -3.868986 1 1 1
v -8.735534 21.7 -5.990306 1 1 1
v -8.735534 19.7 -5.990306 1 1 1
v -6.614213 19.7 -3.868986 1 1 1
vn 0.7071068 0 0.7071067
vn -0.7071068 0 -0.7071067
vn 0.7071067 0 -0.7071068
vn -0.7071067 0 0.7071068
vt 0.15625 0.390625
vt 0.3125 0.203125
vt 0.3125 0.25
vt 0.15625 0.5
vt 0.125 0.46875
vt 0.15625 0.46875
vt 0.21875 0.28125
vt 0.25 0.28125
vt 0.390625 0.234375
vt 0.34375 0.234375
vt 0.4375 0.234375
v -9.75 21.64805 -7.771639 1 1 1
v -6.25 21.64805 -7.771639 1 1 1
v -6.25 20.5 -5 1 1 1
v -9.75 20.5 -5 1 1 1
v -6.25 23.49581 -7.006271 1 1 1
v -9.75 23.49581 -7.006271 1 1 1
v -9.75 22.34776 -4.234633 1 1 1
v -6.25 22.34776 -4.234633 1 1 1
v -6.25 22.34776 -4.234633 1 1 1
v -9.75 22.34776 -4.234633 1 1 1
v -9.75 20.5 -5 1 1 1
v -6.25 20.5 -5 1 1 1
v -9.75 23.49581 -7.006271 1 1 1
v -6.25 23.49581 -7.006271 1 1 1
v -6.25 21.64805 -7.771639 1 1 1
v -9.75 21.64805 -7.771639 1 1 1
v -6.25 23.49581 -7.006271 1 1 1
v -6.25 22.34776 -4.234633 1 1 1
v -6.25 20.5 -5 1 1 1
v -6.25 21.64805 -7.771639 1 1 1
v -9.75 22.34776 -4.234633 1 1 1
v -9.75 23.49581 -7.006271 1 1 1
v -9.75 21.64805 -7.771639 1 1 1
v -9.75 20.5 -5 1 1 1
vt 0.21875 0.265625
vt 0.15625 0.265625
vt 0.21875 0.296875
vt 0.15625 0.296875
vt 0.484375 0.234375
vt 0.21875 0.25
v -8.692893 19.7 -7.404534 1 1 1
v -7.278679 19.7 -5.99032 1 1 1
v -9.4 19.7 -3.869 1 1 1
v -10.81421 19.7 -5.283214 1 1 1
v -7.278679 21.7 -5.99032 1 1 1
v -8.692893 21.7 -7.404534 1 1 1
v -10.81421 21.7 -5.283214 1 1 1
v -9.4 21.7 -3.869 1 1 1
v -9.4 21.7 -3.869 1 1 1
v -10.81421 21.7 -5.283214 1 1 1
v -10.81421 19.7 -5.283214 1 1 1
v -9.4 19.7 -3.869 1 1 1
v -8.692893 21.7 -7.404534 1 1 1
v -7.278679 21.7 -5.99032 1 1 1
v -7.278679 19.7 -5.99032 1 1 1
v -8.692893 19.7 -7.404534 1 1 1
v -7.278679 21.7 -5.99032 1 1 1
v -9.4 21.7 -3.869 1 1 1
v -9.4 19.7 -3.869 1 1 1
v -7.278679 19.7 -5.99032 1 1 1
v -10.81421 21.7 -5.283214 1 1 1
v -8.692893 21.7 -7.404534 1 1 1
v -8.692893 19.7 -7.404534 1 1 1
v -10.81421 19.7 -5.283214 1 1 1
vn -0.7071068 0 0.7071067
vn 0.7071068 0 -0.7071067
vn 0.7071067 0 0.7071068
vn -0.7071067 0 -0.7071068
vt 0.1875 0.34375
vt 0.15625 0.34375
vt 0.1875 0.296875
vt 0.25 0.40625
vt 0.21875 0.40625
vt 0.203125 0.109375
vt 0.203125 0.078125
vt 0.25 0.078125
vt 0.34375 0.109375
vt 0.34375 0.078125
vt 0.390625 0.078125
v -6 20 -8 1 1 1
v -5.076121 20 -8.382684 1 1 1
v -4.884779 20 -7.920744 1 1 1
v -5.808659 20 -7.538061 1 1 1
v -5.076121 22 -8.382684 1 1 1
v -6 22 -8 1 1 1
v -5.808659 22 -7.538061 1 1 1
v -4.884779 22 -7.920744 1 1 1
v -4.884779 22 -7.920744 1 1 1
v -5.808659 22 -7.538061 1 1 1
v -5.808659 20 -7.538061 1 1 1
v -4.884779 20 -7.920744 1 1 1
v -6 22 -8 1 1 1
v -5.076121 22 -8.382684 1 1 1
v -5.076121 20 -8.382684 1 1 1
v -6 20 -8 1 1 1
v -5.076121 22 -8.382684 1 1 1
v -4.884779 22 -7.920744 1 1 1
v -4.884779 20 -7.920744 1 1 1
v -5.076121 20 -8.382684 1 1 1
v -5.808659 22 -7.538061 1 1 1
v -6 22 -8 1 1 1
v -6 20 -8 1 1 1
v -5.808659 20 -7.538061 1 1 1
vn 0.3826834 0 0.9238796
vn -0.3826834 0 -0.9238796
vn 0.9238796 0 -0.3826834
vn -0.9238796 0 0.3826834
vt 0.5 0.328125
vt 0.5 0.34375
vt 0.359375 0.484375
vt 0.359375 0.5
vt 0.34375 0.5
vt 0.34375 0.484375
vt 0.328125 0.5
vt 0.3125 0.5
vt 0.3125 0.46875
vt 0.328125 0.46875
vt 0.34375 0.46875
vt 0.359375 0.453125
vt 0.34375 0.453125
vt 0.34375 0.421875
v -10.92388 20 -8.382684 1 1 1
v -10 20 -8 1 1 1
v -10.19134 20 -7.53806 1 1 1
v -11.11522 20 -7.920743 1 1 1
v -10 22 -8 1 1 1
v -10.92388 22 -8.382684 1 1 1
v -11.11522 22 -7.920743 1 1 1
v -10.19134 22 -7.53806 1 1 1
v -10.19134 22 -7.53806 1 1 1
v -11.11522 22 -7.920743 1 1 1
v -11.11522 20 -7.920743 1 1 1
v -10.19134 20 -7.53806 1 1 1
v -10.92388 22 -8.382684 1 1 1
v -10 22 -8 1 1 1
v -10 20 -8 1 1 1
v -10.92388 20 -8.382684 1 1 1
v -10 22 -8 1 1 1
v -10.19134 22 -7.53806 1 1 1
v -10.19134 20 -7.53806 1 1 1
v -10 20 -8 1 1 1
v -11.11522 22 -7.920743 1 1 1
v -10.92388 22 -8.382684 1 1 1
v -10.92388 20 -8.382684 1 1 1
v -11.11522 20 -7.920743 1 1 1
vn -0.3826835 0 0.9238795
vn 0.3826835 0 -0.9238795
vn 0.9238795 0 0.3826835
vn -0.9238795 0 -0.3826835
vt 0.375 0.453125
vt 0.390625 0.4375
vt 0.390625 0.453125
vt 0.390625 0.421875
vt 0.359375 0.390625
vt 0.4375 0.28125
vt 0.421875 0.28125
vt 0.421875 0.25
vt 0.4375 0.25
vt 0.078125 0.5
vt 0.0625 0.46875
vt 0.078125 0.46875
vt 0.09375 0.5
vt 0.09375 0.46875
g Element #1
usemtl Element
f 1/1/1 2/2/1 4/4/1
f 2/2/1 3/3/1 4/4/1
f 5/5/2 6/6/2 8/8/2
f 6/6/2 7/7/2 8/8/2
f 9/9/3 10/10/3 12/12/3
f 10/10/3 11/11/3 12/12/3
f 13/13/4 14/14/4 16/16/4
f 14/14/4 15/15/4 16/16/4
f 17/17/5 18/18/5 20/20/5
f 18/18/5 19/19/5 20/20/5
f 21/21/6 22/17/6 24/22/6
f 22/17/6 23/20/6 24/22/6
g Element #2
usemtl Element
f 25/23/7 26/24/7 28/26/7
f 26/24/7 27/25/7 28/26/7
f 29/27/8 30/25/8 32/28/8
f 30/25/8 31/24/8 32/28/8
f 33/28/9 34/29/9 36/27/9
f 34/29/9 35/30/9 36/27/9
f 37/29/10 38/31/10 40/30/10
f 38/31/10 39/32/10 40/30/10
f 41/33/5 42/34/5 44/36/5
f 42/34/5 43/35/5 44/36/5
f 45/36/6 46/35/6 48/38/6
f 46/35/6 47/37/6 48/38/6
g Element #3
usemtl Element
f 49/39/11 50/40/11 52/41/11
f 50/40/11 51/31/11 52/41/11
f 53/42/12 54/43/12 56/44/12
f 54/43/12 55/12/12 56/44/12
f 57/45/13 58/27/13 60/47/13
f 58/27/13 59/46/13 60/47/13
f 61/48/14 62/49/14 64/51/14
f 62/49/14 63/50/14 64/51/14
f 65/52/5 66/53/5 68/55/5
f 66/53/5 67/54/5 68/55/5
f 69/56/6 70/57/6 72/53/6
f 70/57/6 71/58/6 72/53/6
g Element #4
usemtl Element
f 73/59/7 74/60/7 76/34/7
f 74/60/7 75/61/7 76/34/7
f 77/62/8 78/63/8 80/65/8
f 78/63/8 79/64/8 80/65/8
f 81/66/9 82/67/9 84/69/9
f 82/67/9 83/68/9 84/69/9
f 85/67/10 86/70/10 88/68/10
f 86/70/10 87/71/10 88/68/10
f 89/72/5 90/73/5 92/75/5
f 90/73/5 91/74/5 92/75/5
f 93/73/6 94/76/6 96/74/6
f 94/76/6 95/77/6 96/74/6
g Element #5
usemtl Element
f 97/78/7 98/79/7 100/21/7
f 98/79/7 99/17/7 100/21/7
f 101/22/8 102/80/8 104/21/8
f 102/80/8 103/81/8 104/21/8
f 105/82/9 106/81/9 108/83/9
f 106/81/9 107/80/9 108/83/9
f 109/79/10 110/84/10 112/17/10
f 110/84/10 111/18/10 112/17/10
f 113/76/5 114/85/5 116/77/5
f 114/85/5 115/86/5 116/77/5
f 117/85/6 118/87/6 120/86/6
f 118/87/6 119/88/6 120/86/6
g Element #6
usemtl Element
f 121/89/7 122/90/7 124/92/7
f 122/90/7 123/91/7 124/92/7
f 125/52/8 126/93/8 128/95/8
f 126/93/8 127/94/8 128/95/8
f 129/90/9 130/96/9 132/91/9
f 130/96/9 131/97/9 132/91/9
f 133/98/10 134/99/10 136/94/10
f 134/99/10 135/95/10 136/94/10
f 137/100/5 138/101/5 140/103/5
f 138/101/5 139/102/5 140/103/5
f 141/103/6 142/102/6 144/105/6
f 142/102/6 143/104/6 144/105/6
g Element #7
usemtl Element
f 145/77/7 146/86/7 148/106/7
f 146/86/7 147/79/7 148/106/7
f 149/107/8 150/79/8 152/88/8
f 150/79/8 151/86/8 152/88/8
f 153/108/9 154/109/9 156/111/9
f 154/109/9 155/110/9 156/111/9
f 157/111/10 158/110/10 160/113/10
f 158/110/10 159/112/10 160/113/10
f 161/114/5 162/115/5 164/81/5
f 162/115/5 163/116/5 164/81/5
f 165/115/6 166/78/6 168/116/6
f 166/78/6 167/21/6 168/116/6
g Element #8
usemtl Element
f 169/117/1 170/59/1 172/33/1
f 170/59/1 171/34/1 172/33/1
f 173/118/2 174/61/2 176/119/2
f 174/61/2 175/60/2 176/119/2
f 177/120/3 178/121/3 180/42/3
f 178/121/3 179/122/3 180/42/3
f 181/121/4 182/23/4 184/122/4
f 182/23/4 183/26/4 184/122/4
f 185/123/5 186/124/5 188/126/5
f 186/124/5 187/125/5 188/126/5
f 189/127/6 190/128/6 192/130/6
f 190/128/6 191/129/6 192/130/6
g Element #9
usemtl Element
f 193/53/7 194/58/7 196/54/7
f 194/58/7 195/131/7 196/54/7
f 197/132/8 198/23/8 200/133/8
f 198/23/8 199/3/8 200/133/8
f 201/134/15 202/13/15 204/136/15
f 202/13/15 203/135/15 204/136/15
f 205/105/16 206/104/16 208/138/16
f 206/104/16 207/137/16 208/138/16
f 209/139/17 210/140/17 212/121/17
f 210/140/17 211/23/17 212/121/17
f 213/141/18 214/139/18 216/120/18
f 214/139/18 215/121/18 216/120/18
g Element #10
usemtl Element
f 217/43/1 218/42/1 220/117/1
f 218/42/1 219/60/1 220/117/1
f 221/51/2 222/46/2 224/48/2
f 222/46/2 223/27/2 224/48/2
f 225/142/3 226/143/3 228/39/3
f 226/143/3 227/40/3 228/39/3
f 229/144/4 230/145/4 232/142/4
f 230/145/4 231/143/4 232/142/4
f 233/146/5 234/141/5 236/10/5
f 234/141/5 235/120/5 236/10/5
f 237/96/6 238/137/6 240/97/6
f 238/137/6 239/147/6 240/97/6
g Element #11
usemtl Element
f 241/148/7 242/149/7 244/150/7
f 242/149/7 243/145/7 244/150/7
f 245/148/8 246/102/8 248/54/8
f 246/102/8 247/55/8 248/54/8
f 249/151/19 250/152/19 252/100/19
f 250/152/19 251/101/19 252/100/19
f 253/93/20 254/52/20 256/151/20
f 254/52/20 255/152/20 256/151/20
f 257/46/21 258/153/21 260/155/21
f 258/153/21 259/154/21 260/155/21
f 261/119/22 262/156/22 264/158/22
f 262/156/22 263/157/22 264/158/22
g Element #12
usemtl Element
f 265/159/7 266/160/7 268/83/7
f 266/160/7 267/82/7 268/83/7
f 269/161/8 270/162/8 272/164/8
f 270/162/8 271/163/8 272/164/8
f 273/165/23 274/166/23 276/168/23
f 274/166/23 275/167/23 276/168/23
f 277/163/24 278/165/24 280/169/24
f 278/165/24 279/168/24 280/169/24
f 281/170/25 282/171/25 284/110/25
f 282/171/25 283/172/25 284/110/25
f 285/161/26 286/164/26 288/170/26
f 286/164/26 287/171/26 288/170/26
g Element #13
usemtl Element
f 289/173/7 290/108/7 292/175/7
f 290/108/7 291/174/7 292/175/7
f 293/108/8 294/111/8 296/174/8
f 294/111/8 295/176/8 296/174/8
f 297/87/27 298/177/27 300/107/27
f 298/177/27 299/84/27 300/107/27
f 301/178/28 302/179/28 304/181/28
f 302/179/28 303/180/28 304/181/28
f 305/182/29 306/64/29 308/184/29
f 306/64/29 307/183/29 308/184/29
f 309/185/30 310/182/30 312/186/30
f 310/182/30 311/184/30 312/186/30
