# Export of Cubik Model: Cubik Model
# Designed by Zhouyi with Cubik Studio - https://cubik.studio
# from Cubik OBJ Exporter v1.0
mtllib meng.mtl
v -9.75 4.5 0.5 1 1 1
v -6.25 4.5 0.5 1 1 1
v -6.25 4.5 3.5 1 1 1
v -9.75 4.5 3.5 1 1 1
v -6.25 7.5 0.5 1 1 1
v -9.75 7.5 0.5 1 1 1
v -9.75 7.5 3.5 1 1 1
v -6.25 7.5 3.5 1 1 1
v -6.25 7.5 3.5 1 1 1
v -9.75 7.5 3.5 1 1 1
v -9.75 4.5 3.5 1 1 1
v -6.25 4.5 3.5 1 1 1
v -9.75 7.5 0.5 1 1 1
v -6.25 7.5 0.5 1 1 1
v -6.25 4.5 0.5 1 1 1
v -9.75 4.5 0.5 1 1 1
v -6.25 7.5 0.5 1 1 1
v -6.25 7.5 3.5 1 1 1
v -6.25 4.5 3.5 1 1 1
v -6.25 4.5 0.5 1 1 1
v -9.75 7.5 3.5 1 1 1
v -9.75 7.5 0.5 1 1 1
v -9.75 4.5 0.5 1 1 1
v -9.75 4.5 3.5 1 1 1
vn 0 -1 0
vn 0 1 0
vn 0 0 1
vn 0 0 -1
vn 1 0 0
vn -1 0 0
vt 0.34375 0.203125
vt 0.296875 0.203125
vt 0.296875 0.15625
vt 0.34375 0.15625
vt 0.25 0.15625
vt 0.25 0.203125
vt 0.203125 0.203125
vt 0.203125 0.15625
vt 0.15625 0.203125
vt 0.15625 0.15625
vt 0.5 0.09375
vt 0.453125 0.09375
vt 0.453125 0.046875
vt 0.5 0.046875
vt 0.453125 0
vt 0.5 0
v -5.995481 6 1.45143 1 1 1
v -5.055789 6 1.10941 1 1 1
v -4.884779 6 1.579256 1 1 1
v -5.824471 6 1.921276 1 1 1
v -5.055789 8 1.10941 1 1 1
v -5.995481 8 1.45143 1 1 1
v -5.824471 8 1.921276 1 1 1
v -4.884779 8 1.579256 1 1 1
v -4.884779 8 1.579256 1 1 1
v -5.824471 8 1.921276 1 1 1
v -5.824471 6 1.921276 1 1 1
v -4.884779 6 1.579256 1 1 1
v -5.995481 8 1.45143 1 1 1
v -5.055789 8 1.10941 1 1 1
v -5.055789 6 1.10941 1 1 1
v -5.995481 6 1.45143 1 1 1
v -5.055789 8 1.10941 1 1 1
v -4.884779 8 1.579256 1 1 1
v -4.884779 6 1.579256 1 1 1
v -5.055789 6 1.10941 1 1 1
v -5.824471 8 1.921276 1 1 1
v -5.995481 8 1.45143 1 1 1
v -5.995481 6 1.45143 1 1 1
v -5.824471 6 1.921276 1 1 1
vn 0.3420204 0 0.9396926
vn -0.3420204 0 -0.9396926
vn 0.9396926 0 -0.3420204
vn -0.9396926 0 0.3420204
vt 0.5 0.328125
vt 0.5 0.34375
vt 0.484375 0.34375
vt 0.484375 0.328125
vt 0.359375 0.484375
vt 0.359375 0.5
vt 0.34375 0.5
vt 0.34375 0.484375
vt 0.328125 0.5
vt 0.3125 0.5
vt 0.3125 0.46875
vt 0.328125 0.46875
vt 0.34375 0.46875
vt 0.359375 0.453125
vt 0.34375 0.453125
vt 0.34375 0.421875
vt 0.359375 0.421875
v -10.96002 6 1.150073 1 1 1
v -10.02033 6 1.492094 1 1 1
v -10.19134 6 1.96194 1 1 1
v -11.13103 6 1.61992 1 1 1
v -10.02033 8 1.492094 1 1 1
v -10.96002 8 1.150073 1 1 1
v -11.13103 8 1.61992 1 1 1
v -10.19134 8 1.96194 1 1 1
v -10.19134 8 1.96194 1 1 1
v -11.13103 8 1.61992 1 1 1
v -11.13103 6 1.61992 1 1 1
v -10.19134 6 1.96194 1 1 1
v -10.96002 8 1.150073 1 1 1
v -10.02033 8 1.492094 1 1 1
v -10.02033 6 1.492094 1 1 1
v -10.96002 6 1.150073 1 1 1
v -10.02033 8 1.492094 1 1 1
v -10.19134 8 1.96194 1 1 1
v -10.19134 6 1.96194 1 1 1
v -10.02033 6 1.492094 1 1 1
v -11.13103 8 1.61992 1 1 1
v -10.96002 8 1.150073 1 1 1
v -10.96002 6 1.150073 1 1 1
v -11.13103 6 1.61992 1 1 1
vn -0.3420202 0 0.9396926
vn 0.3420202 0 -0.9396926
vn 0.9396926 0 0.3420202
vn -0.9396926 0 -0.3420202
vt 0.375 0.453125
vt 0.375 0.4375
vt 0.390625 0.4375
vt 0.390625 0.453125
vt 0.375 0.421875
vt 0.390625 0.421875
vt 0.375 0.390625
vt 0.359375 0.390625
vt 0.359375 0.359375
vt 0.375 0.359375
vt 0.4375 0.28125
vt 0.421875 0.28125
vt 0.421875 0.25
vt 0.4375 0.25
vt 0.078125 0.5
vt 0.0625 0.5
vt 0.0625 0.46875
vt 0.078125 0.46875
vt 0.09375 0.5
vt 0.09375 0.46875
v -8.75 5 -10.5 1 1 1
v -7.25 5 -10.5 1 1 1
v -7.25 5 -8.5 1 1 1
v -8.75 5 -8.5 1 1 1
v -7.25 6 -10.5 1 1 1
v -8.75 6 -10.5 1 1 1
v -8.75 6 -8.5 1 1 1
v -7.25 6 -8.5 1 1 1
v -7.25 6 -8.5 1 1 1
v -8.75 6 -8.5 1 1 1
v -8.75 5 -8.5 1 1 1
v -7.25 5 -8.5 1 1 1
v -8.75 6 -10.5 1 1 1
v -7.25 6 -10.5 1 1 1
v -7.25 5 -10.5 1 1 1
v -8.75 5 -10.5 1 1 1
v -7.25 6 -10.5 1 1 1
v -7.25 6 -8.5 1 1 1
v -7.25 5 -8.5 1 1 1
v -7.25 5 -10.5 1 1 1
v -8.75 6 -8.5 1 1 1
v -8.75 6 -10.5 1 1 1
v -8.75 5 -10.5 1 1 1
v -8.75 5 -8.5 1 1 1
vt 0.109375 0.5
vt 0.109375 0.46875
vt 0.484375 0.203125
vt 0.5 0.203125
vt 0.5 0.234375
vt 0.484375 0.234375
vt 0.375 0.40625
vt 0.359375 0.40625
vt 0.5 0.359375
vt 0.484375 0.359375
vt 0.15625 0.5
vt 0.15625 0.484375
vt 0.1875 0.484375
vt 0.1875 0.5
vt 0.21875 0.484375
vt 0.21875 0.5
v -10 4.5 -3 1 1 1
v -6 4.5 -3 1 1 1
v -6 4.5 3 1 1 1
v -10 4.5 3 1 1 1
v -6 8 -3 1 1 1
v -10 8 -3 1 1 1
v -10 8 3 1 1 1
v -6 8 3 1 1 1
v -6 8 3 1 1 1
v -10 8 3 1 1 1
v -10 4.5 3 1 1 1
v -6 4.5 3 1 1 1
v -10 8 -3 1 1 1
v -6 8 -3 1 1 1
v -6 4.5 -3 1 1 1
v -10 4.5 -3 1 1 1
v -6 8 -3 1 1 1
v -6 8 3 1 1 1
v -6 4.5 3 1 1 1
v -6 4.5 -3 1 1 1
v -10 8 3 1 1 1
v -10 8 -3 1 1 1
v -10 4.5 -3 1 1 1
v -10 4.5 3 1 1 1
vt 0 0.21875
vt 0.0625 0.21875
vt 0.0625 0.3125
vt 0 0.3125
vt 0.0625 0.40625
vt 0 0.40625
vt 0.390625 0
vt 0.390625 0.046875
vt 0.390625 0.09375
vt 0.046875 0.40625
vt 0.046875 0.5
vt 0 0.5
vt 0.15625 0.09375
vt 0.15625 0
vt 0.203125 0
vt 0.203125 0.09375
v -10.25 4.5 -9.5 1 1 1
v -5.75 4.5 -9.5 1 1 1
v -5.75 4.5 -1.5 1 1 1
v -10.25 4.5 -1.5 1 1 1
v -5.75 7.5 -9.5 1 1 1
v -10.25 7.5 -9.5 1 1 1
v -10.25 7.5 -1.5 1 1 1
v -5.75 7.5 -1.5 1 1 1
v -5.75 7.5 -1.5 1 1 1
v -10.25 7.5 -1.5 1 1 1
v -10.25 4.5 -1.5 1 1 1
v -5.75 4.5 -1.5 1 1 1
v -10.25 7.5 -9.5 1 1 1
v -5.75 7.5 -9.5 1 1 1
v -5.75 4.5 -9.5 1 1 1
v -10.25 4.5 -9.5 1 1 1
v -5.75 7.5 -9.5 1 1 1
v -5.75 7.5 -1.5 1 1 1
v -5.75 4.5 -1.5 1 1 1
v -5.75 4.5 -9.5 1 1 1
v -10.25 7.5 -1.5 1 1 1
v -10.25 7.5 -9.5 1 1 1
v -10.25 4.5 -9.5 1 1 1
v -10.25 4.5 -1.5 1 1 1
vt 0 0
vt 0.0625 0
vt 0.0625 0.109375
vt 0 0.109375
vt 0.3125 0.109375
vt 0.375 0.109375
vt 0.375 0.15625
vt 0.3125 0.15625
vt 0.4375 0.15625
vt 0.4375 0.109375
vt 0.109375 0
vt 0.109375 0.109375
vt 0.15625 0.109375
g Element #2
usemtl Element
f 1/1/1 2/2/1 4/4/1
f 2/2/1 3/3/1 4/4/1
f 5/5/2 6/3/2 8/6/2
f 6/3/2 7/2/2 8/6/2
f 9/6/3 10/7/3 12/5/3
f 10/7/3 11/8/3 12/5/3
f 13/7/4 14/9/4 16/8/4
f 14/9/4 15/10/4 16/8/4
f 17/11/5 18/12/5 20/14/5
f 18/12/5 19/13/5 20/14/5
f 21/14/6 22/13/6 24/16/6
f 22/13/6 23/15/6 24/16/6
g Element #12
usemtl Element
f 25/17/1 26/18/1 28/20/1
f 26/18/1 27/19/1 28/20/1
f 29/21/2 30/22/2 32/24/2
f 30/22/2 31/23/2 32/24/2
f 33/25/7 34/26/7 36/28/7
f 34/26/7 35/27/7 36/28/7
f 37/23/8 38/25/8 40/29/8
f 38/25/8 39/28/8 40/29/8
f 41/30/9 42/31/9 44/33/9
f 42/31/9 43/32/9 44/33/9
f 45/21/10 46/24/10 48/30/10
f 46/24/10 47/31/10 48/30/10
g Element #13
usemtl Element
f 49/34/1 50/35/1 52/37/1
f 50/35/1 51/36/1 52/37/1
f 53/35/2 54/38/2 56/36/2
f 54/38/2 55/39/2 56/36/2
f 57/40/11 58/41/11 60/43/11
f 58/41/11 59/42/11 60/43/11
f 61/44/12 62/45/12 64/47/12
f 62/45/12 63/46/12 64/47/12
f 65/48/13 66/49/13 68/51/13
f 66/49/13 67/50/13 68/51/13
f 69/52/14 70/48/14 72/53/14
f 70/48/14 71/51/14 72/53/14
g Element #14
usemtl Element
f 73/54/1 74/52/1 76/55/1
f 74/52/1 75/53/1 76/55/1
f 77/56/2 78/57/2 80/59/2
f 78/57/2 79/58/2 80/59/2
f 81/60/3 82/61/3 84/40/3
f 82/61/3 83/41/3 84/40/3
f 85/62/4 86/63/4 88/18/4
f 86/63/4 87/19/4 88/18/4
f 89/64/5 90/65/5 92/67/5
f 90/65/5 91/66/5 92/67/5
f 93/68/6 94/69/6 96/66/6
f 94/69/6 95/67/6 96/66/6
g Element #28
usemtl Element
f 97/70/1 98/71/1 100/73/1
f 98/71/1 99/72/1 100/73/1
f 101/73/2 102/72/2 104/75/2
f 102/72/2 103/74/2 104/75/2
f 105/76/3 106/15/3 108/77/3
f 106/15/3 107/13/3 108/77/3
f 109/12/4 110/78/4 112/13/4
f 110/78/4 111/77/4 112/13/4
f 113/79/5 114/80/5 116/75/5
f 114/80/5 115/81/5 116/75/5
f 117/82/6 118/83/6 120/85/6
f 118/83/6 119/84/6 120/85/6
g Element #32
usemtl Element
f 121/86/1 122/87/1 124/89/1
f 122/87/1 123/88/1 124/89/1
f 125/89/2 126/88/2 128/70/2
f 126/88/2 127/71/2 128/70/2
f 129/90/3 130/91/3 132/93/3
f 130/91/3 131/92/3 132/93/3
f 133/94/4 134/92/4 136/95/4
f 134/92/4 135/91/4 136/95/4
f 137/96/5 138/97/5 140/87/5
f 138/97/5 139/88/5 140/87/5
f 141/97/6 142/96/6 144/98/6
f 142/96/6 143/83/6 144/98/6
