# Export of Cubik Model: Cubik Model
# Designed by Zhouyi with Cubik Studio - https://cubik.studio
# from Cubik OBJ Exporter v1.0
mtllib swan_standing.mtl
v -12.5 0.5 -4 1 1 1
v 2.5 0.5 -4 1 1 1
v 2.5 0.5 -3.5 1 1 1
v -12.5 0.5 -3.5 1 1 1
v 2.5 7.5 -4 1 1 1
v -12.5 7.5 -4 1 1 1
v -12.5 7.5 -3.5 1 1 1
v 2.5 7.5 -3.5 1 1 1
v 2.5 7.5 -3.5 1 1 1
v -12.5 7.5 -3.5 1 1 1
v -12.5 0.5 -3.5 1 1 1
v 2.5 0.5 -3.5 1 1 1
v -12.5 7.5 -4 1 1 1
v 2.5 7.5 -4 1 1 1
v 2.5 0.5 -4 1 1 1
v -12.5 0.5 -4 1 1 1
v 2.5 7.5 -4 1 1 1
v 2.5 7.5 -3.5 1 1 1
v 2.5 0.5 -3.5 1 1 1
v 2.5 0.5 -4 1 1 1
v -12.5 7.5 -3.5 1 1 1
v -12.5 7.5 -4 1 1 1
v -12.5 0.5 -4 1 1 1
v -12.5 0.5 -3.5 1 1 1
vn 0 -1 0
vn 0 1 0
vn 0 0 1
vn 0 0 -1
vn 1 0 0
vn -1 0 0
vt 0.28125 0.140625
vt 0.1640625 0.140625
vt 0.1640625 0.1328125
vt 0.28125 0.1328125
vt 0.1640625 0.125
vt 0.28125 0.125
vt 0.078125 0.3515625
vt 0.078125 0.46875
vt 0 0.46875
vt 0 0.3515625
vt 0.078125 0.234375
vt 0 0.234375
vt 0.3984375 0.1328125
vt 0.3984375 0.125
vt 0.4765625 0.125
vt 0.4765625 0.1328125
vt 0.4765625 0.1171875
vt 0.3984375 0.1171875
g Element #5
usemtl Element
f 1/1/1 2/2/1 4/4/1
f 2/2/1 3/3/1 4/4/1
f 5/4/2 6/3/2 8/6/2
f 6/3/2 7/5/2 8/6/2
f 9/7/3 10/8/3 12/10/3
f 10/8/3 11/9/3 12/10/3
f 13/11/4 14/7/4 16/12/4
f 14/7/4 15/10/4 16/12/4
f 17/13/5 18/14/5 20/16/5
f 18/14/5 19/15/5 20/16/5
f 21/17/6 22/15/6 24/18/6
f 22/15/6 23/14/6 24/18/6
