# Export of Cubik Model: Cubik Model
# Designed by Zhouyi with Cubik Studio - https://cubik.studio
# from Cubik OBJ Exporter v1.0
mtllib swan_standing.mtl
v -2.499701 -3 -2.999999 1 1 1
v -1.499701 -3 -2.999999 1 1 1
v -1.499701 -3 -1.999999 1 1 1
v -2.499701 -3 -1.999999 1 1 1
v -1.499701 1 -2.999999 1 1 1
v -2.499701 1 -2.999999 1 1 1
v -2.499701 1 -1.999999 1 1 1
v -1.499701 1 -1.999999 1 1 1
v -1.499701 1 -1.999999 1 1 1
v -2.499701 1 -1.999999 1 1 1
v -2.499701 -3 -1.999999 1 1 1
v -1.499701 -3 -1.999999 1 1 1
v -2.499701 1 -2.999999 1 1 1
v -1.499701 1 -2.999999 1 1 1
v -1.499701 -3 -2.999999 1 1 1
v -2.499701 -3 -2.999999 1 1 1
v -1.499701 1 -2.999999 1 1 1
v -1.499701 1 -1.999999 1 1 1
v -1.499701 -3 -1.999999 1 1 1
v -1.499701 -3 -2.999999 1 1 1
v -2.499701 1 -1.999999 1 1 1
v -2.499701 1 -2.999999 1 1 1
v -2.499701 -3 -2.999999 1 1 1
v -2.499701 -3 -1.999999 1 1 1
vn 0 -1 0
vn 0 1 0
vn 0 0 1
vn 0 0 -1
vn 1 0 0
vn -1 0 0
vt 0.1484375 0.46875
vt 0.140625 0.46875
vt 0.140625 0.4609375
vt 0.1484375 0.4609375
vt 0.1328125 0.4375
vt 0.140625 0.4375
vt 0.140625 0.4453125
vt 0.1328125 0.4453125
vt 0.109375 0.3203125
vt 0.1015625 0.3203125
vt 0.1015625 0.2890625
vt 0.109375 0.2890625
vt 0.109375 0.359375
vt 0.1015625 0.359375
vt 0.1015625 0.328125
vt 0.109375 0.328125
vt 0.109375 0.3984375
vt 0.1015625 0.3984375
vt 0.1015625 0.3671875
vt 0.109375 0.3671875
vt 0.109375 0.4375
vt 0.1015625 0.4375
vt 0.1015625 0.40625
vt 0.109375 0.40625
v -2.499988 -3.499989 -2.499985 1 1 1
v -0.3786676 -3.499989 -4.621306 1 1 1
v 1.742653 -3.499989 -2.499986 1 1 1
v -0.3786674 -3.499989 -0.3786652 1 1 1
v -0.3786676 -2.999989 -4.621306 1 1 1
v -2.499988 -2.999989 -2.499985 1 1 1
v -0.3786674 -2.999989 -0.3786652 1 1 1
v 1.742653 -2.999989 -2.499986 1 1 1
v 1.742653 -2.999989 -2.499986 1 1 1
v -0.3786674 -2.999989 -0.3786652 1 1 1
v -0.3786674 -3.499989 -0.3786652 1 1 1
v 1.742653 -3.499989 -2.499986 1 1 1
v -2.499988 -2.999989 -2.499985 1 1 1
v -0.3786676 -2.999989 -4.621306 1 1 1
v -0.3786676 -3.499989 -4.621306 1 1 1
v -2.499988 -3.499989 -2.499985 1 1 1
v -0.3786676 -2.999989 -4.621306 1 1 1
v 1.742653 -2.999989 -2.499986 1 1 1
v 1.742653 -3.499989 -2.499986 1 1 1
v -0.3786676 -3.499989 -4.621306 1 1 1
v -0.3786674 -2.999989 -0.3786652 1 1 1
v -2.499988 -2.999989 -2.499985 1 1 1
v -2.499988 -3.499989 -2.499985 1 1 1
v -0.3786674 -3.499989 -0.3786652 1 1 1
vn 0.7071068 0 0.7071067
vn -0.7071068 0 -0.7071067
vn 0.7071067 0 -0.7071068
vn -0.7071067 0 0.7071068
vt 0.1015625 0.4765625
vt 0.1015625 0.5
vt 0.078125 0.5
vt 0.078125 0.4765625
vt 0.5 0.1171875
vt 0.5 0.140625
vt 0.4765625 0.140625
vt 0.4765625 0.1171875
vt 0.484375 0.1796875
vt 0.4609375 0.1796875
vt 0.4609375 0.171875
vt 0.484375 0.171875
vt 0.203125 0.1875
vt 0.1796875 0.1875
vt 0.1796875 0.1796875
vt 0.203125 0.1796875
vt 0.4375 0.1796875
vt 0.4375 0.171875
vt 0.40625 0.171875
vt 0.3828125 0.171875
vt 0.3828125 0.1640625
vt 0.40625 0.1640625
g Element #1
usemtl Element
f 1/1/1 2/2/1 4/4/1
f 2/2/1 3/3/1 4/4/1
f 5/5/2 6/6/2 8/8/2
f 6/6/2 7/7/2 8/8/2
f 9/9/3 10/10/3 12/12/3
f 10/10/3 11/11/3 12/12/3
f 13/13/4 14/14/4 16/16/4
f 14/14/4 15/15/4 16/16/4
f 17/17/5 18/18/5 20/20/5
f 18/18/5 19/19/5 20/20/5
f 21/21/6 22/22/6 24/24/6
f 22/22/6 23/23/6 24/24/6
g Element #2
usemtl Element
f 25/25/1 26/26/1 28/28/1
f 26/26/1 27/27/1 28/28/1
f 29/29/2 30/30/2 32/32/2
f 30/30/2 31/31/2 32/32/2
f 33/33/7 34/34/7 36/36/7
f 34/34/7 35/35/7 36/36/7
f 37/37/8 38/38/8 40/40/8
f 38/38/8 39/39/8 40/40/8
f 41/34/9 42/41/9 44/35/9
f 42/41/9 43/42/9 44/35/9
f 45/43/10 46/44/10 48/46/10
f 46/44/10 47/45/10 48/46/10
