# Export of Cubik Model: Cubik Model
# Designed by Zhouyi with Cubik Studio - https://cubik.studio
# from Cubik OBJ Exporter v1.0
mtllib tiget.mtl
v -9 16.82843 11.67157 1 1 1
v -7 16.82843 11.67157 1 1 1
v -7 14 14.5 1 1 1
v -9 14 14.5 1 1 1
v -7 18.24264 13.08579 1 1 1
v -9 18.24264 13.08579 1 1 1
v -9 15.41421 15.91421 1 1 1
v -7 15.41421 15.91421 1 1 1
v -7 15.41421 15.91421 1 1 1
v -9 15.41421 15.91421 1 1 1
v -9 14 14.5 1 1 1
v -7 14 14.5 1 1 1
v -9 18.24264 13.08579 1 1 1
v -7 18.24264 13.08579 1 1 1
v -7 16.82843 11.67157 1 1 1
v -9 16.82843 11.67157 1 1 1
v -7 18.24264 13.08579 1 1 1
v -7 15.41421 15.91421 1 1 1
v -7 14 14.5 1 1 1
v -7 16.82843 11.67157 1 1 1
v -9 15.41421 15.91421 1 1 1
v -9 18.24264 13.08579 1 1 1
v -9 16.82843 11.67157 1 1 1
v -9 14 14.5 1 1 1
vn 0 -0.7071067 -0.7071068
vn 0 0.7071067 0.7071068
vn 0 -0.7071068 0.7071067
vn 0 0.7071068 -0.7071067
vn 1 0 0
vn -1 0 0
vt 0.2265625 0.0546875
vt 0.21875 0.0546875
vt 0.21875 0.046875
vt 0.2265625 0.046875
vt 0.1875 0.1132813
vt 0.1953125 0.1132813
vt 0.1953125 0.1210938
vt 0.1875 0.1210938
vt 0.375 0.09765625
vt 0.3671875 0.09765625
vt 0.3671875 0.09375
vt 0.375 0.09375
vt 0.3984375 0.06640625
vt 0.390625 0.06640625
vt 0.390625 0.0625
vt 0.3984375 0.0625
vt 0.4414063 0.0546875
vt 0.4257813 0.0546875
vt 0.4257813 0.05078125
vt 0.4414063 0.05078125
vt 0.3632813 0.0546875
vt 0.3476563 0.0546875
vt 0.3476563 0.05078125
vt 0.3632813 0.05078125
v -6.306563 19 7.958805 1 1 1
v -4.458804 19 7.193438 1 1 1
v -4.07612 19 8.117317 1 1 1
v -5.92388 19 8.882684 1 1 1
v -4.458804 21 7.193438 1 1 1
v -6.306563 21 7.958805 1 1 1
v -5.92388 21 8.882684 1 1 1
v -4.07612 21 8.117317 1 1 1
v -4.07612 21 8.117317 1 1 1
v -5.92388 21 8.882684 1 1 1
v -5.92388 19 8.882684 1 1 1
v -4.07612 19 8.117317 1 1 1
v -6.306563 21 7.958805 1 1 1
v -4.458804 21 7.193438 1 1 1
v -4.458804 19 7.193438 1 1 1
v -6.306563 19 7.958805 1 1 1
v -4.458804 21 7.193438 1 1 1
v -4.07612 21 8.117317 1 1 1
v -4.07612 19 8.117317 1 1 1
v -4.458804 19 7.193438 1 1 1
v -5.92388 21 8.882684 1 1 1
v -6.306563 21 7.958805 1 1 1
v -6.306563 19 7.958805 1 1 1
v -5.92388 19 8.882684 1 1 1
vn 0 -1 0
vn 0 1 0
vn 0.3826834 0 0.9238796
vn -0.3826834 0 -0.9238796
vn 0.9238796 0 -0.3826834
vn -0.9238796 0 0.3826834
vt 0.2734375 0.09375
vt 0.265625 0.09375
vt 0.265625 0.09179688
vt 0.2734375 0.09179688
vt 0.265625 0.1074219
vt 0.2734375 0.1074219
vt 0.2734375 0.109375
vt 0.265625 0.109375
vt 0.375 0.078125
vt 0.3671875 0.078125
vt 0.3671875 0.07421875
vt 0.375 0.07421875
vt 0.3671875 0.0703125
vt 0.375 0.0703125
vt 0.1953125 0.03125
vt 0.1914063 0.03125
vt 0.1914063 0.02734375
vt 0.1953125 0.02734375
vt 0.1914063 0.0234375
vt 0.1953125 0.0234375
v -10 13.64805 8.228361 1 1 1
v -6 13.64805 8.228361 1 1 1
v -6 12.5 11 1 1 1
v -10 12.5 11 1 1 1
v -6 17.34357 9.759095 1 1 1
v -10 17.34357 9.759095 1 1 1
v -10 16.19552 12.53073 1 1 1
v -6 16.19552 12.53073 1 1 1
v -6 16.19552 12.53073 1 1 1
v -10 16.19552 12.53073 1 1 1
v -10 12.5 11 1 1 1
v -6 12.5 11 1 1 1
v -10 17.34357 9.759095 1 1 1
v -6 17.34357 9.759095 1 1 1
v -6 13.64805 8.228361 1 1 1
v -10 13.64805 8.228361 1 1 1
v -6 17.34357 9.759095 1 1 1
v -6 16.19552 12.53073 1 1 1
v -6 12.5 11 1 1 1
v -6 13.64805 8.228361 1 1 1
v -10 16.19552 12.53073 1 1 1
v -10 17.34357 9.759095 1 1 1
v -10 13.64805 8.228361 1 1 1
v -10 12.5 11 1 1 1
vn 0 -0.9238795 -0.3826835
vn 0 0.9238795 0.3826835
vn 0 -0.3826835 0.9238795
vn 0 0.3826835 -0.9238795
vt 0.4648438 0.04492188
vt 0.4492188 0.04492188
vt 0.4492188 0.0390625
vt 0.4648438 0.0390625
vt 0.4335938 0.0390625
vt 0.4335938 0.04492188
vt 0.4257813 0.01953125
vt 0.4101563 0.01953125
vt 0.4101563 0.01171875
vt 0.4257813 0.01171875
vt 0.4882813 0.01953125
vt 0.4726563 0.01953125
vt 0.4726563 0.01171875
vt 0.4882813 0.01171875
vt 0.3359375 0.06835938
vt 0.3242188 0.06835938
vt 0.3242188 0.06054688
vt 0.3359375 0.06054688
vt 0.3359375 0.07617188
vt 0.3242188 0.07617188
v -11 11.35195 6.228361 1 1 1
v -5 11.35195 6.228361 1 1 1
v -5 12.5 9 1 1 1
v -11 12.5 9 1 1 1
v -5 13.19971 5.462995 1 1 1
v -11 13.19971 5.462995 1 1 1
v -11 14.34776 8.234633 1 1 1
v -5 14.34776 8.234633 1 1 1
v -5 14.34776 8.234633 1 1 1
v -11 14.34776 8.234633 1 1 1
v -11 12.5 9 1 1 1
v -5 12.5 9 1 1 1
v -11 13.19971 5.462995 1 1 1
v -5 13.19971 5.462995 1 1 1
v -5 11.35195 6.228361 1 1 1
v -11 11.35195 6.228361 1 1 1
v -5 13.19971 5.462995 1 1 1
v -5 14.34776 8.234633 1 1 1
v -5 12.5 9 1 1 1
v -5 11.35195 6.228361 1 1 1
v -11 14.34776 8.234633 1 1 1
v -11 13.19971 5.462995 1 1 1
v -11 11.35195 6.228361 1 1 1
v -11 12.5 9 1 1 1
vn 0 -0.9238796 0.3826834
vn 0 0.9238796 -0.3826834
vn 0 0.3826834 0.9238796
vn 0 -0.3826834 -0.9238796
vt 0.1914063 0.0859375
vt 0.1679688 0.0859375
vt 0.1679688 0.08007813
vt 0.1914063 0.08007813
vt 0.1679688 0.06640625
vt 0.1914063 0.06640625
vt 0.1914063 0.07226563
vt 0.1679688 0.07226563
vt 0.3867188 0.01171875
vt 0.3632813 0.01171875
vt 0.3632813 0.0078125
vt 0.3867188 0.0078125
vt 0.3320313 0.01171875
vt 0.3085938 0.01171875
vt 0.3085938 0.0078125
vt 0.3320313 0.0078125
vt 0.5 0.05078125
vt 0.4882813 0.05078125
vt 0.4882813 0.046875
vt 0.5 0.046875
vt 0.3476563 0.1230469
vt 0.3359375 0.1230469
vt 0.3359375 0.1191406
vt 0.3476563 0.1191406
v -11.5412 19 7.193436 1 1 1
v -9.693437 19 7.958803 1 1 1
v -10.07612 19 8.882683 1 1 1
v -11.92388 19 8.117316 1 1 1
v -9.693437 21 7.958803 1 1 1
v -11.5412 21 7.193436 1 1 1
v -11.92388 21 8.117316 1 1 1
v -10.07612 21 8.882683 1 1 1
v -10.07612 21 8.882683 1 1 1
v -11.92388 21 8.117316 1 1 1
v -11.92388 19 8.117316 1 1 1
v -10.07612 19 8.882683 1 1 1
v -11.5412 21 7.193436 1 1 1
v -9.693437 21 7.958803 1 1 1
v -9.693437 19 7.958803 1 1 1
v -11.5412 19 7.193436 1 1 1
v -9.693437 21 7.958803 1 1 1
v -10.07612 21 8.882683 1 1 1
v -10.07612 19 8.882683 1 1 1
v -9.693437 19 7.958803 1 1 1
v -11.92388 21 8.117316 1 1 1
v -11.5412 21 7.193436 1 1 1
v -11.5412 19 7.193436 1 1 1
v -11.92388 19 8.117316 1 1 1
vn -0.3826835 0 0.9238795
vn 0.3826835 0 -0.9238795
vn 0.9238795 0 0.3826835
vn -0.9238795 0 -0.3826835
vt 0.2265625 0.125
vt 0.21875 0.125
vt 0.21875 0.1230469
vt 0.2265625 0.1230469
vt 0.21875 0.1035156
vt 0.2265625 0.1035156
vt 0.2265625 0.1054688
vt 0.21875 0.1054688
vt 0.4453125 0.06054688
vt 0.4375 0.06054688
vt 0.4375 0.05664063
vt 0.4453125 0.05664063
vt 0.4765625 0.06054688
vt 0.46875 0.06054688
vt 0.46875 0.05664063
vt 0.4765625 0.05664063
vt 0.1289063 0.1035156
vt 0.125 0.1035156
vt 0.125 0.09960938
vt 0.1289063 0.09960938
vt 0.1289063 0.078125
vt 0.125 0.078125
vt 0.125 0.07421875
vt 0.1289063 0.07421875
v -9.75 13.53073 10.30448 1 1 1
v -6.25 13.53073 10.30448 1 1 1
v -6.25 12 14 1 1 1
v -9.75 12 14 1 1 1
v -6.25 14.45461 10.68717 1 1 1
v -9.75 14.45461 10.68717 1 1 1
v -9.75 12.92388 14.38268 1 1 1
v -6.25 12.92388 14.38268 1 1 1
v -6.25 12.92388 14.38268 1 1 1
v -9.75 12.92388 14.38268 1 1 1
v -9.75 12 14 1 1 1
v -6.25 12 14 1 1 1
v -9.75 14.45461 10.68717 1 1 1
v -6.25 14.45461 10.68717 1 1 1
v -6.25 13.53073 10.30448 1 1 1
v -9.75 13.53073 10.30448 1 1 1
v -6.25 14.45461 10.68717 1 1 1
v -6.25 12.92388 14.38268 1 1 1
v -6.25 12 14 1 1 1
v -6.25 13.53073 10.30448 1 1 1
v -9.75 12.92388 14.38268 1 1 1
v -9.75 14.45461 10.68717 1 1 1
v -9.75 13.53073 10.30448 1 1 1
v -9.75 12 14 1 1 1
vt 0.3242188 0.1113281
vt 0.3125 0.1113281
vt 0.3125 0.1035156
vt 0.3242188 0.1035156
vt 0.3125 0.08007813
vt 0.3242188 0.08007813
vt 0.3242188 0.08789063
vt 0.3125 0.08789063
vt 0.2773438 0.0625
vt 0.265625 0.0625
vt 0.265625 0.06054688
vt 0.2773438 0.06054688
vt 0.2773438 0.078125
vt 0.265625 0.078125
vt 0.265625 0.07617188
vt 0.2773438 0.07617188
vt 0.4335938 0.01171875
vt 0.4179688 0.01171875
vt 0.4179688 0.009765625
vt 0.4335938 0.009765625
vt 0.453125 0.01171875
vt 0.4375 0.01171875
vt 0.4375 0.009765625
vt 0.453125 0.009765625
v -6.121321 15.5 8.59594 1 1 1
v -4.707107 15.5 7.181726 1 1 1
v -3.292893 15.5 8.59594 1 1 1
v -4.707107 15.5 10.01015 1 1 1
v -4.707107 18.5 7.181726 1 1 1
v -6.121321 18.5 8.59594 1 1 1
v -4.707107 18.5 10.01015 1 1 1
v -3.292893 18.5 8.59594 1 1 1
v -3.292893 18.5 8.59594 1 1 1
v -4.707107 18.5 10.01015 1 1 1
v -4.707107 15.5 10.01015 1 1 1
v -3.292893 15.5 8.59594 1 1 1
v -6.121321 18.5 8.59594 1 1 1
v -4.707107 18.5 7.181726 1 1 1
v -4.707107 15.5 7.181726 1 1 1
v -6.121321 15.5 8.59594 1 1 1
v -4.707107 18.5 7.181726 1 1 1
v -3.292893 18.5 8.59594 1 1 1
v -3.292893 15.5 8.59594 1 1 1
v -4.707107 15.5 7.181726 1 1 1
v -4.707107 18.5 10.01015 1 1 1
v -6.121321 18.5 8.59594 1 1 1
v -6.121321 15.5 8.59594 1 1 1
v -4.707107 15.5 10.01015 1 1 1
vn 0.7071068 0 0.7071067
vn -0.7071068 0 -0.7071067
vn 0.7071067 0 -0.7071068
vn -0.7071067 0 0.7071068
vt 0.4296875 0.06054688
vt 0.4296875 0.05664063
vt 0.359375 0.1210938
vt 0.3671875 0.1210938
vt 0.3671875 0.125
vt 0.359375 0.125
vt 0.2265625 0.1113281
vt 0.21875 0.1113281
vt 0.21875 0.09765625
vt 0.2265625 0.09765625
vt 0.21875 0.09179688
vt 0.2265625 0.09179688
vt 0.21875 0.0859375
vt 0.2265625 0.0859375
v -5.5 12.5 5.525147 1 1 1
v -2.671573 12.5 8.353575 1 1 1
v -5.5 12.5 11.182 1 1 1
v -8.328426 12.5 8.353574 1 1 1
v -2.671573 15.5 8.353575 1 1 1
v -5.5 15.5 5.525147 1 1 1
v -8.328426 15.5 8.353574 1 1 1
v -5.5 15.5 11.182 1 1 1
v -5.5 15.5 11.182 1 1 1
v -8.328426 15.5 8.353574 1 1 1
v -8.328426 12.5 8.353574 1 1 1
v -5.5 12.5 11.182 1 1 1
v -5.5 15.5 5.525147 1 1 1
v -2.671573 15.5 8.353575 1 1 1
v -2.671573 12.5 8.353575 1 1 1
v -5.5 12.5 5.525147 1 1 1
v -2.671573 15.5 8.353575 1 1 1
v -5.5 15.5 11.182 1 1 1
v -5.5 12.5 11.182 1 1 1
v -2.671573 12.5 8.353575 1 1 1
v -8.328426 15.5 8.353574 1 1 1
v -5.5 15.5 5.525147 1 1 1
v -5.5 12.5 5.525147 1 1 1
v -8.328426 12.5 8.353574 1 1 1
vn -0.7071068 0 0.7071067
vn 0.7071068 0 -0.7071067
vn 0.7071067 0 0.7071068
vn -0.7071067 0 -0.7071068
vt 0.421875 0.0390625
vt 0.40625 0.0390625
vt 0.40625 0.03125
vt 0.421875 0.03125
vt 0.390625 0.03125
vt 0.390625 0.0390625
vt 0.4179688 0.04492188
vt 0.4179688 0.0390625
vt 0.4804688 0.04492188
vt 0.4804688 0.0390625
vt 0.4023438 0.04492188
vt 0.4023438 0.0390625
vt 0.3867188 0.04492188
vt 0.3867188 0.0390625
v -9.75 13.47835 12 1 1 1
v -6.25 13.47835 12 1 1 1
v -6.25 14.43506 14.3097 1 1 1
v -9.75 14.43506 14.3097 1 1 1
v -6.25 16.24999 10.85195 1 1 1
v -9.75 16.24999 10.85195 1 1 1
v -9.75 17.2067 13.16165 1 1 1
v -6.25 17.2067 13.16165 1 1 1
v -6.25 17.2067 13.16165 1 1 1
v -9.75 17.2067 13.16165 1 1 1
v -9.75 14.43506 14.3097 1 1 1
v -6.25 14.43506 14.3097 1 1 1
v -9.75 16.24999 10.85195 1 1 1
v -6.25 16.24999 10.85195 1 1 1
v -6.25 13.47835 12 1 1 1
v -9.75 13.47835 12 1 1 1
v -6.25 16.24999 10.85195 1 1 1
v -6.25 17.2067 13.16165 1 1 1
v -6.25 14.43506 14.3097 1 1 1
v -6.25 13.47835 12 1 1 1
v -9.75 17.2067 13.16165 1 1 1
v -9.75 16.24999 10.85195 1 1 1
v -9.75 13.47835 12 1 1 1
v -9.75 14.43506 14.3097 1 1 1
vt 0.3476563 0.06835938
vt 0.3359375 0.06445313
vt 0.3476563 0.06445313
vt 0.3476563 0.06054688
vt 0.3242188 0.125
vt 0.3125 0.125
vt 0.3125 0.1191406
vt 0.3242188 0.1191406
vt 0.3242188 0.1132813
vt 0.3359375 0.1132813
vt 0.2265625 0.08007813
vt 0.21875 0.08007813
vt 0.21875 0.07421875
vt 0.2265625 0.07421875
v -12.62132 15.5 8.59594 1 1 1
v -11.20711 15.5 7.181726 1 1 1
v -9.792893 15.5 8.59594 1 1 1
v -11.20711 15.5 10.01015 1 1 1
v -11.20711 18.5 7.181726 1 1 1
v -12.62132 18.5 8.59594 1 1 1
v -11.20711 18.5 10.01015 1 1 1
v -9.792893 18.5 8.59594 1 1 1
v -9.792893 18.5 8.59594 1 1 1
v -11.20711 18.5 10.01015 1 1 1
v -11.20711 15.5 10.01015 1 1 1
v -9.792893 15.5 8.59594 1 1 1
v -12.62132 18.5 8.59594 1 1 1
v -11.20711 18.5 7.181726 1 1 1
v -11.20711 15.5 7.181726 1 1 1
v -12.62132 15.5 8.59594 1 1 1
v -11.20711 18.5 7.181726 1 1 1
v -9.792893 18.5 8.59594 1 1 1
v -9.792893 15.5 8.59594 1 1 1
v -11.20711 15.5 7.181726 1 1 1
v -11.20711 18.5 10.01015 1 1 1
v -12.62132 18.5 8.59594 1 1 1
v -12.62132 15.5 8.59594 1 1 1
v -11.20711 15.5 10.01015 1 1 1
vt 0.2265625 0.06640625
vt 0.21875 0.06640625
vt 0.21875 0.0625
vt 0.2265625 0.0625
vt 0.1953125 0.125
vt 0.1875 0.125
vt 0.15625 0.125
vt 0.1484375 0.125
vt 0.1484375 0.1191406
vt 0.15625 0.1191406
vt 0.1953125 0.09960938
vt 0.1875 0.09960938
vt 0.1875 0.09375
vt 0.1953125 0.09375
vt 0.3554688 0.0703125
vt 0.3476563 0.0703125
vt 0.3554688 0.06445313
vt 0.3476563 0.05859375
vt 0.3554688 0.05859375
v -10.5 12.5 5.525146 1 1 1
v -7.671573 12.5 8.353573 1 1 1
v -10.5 12.5 11.182 1 1 1
v -13.32843 12.5 8.353573 1 1 1
v -7.671573 15.5 8.353573 1 1 1
v -10.5 15.5 5.525146 1 1 1
v -13.32843 15.5 8.353573 1 1 1
v -10.5 15.5 11.182 1 1 1
v -10.5 15.5 11.182 1 1 1
v -13.32843 15.5 8.353573 1 1 1
v -13.32843 12.5 8.353573 1 1 1
v -10.5 12.5 11.182 1 1 1
v -10.5 15.5 5.525146 1 1 1
v -7.671573 15.5 8.353573 1 1 1
v -7.671573 12.5 8.353573 1 1 1
v -10.5 12.5 5.525146 1 1 1
v -7.671573 15.5 8.353573 1 1 1
v -10.5 15.5 11.182 1 1 1
v -10.5 12.5 11.182 1 1 1
v -7.671573 12.5 8.353573 1 1 1
v -13.32843 15.5 8.353573 1 1 1
v -10.5 15.5 5.525146 1 1 1
v -10.5 12.5 5.525146 1 1 1
v -13.32843 12.5 8.353573 1 1 1
vt 0.375 0.0390625
vt 0.375 0.03125
vt 0.34375 0.03125
vt 0.359375 0.03125
vt 0.359375 0.0390625
vt 0.34375 0.0390625
vt 0.3398438 0.04492188
vt 0.3242188 0.04492188
vt 0.3242188 0.0390625
vt 0.3398438 0.0390625
vt 0.3554688 0.04492188
vt 0.3554688 0.0390625
vt 0.3710938 0.04492188
vt 0.3710938 0.0390625
v -11 18 7.5 1 1 1
v -5 18 7.5 1 1 1
v -5 18 10.5 1 1 1
v -11 18 10.5 1 1 1
v -5 20 7.5 1 1 1
v -11 20 7.5 1 1 1
v -11 20 10.5 1 1 1
v -5 20 10.5 1 1 1
v -5 20 10.5 1 1 1
v -11 20 10.5 1 1 1
v -11 18 10.5 1 1 1
v -5 18 10.5 1 1 1
v -11 20 7.5 1 1 1
v -5 20 7.5 1 1 1
v -5 18 7.5 1 1 1
v -11 18 7.5 1 1 1
v -5 20 7.5 1 1 1
v -5 20 10.5 1 1 1
v -5 18 10.5 1 1 1
v -5 18 7.5 1 1 1
v -11 20 10.5 1 1 1
v -11 20 7.5 1 1 1
v -11 18 7.5 1 1 1
v -11 18 10.5 1 1 1
vn 0 0 1
vn 0 0 -1
vt 0.125 0.08007813
vt 0.1015625 0.08007813
vt 0.1015625 0.07421875
vt 0.1015625 0.09960938
vt 0.125 0.1054688
vt 0.1015625 0.1054688
vt 0.4140625 0.01171875
vt 0.390625 0.01171875
vt 0.390625 0.0078125
vt 0.4140625 0.0078125
vt 0.359375 0.01171875
vt 0.3359375 0.01171875
vt 0.3359375 0.0078125
vt 0.359375 0.0078125
vt 0.359375 0.05859375
vt 0.359375 0.0546875
vt 0.5 0.0546875
vt 0.4882813 0.0546875
v -10.5 15.64805 9.228361 1 1 1
v -5.5 15.64805 9.228361 1 1 1
v -5.5 14.5 12 1 1 1
v -10.5 14.5 12 1 1 1
v -5.5 19.34357 10.7591 1 1 1
v -10.5 19.34357 10.7591 1 1 1
v -10.5 18.19552 13.53073 1 1 1
v -5.5 18.19552 13.53073 1 1 1
v -5.5 18.19552 13.53073 1 1 1
v -10.5 18.19552 13.53073 1 1 1
v -10.5 14.5 12 1 1 1
v -5.5 14.5 12 1 1 1
v -10.5 19.34357 10.7591 1 1 1
v -5.5 19.34357 10.7591 1 1 1
v -5.5 15.64805 9.228361 1 1 1
v -10.5 15.64805 9.228361 1 1 1
v -5.5 19.34357 10.7591 1 1 1
v -5.5 18.19552 13.53073 1 1 1
v -5.5 14.5 12 1 1 1
v -5.5 15.64805 9.228361 1 1 1
v -10.5 18.19552 13.53073 1 1 1
v -10.5 19.34357 10.7591 1 1 1
v -10.5 15.64805 9.228361 1 1 1
v -10.5 14.5 12 1 1 1
vt 0.1679688 0.09960938
vt 0.1679688 0.09375
vt 0.1289063 0.1191406
vt 0.1289063 0.125
vt 0.390625 0.01953125
vt 0.3710938 0.01953125
vt 0.3710938 0.01171875
vt 0.3242188 0.09570313
vt 0.3125 0.09570313
v -10 13.76537 12.65224 1 1 1
v -6 13.76537 12.65224 1 1 1
v -6 13 14.5 1 1 1
v -10 13 14.5 1 1 1
v -6 15.61313 13.41761 1 1 1
v -10 15.61313 13.41761 1 1 1
v -10 14.84776 15.26537 1 1 1
v -6 14.84776 15.26537 1 1 1
v -6 14.84776 15.26537 1 1 1
v -10 14.84776 15.26537 1 1 1
v -10 13 14.5 1 1 1
v -6 13 14.5 1 1 1
v -10 15.61313 13.41761 1 1 1
v -6 15.61313 13.41761 1 1 1
v -6 13.76537 12.65224 1 1 1
v -10 13.76537 12.65224 1 1 1
v -6 15.61313 13.41761 1 1 1
v -6 14.84776 15.26537 1 1 1
v -6 13 14.5 1 1 1
v -6 13.76537 12.65224 1 1 1
v -10 14.84776 15.26537 1 1 1
v -10 15.61313 13.41761 1 1 1
v -10 13.76537 12.65224 1 1 1
v -10 13 14.5 1 1 1
vt 0.4101563 0.05078125
vt 0.3945313 0.05078125
vt 0.3945313 0.046875
vt 0.4101563 0.046875
vt 0.4414063 0.015625
vt 0.4570313 0.015625
vt 0.4570313 0.01953125
vt 0.4414063 0.01953125
vt 0.4257813 0.046875
vt 0.4726563 0.05078125
vt 0.4726563 0.046875
vt 0.3828125 0.06640625
vt 0.3828125 0.0625
vt 0.3671875 0.08984375
vt 0.375 0.08984375
v -11 12.5 7.5 1 1 1
v -5 12.5 7.5 1 1 1
v -5 12.5 11.5 1 1 1
v -11 12.5 11.5 1 1 1
v -5 16.5 7.5 1 1 1
v -11 16.5 7.5 1 1 1
v -11 16.5 11.5 1 1 1
v -5 16.5 11.5 1 1 1
v -5 16.5 11.5 1 1 1
v -11 16.5 11.5 1 1 1
v -11 12.5 11.5 1 1 1
v -5 12.5 11.5 1 1 1
v -11 16.5 7.5 1 1 1
v -5 16.5 7.5 1 1 1
v -5 12.5 7.5 1 1 1
v -11 12.5 7.5 1 1 1
v -5 16.5 7.5 1 1 1
v -5 16.5 11.5 1 1 1
v -5 12.5 11.5 1 1 1
v -5 12.5 7.5 1 1 1
v -11 16.5 11.5 1 1 1
v -11 16.5 7.5 1 1 1
v -11 12.5 7.5 1 1 1
v -11 12.5 11.5 1 1 1
vt 0.25 0.125
vt 0.2265625 0.1171875
vt 0.25 0.1171875
vt 0.3007813 0.01171875
vt 0.3242188 0.01171875
vt 0.3242188 0.01953125
vt 0.3007813 0.01953125
vt 0.3476563 0.01953125
vt 0.3476563 0.01171875
vt 0.328125 0.0390625
vt 0.3125 0.0390625
vt 0.3125 0.03125
vt 0.328125 0.03125
v -11.5 15.5 7.5 1 1 1
v -4.5 15.5 7.5 1 1 1
v -4.5 15.5 11.5 1 1 1
v -11.5 15.5 11.5 1 1 1
v -4.5 19.5 7.5 1 1 1
v -11.5 19.5 7.5 1 1 1
v -11.5 19.5 11.5 1 1 1
v -4.5 19.5 11.5 1 1 1
v -4.5 19.5 11.5 1 1 1
v -11.5 19.5 11.5 1 1 1
v -11.5 15.5 11.5 1 1 1
v -4.5 15.5 11.5 1 1 1
v -11.5 19.5 7.5 1 1 1
v -4.5 19.5 7.5 1 1 1
v -4.5 15.5 7.5 1 1 1
v -11.5 15.5 7.5 1 1 1
v -4.5 19.5 7.5 1 1 1
v -4.5 19.5 11.5 1 1 1
v -4.5 15.5 11.5 1 1 1
v -4.5 15.5 7.5 1 1 1
v -11.5 19.5 11.5 1 1 1
v -11.5 19.5 7.5 1 1 1
v -11.5 15.5 7.5 1 1 1
v -11.5 15.5 11.5 1 1 1
vt 0.3085938 0
vt 0.3359375 0
vt 0.3632813 0
vt 0.390625 0
vt 0.4179688 0.0078125
vt 0.4179688 0
vt 0.4570313 0.01171875
g Element #1
usemtl Element
f 1/1/1 2/2/1 4/4/1
f 2/2/1 3/3/1 4/4/1
f 5/5/2 6/6/2 8/8/2
f 6/6/2 7/7/2 8/8/2
f 9/9/3 10/10/3 12/12/3
f 10/10/3 11/11/3 12/12/3
f 13/13/4 14/14/4 16/16/4
f 14/14/4 15/15/4 16/16/4
f 17/17/5 18/18/5 20/20/5
f 18/18/5 19/19/5 20/20/5
f 21/21/6 22/22/6 24/24/6
f 22/22/6 23/23/6 24/24/6
g Element #5
usemtl Element
f 25/25/7 26/26/7 28/28/7
f 26/26/7 27/27/7 28/28/7
f 29/29/8 30/30/8 32/32/8
f 30/30/8 31/31/8 32/32/8
f 33/33/9 34/34/9 36/36/9
f 34/34/9 35/35/9 36/36/9
f 37/36/10 38/35/10 40/38/10
f 38/35/10 39/37/10 40/38/10
f 41/39/11 42/40/11 44/42/11
f 42/40/11 43/41/11 44/42/11
f 45/42/12 46/41/12 48/44/12
f 46/41/12 47/43/12 48/44/12
g Element #6
usemtl Element
f 49/45/13 50/46/13 52/48/13
f 50/46/13 51/47/13 52/48/13
f 53/49/14 54/47/14 56/50/14
f 54/47/14 55/46/14 56/50/14
f 57/51/15 58/52/15 60/54/15
f 58/52/15 59/53/15 60/54/15
f 61/55/16 62/56/16 64/58/16
f 62/56/16 63/57/16 64/58/16
f 65/59/5 66/60/5 68/62/5
f 66/60/5 67/61/5 68/62/5
f 69/63/6 70/64/6 72/59/6
f 70/64/6 71/60/6 72/59/6
g Element #7
usemtl Element
f 73/65/17 74/66/17 76/68/17
f 74/66/17 75/67/17 76/68/17
f 77/69/18 78/70/18 80/72/18
f 78/70/18 79/71/18 80/72/18
f 81/73/19 82/74/19 84/76/19
f 82/74/19 83/75/19 84/76/19
f 85/77/20 86/78/20 88/80/20
f 86/78/20 87/79/20 88/80/20
f 89/81/5 90/82/5 92/84/5
f 90/82/5 91/83/5 92/84/5
f 93/85/6 94/86/6 96/88/6
f 94/86/6 95/87/6 96/88/6
g Element #8
usemtl Element
f 97/89/7 98/90/7 100/92/7
f 98/90/7 99/91/7 100/92/7
f 101/93/8 102/94/8 104/96/8
f 102/94/8 103/95/8 104/96/8
f 105/97/21 106/98/21 108/100/21
f 106/98/21 107/99/21 108/100/21
f 109/101/22 110/102/22 112/104/22
f 110/102/22 111/103/22 112/104/22
f 113/105/23 114/106/23 116/108/23
f 114/106/23 115/107/23 116/108/23
f 117/109/24 118/110/24 120/112/24
f 118/110/24 119/111/24 120/112/24
g Element #9
usemtl Element
f 121/113/13 122/114/13 124/116/13
f 122/114/13 123/115/13 124/116/13
f 125/117/14 126/118/14 128/120/14
f 126/118/14 127/119/14 128/120/14
f 129/121/15 130/122/15 132/124/15
f 130/122/15 131/123/15 132/124/15
f 133/125/16 134/126/16 136/128/16
f 134/126/16 135/127/16 136/128/16
f 137/129/5 138/130/5 140/132/5
f 138/130/5 139/131/5 140/132/5
f 141/133/6 142/134/6 144/136/6
f 142/134/6 143/135/6 144/136/6
g Element #11
usemtl Element
f 145/98/7 146/137/7 148/99/7
f 146/137/7 147/138/7 148/99/7
f 149/139/8 150/140/8 152/142/8
f 150/140/8 151/141/8 152/142/8
f 153/143/25 154/144/25 156/95/25
f 154/144/25 155/96/25 156/95/25
f 157/94/26 158/93/26 160/146/26
f 158/93/26 159/145/26 160/146/26
f 161/146/27 162/145/27 164/148/27
f 162/145/27 163/147/27 164/148/27
f 165/148/28 166/147/28 168/150/28
f 166/147/28 167/149/28 168/150/28
g Element #12
usemtl Element
f 169/151/7 170/152/7 172/154/7
f 170/152/7 171/153/7 172/154/7
f 173/155/8 174/153/8 176/156/8
f 174/153/8 175/152/8 176/156/8
f 177/50/29 178/157/29 180/49/29
f 178/157/29 179/158/29 180/49/29
f 181/159/30 182/45/30 184/160/30
f 182/45/30 183/48/30 184/160/30
f 185/157/31 186/161/31 188/158/31
f 186/161/31 187/162/31 188/158/31
f 189/161/32 190/163/32 192/162/32
f 190/163/32 191/164/32 192/162/32
g Element #13
usemtl Element
f 193/165/17 194/59/17 196/167/17
f 194/59/17 195/166/17 196/167/17
f 197/62/18 198/168/18 200/166/18
f 198/168/18 199/167/18 200/166/18
f 201/169/19 202/170/19 204/172/19
f 202/170/19 203/171/19 204/172/19
f 205/87/20 206/172/20 208/174/20
f 206/172/20 207/173/20 208/174/20
f 209/175/5 210/150/5 212/176/5
f 210/150/5 211/149/5 212/176/5
f 213/176/6 214/177/6 216/175/6
f 214/177/6 215/178/6 216/175/6
g Element #14
usemtl Element
f 217/179/7 218/180/7 220/182/7
f 218/180/7 219/181/7 220/182/7
f 221/8/8 222/7/8 224/184/8
f 222/7/8 223/183/8 224/184/8
f 225/185/25 226/186/25 228/188/25
f 226/186/25 227/187/25 228/188/25
f 229/189/26 230/190/26 232/192/26
f 230/190/26 231/191/26 232/192/26
f 233/193/27 234/194/27 236/195/27
f 234/194/27 235/167/27 236/195/27
f 237/195/28 238/167/28 240/197/28
f 238/167/28 239/196/28 240/197/28
g Element #15
usemtl Element
f 241/156/7 242/198/7 244/155/7
f 242/198/7 243/199/7 244/155/7
f 245/200/8 246/201/8 248/203/8
f 246/201/8 247/202/8 248/203/8
f 249/204/29 250/205/29 252/207/29
f 250/205/29 251/206/29 252/207/29
f 253/208/30 254/204/30 256/209/30
f 254/204/30 255/207/30 256/209/30
f 257/210/31 258/208/31 260/211/31
f 258/208/31 259/209/31 260/211/31
f 261/163/32 262/210/32 264/164/32
f 262/210/32 263/211/32 264/164/32
g Element #16
usemtl Element
f 265/212/7 266/213/7 268/111/7
f 266/213/7 267/214/7 268/111/7
f 269/215/8 270/107/8 272/217/8
f 270/107/8 271/216/8 272/217/8
f 273/218/33 274/219/33 276/221/33
f 274/219/33 275/220/33 276/221/33
f 277/222/34 278/223/34 280/225/34
f 278/223/34 279/224/34 280/225/34
f 281/226/5 282/196/5 284/227/5
f 282/196/5 283/22/5 284/227/5
f 285/228/6 286/229/6 288/81/6
f 286/229/6 287/82/6 288/81/6
g Element #19
usemtl Element
f 289/190/13 290/230/13 292/191/13
f 290/230/13 291/231/13 292/191/13
f 293/232/14 294/187/14 296/233/14
f 294/187/14 295/186/14 296/233/14
f 297/234/15 298/235/15 300/219/15
f 298/235/15 299/236/15 300/219/15
f 301/52/16 302/234/16 304/53/16
f 302/234/16 303/219/16 304/53/16
f 305/237/5 306/238/5 308/119/5
f 306/238/5 307/120/5 308/119/5
f 309/116/6 310/115/6 312/237/6
f 310/115/6 311/238/6 312/237/6
g Element #20
usemtl Element
f 313/239/13 314/240/13 316/242/13
f 314/240/13 315/241/13 316/242/13
f 317/243/14 318/244/14 320/246/14
f 318/244/14 319/245/14 320/246/14
f 321/19/15 322/239/15 324/247/15
f 322/239/15 323/242/15 324/247/15
f 325/82/16 326/248/16 328/83/16
f 326/248/16 327/249/16 328/83/16
f 329/14/5 330/250/5 332/15/5
f 330/250/5 331/251/5 332/15/5
f 333/12/6 334/11/6 336/253/6
f 334/11/6 335/252/6 336/253/6
g Element #21
usemtl Element
f 337/254/7 338/89/7 340/256/7
f 338/89/7 339/255/7 340/256/7
f 341/257/8 342/258/8 344/260/8
f 342/258/8 343/259/8 344/260/8
f 345/261/33 346/259/33 348/262/33
f 346/259/33 347/258/33 348/262/33
f 349/235/34 350/261/34 352/236/34
f 350/261/34 351/262/34 352/236/34
f 353/263/5 354/264/5 356/266/5
f 354/264/5 355/265/5 356/266/5
f 357/203/6 358/263/6 360/200/6
f 358/263/6 359/266/6 360/200/6
g Element #43
usemtl Element
f 361/224/7 362/79/7 364/268/7
f 362/79/7 363/267/7 364/268/7
f 365/268/8 366/269/8 368/224/8
f 366/269/8 367/75/8 368/224/8
f 369/220/33 370/75/33 372/270/33
f 370/75/33 371/269/33 372/270/33
f 373/271/34 374/220/34 376/272/34
f 374/220/34 375/270/34 376/272/34
f 377/198/5 378/202/5 380/199/5
f 378/202/5 379/201/5 380/199/5
f 381/56/6 382/245/6 384/57/6
f 382/245/6 383/273/6 384/57/6
