# Export of Cubik Model: Cubik Model
# Designed by Zhouyi with Cubik Studio - https://cubik.studio
# from Cubik OBJ Exporter v1.0
mtllib tiget.mtl
v -14.1 9.796101 -5.543277 1 1 1
v -11.1 9.796101 -5.543277 1 1 1
v -11.1 7.5 0 1 1 1
v -14.1 7.5 0 1 1 1
v -11.1 19.0349 -1.716442 1 1 1
v -14.1 19.0349 -1.716442 1 1 1
v -14.1 16.7388 3.826835 1 1 1
v -11.1 16.7388 3.826835 1 1 1
v -11.1 16.7388 3.826835 1 1 1
v -14.1 16.7388 3.826835 1 1 1
v -14.1 7.5 0 1 1 1
v -11.1 7.5 0 1 1 1
v -14.1 19.0349 -1.716442 1 1 1
v -11.1 19.0349 -1.716442 1 1 1
v -11.1 9.796101 -5.543277 1 1 1
v -14.1 9.796101 -5.543277 1 1 1
v -11.1 19.0349 -1.716442 1 1 1
v -11.1 16.7388 3.826835 1 1 1
v -11.1 7.5 0 1 1 1
v -11.1 9.796101 -5.543277 1 1 1
v -14.1 16.7388 3.826835 1 1 1
v -14.1 19.0349 -1.716442 1 1 1
v -14.1 9.796101 -5.543277 1 1 1
v -14.1 7.5 0 1 1 1
vn 0 -0.9238795 -0.3826835
vn 0 0.9238795 0.3826835
vn 0 -0.3826835 0.9238795
vn 0 0.3826835 -0.9238795
vn 1 0 0
vn -1 0 0
vt 0.3007813 0.1230469
vt 0.2890625 0.1230469
vt 0.2890625 0.1113281
vt 0.3007813 0.1113281
vt 0.3007813 0.04296875
vt 0.3125 0.04296875
vt 0.3125 0.0546875
vt 0.3007813 0.0546875
vt 0.3007813 0.03125
vt 0.2890625 0.03125
vt 0.2890625 0.01171875
vt 0.3007813 0.01171875
vt 0.2773438 0.03125
vt 0.2773438 0.01171875
vt 0.25 0.01953125
vt 0.2265625 0.01953125
vt 0.2265625 0
vt 0.25 0
vt 0.21875 0.125
vt 0.1953125 0.125
vt 0.1953125 0.1054688
vt 0.21875 0.1054688
v -14 5.5 -5 1 1 1
v -11 5.5 -5 1 1 1
v -11 5.5 0 1 1 1
v -14 5.5 0 1 1 1
v -11 10.5 -5 1 1 1
v -14 10.5 -5 1 1 1
v -14 10.5 0 1 1 1
v -11 10.5 0 1 1 1
v -11 10.5 0 1 1 1
v -14 10.5 0 1 1 1
v -14 5.5 0 1 1 1
v -11 5.5 0 1 1 1
v -14 10.5 -5 1 1 1
v -11 10.5 -5 1 1 1
v -11 5.5 -5 1 1 1
v -14 5.5 -5 1 1 1
v -11 10.5 -5 1 1 1
v -11 10.5 0 1 1 1
v -11 5.5 0 1 1 1
v -11 5.5 -5 1 1 1
v -14 10.5 0 1 1 1
v -14 10.5 -5 1 1 1
v -14 5.5 -5 1 1 1
v -14 5.5 0 1 1 1
vn 0 -1 0
vn 0 1 0
vn 0 0 1
vn 0 0 -1
vt 0.3125 0.09375
vt 0.3007813 0.09375
vt 0.3007813 0.08398438
vt 0.3125 0.08398438
vt 0.3007813 0.1035156
vt 0.3125 0.1035156
vt 0.3125 0.1132813
vt 0.3007813 0.1132813
vt 0.3125 0.1230469
vt 0.3242188 0.04882813
vt 0.3125 0.04882813
vt 0.3125 0.0390625
vt 0.3242188 0.0390625
vt 0.4960938 0.009765625
vt 0.4765625 0.009765625
vt 0.4765625 0
vt 0.4960938 0
vt 0.4375 0.009765625
vt 0.4179688 0.009765625
vt 0.4179688 0
vt 0.4375 0
v -14 1 -3.5 1 1 1
v -11 1 -3.5 1 1 1
v -11 1 0 1 1 1
v -14 1 0 1 1 1
v -11 7.5 -3.5 1 1 1
v -14 7.5 -3.5 1 1 1
v -14 7.5 0 1 1 1
v -11 7.5 0 1 1 1
v -11 7.5 0 1 1 1
v -14 7.5 0 1 1 1
v -14 1 0 1 1 1
v -11 1 0 1 1 1
v -14 7.5 -3.5 1 1 1
v -11 7.5 -3.5 1 1 1
v -11 1 -3.5 1 1 1
v -14 1 -3.5 1 1 1
v -11 7.5 -3.5 1 1 1
v -11 7.5 0 1 1 1
v -11 1 0 1 1 1
v -11 1 -3.5 1 1 1
v -14 7.5 0 1 1 1
v -14 7.5 -3.5 1 1 1
v -14 1 -3.5 1 1 1
v -14 1 0 1 1 1
vt 0.4921875 0.04492188
vt 0.4804688 0.04492188
vt 0.4804688 0.0390625
vt 0.4921875 0.0390625
vt 0.3242188 0.08398438
vt 0.3359375 0.08398438
vt 0.3359375 0.08984375
vt 0.3242188 0.08984375
vt 0.3125 0.03125
vt 0.5 0.03125
vt 0.4882813 0.03125
vt 0.4882813 0.01953125
vt 0.5 0.01953125
vt 0.4765625 0.03125
vt 0.4765625 0.01953125
vt 0.4648438 0.03125
vt 0.4648438 0.01953125
v -14.25 0 -2 1 1 1
v -10.75 0 -2 1 1 1
v -10.75 0 2 1 1 1
v -14.25 0 2 1 1 1
v -10.75 2 -2 1 1 1
v -14.25 2 -2 1 1 1
v -14.25 2 2 1 1 1
v -10.75 2 2 1 1 1
v -10.75 2 2 1 1 1
v -14.25 2 2 1 1 1
v -14.25 0 2 1 1 1
v -10.75 0 2 1 1 1
v -14.25 2 -2 1 1 1
v -10.75 2 -2 1 1 1
v -10.75 0 -2 1 1 1
v -14.25 0 -2 1 1 1
v -10.75 2 -2 1 1 1
v -10.75 2 2 1 1 1
v -10.75 0 2 1 1 1
v -10.75 0 -2 1 1 1
v -14.25 2 2 1 1 1
v -14.25 2 -2 1 1 1
v -14.25 0 -2 1 1 1
v -14.25 0 2 1 1 1
vt 0.3242188 0.07617188
vt 0.3359375 0.07617188
vt 0.3125 0.05664063
vt 0.3242188 0.05664063
vt 0.3242188 0.06445313
vt 0.3125 0.06445313
vt 0.3476563 0.08007813
vt 0.3359375 0.08007813
vt 0.3476563 0.07617188
vt 0.3476563 0.08398438
vt 0.4101563 0.0546875
vt 0.3945313 0.0546875
vt 0.3945313 0.05078125
vt 0.4101563 0.05078125
vt 0.4257813 0.0546875
vt 0.4257813 0.05078125
g Element #9
usemtl Element
f 1/1/1 2/2/1 4/4/1
f 2/2/1 3/3/1 4/4/1
f 5/5/2 6/6/2 8/8/2
f 6/6/2 7/7/2 8/8/2
f 9/9/3 10/10/3 12/12/3
f 10/10/3 11/11/3 12/12/3
f 13/10/4 14/13/4 16/11/4
f 14/13/4 15/14/4 16/11/4
f 17/15/5 18/16/5 20/18/5
f 18/16/5 19/17/5 20/18/5
f 21/19/6 22/20/6 24/22/6
f 22/20/6 23/21/6 24/22/6
g Element #10
usemtl Element
f 25/23/7 26/24/7 28/26/7
f 26/24/7 27/25/7 28/26/7
f 29/27/8 30/28/8 32/30/8
f 30/28/8 31/29/8 32/30/8
f 33/31/9 34/1/9 36/29/9
f 34/1/9 35/30/9 36/29/9
f 37/32/10 38/33/10 40/35/10
f 38/33/10 39/34/10 40/35/10
f 41/36/5 42/37/5 44/39/5
f 42/37/5 43/38/5 44/39/5
f 45/40/6 46/41/6 48/43/6
f 46/41/6 47/42/6 48/43/6
g Element #11
usemtl Element
f 49/44/7 50/45/7 52/47/7
f 50/45/7 51/46/7 52/47/7
f 53/48/8 54/49/8 56/51/8
f 54/49/8 55/50/8 56/51/8
f 57/6/9 58/5/9 60/52/9
f 58/5/9 59/9/9 60/52/9
f 61/53/10 62/54/10 64/56/10
f 62/54/10 63/55/10 64/56/10
f 65/54/5 66/57/5 68/55/5
f 66/57/5 67/58/5 68/55/5
f 69/57/6 70/59/6 72/58/6
f 70/59/6 71/60/6 72/58/6
g Element #12
usemtl Element
f 73/49/7 74/48/7 76/62/7
f 74/48/7 75/61/7 76/62/7
f 77/63/8 78/64/8 80/66/8
f 78/64/8 79/65/8 80/66/8
f 81/67/9 82/68/9 84/69/9
f 82/68/9 83/62/9 84/69/9
f 85/70/10 86/49/10 88/67/10
f 86/49/10 87/68/10 88/67/10
f 89/71/5 90/72/5 92/74/5
f 90/72/5 91/73/5 92/74/5
f 93/75/6 94/71/6 96/76/6
f 94/71/6 95/74/6 96/76/6
