# Export of Cubik Model: Cubik Model
# Designed by Zhouyi with Cubik Studio - https://cubik.studio
# from Cubik OBJ Exporter v1.0
mtllib tiger_body.mtl
v -10 10.5 -17 1 1 1
v -6 10.5 -17 1 1 1
v -6 10.5 -9 1 1 1
v -10 10.5 -9 1 1 1
v -6 12.5 -17 1 1 1
v -10 12.5 -17 1 1 1
v -10 12.5 -9 1 1 1
v -6 12.5 -9 1 1 1
v -6 12.5 -9 1 1 1
v -10 12.5 -9 1 1 1
v -10 10.5 -9 1 1 1
v -6 10.5 -9 1 1 1
v -10 12.5 -17 1 1 1
v -6 12.5 -17 1 1 1
v -6 10.5 -17 1 1 1
v -10 10.5 -17 1 1 1
v -6 12.5 -17 1 1 1
v -6 12.5 -9 1 1 1
v -6 10.5 -9 1 1 1
v -6 10.5 -17 1 1 1
v -10 12.5 -9 1 1 1
v -10 12.5 -17 1 1 1
v -10 10.5 -17 1 1 1
v -10 10.5 -9 1 1 1
vn 0 -1 0
vn 0 1 0
vn 0 0 1
vn 0 0 -1
vn 1 0 0
vn -1 0 0
vt 0.265625 0.09375
vt 0.25 0.09375
vt 0.25 0.078125
vt 0.265625 0.078125
vt 0.25 0.046875
vt 0.265625 0.046875
vt 0.265625 0.0625
vt 0.25 0.0625
vt 0.4726563 0.0546875
vt 0.4570313 0.0546875
vt 0.4570313 0.05078125
vt 0.4726563 0.05078125
vt 0.4414063 0.0546875
vt 0.4414063 0.05078125
vt 0.0703125 0.125
vt 0.0390625 0.125
vt 0.0390625 0.1210938
vt 0.0703125 0.1210938
vt 0.4570313 0.015625
vt 0.4257813 0.015625
vt 0.4257813 0.01171875
vt 0.4570313 0.01171875
v -11 20 -3.5 1 1 1
v -5 20 -3.5 1 1 1
v -5 20 4.5 1 1 1
v -11 20 4.5 1 1 1
v -5 21 -3.5 1 1 1
v -11 21 -3.5 1 1 1
v -11 21 4.5 1 1 1
v -5 21 4.5 1 1 1
v -5 21 4.5 1 1 1
v -11 21 4.5 1 1 1
v -11 20 4.5 1 1 1
v -5 20 4.5 1 1 1
v -11 21 -3.5 1 1 1
v -5 21 -3.5 1 1 1
v -5 20 -3.5 1 1 1
v -11 20 -3.5 1 1 1
v -5 21 -3.5 1 1 1
v -5 21 4.5 1 1 1
v -5 20 4.5 1 1 1
v -5 20 -3.5 1 1 1
v -11 21 4.5 1 1 1
v -11 21 -3.5 1 1 1
v -11 20 -3.5 1 1 1
v -11 20 4.5 1 1 1
vt 0.25 0.1171875
vt 0.2265625 0.1171875
vt 0.2265625 0.1015625
vt 0.25 0.1015625
vt 0.25 0.03125
vt 0.2734375 0.03125
vt 0.2734375 0.046875
vt 0.3828125 0.05664063
vt 0.359375 0.05664063
vt 0.359375 0.0546875
vt 0.3828125 0.0546875
vt 0.5 0.046875
vt 0.4765625 0.046875
vt 0.4765625 0.04492188
vt 0.5 0.04492188
vt 0.4414063 0.04882813
vt 0.4726563 0.04882813
vt 0.4414063 0.046875
vt 0.4726563 0.046875
v -11.5 12.5 3.5 1 1 1
v -4.5 12.5 3.5 1 1 1
v -4.5 12.5 7.5 1 1 1
v -11.5 12.5 7.5 1 1 1
v -4.5 20.5 3.5 1 1 1
v -11.5 20.5 3.5 1 1 1
v -11.5 20.5 7.5 1 1 1
v -4.5 20.5 7.5 1 1 1
v -4.5 20.5 7.5 1 1 1
v -11.5 20.5 7.5 1 1 1
v -11.5 12.5 7.5 1 1 1
v -4.5 12.5 7.5 1 1 1
v -11.5 20.5 3.5 1 1 1
v -4.5 20.5 3.5 1 1 1
v -4.5 12.5 3.5 1 1 1
v -11.5 12.5 3.5 1 1 1
v -4.5 20.5 3.5 1 1 1
v -4.5 20.5 7.5 1 1 1
v -4.5 12.5 7.5 1 1 1
v -4.5 12.5 3.5 1 1 1
v -11.5 20.5 7.5 1 1 1
v -11.5 20.5 3.5 1 1 1
v -11.5 12.5 3.5 1 1 1
v -11.5 12.5 7.5 1 1 1
vt 0.2773438 0.125
vt 0.25 0.125
vt 0.2773438 0.1171875
vt 0.1679688 0.07226563
vt 0.1953125 0.07226563
vt 0.1953125 0.08007813
vt 0.1679688 0.08007813
vt 0.2773438 0.015625
vt 0.25 0.015625
vt 0.25 0
vt 0.2773438 0
vt 0.2773438 0.03125
vt 0.265625 0.109375
vt 0.25 0.109375
v -11 10 -9 1 1 1
v -5 10 -9 1 1 1
v -5 10 1 1 1 1
v -11 10 1 1 1 1
v -5 11 -9 1 1 1
v -11 11 -9 1 1 1
v -11 11 1 1 1 1
v -5 11 1 1 1 1
v -5 11 1 1 1 1
v -11 11 1 1 1 1
v -11 10 1 1 1 1
v -5 10 1 1 1 1
v -11 11 -9 1 1 1
v -5 11 -9 1 1 1
v -5 10 -9 1 1 1
v -11 10 -9 1 1 1
v -5 11 -9 1 1 1
v -5 11 1 1 1 1
v -5 10 1 1 1 1
v -5 10 -9 1 1 1
v -11 11 1 1 1 1
v -11 11 -9 1 1 1
v -11 10 -9 1 1 1
v -11 10 1 1 1 1
vt 0.21875 0.1054688
vt 0.1953125 0.1054688
vt 0.1953125 0.0859375
vt 0.21875 0.0859375
vt 0.2265625 0.01953125
vt 0.25 0.01953125
vt 0.25 0.0390625
vt 0.2265625 0.0390625
vt 0.5 0.01171875
vt 0.4765625 0.01171875
vt 0.4765625 0.009765625
vt 0.5 0.009765625
vt 0.40625 0.05664063
vt 0.40625 0.0546875
vt 0.4140625 0.046875
vt 0.375 0.046875
vt 0.375 0.04492188
vt 0.4140625 0.04492188
vt 0.3359375 0.046875
vt 0.3359375 0.04492188
v -12 19 -9 1 1 1
v -4 19 -9 1 1 1
v -4 19 5 1 1 1
v -12 19 5 1 1 1
v -4 20 -9 1 1 1
v -12 20 -9 1 1 1
v -12 20 5 1 1 1
v -4 20 5 1 1 1
v -4 20 5 1 1 1
v -12 20 5 1 1 1
v -12 19 5 1 1 1
v -4 19 5 1 1 1
v -12 20 -9 1 1 1
v -4 20 -9 1 1 1
v -4 19 -9 1 1 1
v -12 19 -9 1 1 1
v -4 20 -9 1 1 1
v -4 20 5 1 1 1
v -4 19 5 1 1 1
v -4 19 -9 1 1 1
v -12 20 5 1 1 1
v -12 20 -9 1 1 1
v -12 19 -9 1 1 1
v -12 19 5 1 1 1
vt 0.0390625 0.09375
vt 0.0703125 0.09375
vt 0.0390625 0.06640625
vt 0.0703125 0.06640625
vt 0.1015625 0.125
vt 0.0703125 0.1230469
vt 0.1015625 0.1230469
vt 0.1914063 0.05859375
vt 0.1601563 0.05859375
vt 0.1601563 0.05664063
vt 0.1914063 0.05664063
vt 0.4765625 0.03320313
vt 0.421875 0.03320313
vt 0.421875 0.03125
vt 0.4765625 0.03125
vt 0.4765625 0.03515625
vt 0.421875 0.03515625
v -12 12.5 -11 1 1 1
v -4 12.5 -11 1 1 1
v -4 12.5 6 1 1 1
v -12 12.5 6 1 1 1
v -4 18.5 -11 1 1 1
v -12 18.5 -11 1 1 1
v -12 18.5 6 1 1 1
v -4 18.5 6 1 1 1
v -4 18.5 6 1 1 1
v -12 18.5 6 1 1 1
v -12 12.5 6 1 1 1
v -4 12.5 6 1 1 1
v -12 18.5 -11 1 1 1
v -4 18.5 -11 1 1 1
v -4 12.5 -11 1 1 1
v -12 12.5 -11 1 1 1
v -4 18.5 -11 1 1 1
v -4 18.5 6 1 1 1
v -4 12.5 6 1 1 1
v -4 12.5 -11 1 1 1
v -12 18.5 6 1 1 1
v -12 18.5 -11 1 1 1
v -12 12.5 -11 1 1 1
v -12 12.5 6 1 1 1
vt 0.0390625 0.03320313
vt 0.0703125 0.03320313
vt 0.0390625 0
vt 0.0703125 0
vt 0.1875 0.125
vt 0.15625 0.125
vt 0.15625 0.1132813
vt 0.1875 0.1132813
vt 0.3085938 0.01171875
vt 0.2773438 0.01171875
vt 0.3085938 0
vt 0.1953125 0.0234375
vt 0.1289063 0.0234375
vt 0.1289063 0.01171875
vt 0.1953125 0.01171875
vt 0.1289063 0
vt 0.1953125 0
v -12 11 -10 1 1 1
v -4 11 -10 1 1 1
v -4 11 3 1 1 1
v -12 11 3 1 1 1
v -4 12 -10 1 1 1
v -12 12 -10 1 1 1
v -12 12 3 1 1 1
v -4 12 3 1 1 1
v -4 12 3 1 1 1
v -12 12 3 1 1 1
v -12 11 3 1 1 1
v -4 11 3 1 1 1
v -12 12 -10 1 1 1
v -4 12 -10 1 1 1
v -4 11 -10 1 1 1
v -12 11 -10 1 1 1
v -4 12 -10 1 1 1
v -4 12 3 1 1 1
v -4 11 3 1 1 1
v -4 11 -10 1 1 1
v -12 12 3 1 1 1
v -12 12 -10 1 1 1
v -12 11 -10 1 1 1
v -12 11 3 1 1 1
vt 0.1015625 0.08007813
vt 0.0703125 0.08007813
vt 0.0703125 0.0546875
vt 0.1015625 0.0546875
vt 0.1015625 0.1054688
vt 0.0703125 0.1054688
vt 0.4453125 0.046875
vt 0.4453125 0.04492188
vt 0.4726563 0.03710938
vt 0.421875 0.03710938
vt 0.4726563 0.03515625
vt 0.4726563 0.0390625
vt 0.421875 0.0390625
v -13 12 -10 1 1 1
v -3 12 -10 1 1 1
v -3 12 5 1 1 1
v -13 12 5 1 1 1
v -3 19 -10 1 1 1
v -13 19 -10 1 1 1
v -13 19 5 1 1 1
v -3 19 5 1 1 1
v -3 19 5 1 1 1
v -13 19 5 1 1 1
v -13 12 5 1 1 1
v -3 12 5 1 1 1
v -13 19 -10 1 1 1
v -3 19 -10 1 1 1
v -3 12 -10 1 1 1
v -13 12 -10 1 1 1
v -3 19 -10 1 1 1
v -3 19 5 1 1 1
v -3 12 5 1 1 1
v -3 12 -10 1 1 1
v -13 19 5 1 1 1
v -13 19 -10 1 1 1
v -13 12 -10 1 1 1
v -13 12 5 1 1 1
vt 0.0390625 0.02929688
vt 0 0.02929688
vt 0 0
vt 0 0.08789063
vt 0.0390625 0.08789063
vt 0.0390625 0.1171875
vt 0 0.1171875
vt 0.1289063 0.07226563
vt 0.1289063 0.05859375
vt 0.1679688 0.05859375
vt 0.1679688 0.0859375
vt 0.1289063 0.0859375
vt 0.1289063 0.01367188
vt 0.0703125 0.01367188
vt 0.1289063 0.0546875
vt 0.0703125 0.04101563
vt 0.1289063 0.04101563
v -11 12 -17 1 1 1
v -5 12 -17 1 1 1
v -5 12 -9 1 1 1
v -11 12 -9 1 1 1
v -5 20 -17 1 1 1
v -11 20 -17 1 1 1
v -11 20 -9 1 1 1
v -5 20 -9 1 1 1
v -5 20 -9 1 1 1
v -11 20 -9 1 1 1
v -11 12 -9 1 1 1
v -5 12 -9 1 1 1
v -11 20 -17 1 1 1
v -5 20 -17 1 1 1
v -5 12 -17 1 1 1
v -11 12 -17 1 1 1
v -5 20 -17 1 1 1
v -5 20 -9 1 1 1
v -5 12 -9 1 1 1
v -5 12 -17 1 1 1
v -11 20 -9 1 1 1
v -11 20 -17 1 1 1
v -11 12 -17 1 1 1
v -11 12 -9 1 1 1
vt 0.2265625 0.0859375
vt 0.25 0.0859375
vt 0.2265625 0.0703125
vt 0.25 0.0703125
vt 0.2265625 0.0546875
vt 0.25 0.0546875
vt 0.1601563 0.04101563
vt 0.1914063 0.04101563
vt 0.2265625 0.046875
vt 0.1953125 0.046875
vt 0.1953125 0.03125
vt 0.2265625 0.03125
v -12 8.938533 -20.89104 1 1 1
v -4 8.938533 -20.89104 1 1 1
v -4 12 -13.5 1 1 1
v -12 12 -13.5 1 1 1
v -4 17.25345 -24.33519 1 1 1
v -12 17.25345 -24.33519 1 1 1
v -12 20.31491 -16.94415 1 1 1
v -4 20.31491 -16.94415 1 1 1
v -4 20.31491 -16.94415 1 1 1
v -12 20.31491 -16.94415 1 1 1
v -12 12 -13.5 1 1 1
v -4 12 -13.5 1 1 1
v -12 17.25345 -24.33519 1 1 1
v -4 17.25345 -24.33519 1 1 1
v -4 8.938533 -20.89104 1 1 1
v -12 8.938533 -20.89104 1 1 1
v -4 17.25345 -24.33519 1 1 1
v -4 20.31491 -16.94415 1 1 1
v -4 12 -13.5 1 1 1
v -4 8.938533 -20.89104 1 1 1
v -12 20.31491 -16.94415 1 1 1
v -12 17.25345 -24.33519 1 1 1
v -12 8.938533 -20.89104 1 1 1
v -12 12 -13.5 1 1 1
vn 0 -0.9238796 0.3826834
vn 0 0.9238796 -0.3826834
vn 0 0.3826834 0.9238796
vn 0 -0.3826834 -0.9238796
vt 0.1953125 0.015625
vt 0.2265625 0.015625
vt 0.2265625 0
vt 0.1601563 0.0234375
vt 0.1914063 0.0234375
g Element #3
usemtl Element
f 1/1/1 2/2/1 4/4/1
f 2/2/1 3/3/1 4/4/1
f 5/5/2 6/6/2 8/8/2
f 6/6/2 7/7/2 8/8/2
f 9/9/3 10/10/3 12/12/3
f 10/10/3 11/11/3 12/12/3
f 13/10/4 14/13/4 16/11/4
f 14/13/4 15/14/4 16/11/4
f 17/15/5 18/16/5 20/18/5
f 18/16/5 19/17/5 20/18/5
f 21/19/6 22/20/6 24/22/6
f 22/20/6 23/21/6 24/22/6
g Element #4
usemtl Element
f 25/23/1 26/24/1 28/26/1
f 26/24/1 27/25/1 28/26/1
f 29/27/2 30/28/2 32/5/2
f 30/28/2 31/29/2 32/5/2
f 33/30/3 34/31/3 36/33/3
f 34/31/3 35/32/3 36/33/3
f 37/34/4 38/35/4 40/37/4
f 38/35/4 39/36/4 40/37/4
f 41/12/5 42/14/5 44/39/5
f 42/14/5 43/38/5 44/39/5
f 45/39/6 46/38/6 48/41/6
f 46/38/6 47/40/6 48/41/6
g Element #10
usemtl Element
f 49/42/1 50/43/1 52/44/1
f 50/43/1 51/23/1 52/44/1
f 53/45/2 54/46/2 56/48/2
f 54/46/2 55/47/2 56/48/2
f 57/49/3 58/50/3 60/52/3
f 58/50/3 59/51/3 60/52/3
f 61/53/4 62/27/4 64/49/4
f 62/27/4 63/50/4 64/49/4
f 65/4/5 66/3/5 68/7/5
f 66/3/5 67/8/5 68/7/5
f 69/54/6 70/55/6 72/1/6
f 70/55/6 71/2/6 72/1/6
g Element #17
usemtl Element
f 73/56/1 74/57/1 76/59/1
f 74/57/1 75/58/1 76/59/1
f 77/60/2 78/61/2 80/63/2
f 78/61/2 79/62/2 80/63/2
f 81/64/3 82/65/3 84/67/3
f 82/65/3 83/66/3 84/67/3
f 85/68/4 86/30/4 88/69/4
f 86/30/4 87/33/4 88/69/4
f 89/70/5 90/71/5 92/73/5
f 90/71/5 91/72/5 92/73/5
f 93/71/6 94/74/6 96/72/6
f 94/74/6 95/75/6 96/72/6
g Element #18
usemtl Element
f 97/18/1 98/17/1 100/77/1
f 98/17/1 99/76/1 100/77/1
f 101/78/2 102/79/2 104/76/2
f 102/79/2 103/77/2 104/76/2
f 105/80/3 106/15/3 108/82/3
f 106/15/3 107/81/3 108/82/3
f 109/83/4 110/84/4 112/86/4
f 110/84/4 111/85/4 112/86/4
f 113/87/5 114/88/5 116/90/5
f 114/88/5 115/89/5 116/90/5
f 117/91/6 118/92/6 120/87/6
f 118/92/6 119/88/6 120/87/6
g Element #22
usemtl Element
f 121/79/1 122/78/1 124/94/1
f 122/78/1 123/93/1 124/94/1
f 125/95/2 126/96/2 128/93/2
f 126/96/2 127/94/2 128/93/2
f 129/97/3 130/98/3 132/100/3
f 130/98/3 131/99/3 132/100/3
f 133/101/4 134/102/4 136/103/4
f 134/102/4 135/52/4 136/103/4
f 137/104/5 138/105/5 140/107/5
f 138/105/5 139/106/5 140/107/5
f 141/107/6 142/106/6 144/109/6
f 142/106/6 143/108/6 144/109/6
g Element #23
usemtl Element
f 145/110/1 146/111/1 148/113/1
f 146/111/1 147/112/1 148/113/1
f 149/111/2 150/110/2 152/115/2
f 150/110/2 151/114/2 152/115/2
f 153/116/3 154/70/3 156/117/3
f 154/70/3 155/73/3 156/117/3
f 157/35/4 158/116/4 160/36/4
f 158/116/4 159/117/4 160/36/4
f 161/118/5 162/119/5 164/120/5
f 162/119/5 163/92/5 164/120/5
f 165/121/6 166/122/6 168/118/6
f 166/122/6 167/119/6 168/118/6
g Element #24
usemtl Element
f 169/123/1 170/124/1 172/95/1
f 170/124/1 171/125/1 172/95/1
f 173/126/2 174/127/2 176/129/2
f 174/127/2 175/128/2 176/129/2
f 177/45/3 178/130/3 180/132/3
f 178/130/3 179/131/3 180/132/3
f 181/133/4 182/134/4 184/45/4
f 182/134/4 183/130/4 184/45/4
f 185/135/5 186/136/5 188/108/5
f 186/136/5 187/96/5 188/108/5
f 189/137/6 190/112/6 192/139/6
f 190/112/6 191/138/6 192/139/6
g Element #31
usemtl Element
f 193/26/1 194/25/1 196/141/1
f 194/25/1 195/140/1 196/141/1
f 197/142/2 198/143/2 200/140/2
f 198/143/2 199/141/2 200/140/2
f 201/143/3 202/142/3 204/145/3
f 202/142/3 203/144/3 204/145/3
f 205/145/4 206/144/4 208/62/4
f 206/144/4 207/63/4 208/62/4
f 209/86/5 210/85/5 212/147/5
f 210/85/5 211/146/5 212/147/5
f 213/148/6 214/149/6 216/151/6
f 214/149/6 215/150/6 216/151/6
g Element #32
usemtl Element
f 217/151/7 218/150/7 220/153/7
f 218/150/7 219/152/7 220/153/7
f 221/109/8 222/154/8 224/152/8
f 222/154/8 223/153/8 224/152/8
f 225/84/9 226/131/9 228/146/9
f 226/131/9 227/139/9 228/146/9
f 229/147/10 230/146/10 232/156/10
f 230/146/10 231/155/10 232/156/10
f 233/146/5 234/139/5 236/155/5
f 234/139/5 235/105/5 236/155/5
f 237/82/6 238/81/6 240/114/6
f 238/81/6 239/115/6 240/114/6
